<svg width="241" height="48" viewBox="0 0 241 48" fill="none" xmlns="http://www.w3.org/2000/svg">
<g filter="url(#filter0_d_418_106)">
<circle cx="207" cy="10" r="9.5" fill="black" stroke="white"/>
</g>
<g filter="url(#filter1_d_418_106)">
<circle cx="227" cy="30" r="9.5" transform="rotate(-90 227 30)" fill="white" stroke="black"/>
</g>
<g filter="url(#filter2_d_418_106)">
<mask id="path-3-outside-1_418_106" maskUnits="userSpaceOnUse" x="13" y="3" width="171" height="34" fill="black">
<rect fill="white" x="13" y="3" width="171" height="34"/>
<path d="M14.9791 35V4.45454H25.3002C27.6865 4.45454 29.6453 4.86221 31.1766 5.67756C32.7078 6.48295 33.8414 7.59162 34.5771 9.00355C35.3129 10.4155 35.6808 12.0213 35.6808 13.821C35.6808 15.6207 35.3129 17.2166 34.5771 18.6087C33.8414 20.0007 32.7128 21.0945 31.1915 21.8899C29.6702 22.6754 27.7263 23.0682 25.3598 23.0682H17.0075V19.7273H25.2405C26.8712 19.7273 28.1837 19.4886 29.178 19.0114C30.1823 18.5341 30.9081 17.858 31.3556 16.983C31.8129 16.098 32.0416 15.044 32.0416 13.821C32.0416 12.598 31.8129 11.5291 31.3556 10.6143C30.8982 9.69957 30.1673 8.99361 29.1631 8.49645C28.1588 7.98935 26.8314 7.73579 25.1808 7.73579H18.678V35H14.9791ZM29.357 21.2784L36.874 35H32.5786L25.1808 21.2784H29.357ZM50.7261 35.4773C48.5187 35.4773 46.6146 34.9901 45.0138 34.0156C43.4229 33.0312 42.1949 31.6591 41.3298 29.8991C40.4747 28.1293 40.0471 26.071 40.0471 23.7244C40.0471 21.3778 40.4747 19.3097 41.3298 17.5199C42.1949 15.7202 43.398 14.3182 44.9392 13.3139C46.4903 12.2997 48.3 11.7926 50.3682 11.7926C51.5613 11.7926 52.7396 11.9915 53.903 12.3892C55.0663 12.7869 56.1253 13.4332 57.0798 14.3281C58.0344 15.2131 58.795 16.3864 59.3618 17.848C59.9285 19.3097 60.2119 21.1094 60.2119 23.2472V24.7386H42.5528V21.696H56.6324C56.6324 20.4034 56.3738 19.25 55.8568 18.2358C55.3497 17.2216 54.6238 16.4212 53.6792 15.8345C52.7446 15.2479 51.6409 14.9545 50.3682 14.9545C48.9662 14.9545 47.7531 15.3026 46.729 15.9986C45.7148 16.6847 44.9342 17.5795 44.3873 18.6832C43.8405 19.7869 43.567 20.9702 43.567 22.233V24.2614C43.567 25.9915 43.8653 27.4581 44.4619 28.6612C45.0684 29.8544 45.9086 30.7642 46.9825 31.3906C48.0564 32.0071 49.3042 32.3153 50.7261 32.3153C51.6508 32.3153 52.4861 32.1861 53.2318 31.9276C53.9875 31.6591 54.6388 31.2614 55.1856 30.7344C55.7325 30.1974 56.1551 29.5312 56.4534 28.7358L59.854 29.6903C59.496 30.8438 58.8944 31.858 58.0493 32.733C57.2041 33.598 56.1601 34.2741 54.9172 34.7614C53.6743 35.2386 52.2773 35.4773 50.7261 35.4773ZM83.602 12.0909L75.1304 35H71.5509L63.0793 12.0909H66.8975L73.2213 30.3466H73.46L79.7838 12.0909H83.602ZM97.0328 35.4773C94.8254 35.4773 92.9213 34.9901 91.3204 34.0156C89.7295 33.0312 88.5015 31.6591 87.6365 29.8991C86.7813 28.1293 86.3538 26.071 86.3538 23.7244C86.3538 21.3778 86.7813 19.3097 87.6365 17.5199C88.5015 15.7202 89.7046 14.3182 91.2458 13.3139C92.797 12.2997 94.6066 11.7926 96.6748 11.7926C97.868 11.7926 99.0463 11.9915 100.21 12.3892C101.373 12.7869 102.432 13.4332 103.386 14.3281C104.341 15.2131 105.102 16.3864 105.668 17.848C106.235 19.3097 106.519 21.1094 106.519 23.2472V24.7386H88.8595V21.696H102.939C102.939 20.4034 102.68 19.25 102.163 18.2358C101.656 17.2216 100.93 16.4212 99.9859 15.8345C99.0512 15.2479 97.9475 14.9545 96.6748 14.9545C95.2728 14.9545 94.0597 15.3026 93.0356 15.9986C92.0214 16.6847 91.2409 17.5795 90.694 18.6832C90.1471 19.7869 89.8737 20.9702 89.8737 22.233V24.2614C89.8737 25.9915 90.172 27.4581 90.7686 28.6612C91.3751 29.8544 92.2153 30.7642 93.2892 31.3906C94.363 32.0071 95.6109 32.3153 97.0328 32.3153C97.9575 32.3153 98.7927 32.1861 99.5384 31.9276C100.294 31.6591 100.945 31.2614 101.492 30.7344C102.039 30.1974 102.462 29.5312 102.76 28.7358L106.161 29.6903C105.803 30.8438 105.201 31.858 104.356 32.733C103.511 33.598 102.467 34.2741 101.224 34.7614C99.9809 35.2386 98.5839 35.4773 97.0328 35.4773ZM111.873 35V12.0909H115.274V15.5511H115.512C115.93 14.4176 116.685 13.4979 117.779 12.7919C118.873 12.0859 120.106 11.733 121.478 11.733C121.737 11.733 122.06 11.7379 122.448 11.7479C122.835 11.7578 123.129 11.7727 123.328 11.7926V15.3722C123.208 15.3423 122.935 15.2976 122.507 15.2379C122.09 15.1683 121.647 15.1335 121.18 15.1335C120.066 15.1335 119.072 15.3672 118.197 15.8345C117.332 16.2919 116.646 16.9283 116.139 17.7436C115.641 18.549 115.393 19.4687 115.393 20.5028V35H111.873ZM143.727 17.2216L140.565 18.1165C140.366 17.5895 140.073 17.0774 139.685 16.5803C139.307 16.0732 138.79 15.6555 138.134 15.3274C137.478 14.9993 136.638 14.8352 135.614 14.8352C134.212 14.8352 133.043 15.1584 132.109 15.8047C131.184 16.4411 130.722 17.2514 130.722 18.2358C130.722 19.1108 131.04 19.8018 131.676 20.3089C132.312 20.8161 133.307 21.2386 134.659 21.5767L138.06 22.4119C140.108 22.9091 141.634 23.6697 142.638 24.6939C143.643 25.7081 144.145 27.0156 144.145 28.6165C144.145 29.929 143.767 31.1023 143.011 32.1364C142.266 33.1705 141.222 33.9858 139.879 34.5824C138.537 35.179 136.976 35.4773 135.196 35.4773C132.859 35.4773 130.925 34.9702 129.394 33.956C127.863 32.9418 126.893 31.4602 126.486 29.5114L129.827 28.6761C130.145 29.9091 130.746 30.8338 131.631 31.4503C132.526 32.0668 133.695 32.375 135.136 32.375C136.777 32.375 138.079 32.027 139.044 31.331C140.018 30.625 140.506 29.7798 140.506 28.7955C140.506 28 140.227 27.3338 139.67 26.7969C139.114 26.25 138.258 25.8423 137.105 25.5739L133.287 24.679C131.189 24.1818 129.648 23.4112 128.663 22.3672C127.689 21.3132 127.202 19.9957 127.202 18.4148C127.202 17.1222 127.565 15.9787 128.29 14.9844C129.026 13.9901 130.025 13.2095 131.288 12.6428C132.561 12.076 134.003 11.7926 135.614 11.7926C137.881 11.7926 139.66 12.2898 140.953 13.2841C142.256 14.2784 143.18 15.5909 143.727 17.2216ZM151.173 35H147.296L158.511 4.45454H162.33L173.546 35H169.668L160.54 9.28693H160.301L151.173 35ZM152.605 23.0682H168.236V26.3494H152.605V23.0682ZM182.002 4.45454V35H178.303V4.45454H182.002Z"/>
</mask>
<path d="M14.9791 35V4.45454H25.3002C27.6865 4.45454 29.6453 4.86221 31.1766 5.67756C32.7078 6.48295 33.8414 7.59162 34.5771 9.00355C35.3129 10.4155 35.6808 12.0213 35.6808 13.821C35.6808 15.6207 35.3129 17.2166 34.5771 18.6087C33.8414 20.0007 32.7128 21.0945 31.1915 21.8899C29.6702 22.6754 27.7263 23.0682 25.3598 23.0682H17.0075V19.7273H25.2405C26.8712 19.7273 28.1837 19.4886 29.178 19.0114C30.1823 18.5341 30.9081 17.858 31.3556 16.983C31.8129 16.098 32.0416 15.044 32.0416 13.821C32.0416 12.598 31.8129 11.5291 31.3556 10.6143C30.8982 9.69957 30.1673 8.99361 29.1631 8.49645C28.1588 7.98935 26.8314 7.73579 25.1808 7.73579H18.678V35H14.9791ZM29.357 21.2784L36.874 35H32.5786L25.1808 21.2784H29.357ZM50.7261 35.4773C48.5187 35.4773 46.6146 34.9901 45.0138 34.0156C43.4229 33.0312 42.1949 31.6591 41.3298 29.8991C40.4747 28.1293 40.0471 26.071 40.0471 23.7244C40.0471 21.3778 40.4747 19.3097 41.3298 17.5199C42.1949 15.7202 43.398 14.3182 44.9392 13.3139C46.4903 12.2997 48.3 11.7926 50.3682 11.7926C51.5613 11.7926 52.7396 11.9915 53.903 12.3892C55.0663 12.7869 56.1253 13.4332 57.0798 14.3281C58.0344 15.2131 58.795 16.3864 59.3618 17.848C59.9285 19.3097 60.2119 21.1094 60.2119 23.2472V24.7386H42.5528V21.696H56.6324C56.6324 20.4034 56.3738 19.25 55.8568 18.2358C55.3497 17.2216 54.6238 16.4212 53.6792 15.8345C52.7446 15.2479 51.6409 14.9545 50.3682 14.9545C48.9662 14.9545 47.7531 15.3026 46.729 15.9986C45.7148 16.6847 44.9342 17.5795 44.3873 18.6832C43.8405 19.7869 43.567 20.9702 43.567 22.233V24.2614C43.567 25.9915 43.8653 27.4581 44.4619 28.6612C45.0684 29.8544 45.9086 30.7642 46.9825 31.3906C48.0564 32.0071 49.3042 32.3153 50.7261 32.3153C51.6508 32.3153 52.4861 32.1861 53.2318 31.9276C53.9875 31.6591 54.6388 31.2614 55.1856 30.7344C55.7325 30.1974 56.1551 29.5312 56.4534 28.7358L59.854 29.6903C59.496 30.8438 58.8944 31.858 58.0493 32.733C57.2041 33.598 56.1601 34.2741 54.9172 34.7614C53.6743 35.2386 52.2773 35.4773 50.7261 35.4773ZM83.602 12.0909L75.1304 35H71.5509L63.0793 12.0909H66.8975L73.2213 30.3466H73.46L79.7838 12.0909H83.602ZM97.0328 35.4773C94.8254 35.4773 92.9213 34.9901 91.3204 34.0156C89.7295 33.0312 88.5015 31.6591 87.6365 29.8991C86.7813 28.1293 86.3538 26.071 86.3538 23.7244C86.3538 21.3778 86.7813 19.3097 87.6365 17.5199C88.5015 15.7202 89.7046 14.3182 91.2458 13.3139C92.797 12.2997 94.6066 11.7926 96.6748 11.7926C97.868 11.7926 99.0463 11.9915 100.21 12.3892C101.373 12.7869 102.432 13.4332 103.386 14.3281C104.341 15.2131 105.102 16.3864 105.668 17.848C106.235 19.3097 106.519 21.1094 106.519 23.2472V24.7386H88.8595V21.696H102.939C102.939 20.4034 102.68 19.25 102.163 18.2358C101.656 17.2216 100.93 16.4212 99.9859 15.8345C99.0512 15.2479 97.9475 14.9545 96.6748 14.9545C95.2728 14.9545 94.0597 15.3026 93.0356 15.9986C92.0214 16.6847 91.2409 17.5795 90.694 18.6832C90.1471 19.7869 89.8737 20.9702 89.8737 22.233V24.2614C89.8737 25.9915 90.172 27.4581 90.7686 28.6612C91.3751 29.8544 92.2153 30.7642 93.2892 31.3906C94.363 32.0071 95.6109 32.3153 97.0328 32.3153C97.9575 32.3153 98.7927 32.1861 99.5384 31.9276C100.294 31.6591 100.945 31.2614 101.492 30.7344C102.039 30.1974 102.462 29.5312 102.76 28.7358L106.161 29.6903C105.803 30.8438 105.201 31.858 104.356 32.733C103.511 33.598 102.467 34.2741 101.224 34.7614C99.9809 35.2386 98.5839 35.4773 97.0328 35.4773ZM111.873 35V12.0909H115.274V15.5511H115.512C115.93 14.4176 116.685 13.4979 117.779 12.7919C118.873 12.0859 120.106 11.733 121.478 11.733C121.737 11.733 122.06 11.7379 122.448 11.7479C122.835 11.7578 123.129 11.7727 123.328 11.7926V15.3722C123.208 15.3423 122.935 15.2976 122.507 15.2379C122.09 15.1683 121.647 15.1335 121.18 15.1335C120.066 15.1335 119.072 15.3672 118.197 15.8345C117.332 16.2919 116.646 16.9283 116.139 17.7436C115.641 18.549 115.393 19.4687 115.393 20.5028V35H111.873ZM143.727 17.2216L140.565 18.1165C140.366 17.5895 140.073 17.0774 139.685 16.5803C139.307 16.0732 138.79 15.6555 138.134 15.3274C137.478 14.9993 136.638 14.8352 135.614 14.8352C134.212 14.8352 133.043 15.1584 132.109 15.8047C131.184 16.4411 130.722 17.2514 130.722 18.2358C130.722 19.1108 131.04 19.8018 131.676 20.3089C132.312 20.8161 133.307 21.2386 134.659 21.5767L138.06 22.4119C140.108 22.9091 141.634 23.6697 142.638 24.6939C143.643 25.7081 144.145 27.0156 144.145 28.6165C144.145 29.929 143.767 31.1023 143.011 32.1364C142.266 33.1705 141.222 33.9858 139.879 34.5824C138.537 35.179 136.976 35.4773 135.196 35.4773C132.859 35.4773 130.925 34.9702 129.394 33.956C127.863 32.9418 126.893 31.4602 126.486 29.5114L129.827 28.6761C130.145 29.9091 130.746 30.8338 131.631 31.4503C132.526 32.0668 133.695 32.375 135.136 32.375C136.777 32.375 138.079 32.027 139.044 31.331C140.018 30.625 140.506 29.7798 140.506 28.7955C140.506 28 140.227 27.3338 139.67 26.7969C139.114 26.25 138.258 25.8423 137.105 25.5739L133.287 24.679C131.189 24.1818 129.648 23.4112 128.663 22.3672C127.689 21.3132 127.202 19.9957 127.202 18.4148C127.202 17.1222 127.565 15.9787 128.29 14.9844C129.026 13.9901 130.025 13.2095 131.288 12.6428C132.561 12.076 134.003 11.7926 135.614 11.7926C137.881 11.7926 139.66 12.2898 140.953 13.2841C142.256 14.2784 143.18 15.5909 143.727 17.2216ZM151.173 35H147.296L158.511 4.45454H162.33L173.546 35H169.668L160.54 9.28693H160.301L151.173 35ZM152.605 23.0682H168.236V26.3494H152.605V23.0682ZM182.002 4.45454V35H178.303V4.45454H182.002Z" fill="white"/>
<path d="M14.9791 35H13.9791V36H14.9791V35ZM14.9791 4.45454V3.45454H13.9791V4.45454H14.9791ZM31.1766 5.67756L30.7066 6.56024L30.7111 6.5626L31.1766 5.67756ZM34.5771 9.00355L33.6903 9.46569V9.46569L34.5771 9.00355ZM34.5771 18.6087L33.6931 18.1414V18.1414L34.5771 18.6087ZM31.1915 21.8899L31.6503 22.7785L31.6549 22.7761L31.1915 21.8899ZM17.0075 23.0682H16.0075V24.0682H17.0075V23.0682ZM17.0075 19.7273V18.7273H16.0075V19.7273H17.0075ZM29.178 19.0114L28.7488 18.1082L28.7453 18.1098L29.178 19.0114ZM31.3556 16.983L30.4672 16.5238L30.4652 16.5277L31.3556 16.983ZM29.1631 8.49645L28.7123 9.38913L28.7194 9.39264L29.1631 8.49645ZM18.678 7.73579V6.73579H17.678V7.73579H18.678ZM18.678 35V36H19.678V35H18.678ZM29.357 21.2784L30.234 20.798L29.9494 20.2784H29.357V21.2784ZM36.874 35V36H38.5621L37.751 34.5195L36.874 35ZM32.5786 35L31.6983 35.4746L31.9816 36H32.5786V35ZM25.1808 21.2784V20.2784H23.5056L24.3006 21.753L25.1808 21.2784ZM15.9791 35V4.45454H13.9791V35H15.9791ZM14.9791 5.45454H25.3002V3.45454H14.9791V5.45454ZM25.3002 5.45454C27.5811 5.45454 29.3641 5.84538 30.7066 6.56023L31.6466 4.79489C29.9266 3.87905 27.792 3.45454 25.3002 3.45454V5.45454ZM30.7111 6.5626C32.0785 7.28183 33.0569 8.25009 33.6903 9.46569L35.464 8.54141C34.6259 6.93315 33.3372 5.68408 31.6421 4.79251L30.7111 6.5626ZM33.6903 9.46569C34.3426 10.7172 34.6808 12.161 34.6808 13.821H36.6808C36.6808 11.8816 36.2833 10.1137 35.464 8.54141L33.6903 9.46569ZM34.6808 13.821C34.6808 15.4813 34.3425 16.9127 33.6931 18.1414L35.4612 19.076C36.2834 17.5205 36.6808 15.7601 36.6808 13.821H34.6808ZM33.6931 18.1414C33.0604 19.3382 32.087 20.2932 30.7281 21.0037L31.6549 22.7761C33.3386 21.8957 34.6223 20.6632 35.4612 19.076L33.6931 18.1414ZM30.7327 21.0014C29.3969 21.6911 27.6244 22.0682 25.3598 22.0682V24.0682C27.8282 24.0682 29.9435 23.6598 31.6503 22.7785L30.7327 21.0014ZM25.3598 22.0682H17.0075V24.0682H25.3598V22.0682ZM18.0075 23.0682V19.7273H16.0075V23.0682H18.0075ZM17.0075 20.7273H25.2405V18.7273H17.0075V20.7273ZM25.2405 20.7273C26.9552 20.7273 28.4325 20.4784 29.6107 19.9129L28.7453 18.1098C27.9349 18.4988 26.7872 18.7273 25.2405 18.7273V20.7273ZM29.6072 19.9146C30.7829 19.3558 31.6852 18.5346 32.2459 17.4382L30.4652 16.5277C30.131 17.1813 29.5816 17.7123 28.7488 18.1082L29.6072 19.9146ZM32.2439 17.4421C32.7895 16.3865 33.0416 15.168 33.0416 13.821H31.0416C31.0416 14.9201 30.8364 15.8095 30.4672 16.5238L32.2439 17.4421ZM33.0416 13.821C33.0416 12.4729 32.7891 11.2454 32.25 10.1671L30.4611 11.0616C30.8368 11.8128 31.0416 12.7231 31.0416 13.821H33.0416ZM32.25 10.1671C31.6858 9.03879 30.7864 8.18424 29.6067 7.60025L28.7194 9.39264C29.5483 9.80298 30.1105 10.3604 30.4611 11.0616L32.25 10.1671ZM29.6138 7.6038C28.4199 7.00092 26.9204 6.73579 25.1808 6.73579V8.73579C26.7424 8.73579 27.8978 8.97777 28.7123 9.3891L29.6138 7.6038ZM25.1808 6.73579H18.678V8.73579H25.1808V6.73579ZM17.678 7.73579V35H19.678V7.73579H17.678ZM18.678 34H14.9791V36H18.678V34ZM28.48 21.7589L35.997 35.4805L37.751 34.5195L30.234 20.798L28.48 21.7589ZM36.874 34H32.5786V36H36.874V34ZM33.4588 34.5254L26.0611 20.8039L24.3006 21.753L31.6983 35.4746L33.4588 34.5254ZM25.1808 22.2784H29.357V20.2784H25.1808V22.2784ZM45.0138 34.0156L44.4876 34.866L44.4938 34.8698L45.0138 34.0156ZM41.3298 29.8991L40.4294 30.3342L40.4324 30.3403L41.3298 29.8991ZM41.3298 17.5199L40.4285 17.0867L40.4275 17.0888L41.3298 17.5199ZM44.9392 13.3139L45.4851 14.1517L45.4864 14.1509L44.9392 13.3139ZM53.903 12.3892L54.2265 11.443V11.443L53.903 12.3892ZM57.0798 14.3281L56.3959 15.0577L56.3999 15.0615L57.0798 14.3281ZM59.3618 17.848L60.2941 17.4865V17.4865L59.3618 17.848ZM60.2119 24.7386V25.7386H61.2119V24.7386H60.2119ZM42.5528 24.7386H41.5528V25.7386H42.5528V24.7386ZM42.5528 21.696V20.696H41.5528V21.696H42.5528ZM56.6324 21.696V22.696H57.6324V21.696H56.6324ZM55.8568 18.2358L54.9623 18.683L54.9659 18.69L55.8568 18.2358ZM53.6792 15.8345L53.1476 16.6815L53.1517 16.684L53.6792 15.8345ZM46.729 15.9986L47.2893 16.8269L47.291 16.8257L46.729 15.9986ZM44.3873 18.6832L43.4913 18.2393L44.3873 18.6832ZM44.4619 28.6612L43.566 29.1055L43.5705 29.1144L44.4619 28.6612ZM46.9825 31.3906L46.4786 32.2544L46.4846 32.2579L46.9825 31.3906ZM53.2318 31.9276L53.5594 32.8724L53.5666 32.8699L53.2318 31.9276ZM55.1856 30.7344L55.8796 31.4545L55.8862 31.4479L55.1856 30.7344ZM56.4534 28.7358L56.7236 27.773L55.8395 27.5248L55.5171 28.3847L56.4534 28.7358ZM59.854 29.6903L60.809 29.9867L61.1136 29.0053L60.1242 28.7276L59.854 29.6903ZM58.0493 32.733L58.7646 33.4318L58.7685 33.4277L58.0493 32.733ZM54.9172 34.7614L55.2757 35.6949L55.2821 35.6924L54.9172 34.7614ZM50.7261 34.4773C48.6691 34.4773 46.9519 34.0247 45.5337 33.1614L44.4938 34.8698C46.2773 35.9554 48.3683 36.4773 50.7261 36.4773V34.4773ZM45.5399 33.1652C44.1167 32.2846 43.0136 31.0579 42.2273 29.458L40.4324 30.3403C41.3761 32.2603 42.729 33.7779 44.4876 34.866L45.5399 33.1652ZM42.2302 29.4641C41.4522 27.8537 41.0471 25.9492 41.0471 23.7244H39.0471C39.0471 26.1928 39.4972 28.4048 40.4294 30.3342L42.2302 29.4641ZM41.0471 23.7244C41.0471 21.5 41.452 19.5837 42.2321 17.951L40.4275 17.0888C39.4974 19.0356 39.0471 21.2557 39.0471 23.7244H41.0471ZM42.2311 17.9531C43.0239 16.3036 44.1102 15.0477 45.4851 14.1517L44.3932 12.4761C42.6858 13.5887 41.3658 15.1367 40.4285 17.0867L42.2311 17.9531ZM45.4864 14.1509C46.8564 13.2551 48.471 12.7926 50.3682 12.7926V10.7926C48.1289 10.7926 46.1243 11.3443 44.3919 12.4769L45.4864 14.1509ZM50.3682 12.7926C51.448 12.7926 52.517 12.9722 53.5795 13.3354L54.2265 11.443C52.9622 11.0107 51.6747 10.7926 50.3682 10.7926V12.7926ZM53.5795 13.3354C54.6002 13.6844 55.538 14.2534 56.3959 15.0577L57.7638 13.5986C56.7125 12.6131 55.5325 11.8895 54.2265 11.443L53.5795 13.3354ZM56.3999 15.0615C57.2227 15.8243 57.9064 16.8608 58.4294 18.2095L60.2941 17.4865C59.6836 15.9119 58.846 14.6019 57.7597 13.5948L56.3999 15.0615ZM58.4294 18.2095C58.9384 19.5223 59.2119 21.191 59.2119 23.2472H61.2119C61.2119 21.0278 60.9186 19.097 60.2941 17.4865L58.4294 18.2095ZM59.2119 23.2472V24.7386H61.2119V23.2472H59.2119ZM60.2119 23.7386H42.5528V25.7386H60.2119V23.7386ZM43.5528 24.7386V21.696H41.5528V24.7386H43.5528ZM42.5528 22.696H56.6324V20.696H42.5528V22.696ZM57.6324 21.696C57.6324 20.2671 57.3456 18.9545 56.7477 17.7816L54.9659 18.69C55.402 19.5455 55.6324 20.5397 55.6324 21.696H57.6324ZM56.7512 17.7886C56.1631 16.6124 55.3118 15.6713 54.2068 14.985L53.1517 16.684C53.9359 17.1711 54.5363 17.8308 54.9624 18.683L56.7512 17.7886ZM54.2109 14.9875C53.0937 14.2863 51.7995 13.9545 50.3682 13.9545V15.9545C51.4823 15.9545 52.3955 16.2094 53.1476 16.6815L54.2109 14.9875ZM50.3682 13.9545C48.7931 13.9545 47.3781 14.3483 46.1669 15.1715L47.291 16.8257C48.1281 16.2568 49.1392 15.9545 50.3682 15.9545V13.9545ZM46.1687 15.1703C45.0103 15.9539 44.1145 16.9816 43.4913 18.2393L45.2834 19.1272C45.7539 18.1775 46.4192 17.4154 47.2893 16.8269L46.1687 15.1703ZM43.4913 18.2393C42.8743 19.4845 42.567 20.8202 42.567 22.233H44.567C44.567 21.1202 44.8066 20.0893 45.2834 19.1272L43.4913 18.2393ZM42.567 22.233V24.2614H44.567V22.233H42.567ZM42.567 24.2614C42.567 26.1026 42.8841 27.7303 43.566 29.1055L45.3578 28.217C44.8465 27.1859 44.567 25.8803 44.567 24.2614H42.567ZM43.5705 29.1144C44.2571 30.4651 45.226 31.5237 46.4786 32.2544L47.4864 30.5268C46.5913 30.0047 45.8798 29.2437 45.3534 28.2081L43.5705 29.1144ZM46.4846 32.2579C47.7313 32.9735 49.1558 33.3153 50.7261 33.3153V31.3153C49.4527 31.3153 48.3815 31.0407 47.4804 30.5234L46.4846 32.2579ZM50.7261 33.3153C51.7436 33.3153 52.6919 33.1731 53.5593 32.8724L52.9043 30.9827C52.2802 31.1991 51.558 31.3153 50.7261 31.3153V33.3153ZM53.5666 32.8699C54.4488 32.5564 55.2244 32.0857 55.8795 31.4545L54.4917 30.0143C54.0531 30.437 53.5262 30.7617 52.897 30.9853L53.5666 32.8699ZM55.8862 31.4479C56.548 30.7982 57.0458 30.004 57.3897 29.0869L55.5171 28.3847C55.2644 29.0585 54.917 29.5967 54.485 30.0208L55.8862 31.4479ZM56.1831 29.6986L59.5837 30.6531L60.1242 28.7276L56.7236 27.773L56.1831 29.6986ZM58.8989 29.3939C58.5877 30.3968 58.0673 31.2749 57.33 32.0382L58.7685 33.4277C59.7215 32.441 60.4044 31.2907 60.809 29.9867L58.8989 29.3939ZM57.334 32.0341C56.5977 32.7877 55.677 33.3894 54.5522 33.8303L55.2821 35.6924C56.6431 35.1589 57.8105 34.4083 58.7646 33.4318L57.334 32.0341ZM54.5587 33.8278C53.4474 34.2546 52.1746 34.4773 50.7261 34.4773V36.4773C52.3799 36.4773 53.9011 36.2227 55.2757 35.6949L54.5587 33.8278ZM83.602 12.0909L84.5399 12.4377L85.038 11.0909H83.602V12.0909ZM75.1304 35V36H75.8268L76.0683 35.3468L75.1304 35ZM71.5509 35L70.6129 35.3468L70.8545 36H71.5509V35ZM63.0793 12.0909V11.0909H61.6433L62.1414 12.4377L63.0793 12.0909ZM66.8975 12.0909L67.8424 11.7636L67.6094 11.0909H66.8975V12.0909ZM73.2213 30.3466L72.2764 30.6739L72.5094 31.3466H73.2213V30.3466ZM73.46 30.3466V31.3466H74.1719L74.4049 30.6739L73.46 30.3466ZM79.7838 12.0909V11.0909H79.0719L78.8389 11.7636L79.7838 12.0909ZM82.6641 11.7441L74.1925 34.6532L76.0683 35.3468L84.5399 12.4377L82.6641 11.7441ZM75.1304 34H71.5509V36H75.1304V34ZM72.4888 34.6532L64.0172 11.7441L62.1414 12.4377L70.6129 35.3468L72.4888 34.6532ZM63.0793 13.0909H66.8975V11.0909H63.0793V13.0909ZM65.9525 12.4182L72.2764 30.6739L74.1662 30.0193L67.8424 11.7636L65.9525 12.4182ZM73.2213 31.3466H73.46V29.3466H73.2213V31.3466ZM74.4049 30.6739L80.7287 12.4182L78.8389 11.7636L72.515 30.0193L74.4049 30.6739ZM79.7838 13.0909H83.602V11.0909H79.7838V13.0909ZM91.3204 34.0156L90.7942 34.866L90.8005 34.8698L91.3204 34.0156ZM87.6365 29.8991L86.736 30.3342L86.739 30.3403L87.6365 29.8991ZM87.6365 17.5199L86.7352 17.0867L86.7341 17.0888L87.6365 17.5199ZM91.2458 13.3139L91.7918 14.1517L91.7931 14.1509L91.2458 13.3139ZM100.21 12.3892L100.533 11.443V11.443L100.21 12.3892ZM103.386 14.3281L102.702 15.0577L102.707 15.0615L103.386 14.3281ZM105.668 17.848L106.601 17.4865V17.4865L105.668 17.848ZM106.519 24.7386V25.7386H107.519V24.7386H106.519ZM88.8595 24.7386H87.8595V25.7386H88.8595V24.7386ZM88.8595 21.696V20.696H87.8595V21.696H88.8595ZM102.939 21.696V22.696H103.939V21.696H102.939ZM102.163 18.2358L101.269 18.683L101.273 18.69L102.163 18.2358ZM99.9859 15.8345L99.4543 16.6815L99.4583 16.684L99.9859 15.8345ZM93.0356 15.9986L93.5959 16.8269L93.5977 16.8257L93.0356 15.9986ZM90.694 18.6832L89.7979 18.2393L90.694 18.6832ZM90.7686 28.6612L89.8726 29.1055L89.8771 29.1144L90.7686 28.6612ZM93.2892 31.3906L92.7853 32.2544L92.7913 32.2579L93.2892 31.3906ZM99.5384 31.9276L99.866 32.8724L99.8732 32.8699L99.5384 31.9276ZM101.492 30.7344L102.186 31.4545L102.193 31.4479L101.492 30.7344ZM102.76 28.7358L103.03 27.773L102.146 27.5248L101.824 28.3847L102.76 28.7358ZM106.161 29.6903L107.116 29.9867L107.42 29.0053L106.431 28.7276L106.161 29.6903ZM104.356 32.733L105.071 33.4318L105.075 33.4277L104.356 32.733ZM101.224 34.7614L101.582 35.6949L101.589 35.6924L101.224 34.7614ZM97.0328 34.4773C94.9758 34.4773 93.2586 34.0247 91.8403 33.1614L90.8005 34.8698C92.5839 35.9554 94.675 36.4773 97.0328 36.4773V34.4773ZM91.8466 33.1652C90.4233 32.2846 89.3203 31.0579 88.5339 29.458L86.739 30.3403C87.6827 32.2603 89.0357 33.7779 90.7942 34.866L91.8466 33.1652ZM88.5369 29.4641C87.7588 27.8537 87.3538 25.9492 87.3538 23.7244H85.3538C85.3538 26.1928 85.8039 28.4048 86.736 30.3342L88.5369 29.4641ZM87.3538 23.7244C87.3538 21.5 87.7587 19.5837 88.5388 17.951L86.7341 17.0888C85.804 19.0356 85.3538 21.2557 85.3538 23.7244H87.3538ZM88.5377 17.9531C89.3306 16.3036 90.4168 15.0477 91.7918 14.1517L90.6999 12.4761C88.9925 13.5887 87.6724 15.1367 86.7352 17.0867L88.5377 17.9531ZM91.7931 14.1509C93.163 13.2551 94.7777 12.7926 96.6748 12.7926V10.7926C94.4356 10.7926 92.4309 11.3443 90.6986 12.4769L91.7931 14.1509ZM96.6748 12.7926C97.7546 12.7926 98.8237 12.9722 99.8861 13.3354L100.533 11.443C99.2688 11.0107 97.9814 10.7926 96.6748 10.7926V12.7926ZM99.8861 13.3354C100.907 13.6844 101.845 14.2534 102.703 15.0577L104.07 13.5986C103.019 12.6131 101.839 11.8895 100.533 11.443L99.8861 13.3354ZM102.707 15.0615C103.529 15.8243 104.213 16.8608 104.736 18.2095L106.601 17.4865C105.99 15.9119 105.153 14.6019 104.066 13.5948L102.707 15.0615ZM104.736 18.2095C105.245 19.5223 105.519 21.191 105.519 23.2472H107.519C107.519 21.0278 107.225 19.097 106.601 17.4865L104.736 18.2095ZM105.519 23.2472V24.7386H107.519V23.2472H105.519ZM106.519 23.7386H88.8595V25.7386H106.519V23.7386ZM89.8595 24.7386V21.696H87.8595V24.7386H89.8595ZM88.8595 22.696H102.939V20.696H88.8595V22.696ZM103.939 21.696C103.939 20.2671 103.652 18.9545 103.054 17.7816L101.273 18.69C101.709 19.5455 101.939 20.5397 101.939 21.696H103.939ZM103.058 17.7886C102.47 16.6124 101.618 15.6713 100.513 14.985L99.4583 16.684C100.243 17.1711 100.843 17.8308 101.269 18.683L103.058 17.7886ZM100.518 14.9875C99.4003 14.2863 98.1062 13.9545 96.6748 13.9545V15.9545C97.7889 15.9545 98.7021 16.2094 99.4543 16.6815L100.518 14.9875ZM96.6748 13.9545C95.0998 13.9545 93.6848 14.3483 92.4735 15.1715L93.5977 16.8257C94.4347 16.2568 95.4458 15.9545 96.6748 15.9545V13.9545ZM92.4753 15.1703C91.3169 15.9539 90.4211 16.9816 89.7979 18.2393L91.59 19.1272C92.0606 18.1775 92.7259 17.4154 93.5959 16.8269L92.4753 15.1703ZM89.7979 18.2393C89.1809 19.4845 88.8737 20.8202 88.8737 22.233H90.8737C90.8737 21.1202 91.1133 20.0893 91.59 19.1272L89.7979 18.2393ZM88.8737 22.233V24.2614H90.8737V22.233H88.8737ZM88.8737 24.2614C88.8737 26.1026 89.1908 27.7303 89.8727 29.1055L91.6645 28.217C91.1532 27.1859 90.8737 25.8803 90.8737 24.2614H88.8737ZM89.8771 29.1144C90.5637 30.4651 91.5327 31.5237 92.7853 32.2544L93.793 30.5268C92.8979 30.0047 92.1864 29.2437 91.66 28.2081L89.8771 29.1144ZM92.7913 32.2579C94.0379 32.9735 95.4625 33.3153 97.0328 33.3153V31.3153C95.7593 31.3153 94.6881 31.0407 93.787 30.5234L92.7913 32.2579ZM97.0328 33.3153C98.0503 33.3153 98.9986 33.1731 99.866 32.8724L99.2109 30.9827C98.5868 31.1991 97.8647 31.3153 97.0328 31.3153V33.3153ZM99.8732 32.8699C100.755 32.5564 101.531 32.0857 102.186 31.4545L100.798 30.0143C100.36 30.437 99.8329 30.7617 99.2037 30.9853L99.8732 32.8699ZM102.193 31.4479C102.855 30.7982 103.352 30.004 103.696 29.0869L101.824 28.3847C101.571 29.0585 101.224 29.5967 100.792 30.0208L102.193 31.4479ZM102.49 29.6986L105.89 30.6531L106.431 28.7276L103.03 27.773L102.49 29.6986ZM105.206 29.3939C104.894 30.3968 104.374 31.2749 103.637 32.0382L105.075 33.4277C106.028 32.441 106.711 31.2907 107.116 29.9867L105.206 29.3939ZM103.641 32.0341C102.904 32.7877 101.984 33.3894 100.859 33.8303L101.589 35.6924C102.95 35.1589 104.117 34.4083 105.071 33.4318L103.641 32.0341ZM100.865 33.8278C99.7541 34.2546 98.4812 34.4773 97.0328 34.4773V36.4773C98.6866 36.4773 100.208 36.2227 101.582 35.6949L100.865 33.8278ZM111.873 35H110.873V36H111.873V35ZM111.873 12.0909V11.0909H110.873V12.0909H111.873ZM115.274 12.0909H116.274V11.0909H115.274V12.0909ZM115.274 15.5511H114.274V16.5511H115.274V15.5511ZM115.512 15.5511V16.5511H116.209L116.451 15.8968L115.512 15.5511ZM117.779 12.7919L117.237 11.9517L117.779 12.7919ZM123.328 11.7926H124.328V10.8876L123.427 10.7976L123.328 11.7926ZM123.328 15.3722L123.085 16.3423L124.328 16.6529V15.3722H123.328ZM122.507 15.2379L122.343 16.2243L122.356 16.2265L122.369 16.2283L122.507 15.2379ZM118.197 15.8345L118.664 16.7186L118.668 16.7166L118.197 15.8345ZM116.139 17.7436L115.289 17.2155L115.288 17.2183L116.139 17.7436ZM115.393 35V36H116.393V35H115.393ZM112.873 35V12.0909H110.873V35H112.873ZM111.873 13.0909H115.274V11.0909H111.873V13.0909ZM114.274 12.0909V15.5511H116.274V12.0909H114.274ZM115.274 16.5511H115.512V14.5511H115.274V16.5511ZM116.451 15.8968C116.787 14.9829 117.395 14.2302 118.322 13.6321L117.237 11.9517C115.976 12.7655 115.072 13.8524 114.574 15.2054L116.451 15.8968ZM118.322 13.6321C119.245 13.0362 120.287 12.733 121.478 12.733V10.733C119.924 10.733 118.501 11.1357 117.237 11.9517L118.322 13.6321ZM121.478 12.733C121.725 12.733 122.039 12.7377 122.422 12.7475L122.473 10.7482C122.081 10.7381 121.748 10.733 121.478 10.733V12.733ZM122.422 12.7475C122.803 12.7573 123.067 12.7715 123.228 12.7877L123.427 10.7976C123.19 10.7739 122.867 10.7583 122.473 10.7482L122.422 12.7475ZM122.328 11.7926V15.3722H124.328V11.7926H122.328ZM123.57 14.402C123.389 14.3567 123.058 14.3051 122.645 14.2475L122.369 16.2283C122.579 16.2576 122.745 16.2825 122.871 16.3031C122.934 16.3134 122.984 16.3222 123.023 16.3294C123.042 16.333 123.056 16.336 123.068 16.3384C123.073 16.3396 123.077 16.3405 123.08 16.3412C123.082 16.3416 123.083 16.3418 123.084 16.342C123.085 16.3422 123.085 16.3423 123.085 16.3423L123.57 14.402ZM122.672 14.2515C122.194 14.172 121.697 14.1335 121.18 14.1335V16.1335C121.598 16.1335 121.985 16.1646 122.343 16.2243L122.672 14.2515ZM121.18 14.1335C119.922 14.1335 118.763 14.3986 117.726 14.9524L118.668 16.7166C119.381 16.3358 120.21 16.1335 121.18 16.1335V14.1335ZM117.729 14.9505C116.711 15.489 115.892 16.2468 115.289 17.2155L116.988 18.2717C117.399 17.6097 117.953 17.0948 118.664 16.7186L117.729 14.9505ZM115.288 17.2183C114.684 18.1961 114.393 19.301 114.393 20.5028H116.393C116.393 19.6365 116.599 18.9019 116.99 18.2689L115.288 17.2183ZM114.393 20.5028V35H116.393V20.5028H114.393ZM115.393 34H111.873V36H115.393V34ZM143.727 17.2216L144 18.1838L145.009 17.8981L144.675 16.9036L143.727 17.2216ZM140.565 18.1165L139.63 18.4695L139.954 19.3288L140.838 19.0787L140.565 18.1165ZM139.685 16.5803L138.883 17.1777L138.89 17.1866L138.897 17.1953L139.685 16.5803ZM138.134 15.3274L138.581 14.433V14.433L138.134 15.3274ZM132.109 15.8047L132.675 16.6285L132.677 16.6272L132.109 15.8047ZM131.676 20.3089L131.053 21.091V21.091L131.676 20.3089ZM134.659 21.5767L134.416 22.5469L134.42 22.5478L134.659 21.5767ZM138.06 22.4119L137.821 23.3831L137.824 23.3837L138.06 22.4119ZM142.638 24.6939L141.924 25.394L141.928 25.3975L142.638 24.6939ZM143.011 32.1364L142.204 31.5463L142.2 31.5514L143.011 32.1364ZM129.394 33.956L129.946 33.1223L129.394 33.956ZM126.486 29.5114L126.243 28.5412L125.31 28.7745L125.507 29.7161L126.486 29.5114ZM129.827 28.6761L130.795 28.4263L130.547 27.4653L129.584 27.706L129.827 28.6761ZM131.631 31.4503L131.06 32.2708L131.064 32.2738L131.631 31.4503ZM139.044 31.331L139.629 32.1419L139.631 32.1408L139.044 31.331ZM139.67 26.7969L138.97 27.5104L138.976 27.5167L139.67 26.7969ZM137.105 25.5739L136.877 26.5475L136.878 26.5478L137.105 25.5739ZM133.287 24.679L133.056 25.652L133.059 25.6526L133.287 24.679ZM128.663 22.3672L127.929 23.0461L127.936 23.0532L128.663 22.3672ZM128.29 14.9844L127.487 14.3895L127.483 14.3948L128.29 14.9844ZM131.288 12.6428L130.881 11.7292L130.879 11.7304L131.288 12.6428ZM140.953 13.2841L140.343 14.0767L140.346 14.079L140.953 13.2841ZM143.455 16.2594L140.293 17.1543L140.838 19.0787L144 18.1838L143.455 16.2594ZM141.501 17.7634C141.262 17.1317 140.916 16.5324 140.474 15.9652L138.897 17.1953C139.23 17.6224 139.47 18.0473 139.63 18.4695L141.501 17.7634ZM140.487 15.9828C140.002 15.3317 139.355 14.8198 138.581 14.433L137.687 16.2218C138.226 16.4913 138.613 16.8146 138.883 17.1777L140.487 15.9828ZM138.581 14.433C137.742 14.0135 136.735 13.8352 135.614 13.8352V15.8352C136.54 15.8352 137.213 15.9851 137.687 16.2218L138.581 14.433ZM135.614 13.8352C134.056 13.8352 132.677 14.1957 131.54 14.9822L132.677 16.6272C133.409 16.121 134.367 15.8352 135.614 15.8352V13.8352ZM131.542 14.9809C130.39 15.7735 129.721 16.8721 129.721 18.2358H131.721C131.721 17.6308 131.978 17.1086 132.675 16.6285L131.542 14.9809ZM129.721 18.2358C129.721 19.3889 130.159 20.3783 131.053 21.091L132.299 19.5269C131.921 19.2254 131.721 18.8327 131.721 18.2358H129.721ZM131.053 21.091C131.854 21.7294 133.011 22.1954 134.416 22.5468L134.902 20.6066C133.603 20.2819 132.771 19.9027 132.299 19.5269L131.053 21.091ZM134.42 22.5478L137.821 23.3831L138.298 21.4408L134.898 20.6056L134.42 22.5478ZM137.824 23.3837C139.77 23.8562 141.099 24.552 141.924 25.394L143.352 23.9938C142.17 22.7875 140.445 21.9619 138.295 21.4401L137.824 23.3837ZM141.928 25.3975C142.723 26.201 143.145 27.2442 143.145 28.6165H145.145C145.145 26.7871 144.562 25.2152 143.349 23.9903L141.928 25.3975ZM143.145 28.6165C143.145 29.7225 142.831 30.688 142.204 31.5463L143.819 32.7264C144.703 31.5165 145.145 30.1355 145.145 28.6165H143.145ZM142.2 31.5514C141.573 32.4214 140.679 33.1328 139.473 33.6686L140.285 35.4962C141.764 34.8388 142.958 33.9195 143.822 32.7213L142.2 31.5514ZM139.473 33.6686C138.283 34.1976 136.865 34.4773 135.196 34.4773V36.4773C137.087 36.4773 138.791 36.1603 140.285 35.4962L139.473 33.6686ZM135.196 34.4773C133.002 34.4773 131.274 34.0019 129.946 33.1223L128.842 34.7897C130.576 35.9384 132.716 36.4773 135.196 36.4773V34.4773ZM129.946 33.1223C128.654 32.2663 127.823 31.0217 127.465 29.3066L125.507 29.7161C125.963 31.8988 127.072 33.6172 128.842 34.7897L129.946 33.1223ZM126.728 30.4815L130.069 29.6463L129.584 27.706L126.243 28.5412L126.728 30.4815ZM128.858 28.926C129.225 30.3465 129.944 31.4938 131.06 32.2708L132.203 30.6298C131.548 30.1739 131.065 29.4717 130.795 28.4263L128.858 28.926ZM131.064 32.2738C132.172 33.0374 133.557 33.375 135.136 33.375V31.375C133.832 31.375 132.88 31.0962 132.199 30.6268L131.064 32.2738ZM135.136 33.375C136.909 33.375 138.44 32.9997 139.629 32.1419L138.459 30.5201C137.718 31.0543 136.645 31.375 135.136 31.375V33.375ZM139.631 32.1408C140.8 31.2938 141.506 30.1729 141.506 28.7955H139.506C139.506 29.3867 139.237 29.9562 138.457 30.5212L139.631 32.1408ZM141.506 28.7955C141.506 27.7371 141.123 26.8084 140.365 26.077L138.976 27.5167C139.331 27.8592 139.506 28.2629 139.506 28.7955H141.506ZM140.371 26.0834C139.632 25.3576 138.578 24.8901 137.332 24.5999L136.878 26.5478C137.939 26.7946 138.595 27.1424 138.97 27.5103L140.371 26.0834ZM137.333 24.6002L133.515 23.7054L133.059 25.6526L136.877 26.5475L137.333 24.6002ZM133.517 23.7059C131.52 23.2326 130.19 22.5283 129.391 21.6812L127.936 23.0532C129.106 24.2941 130.858 25.131 133.056 25.652L133.517 23.7059ZM129.398 21.6883C128.612 20.8385 128.202 19.7718 128.202 18.4148H126.202C126.202 20.2197 126.766 21.7879 127.929 23.046L129.398 21.6883ZM128.202 18.4148C128.202 17.3228 128.504 16.3882 129.098 15.574L127.483 14.3948C126.625 15.5692 126.202 16.9215 126.202 18.4148H128.202ZM129.094 15.5792C129.716 14.7386 130.572 14.0601 131.698 13.5551L130.879 11.7304C129.478 12.3589 128.336 13.2415 127.487 14.3895L129.094 15.5792ZM131.695 13.5563C132.821 13.0548 134.121 12.7926 135.614 12.7926V10.7926C133.884 10.7926 132.301 11.0972 130.881 11.7292L131.695 13.5563ZM135.614 12.7926C137.744 12.7926 139.282 13.2606 140.343 14.0767L141.563 12.4915C140.038 11.319 138.017 10.7926 135.614 10.7926V12.7926ZM140.346 14.079C141.482 14.9458 142.292 16.0885 142.779 17.5396L144.675 16.9036C144.068 15.0934 143.029 13.611 141.56 12.4892L140.346 14.079ZM151.173 35V36H151.88L152.116 35.3345L151.173 35ZM147.296 35L146.357 34.6553L145.863 36H147.296V35ZM158.511 4.45454V3.45454H157.813L157.573 4.10986L158.511 4.45454ZM162.33 4.45454L163.268 4.10986L163.028 3.45454H162.33V4.45454ZM173.546 35V36H174.978L174.484 34.6553L173.546 35ZM169.668 35L168.725 35.3345L168.962 36H169.668V35ZM160.54 9.28693L161.482 8.9524L161.246 8.28693H160.54V9.28693ZM160.301 9.28693V8.28693H159.595L159.359 8.9524L160.301 9.28693ZM152.605 23.0682V22.0682H151.605V23.0682H152.605ZM168.236 23.0682H169.236V22.0682H168.236V23.0682ZM168.236 26.3494V27.3494H169.236V26.3494H168.236ZM152.605 26.3494H151.605V27.3494H152.605V26.3494ZM151.173 34H147.296V36H151.173V34ZM148.234 35.3447L159.45 4.79923L157.573 4.10986L146.357 34.6553L148.234 35.3447ZM158.511 5.45454H162.33V3.45454H158.511V5.45454ZM161.391 4.79923L172.607 35.3447L174.484 34.6553L163.268 4.10986L161.391 4.79923ZM173.546 34H169.668V36H173.546V34ZM170.61 34.6655L161.482 8.9524L159.597 9.62147L168.725 35.3345L170.61 34.6655ZM160.54 8.28693H160.301V10.2869H160.54V8.28693ZM159.359 8.9524L150.231 34.6655L152.116 35.3345L161.244 9.62147L159.359 8.9524ZM152.605 24.0682H168.236V22.0682H152.605V24.0682ZM167.236 23.0682V26.3494H169.236V23.0682H167.236ZM168.236 25.3494H152.605V27.3494H168.236V25.3494ZM153.605 26.3494V23.0682H151.605V26.3494H153.605ZM182.002 4.45454H183.002V3.45454H182.002V4.45454ZM182.002 35V36H183.002V35H182.002ZM178.303 35H177.303V36H178.303V35ZM178.303 4.45454V3.45454H177.303V4.45454H178.303ZM181.002 4.45454V35H183.002V4.45454H181.002ZM182.002 34H178.303V36H182.002V34ZM179.303 35V4.45454H177.303V35H179.303ZM178.303 5.45454H182.002V3.45454H178.303V5.45454Z" fill="black" mask="url(#path-3-outside-1_418_106)"/>
</g>
<defs>
<filter id="filter0_d_418_106" x="193" y="0" width="28" height="28" filterUnits="userSpaceOnUse" color-interpolation-filters="sRGB">
<feFlood flood-opacity="0" result="BackgroundImageFix"/>
<feColorMatrix in="SourceAlpha" type="matrix" values="0 0 0 0 0 0 0 0 0 0 0 0 0 0 0 0 0 0 127 0" result="hardAlpha"/>
<feOffset dy="4"/>
<feGaussianBlur stdDeviation="2"/>
<feComposite in2="hardAlpha" operator="out"/>
<feColorMatrix type="matrix" values="0 0 0 0 1 0 0 0 0 1 0 0 0 0 1 0 0 0 0.35 0"/>
<feBlend mode="normal" in2="BackgroundImageFix" result="effect1_dropShadow_418_106"/>
<feBlend mode="normal" in="SourceGraphic" in2="effect1_dropShadow_418_106" result="shape"/>
</filter>
<filter id="filter1_d_418_106" x="213" y="20" width="28" height="28" filterUnits="userSpaceOnUse" color-interpolation-filters="sRGB">
<feFlood flood-opacity="0" result="BackgroundImageFix"/>
<feColorMatrix in="SourceAlpha" type="matrix" values="0 0 0 0 0 0 0 0 0 0 0 0 0 0 0 0 0 0 127 0" result="hardAlpha"/>
<feOffset dy="4"/>
<feGaussianBlur stdDeviation="2"/>
<feComposite in2="hardAlpha" operator="out"/>
<feColorMatrix type="matrix" values="0 0 0 0 0 0 0 0 0 0 0 0 0 0 0 0 0 0 0.5 0"/>
<feBlend mode="normal" in2="BackgroundImageFix" result="effect1_dropShadow_418_106"/>
<feBlend mode="normal" in="SourceGraphic" in2="effect1_dropShadow_418_106" result="shape"/>
</filter>
<filter id="filter2_d_418_106" x="10.9792" y="4.45453" width="175.023" height="39.0228" filterUnits="userSpaceOnUse" color-interpolation-filters="sRGB">
<feFlood flood-opacity="0" result="BackgroundImageFix"/>
<feColorMatrix in="SourceAlpha" type="matrix" values="0 0 0 0 0 0 0 0 0 0 0 0 0 0 0 0 0 0 127 0" result="hardAlpha"/>
<feOffset dy="4"/>
<feGaussianBlur stdDeviation="2"/>
<feComposite in2="hardAlpha" operator="out"/>
<feColorMatrix type="matrix" values="0 0 0 0 0 0 0 0 0 0 0 0 0 0 0 0 0 0 0.3 0"/>
<feBlend mode="normal" in2="BackgroundImageFix" result="effect1_dropShadow_418_106"/>
<feBlend mode="normal" in="SourceGraphic" in2="effect1_dropShadow_418_106" result="shape"/>
</filter>
</defs>
</svg>
