<svg width="206" height="99" viewBox="0 0 206 99" fill="none" xmlns="http://www.w3.org/2000/svg">
<g filter="url(#filter0_d_613_168)">
<mask id="path-1-outside-1_613_168" maskUnits="userSpaceOnUse" x="3" y="-1" width="200" height="93" fill="black">
<rect fill="white" x="3" y="-1" width="200" height="93"/>
<path d="M30.1827 10H26.4838C26.2651 8.93608 25.8823 8.00142 25.3354 7.19602C24.7985 6.39062 24.1422 5.71449 23.3667 5.16761C22.601 4.6108 21.7509 4.19318 20.8162 3.91477C19.8816 3.63636 18.9071 3.49716 17.8929 3.49716C16.0435 3.49716 14.3681 3.96449 12.8667 4.89915C11.3752 5.83381 10.187 7.21094 9.30202 9.03054C8.42702 10.8501 7.98952 13.0824 7.98952 15.7273C7.98952 18.3722 8.42702 20.6044 9.30202 22.424C10.187 24.2436 11.3752 25.6207 12.8667 26.5554C14.3681 27.4901 16.0435 27.9574 17.8929 27.9574C18.9071 27.9574 19.8816 27.8182 20.8162 27.5398C21.7509 27.2614 22.601 26.8487 23.3667 26.3018C24.1422 25.745 24.7985 25.0639 25.3354 24.2585C25.8823 23.4432 26.2651 22.5085 26.4838 21.4545H30.1827C29.9043 23.0156 29.3972 24.4126 28.6614 25.6456C27.9256 26.8786 27.0108 27.9276 25.9171 28.7926C24.8233 29.6477 23.5953 30.299 22.2331 30.7464C20.8809 31.1939 19.4341 31.4176 17.8929 31.4176C15.2878 31.4176 12.9711 30.7812 10.9426 29.5085C8.91424 28.2358 7.31836 26.4261 6.15501 24.0795C4.99165 21.733 4.40998 18.9489 4.40998 15.7273C4.40998 12.5057 4.99165 9.72159 6.15501 7.375C7.31836 5.02841 8.91424 3.21875 10.9426 1.94602C12.9711 0.673295 15.2878 0.0369307 17.8929 0.0369307C19.4341 0.0369307 20.8809 0.260652 22.2331 0.708096C23.5953 1.15554 24.8233 1.81179 25.9171 2.67685C27.0108 3.53196 27.9256 4.57599 28.6614 5.80895C29.3972 7.03196 29.9043 8.42898 30.1827 10ZM39.2024 17.2188V31H35.6825V0.454545H39.2024V11.6705H39.5007C40.0376 10.4872 40.843 9.54758 41.9169 8.85156C43.0007 8.1456 44.4425 7.79261 46.2422 7.79261C47.8033 7.79261 49.1705 8.10582 50.3438 8.73224C51.517 9.34872 52.4268 10.2983 53.0732 11.581C53.7294 12.8537 54.0575 14.4744 54.0575 16.4432V31H50.5376V16.6818C50.5376 14.8622 50.0653 13.4553 49.1207 12.4609C48.1861 11.4567 46.8885 10.9545 45.228 10.9545C44.0746 10.9545 43.0405 11.1982 42.1257 11.6854C41.2209 12.1726 40.505 12.8835 39.978 13.8182C39.4609 14.7528 39.2024 15.8864 39.2024 17.2188ZM69.8038 31.4773C67.7356 31.4773 65.921 30.9851 64.3599 30.0007C62.8088 29.0163 61.5957 27.6392 60.7207 25.8693C59.8556 24.0994 59.4231 22.0312 59.4231 19.6648C59.4231 17.2784 59.8556 15.1953 60.7207 13.4155C61.5957 11.6357 62.8088 10.2536 64.3599 9.26918C65.921 8.2848 67.7356 7.79261 69.8038 7.79261C71.872 7.79261 73.6816 8.2848 75.2328 9.26918C76.7939 10.2536 78.0069 11.6357 78.872 13.4155C79.747 15.1953 80.1845 17.2784 80.1845 19.6648C80.1845 22.0312 79.747 24.0994 78.872 25.8693C78.0069 27.6392 76.7939 29.0163 75.2328 30.0007C73.6816 30.9851 71.872 31.4773 69.8038 31.4773ZM69.8038 28.3153C71.3748 28.3153 72.6674 27.9126 73.6816 27.1072C74.6958 26.3018 75.4466 25.2429 75.9338 23.9304C76.421 22.6179 76.6646 21.196 76.6646 19.6648C76.6646 18.1335 76.421 16.7067 75.9338 15.3842C75.4466 14.0618 74.6958 12.9929 73.6816 12.1776C72.6674 11.3622 71.3748 10.9545 69.8038 10.9545C68.2328 10.9545 66.9402 11.3622 65.926 12.1776C64.9118 12.9929 64.161 14.0618 63.6738 15.3842C63.1866 16.7067 62.943 18.1335 62.943 19.6648C62.943 21.196 63.1866 22.6179 63.6738 23.9304C64.161 25.2429 64.9118 26.3018 65.926 27.1072C66.9402 27.9126 68.2328 28.3153 69.8038 28.3153ZM94.8643 31.4773C92.7962 31.4773 90.9815 30.9851 89.4205 30.0007C87.8693 29.0163 86.6562 27.6392 85.7812 25.8693C84.9162 24.0994 84.4837 22.0312 84.4837 19.6648C84.4837 17.2784 84.9162 15.1953 85.7812 13.4155C86.6562 11.6357 87.8693 10.2536 89.4205 9.26918C90.9815 8.2848 92.7962 7.79261 94.8643 7.79261C96.9325 7.79261 98.7422 8.2848 100.293 9.26918C101.854 10.2536 103.067 11.6357 103.933 13.4155C104.808 15.1953 105.245 17.2784 105.245 19.6648C105.245 22.0312 104.808 24.0994 103.933 25.8693C103.067 27.6392 101.854 29.0163 100.293 30.0007C98.7422 30.9851 96.9325 31.4773 94.8643 31.4773ZM94.8643 28.3153C96.4354 28.3153 97.728 27.9126 98.7422 27.1072C99.7564 26.3018 100.507 25.2429 100.994 23.9304C101.482 22.6179 101.725 21.196 101.725 19.6648C101.725 18.1335 101.482 16.7067 100.994 15.3842C100.507 14.0618 99.7564 12.9929 98.7422 12.1776C97.728 11.3622 96.4354 10.9545 94.8643 10.9545C93.2933 10.9545 92.0007 11.3622 90.9865 12.1776C89.9723 12.9929 89.2216 14.0618 88.7344 15.3842C88.2472 16.7067 88.0036 18.1335 88.0036 19.6648C88.0036 21.196 88.2472 22.6179 88.7344 23.9304C89.2216 25.2429 89.9723 26.3018 90.9865 27.1072C92.0007 27.9126 93.2933 28.3153 94.8643 28.3153ZM126.845 13.2216L123.683 14.1165C123.485 13.5895 123.191 13.0774 122.803 12.5803C122.426 12.0732 121.909 11.6555 121.252 11.3274C120.596 10.9993 119.756 10.8352 118.732 10.8352C117.33 10.8352 116.161 11.1584 115.227 11.8047C114.302 12.4411 113.84 13.2514 113.84 14.2358C113.84 15.1108 114.158 15.8018 114.794 16.3089C115.431 16.8161 116.425 17.2386 117.777 17.5767L121.178 18.4119C123.226 18.9091 124.752 19.6697 125.757 20.6939C126.761 21.7081 127.263 23.0156 127.263 24.6165C127.263 25.929 126.885 27.1023 126.129 28.1364C125.384 29.1705 124.34 29.9858 122.997 30.5824C121.655 31.179 120.094 31.4773 118.314 31.4773C115.977 31.4773 114.044 30.9702 112.512 29.956C110.981 28.9418 110.012 27.4602 109.604 25.5114L112.945 24.6761C113.263 25.9091 113.865 26.8338 114.749 27.4503C115.644 28.0668 116.813 28.375 118.254 28.375C119.895 28.375 121.198 28.027 122.162 27.331C123.137 26.625 123.624 25.7798 123.624 24.7955C123.624 24 123.345 23.3338 122.789 22.7969C122.232 22.25 121.377 21.8423 120.223 21.5739L116.405 20.679C114.307 20.1818 112.766 19.4112 111.781 18.3672C110.807 17.3132 110.32 15.9957 110.32 14.4148C110.32 13.1222 110.683 11.9787 111.409 10.9844C112.144 9.99006 113.144 9.20952 114.406 8.64275C115.679 8.07599 117.121 7.79261 118.732 7.79261C120.999 7.79261 122.779 8.28977 124.071 9.28409C125.374 10.2784 126.298 11.5909 126.845 13.2216ZM142.167 31.4773C139.959 31.4773 138.055 30.9901 136.454 30.0156C134.863 29.0312 133.635 27.6591 132.77 25.8991C131.915 24.1293 131.488 22.071 131.488 19.7244C131.488 17.3778 131.915 15.3097 132.77 13.5199C133.635 11.7202 134.838 10.3182 136.38 9.31392C137.931 8.29972 139.74 7.79261 141.809 7.79261C143.002 7.79261 144.18 7.99148 145.343 8.3892C146.507 8.78693 147.566 9.43324 148.52 10.3281C149.475 11.2131 150.235 12.3864 150.802 13.848C151.369 15.3097 151.652 17.1094 151.652 19.2472V20.7386H133.993V17.696H148.073C148.073 16.4034 147.814 15.25 147.297 14.2358C146.79 13.2216 146.064 12.4212 145.12 11.8345C144.185 11.2479 143.081 10.9545 141.809 10.9545C140.407 10.9545 139.194 11.3026 138.169 11.9986C137.155 12.6847 136.375 13.5795 135.828 14.6832C135.281 15.7869 135.007 16.9702 135.007 18.233V20.2614C135.007 21.9915 135.306 23.4581 135.902 24.6612C136.509 25.8544 137.349 26.7642 138.423 27.3906C139.497 28.0071 140.745 28.3153 142.167 28.3153C143.091 28.3153 143.926 28.1861 144.672 27.9276C145.428 27.6591 146.079 27.2614 146.626 26.7344C147.173 26.1974 147.596 25.5312 147.894 24.7358L151.294 25.6903C150.936 26.8438 150.335 27.858 149.49 28.733C148.645 29.598 147.6 30.2741 146.358 30.7614C145.115 31.2386 143.718 31.4773 142.167 31.4773ZM170.549 31H166.672L177.887 0.454545H181.706L192.922 31H189.044L179.916 5.28693H179.677L170.549 31ZM171.981 19.0682H187.612V22.3494H171.981V19.0682ZM201.378 0.454545V31H197.679V0.454545H201.378ZM28.1953 82H18.7692V51.4545H28.6129C31.576 51.4545 34.1115 52.0661 36.2195 53.2891C38.3274 54.5021 39.9432 56.2472 41.0668 58.5241C42.1903 60.7912 42.7521 63.5057 42.7521 66.6676C42.7521 69.8494 42.1854 72.5888 41.0518 74.8857C39.9183 77.1726 38.2678 78.9325 36.1001 80.1655C33.9325 81.3885 31.2976 82 28.1953 82ZM22.468 78.7188H27.9567C30.4822 78.7188 32.5753 78.2315 34.2358 77.2571C35.8963 76.2827 37.1342 74.8956 37.9496 73.0959C38.7649 71.2962 39.1726 69.1534 39.1726 66.6676C39.1726 64.2017 38.7699 62.0788 37.9645 60.299C37.1591 58.5092 35.956 57.1371 34.3551 56.1825C32.7543 55.218 30.7607 54.7358 28.3743 54.7358H22.468V78.7188ZM48.4794 82V59.0909H51.9993V82H48.4794ZM50.2692 55.2727C49.5831 55.2727 48.9915 55.0391 48.4943 54.5717C48.0071 54.1044 47.7635 53.5426 47.7635 52.8864C47.7635 52.2301 48.0071 51.6683 48.4943 51.201C48.9915 50.7337 49.5831 50.5 50.2692 50.5C50.9553 50.5 51.5419 50.7337 52.0291 51.201C52.5263 51.6683 52.7749 52.2301 52.7749 52.8864C52.7749 53.5426 52.5263 54.1044 52.0291 54.5717C51.5419 55.0391 50.9553 55.2727 50.2692 55.2727ZM68.6479 59.0909V62.0739H56.2985V59.0909H68.6479ZM59.9973 82V55.929C59.9973 54.6165 60.3056 53.5227 60.9221 52.6477C61.5385 51.7727 62.339 51.1165 63.3233 50.679C64.3077 50.2415 65.3468 50.0227 66.4405 50.0227C67.3056 50.0227 68.0115 50.0923 68.5584 50.2315C69.1053 50.3707 69.513 50.5 69.7814 50.6193L68.7672 53.6619C68.5882 53.6023 68.3397 53.5277 68.0215 53.4382C67.7132 53.3487 67.3056 53.304 66.7985 53.304C65.6351 53.304 64.7949 53.5973 64.2779 54.1839C63.7708 54.7706 63.5172 55.6307 63.5172 56.7642V82H59.9973ZM83.7827 59.0909V62.0739H71.4332V59.0909H83.7827ZM75.1321 82V55.929C75.1321 54.6165 75.4403 53.5227 76.0568 52.6477C76.6733 51.7727 77.4737 51.1165 78.4581 50.679C79.4425 50.2415 80.4815 50.0227 81.5753 50.0227C82.4403 50.0227 83.1463 50.0923 83.6932 50.2315C84.2401 50.3707 84.6477 50.5 84.9162 50.6193L83.902 53.6619C83.723 53.6023 83.4744 53.5277 83.1562 53.4382C82.848 53.3487 82.4403 53.304 81.9332 53.304C80.7699 53.304 79.9297 53.5973 79.4126 54.1839C78.9055 54.7706 78.652 55.6307 78.652 56.7642V82H75.1321ZM88.7157 82V59.0909H92.2356V82H88.7157ZM90.5055 55.2727C89.8194 55.2727 89.2278 55.0391 88.7306 54.5717C88.2434 54.1044 87.9998 53.5426 87.9998 52.8864C87.9998 52.2301 88.2434 51.6683 88.7306 51.201C89.2278 50.7337 89.8194 50.5 90.5055 50.5C91.1916 50.5 91.7782 50.7337 92.2654 51.201C92.7626 51.6683 93.0112 52.2301 93.0112 52.8864C93.0112 53.5426 92.7626 54.1044 92.2654 54.5717C91.7782 55.0391 91.1916 55.2727 90.5055 55.2727ZM107.989 82.4773C105.842 82.4773 103.992 81.9702 102.441 80.956C100.89 79.9418 99.6967 78.5447 98.8615 76.7649C98.0263 74.9851 97.6087 72.9517 97.6087 70.6648C97.6087 68.3381 98.0362 66.2848 98.8913 64.505C99.7564 62.7152 100.96 61.3182 102.501 60.3139C104.052 59.2997 105.862 58.7926 107.93 58.7926C109.54 58.7926 110.992 59.0909 112.285 59.6875C113.577 60.2841 114.636 61.1193 115.462 62.1932C116.287 63.267 116.799 64.5199 116.998 65.9517H113.478C113.21 64.9077 112.613 63.983 111.688 63.1776C110.773 62.3622 109.54 61.9545 107.989 61.9545C106.617 61.9545 105.414 62.3125 104.38 63.0284C103.356 63.7344 102.555 64.7337 101.979 66.0263C101.412 67.3089 101.129 68.8153 101.129 70.5455C101.129 72.3153 101.407 73.8565 101.964 75.169C102.531 76.4815 103.326 77.5007 104.35 78.2266C105.384 78.9524 106.597 79.3153 107.989 79.3153C108.904 79.3153 109.734 79.1562 110.48 78.8381C111.226 78.5199 111.857 78.0625 112.374 77.4659C112.891 76.8693 113.259 76.1534 113.478 75.3182H116.998C116.799 76.6705 116.307 77.8885 115.521 78.9723C114.746 80.0462 113.717 80.9013 112.434 81.5376C111.161 82.1641 109.68 82.4773 107.989 82.4773ZM136.581 72.6335V59.0909H140.101V82H136.581V78.1222H136.342C135.805 79.2855 134.97 80.2749 133.837 81.0902C132.703 81.8956 131.271 82.2983 129.541 82.2983C128.109 82.2983 126.837 81.9851 125.723 81.3587C124.609 80.7223 123.734 79.7678 123.098 78.495C122.462 77.2124 122.143 75.5966 122.143 73.6477V59.0909H125.663V73.4091C125.663 75.0795 126.131 76.4119 127.065 77.4062C128.01 78.4006 129.213 78.8977 130.675 78.8977C131.55 78.8977 132.44 78.674 133.344 78.2266C134.259 77.7791 135.025 77.093 135.641 76.1683C136.268 75.2436 136.581 74.0653 136.581 72.6335ZM150.068 51.4545V82H146.548V51.4545H150.068ZM166.478 59.0909V62.0739H154.605V59.0909H166.478ZM158.066 53.6023H161.586V75.4375C161.586 76.4318 161.73 77.1776 162.018 77.6747C162.316 78.1619 162.694 78.4901 163.152 78.6591C163.619 78.8182 164.111 78.8977 164.628 78.8977C165.016 78.8977 165.334 78.8778 165.583 78.8381C165.831 78.7884 166.03 78.7486 166.179 78.7188L166.895 81.8807C166.657 81.9702 166.324 82.0597 165.896 82.1491C165.468 82.2486 164.926 82.2983 164.27 82.2983C163.276 82.2983 162.301 82.0845 161.347 81.657C160.402 81.2294 159.617 80.5781 158.99 79.7031C158.374 78.8281 158.066 77.7244 158.066 76.392V53.6023ZM174.039 90.5909C173.443 90.5909 172.911 90.5412 172.444 90.4418C171.976 90.3523 171.653 90.2628 171.474 90.1733L172.369 87.071C173.224 87.2898 173.98 87.3693 174.636 87.3097C175.292 87.25 175.874 86.9567 176.381 86.4297C176.898 85.9126 177.37 85.0724 177.798 83.9091L178.454 82.1193L169.983 59.0909H173.801L180.125 77.3466H180.363L186.687 59.0909H190.505L180.781 85.3409C180.343 86.5241 179.801 87.5036 179.155 88.2791C178.509 89.0646 177.758 89.6463 176.903 90.0241C176.058 90.402 175.103 90.5909 174.039 90.5909Z"/>
</mask>
<path d="M30.1827 10H26.4838C26.2651 8.93608 25.8823 8.00142 25.3354 7.19602C24.7985 6.39062 24.1422 5.71449 23.3667 5.16761C22.601 4.6108 21.7509 4.19318 20.8162 3.91477C19.8816 3.63636 18.9071 3.49716 17.8929 3.49716C16.0435 3.49716 14.3681 3.96449 12.8667 4.89915C11.3752 5.83381 10.187 7.21094 9.30202 9.03054C8.42702 10.8501 7.98952 13.0824 7.98952 15.7273C7.98952 18.3722 8.42702 20.6044 9.30202 22.424C10.187 24.2436 11.3752 25.6207 12.8667 26.5554C14.3681 27.4901 16.0435 27.9574 17.8929 27.9574C18.9071 27.9574 19.8816 27.8182 20.8162 27.5398C21.7509 27.2614 22.601 26.8487 23.3667 26.3018C24.1422 25.745 24.7985 25.0639 25.3354 24.2585C25.8823 23.4432 26.2651 22.5085 26.4838 21.4545H30.1827C29.9043 23.0156 29.3972 24.4126 28.6614 25.6456C27.9256 26.8786 27.0108 27.9276 25.9171 28.7926C24.8233 29.6477 23.5953 30.299 22.2331 30.7464C20.8809 31.1939 19.4341 31.4176 17.8929 31.4176C15.2878 31.4176 12.9711 30.7812 10.9426 29.5085C8.91424 28.2358 7.31836 26.4261 6.15501 24.0795C4.99165 21.733 4.40998 18.9489 4.40998 15.7273C4.40998 12.5057 4.99165 9.72159 6.15501 7.375C7.31836 5.02841 8.91424 3.21875 10.9426 1.94602C12.9711 0.673295 15.2878 0.0369307 17.8929 0.0369307C19.4341 0.0369307 20.8809 0.260652 22.2331 0.708096C23.5953 1.15554 24.8233 1.81179 25.9171 2.67685C27.0108 3.53196 27.9256 4.57599 28.6614 5.80895C29.3972 7.03196 29.9043 8.42898 30.1827 10ZM39.2024 17.2188V31H35.6825V0.454545H39.2024V11.6705H39.5007C40.0376 10.4872 40.843 9.54758 41.9169 8.85156C43.0007 8.1456 44.4425 7.79261 46.2422 7.79261C47.8033 7.79261 49.1705 8.10582 50.3438 8.73224C51.517 9.34872 52.4268 10.2983 53.0732 11.581C53.7294 12.8537 54.0575 14.4744 54.0575 16.4432V31H50.5376V16.6818C50.5376 14.8622 50.0653 13.4553 49.1207 12.4609C48.1861 11.4567 46.8885 10.9545 45.228 10.9545C44.0746 10.9545 43.0405 11.1982 42.1257 11.6854C41.2209 12.1726 40.505 12.8835 39.978 13.8182C39.4609 14.7528 39.2024 15.8864 39.2024 17.2188ZM69.8038 31.4773C67.7356 31.4773 65.921 30.9851 64.3599 30.0007C62.8088 29.0163 61.5957 27.6392 60.7207 25.8693C59.8556 24.0994 59.4231 22.0312 59.4231 19.6648C59.4231 17.2784 59.8556 15.1953 60.7207 13.4155C61.5957 11.6357 62.8088 10.2536 64.3599 9.26918C65.921 8.2848 67.7356 7.79261 69.8038 7.79261C71.872 7.79261 73.6816 8.2848 75.2328 9.26918C76.7939 10.2536 78.0069 11.6357 78.872 13.4155C79.747 15.1953 80.1845 17.2784 80.1845 19.6648C80.1845 22.0312 79.747 24.0994 78.872 25.8693C78.0069 27.6392 76.7939 29.0163 75.2328 30.0007C73.6816 30.9851 71.872 31.4773 69.8038 31.4773ZM69.8038 28.3153C71.3748 28.3153 72.6674 27.9126 73.6816 27.1072C74.6958 26.3018 75.4466 25.2429 75.9338 23.9304C76.421 22.6179 76.6646 21.196 76.6646 19.6648C76.6646 18.1335 76.421 16.7067 75.9338 15.3842C75.4466 14.0618 74.6958 12.9929 73.6816 12.1776C72.6674 11.3622 71.3748 10.9545 69.8038 10.9545C68.2328 10.9545 66.9402 11.3622 65.926 12.1776C64.9118 12.9929 64.161 14.0618 63.6738 15.3842C63.1866 16.7067 62.943 18.1335 62.943 19.6648C62.943 21.196 63.1866 22.6179 63.6738 23.9304C64.161 25.2429 64.9118 26.3018 65.926 27.1072C66.9402 27.9126 68.2328 28.3153 69.8038 28.3153ZM94.8643 31.4773C92.7962 31.4773 90.9815 30.9851 89.4205 30.0007C87.8693 29.0163 86.6562 27.6392 85.7812 25.8693C84.9162 24.0994 84.4837 22.0312 84.4837 19.6648C84.4837 17.2784 84.9162 15.1953 85.7812 13.4155C86.6562 11.6357 87.8693 10.2536 89.4205 9.26918C90.9815 8.2848 92.7962 7.79261 94.8643 7.79261C96.9325 7.79261 98.7422 8.2848 100.293 9.26918C101.854 10.2536 103.067 11.6357 103.933 13.4155C104.808 15.1953 105.245 17.2784 105.245 19.6648C105.245 22.0312 104.808 24.0994 103.933 25.8693C103.067 27.6392 101.854 29.0163 100.293 30.0007C98.7422 30.9851 96.9325 31.4773 94.8643 31.4773ZM94.8643 28.3153C96.4354 28.3153 97.728 27.9126 98.7422 27.1072C99.7564 26.3018 100.507 25.2429 100.994 23.9304C101.482 22.6179 101.725 21.196 101.725 19.6648C101.725 18.1335 101.482 16.7067 100.994 15.3842C100.507 14.0618 99.7564 12.9929 98.7422 12.1776C97.728 11.3622 96.4354 10.9545 94.8643 10.9545C93.2933 10.9545 92.0007 11.3622 90.9865 12.1776C89.9723 12.9929 89.2216 14.0618 88.7344 15.3842C88.2472 16.7067 88.0036 18.1335 88.0036 19.6648C88.0036 21.196 88.2472 22.6179 88.7344 23.9304C89.2216 25.2429 89.9723 26.3018 90.9865 27.1072C92.0007 27.9126 93.2933 28.3153 94.8643 28.3153ZM126.845 13.2216L123.683 14.1165C123.485 13.5895 123.191 13.0774 122.803 12.5803C122.426 12.0732 121.909 11.6555 121.252 11.3274C120.596 10.9993 119.756 10.8352 118.732 10.8352C117.33 10.8352 116.161 11.1584 115.227 11.8047C114.302 12.4411 113.84 13.2514 113.84 14.2358C113.84 15.1108 114.158 15.8018 114.794 16.3089C115.431 16.8161 116.425 17.2386 117.777 17.5767L121.178 18.4119C123.226 18.9091 124.752 19.6697 125.757 20.6939C126.761 21.7081 127.263 23.0156 127.263 24.6165C127.263 25.929 126.885 27.1023 126.129 28.1364C125.384 29.1705 124.34 29.9858 122.997 30.5824C121.655 31.179 120.094 31.4773 118.314 31.4773C115.977 31.4773 114.044 30.9702 112.512 29.956C110.981 28.9418 110.012 27.4602 109.604 25.5114L112.945 24.6761C113.263 25.9091 113.865 26.8338 114.749 27.4503C115.644 28.0668 116.813 28.375 118.254 28.375C119.895 28.375 121.198 28.027 122.162 27.331C123.137 26.625 123.624 25.7798 123.624 24.7955C123.624 24 123.345 23.3338 122.789 22.7969C122.232 22.25 121.377 21.8423 120.223 21.5739L116.405 20.679C114.307 20.1818 112.766 19.4112 111.781 18.3672C110.807 17.3132 110.32 15.9957 110.32 14.4148C110.32 13.1222 110.683 11.9787 111.409 10.9844C112.144 9.99006 113.144 9.20952 114.406 8.64275C115.679 8.07599 117.121 7.79261 118.732 7.79261C120.999 7.79261 122.779 8.28977 124.071 9.28409C125.374 10.2784 126.298 11.5909 126.845 13.2216ZM142.167 31.4773C139.959 31.4773 138.055 30.9901 136.454 30.0156C134.863 29.0312 133.635 27.6591 132.77 25.8991C131.915 24.1293 131.488 22.071 131.488 19.7244C131.488 17.3778 131.915 15.3097 132.77 13.5199C133.635 11.7202 134.838 10.3182 136.38 9.31392C137.931 8.29972 139.74 7.79261 141.809 7.79261C143.002 7.79261 144.18 7.99148 145.343 8.3892C146.507 8.78693 147.566 9.43324 148.52 10.3281C149.475 11.2131 150.235 12.3864 150.802 13.848C151.369 15.3097 151.652 17.1094 151.652 19.2472V20.7386H133.993V17.696H148.073C148.073 16.4034 147.814 15.25 147.297 14.2358C146.79 13.2216 146.064 12.4212 145.12 11.8345C144.185 11.2479 143.081 10.9545 141.809 10.9545C140.407 10.9545 139.194 11.3026 138.169 11.9986C137.155 12.6847 136.375 13.5795 135.828 14.6832C135.281 15.7869 135.007 16.9702 135.007 18.233V20.2614C135.007 21.9915 135.306 23.4581 135.902 24.6612C136.509 25.8544 137.349 26.7642 138.423 27.3906C139.497 28.0071 140.745 28.3153 142.167 28.3153C143.091 28.3153 143.926 28.1861 144.672 27.9276C145.428 27.6591 146.079 27.2614 146.626 26.7344C147.173 26.1974 147.596 25.5312 147.894 24.7358L151.294 25.6903C150.936 26.8438 150.335 27.858 149.49 28.733C148.645 29.598 147.6 30.2741 146.358 30.7614C145.115 31.2386 143.718 31.4773 142.167 31.4773ZM170.549 31H166.672L177.887 0.454545H181.706L192.922 31H189.044L179.916 5.28693H179.677L170.549 31ZM171.981 19.0682H187.612V22.3494H171.981V19.0682ZM201.378 0.454545V31H197.679V0.454545H201.378ZM28.1953 82H18.7692V51.4545H28.6129C31.576 51.4545 34.1115 52.0661 36.2195 53.2891C38.3274 54.5021 39.9432 56.2472 41.0668 58.5241C42.1903 60.7912 42.7521 63.5057 42.7521 66.6676C42.7521 69.8494 42.1854 72.5888 41.0518 74.8857C39.9183 77.1726 38.2678 78.9325 36.1001 80.1655C33.9325 81.3885 31.2976 82 28.1953 82ZM22.468 78.7188H27.9567C30.4822 78.7188 32.5753 78.2315 34.2358 77.2571C35.8963 76.2827 37.1342 74.8956 37.9496 73.0959C38.7649 71.2962 39.1726 69.1534 39.1726 66.6676C39.1726 64.2017 38.7699 62.0788 37.9645 60.299C37.1591 58.5092 35.956 57.1371 34.3551 56.1825C32.7543 55.218 30.7607 54.7358 28.3743 54.7358H22.468V78.7188ZM48.4794 82V59.0909H51.9993V82H48.4794ZM50.2692 55.2727C49.5831 55.2727 48.9915 55.0391 48.4943 54.5717C48.0071 54.1044 47.7635 53.5426 47.7635 52.8864C47.7635 52.2301 48.0071 51.6683 48.4943 51.201C48.9915 50.7337 49.5831 50.5 50.2692 50.5C50.9553 50.5 51.5419 50.7337 52.0291 51.201C52.5263 51.6683 52.7749 52.2301 52.7749 52.8864C52.7749 53.5426 52.5263 54.1044 52.0291 54.5717C51.5419 55.0391 50.9553 55.2727 50.2692 55.2727ZM68.6479 59.0909V62.0739H56.2985V59.0909H68.6479ZM59.9973 82V55.929C59.9973 54.6165 60.3056 53.5227 60.9221 52.6477C61.5385 51.7727 62.339 51.1165 63.3233 50.679C64.3077 50.2415 65.3468 50.0227 66.4405 50.0227C67.3056 50.0227 68.0115 50.0923 68.5584 50.2315C69.1053 50.3707 69.513 50.5 69.7814 50.6193L68.7672 53.6619C68.5882 53.6023 68.3397 53.5277 68.0215 53.4382C67.7132 53.3487 67.3056 53.304 66.7985 53.304C65.6351 53.304 64.7949 53.5973 64.2779 54.1839C63.7708 54.7706 63.5172 55.6307 63.5172 56.7642V82H59.9973ZM83.7827 59.0909V62.0739H71.4332V59.0909H83.7827ZM75.1321 82V55.929C75.1321 54.6165 75.4403 53.5227 76.0568 52.6477C76.6733 51.7727 77.4737 51.1165 78.4581 50.679C79.4425 50.2415 80.4815 50.0227 81.5753 50.0227C82.4403 50.0227 83.1463 50.0923 83.6932 50.2315C84.2401 50.3707 84.6477 50.5 84.9162 50.6193L83.902 53.6619C83.723 53.6023 83.4744 53.5277 83.1562 53.4382C82.848 53.3487 82.4403 53.304 81.9332 53.304C80.7699 53.304 79.9297 53.5973 79.4126 54.1839C78.9055 54.7706 78.652 55.6307 78.652 56.7642V82H75.1321ZM88.7157 82V59.0909H92.2356V82H88.7157ZM90.5055 55.2727C89.8194 55.2727 89.2278 55.0391 88.7306 54.5717C88.2434 54.1044 87.9998 53.5426 87.9998 52.8864C87.9998 52.2301 88.2434 51.6683 88.7306 51.201C89.2278 50.7337 89.8194 50.5 90.5055 50.5C91.1916 50.5 91.7782 50.7337 92.2654 51.201C92.7626 51.6683 93.0112 52.2301 93.0112 52.8864C93.0112 53.5426 92.7626 54.1044 92.2654 54.5717C91.7782 55.0391 91.1916 55.2727 90.5055 55.2727ZM107.989 82.4773C105.842 82.4773 103.992 81.9702 102.441 80.956C100.89 79.9418 99.6967 78.5447 98.8615 76.7649C98.0263 74.9851 97.6087 72.9517 97.6087 70.6648C97.6087 68.3381 98.0362 66.2848 98.8913 64.505C99.7564 62.7152 100.96 61.3182 102.501 60.3139C104.052 59.2997 105.862 58.7926 107.93 58.7926C109.54 58.7926 110.992 59.0909 112.285 59.6875C113.577 60.2841 114.636 61.1193 115.462 62.1932C116.287 63.267 116.799 64.5199 116.998 65.9517H113.478C113.21 64.9077 112.613 63.983 111.688 63.1776C110.773 62.3622 109.54 61.9545 107.989 61.9545C106.617 61.9545 105.414 62.3125 104.38 63.0284C103.356 63.7344 102.555 64.7337 101.979 66.0263C101.412 67.3089 101.129 68.8153 101.129 70.5455C101.129 72.3153 101.407 73.8565 101.964 75.169C102.531 76.4815 103.326 77.5007 104.35 78.2266C105.384 78.9524 106.597 79.3153 107.989 79.3153C108.904 79.3153 109.734 79.1562 110.48 78.8381C111.226 78.5199 111.857 78.0625 112.374 77.4659C112.891 76.8693 113.259 76.1534 113.478 75.3182H116.998C116.799 76.6705 116.307 77.8885 115.521 78.9723C114.746 80.0462 113.717 80.9013 112.434 81.5376C111.161 82.1641 109.68 82.4773 107.989 82.4773ZM136.581 72.6335V59.0909H140.101V82H136.581V78.1222H136.342C135.805 79.2855 134.97 80.2749 133.837 81.0902C132.703 81.8956 131.271 82.2983 129.541 82.2983C128.109 82.2983 126.837 81.9851 125.723 81.3587C124.609 80.7223 123.734 79.7678 123.098 78.495C122.462 77.2124 122.143 75.5966 122.143 73.6477V59.0909H125.663V73.4091C125.663 75.0795 126.131 76.4119 127.065 77.4062C128.01 78.4006 129.213 78.8977 130.675 78.8977C131.55 78.8977 132.44 78.674 133.344 78.2266C134.259 77.7791 135.025 77.093 135.641 76.1683C136.268 75.2436 136.581 74.0653 136.581 72.6335ZM150.068 51.4545V82H146.548V51.4545H150.068ZM166.478 59.0909V62.0739H154.605V59.0909H166.478ZM158.066 53.6023H161.586V75.4375C161.586 76.4318 161.73 77.1776 162.018 77.6747C162.316 78.1619 162.694 78.4901 163.152 78.6591C163.619 78.8182 164.111 78.8977 164.628 78.8977C165.016 78.8977 165.334 78.8778 165.583 78.8381C165.831 78.7884 166.03 78.7486 166.179 78.7188L166.895 81.8807C166.657 81.9702 166.324 82.0597 165.896 82.1491C165.468 82.2486 164.926 82.2983 164.27 82.2983C163.276 82.2983 162.301 82.0845 161.347 81.657C160.402 81.2294 159.617 80.5781 158.99 79.7031C158.374 78.8281 158.066 77.7244 158.066 76.392V53.6023ZM174.039 90.5909C173.443 90.5909 172.911 90.5412 172.444 90.4418C171.976 90.3523 171.653 90.2628 171.474 90.1733L172.369 87.071C173.224 87.2898 173.98 87.3693 174.636 87.3097C175.292 87.25 175.874 86.9567 176.381 86.4297C176.898 85.9126 177.37 85.0724 177.798 83.9091L178.454 82.1193L169.983 59.0909H173.801L180.125 77.3466H180.363L186.687 59.0909H190.505L180.781 85.3409C180.343 86.5241 179.801 87.5036 179.155 88.2791C178.509 89.0646 177.758 89.6463 176.903 90.0241C176.058 90.402 175.103 90.5909 174.039 90.5909Z" fill="white"/>
<path d="M30.1827 10V11H31.3755L31.1674 9.8255L30.1827 10ZM26.4838 10L25.5043 10.2014L25.6685 11H26.4838V10ZM25.3354 7.19602L24.5033 7.75074L24.5081 7.75777L25.3354 7.19602ZM23.3667 5.16761L22.7785 5.97635L22.7844 5.98065L22.7904 5.98487L23.3667 5.16761ZM20.8162 3.91477L20.5308 4.87316L20.8162 3.91477ZM12.8667 4.89915L12.3382 4.0502L12.3356 4.05178L12.8667 4.89915ZM9.30202 9.03054L8.40273 8.59318L8.40081 8.59717L9.30202 9.03054ZM9.30202 22.424L8.4008 22.8574L8.40274 22.8614L9.30202 22.424ZM12.8667 26.5554L12.3356 27.4028L12.3382 27.4043L12.8667 26.5554ZM20.8162 27.5398L20.5308 26.5814H20.5308L20.8162 27.5398ZM23.3667 26.3018L23.9479 27.1156L23.9499 27.1142L23.3667 26.3018ZM25.3354 24.2585L24.5049 23.7015L24.5034 23.7038L25.3354 24.2585ZM26.4838 21.4545V20.4545H25.6701L25.5047 21.2513L26.4838 21.4545ZM30.1827 21.4545L31.1672 21.6301L31.3768 20.4545H30.1827V21.4545ZM28.6614 25.6456L27.8027 25.1331L28.6614 25.6456ZM25.9171 28.7926L26.533 29.5804L26.5374 29.577L25.9171 28.7926ZM22.2331 30.7464L21.9211 29.7964L21.919 29.7971L22.2331 30.7464ZM10.9426 29.5085L10.4112 30.3556L10.9426 29.5085ZM6.15501 24.0795L7.05095 23.6354L6.15501 24.0795ZM22.2331 0.708096L21.919 1.65748L21.9211 1.65816L22.2331 0.708096ZM25.9171 2.67685L25.2967 3.46119L25.3012 3.46465L25.9171 2.67685ZM28.6614 5.80895L27.8027 6.32141L27.8045 6.32447L28.6614 5.80895ZM30.1827 9H26.4838V11H30.1827V9ZM27.4634 9.7986C27.2212 8.62064 26.7917 7.56053 26.1627 6.63427L24.5081 7.75777C24.9729 8.44231 25.309 9.25152 25.5043 10.2014L27.4634 9.7986ZM26.1675 6.64132C25.5636 5.73549 24.8212 4.96968 23.9429 4.35036L22.7904 5.98487C23.4632 6.4593 24.0334 7.04576 24.5034 7.75072L26.1675 6.64132ZM23.9548 4.35888C23.0948 3.73337 22.1417 3.26617 21.1017 2.95639L20.5308 4.87316C21.3601 5.12019 22.1073 5.48822 22.7785 5.97635L23.9548 4.35888ZM21.1017 2.95639C20.0708 2.64929 18.9999 2.49716 17.8929 2.49716V4.49716C18.8144 4.49716 19.6924 4.62343 20.5308 4.87316L21.1017 2.95639ZM17.8929 2.49716C15.8656 2.49716 14.0056 3.01219 12.3382 4.0502L13.3951 5.74809C14.7305 4.91679 16.2214 4.49716 17.8929 4.49716V2.49716ZM12.3356 4.05178C10.6628 5.1001 9.35709 6.63085 8.40274 8.59318L10.2013 9.4679C11.0168 7.79102 12.0876 6.56752 13.3977 5.74651L12.3356 4.05178ZM8.40081 8.59717C7.44388 10.5871 6.98952 12.977 6.98952 15.7273H8.98952C8.98952 13.1878 9.41017 11.1131 10.2032 9.46391L8.40081 8.59717ZM6.98952 15.7273C6.98952 18.4776 7.44388 20.8674 8.40081 22.8574L10.2032 21.9906C9.41017 20.3414 8.98952 18.2667 8.98952 15.7273H6.98952ZM8.40274 22.8614C9.35709 24.8237 10.6628 26.3545 12.3356 27.4028L13.3977 25.708C12.0876 24.887 11.0168 23.6635 10.2013 21.9866L8.40274 22.8614ZM12.3382 27.4043C14.0056 28.4424 15.8656 28.9574 17.8929 28.9574V26.9574C16.2214 26.9574 14.7305 26.5378 13.3951 25.7065L12.3382 27.4043ZM17.8929 28.9574C18.9999 28.9574 20.0708 28.8053 21.1017 28.4982L20.5308 26.5814C19.6924 26.8311 18.8144 26.9574 17.8929 26.9574V28.9574ZM21.1017 28.4982C22.1384 28.1894 23.0891 27.729 23.9479 27.1156L22.7854 25.4881C22.113 25.9684 21.3634 26.3334 20.5308 26.5814L21.1017 28.4982ZM23.9499 27.1142C24.8246 26.4862 25.5647 25.7174 26.1675 24.8132L24.5034 23.7038C24.0322 24.4105 23.4599 25.0039 22.7834 25.4895L23.9499 27.1142ZM26.1659 24.8156C26.7913 23.8831 27.2205 22.8259 27.463 21.6578L25.5047 21.2513C25.3097 22.1911 24.9732 23.0033 24.5049 23.7015L26.1659 24.8156ZM26.4838 22.4545H30.1827V20.4545H26.4838V22.4545ZM29.1982 21.279C28.9388 22.7335 28.4704 24.0142 27.8027 25.1331L29.5201 26.1581C30.324 24.811 30.8698 23.2978 31.1672 21.6301L29.1982 21.279ZM27.8027 25.1331C27.1273 26.2649 26.2923 27.2209 25.2967 28.0083L26.5374 29.577C27.7293 28.6343 28.7239 27.4922 29.5201 26.1581L27.8027 25.1331ZM25.3012 28.0048C24.3015 28.7863 23.177 29.3838 21.9211 29.7964L22.5452 31.6965C24.0137 31.2142 25.3451 30.5091 26.533 29.5804L25.3012 28.0048ZM21.919 29.7971C20.676 30.2083 19.3361 30.4176 17.8929 30.4176V32.4176C19.5321 32.4176 21.0857 32.1794 22.5473 31.6958L21.919 29.7971ZM17.8929 30.4176C15.4587 30.4176 13.3293 29.8255 11.4741 28.6615L10.4112 30.3556C12.6128 31.737 15.117 32.4176 17.8929 32.4176V30.4176ZM11.4741 28.6615C9.61656 27.4959 8.14027 25.8326 7.05095 23.6354L5.25907 24.5237C6.49644 27.0196 8.21192 28.9757 10.4112 30.3556L11.4741 28.6615ZM7.05095 23.6354C5.96998 21.455 5.40998 18.8296 5.40998 15.7273H3.40998C3.40998 19.0682 4.01333 22.011 5.25907 24.5237L7.05095 23.6354ZM5.40998 15.7273C5.40998 12.625 5.96998 9.99959 7.05095 7.81917L5.25907 6.93083C4.01333 9.44359 3.40998 12.3864 3.40998 15.7273H5.40998ZM7.05095 7.81917C8.14027 5.6219 9.61656 3.95862 11.4741 2.79309L10.4112 1.09896C8.21192 2.47888 6.49644 4.43492 5.25907 6.93083L7.05095 7.81917ZM11.4741 2.79309C13.3293 1.62903 15.4587 1.03693 17.8929 1.03693V-0.963069C15.117 -0.963069 12.6128 -0.282443 10.4112 1.09896L11.4741 2.79309ZM17.8929 1.03693C19.3361 1.03693 20.676 1.2462 21.919 1.65747L22.5473 -0.241283C21.0857 -0.724897 19.5321 -0.963069 17.8929 -0.963069V1.03693ZM21.9211 1.65816C23.1748 2.06996 24.2978 2.67112 25.2967 3.46118L26.5374 1.89251C25.3488 0.952457 24.0159 0.241117 22.5452 -0.241965L21.9211 1.65816ZM25.3012 3.46465C26.2944 4.24115 27.1279 5.19074 27.8027 6.32141L29.5201 5.29649C28.7233 3.96124 27.7273 2.82277 26.533 1.88904L25.3012 3.46465ZM27.8045 6.32447C28.4702 7.43094 28.9385 8.70987 29.1981 10.1745L31.1674 9.8255C30.8701 8.14808 30.3242 6.63297 29.5183 5.29343L27.8045 6.32447ZM39.2024 31V32H40.2024V31H39.2024ZM35.6825 31H34.6825V32H35.6825V31ZM35.6825 0.454544V-0.545456H34.6825V0.454544H35.6825ZM39.2024 0.454544H40.2024V-0.545456H39.2024V0.454544ZM39.2024 11.6705H38.2024V12.6705H39.2024V11.6705ZM39.5007 11.6705V12.6705H40.1451L40.4113 12.0837L39.5007 11.6705ZM41.9169 8.85156L42.4608 9.69072L42.4627 9.68948L41.9169 8.85156ZM50.3438 8.73224L49.8728 9.61441L49.8786 9.61749L50.3438 8.73224ZM53.0732 11.581L52.1801 12.031L52.1843 12.0393L53.0732 11.581ZM54.0575 31V32H55.0575V31H54.0575ZM50.5376 31H49.5376V32H50.5376V31ZM49.1207 12.4609L48.3887 13.1423L48.3957 13.1497L49.1207 12.4609ZM42.1257 11.6854L41.6556 10.8027L41.6516 10.8049L42.1257 11.6854ZM39.978 13.8182L39.1069 13.327L39.103 13.3341L39.978 13.8182ZM38.2024 17.2188V31H40.2024V17.2188H38.2024ZM39.2024 30H35.6825V32H39.2024V30ZM36.6825 31V0.454544H34.6825V31H36.6825ZM35.6825 1.45454H39.2024V-0.545456H35.6825V1.45454ZM38.2024 0.454544V11.6705H40.2024V0.454544H38.2024ZM39.2024 12.6705H39.5007V10.6705H39.2024V12.6705ZM40.4113 12.0837C40.8705 11.0717 41.55 10.2811 42.4608 9.69072L41.373 8.01241C40.1361 8.81411 39.2047 9.90271 38.5901 11.2572L40.4113 12.0837ZM42.4627 9.68948C43.3322 9.12313 44.5632 8.79261 46.2422 8.79261V6.79261C44.3217 6.79261 42.6693 7.16807 41.3711 8.01365L42.4627 9.68948ZM46.2422 8.79261C47.6676 8.79261 48.8677 9.07777 49.8728 9.61439L50.8147 7.8501C49.4732 7.13388 47.939 6.79261 46.2422 6.79261V8.79261ZM49.8786 9.61749C50.8518 10.1288 51.6193 10.918 52.1801 12.0309L53.9662 11.131C53.2344 9.67859 52.1823 8.56864 50.8089 7.847L49.8786 9.61749ZM52.1843 12.0393C52.7454 13.1273 53.0575 14.5772 53.0575 16.4432H55.0575C55.0575 14.3716 54.7134 12.5801 53.962 11.1227L52.1843 12.0393ZM53.0575 16.4432V31H55.0575V16.4432H53.0575ZM54.0575 30H50.5376V32H54.0575V30ZM51.5376 31V16.6818H49.5376V31H51.5376ZM51.5376 16.6818C51.5376 14.6919 51.0184 13.0065 49.8457 11.7722L48.3957 13.1497C49.1123 13.904 49.5376 15.0325 49.5376 16.6818H51.5376ZM49.8528 11.7797C48.6899 10.5302 47.1031 9.95454 45.228 9.95454V11.9545C46.6739 11.9545 47.6823 12.3832 48.3887 13.1422L49.8528 11.7797ZM45.228 9.95454C43.9294 9.95454 42.7308 10.2301 41.6556 10.8027L42.5958 12.568C43.3501 12.1662 44.2197 11.9545 45.228 11.9545V9.95454ZM41.6516 10.8049C40.5728 11.3858 39.7225 12.2353 39.1069 13.327L40.8491 14.3093C41.2875 13.5317 41.869 12.9594 42.5998 12.5658L41.6516 10.8049ZM39.103 13.3341C38.486 14.4493 38.2024 15.7583 38.2024 17.2188H40.2024C40.2024 16.0144 40.4358 15.0564 40.853 14.3022L39.103 13.3341ZM64.3599 30.0007L63.8241 30.845L63.8265 30.8466L64.3599 30.0007ZM60.7207 25.8693L59.8223 26.3084L59.8243 26.3125L60.7207 25.8693ZM60.7207 13.4155L59.8233 12.9743L59.8213 12.9783L60.7207 13.4155ZM64.3599 9.26918L63.8265 8.4233L63.8241 8.42485L64.3599 9.26918ZM75.2328 9.26918L74.697 10.1135L74.6994 10.115L75.2328 9.26918ZM78.872 13.4155L77.9726 13.8526L77.9746 13.8567L78.872 13.4155ZM78.872 25.8693L77.9755 25.4261L77.9736 25.4302L78.872 25.8693ZM75.2328 30.0007L74.6994 29.1548L74.697 29.1564L75.2328 30.0007ZM73.6816 27.1072L73.0598 26.3241L73.6816 27.1072ZM75.9338 23.9304L76.8713 24.2784L75.9338 23.9304ZM75.9338 15.3842L76.8721 15.0385L75.9338 15.3842ZM73.6816 12.1776L74.3082 11.3982L73.6816 12.1776ZM65.926 12.1776L65.2994 11.3982L65.926 12.1776ZM63.6738 15.3842L62.7355 15.0385H62.7355L63.6738 15.3842ZM63.6738 23.9304L62.7363 24.2784L63.6738 23.9304ZM65.926 27.1072L66.5478 26.3241L65.926 27.1072ZM69.8038 30.4773C67.9009 30.4773 66.2759 30.0267 64.8933 29.1548L63.8265 30.8466C65.566 31.9435 67.5703 32.4773 69.8038 32.4773V30.4773ZM64.8957 29.1564C63.5108 28.2775 62.4172 27.0445 61.6171 25.4261L59.8243 26.3125C60.7742 28.2339 62.1067 29.7552 63.8241 30.845L64.8957 29.1564ZM61.6191 25.4302C60.833 23.8219 60.4231 21.9093 60.4231 19.6648H58.4231C58.4231 22.1532 58.8783 24.377 59.8223 26.3084L61.6191 25.4302ZM60.4231 19.6648C60.4231 17.3991 60.8335 15.471 61.6201 13.8526L59.8213 12.9783C58.8778 14.9196 58.4231 17.1577 58.4231 19.6648H60.4231ZM61.6181 13.8567C62.4187 12.2283 63.5123 10.9915 64.8957 10.1135L63.8241 8.42485C62.1053 9.51562 60.7727 11.043 59.8233 12.9743L61.6181 13.8567ZM64.8933 10.115C66.2759 9.24319 67.9009 8.79261 69.8038 8.79261V6.79261C67.5703 6.79261 65.566 7.32641 63.8265 8.4233L64.8933 10.115ZM69.8038 8.79261C71.7068 8.79261 73.3256 9.24322 74.697 10.1135L75.7686 8.42485C74.0377 7.32639 72.0372 6.79261 69.8038 6.79261V8.79261ZM74.6994 10.115C76.0913 10.9927 77.1829 12.2279 77.9726 13.8526L79.7714 12.9783C78.8309 11.0434 77.4964 9.51436 75.7662 8.4233L74.6994 10.115ZM77.9746 13.8567C78.7697 15.4741 79.1845 17.4007 79.1845 19.6648H81.1845C81.1845 17.1561 80.7242 14.9165 79.7694 12.9743L77.9746 13.8567ZM79.1845 19.6648C79.1845 21.9077 78.7702 23.8188 77.9755 25.4261L79.7684 26.3125C80.7238 24.3801 81.1845 22.1548 81.1845 19.6648H79.1845ZM77.9736 25.4302C77.1843 27.045 76.0927 28.2763 74.6994 29.1548L75.7662 30.8466C77.495 29.7564 78.8295 28.2334 79.7704 26.3084L77.9736 25.4302ZM74.697 29.1564C73.3256 30.0267 71.7068 30.4773 69.8038 30.4773V32.4773C72.0372 32.4773 74.0377 31.9435 75.7686 30.845L74.697 29.1564ZM69.8038 29.3153C71.551 29.3153 73.0771 28.8642 74.3035 27.8904L73.0598 26.3241C72.2577 26.961 71.1987 27.3153 69.8038 27.3153V29.3153ZM74.3035 27.8904C75.4722 26.9623 76.3259 25.7477 76.8713 24.2784L74.9963 23.5824C74.5673 24.7381 73.9195 25.6414 73.0598 26.3241L74.3035 27.8904ZM76.8713 24.2784C77.4035 22.8446 77.6646 21.3037 77.6646 19.6648H75.6646C75.6646 21.0884 75.4384 22.3912 74.9963 23.5824L76.8713 24.2784ZM77.6646 19.6648C77.6646 18.0258 77.4035 16.4809 76.8721 15.0385L74.9954 15.7299C75.4385 16.9325 75.6646 18.2413 75.6646 19.6648H77.6646ZM76.8721 15.0385C76.3276 13.5606 75.4754 12.3365 74.3082 11.3982L73.0551 12.9569C73.9163 13.6493 74.5655 14.563 74.9954 15.7299L76.8721 15.0385ZM74.3082 11.3982C73.0817 10.4122 71.5538 9.95454 69.8038 9.95454V11.9545C71.1958 11.9545 72.2532 12.3123 73.0551 12.9569L74.3082 11.3982ZM69.8038 9.95454C68.0538 9.95454 66.5259 10.4122 65.2994 11.3982L66.5525 12.9569C67.3544 12.3123 68.4118 11.9545 69.8038 11.9545V9.95454ZM65.2994 11.3982C64.1322 12.3365 63.28 13.5606 62.7355 15.0385L64.6122 15.7299C65.0421 14.563 65.6913 13.6493 66.5525 12.9569L65.2994 11.3982ZM62.7355 15.0385C62.2041 16.4809 61.943 18.0258 61.943 19.6648H63.943C63.943 18.2413 64.1691 16.9325 64.6122 15.7299L62.7355 15.0385ZM61.943 19.6648C61.943 21.3037 62.2041 22.8446 62.7363 24.2784L64.6113 23.5824C64.1692 22.3912 63.943 21.0884 63.943 19.6648H61.943ZM62.7363 24.2784C63.2817 25.7477 64.1354 26.9623 65.3041 27.8904L66.5478 26.3241C65.6881 25.6414 65.0403 24.7381 64.6113 23.5824L62.7363 24.2784ZM65.3041 27.8904C66.5305 28.8642 68.0566 29.3153 69.8038 29.3153V27.3153C68.409 27.3153 67.3499 26.961 66.5478 26.3241L65.3041 27.8904ZM89.4205 30.0007L88.8846 30.845L88.8871 30.8466L89.4205 30.0007ZM85.7812 25.8693L84.8828 26.3084L84.8848 26.3125L85.7812 25.8693ZM85.7812 13.4155L84.8838 12.9743L84.8819 12.9783L85.7812 13.4155ZM89.4205 9.26918L88.8871 8.4233L88.8846 8.42485L89.4205 9.26918ZM100.293 9.26918L99.7575 10.1135L99.7599 10.115L100.293 9.26918ZM103.933 13.4155L103.033 13.8526L103.035 13.8567L103.933 13.4155ZM103.933 25.8693L103.036 25.4261L103.034 25.4302L103.933 25.8693ZM100.293 30.0007L99.7599 29.1548L99.7575 29.1564L100.293 30.0007ZM98.7422 27.1072L98.1203 26.3241L98.7422 27.1072ZM100.994 23.9304L101.932 24.2784L100.994 23.9304ZM100.994 15.3842L101.933 15.0385L100.994 15.3842ZM98.7422 12.1776L99.3687 11.3982L98.7422 12.1776ZM90.9865 12.1776L90.3599 11.3982L90.9865 12.1776ZM88.7344 15.3842L87.796 15.0385H87.796L88.7344 15.3842ZM88.7344 23.9304L87.7969 24.2784L88.7344 23.9304ZM90.9865 27.1072L91.6084 26.3241L90.9865 27.1072ZM94.8643 30.4773C92.9615 30.4773 91.3365 30.0267 89.9538 29.1548L88.8871 30.8466C90.6266 31.9435 92.6309 32.4773 94.8643 32.4773V30.4773ZM89.9563 29.1564C88.5714 28.2775 87.4778 27.0445 86.6777 25.4261L84.8848 26.3125C85.8347 28.2339 87.1672 29.7552 88.8846 30.845L89.9563 29.1564ZM86.6797 25.4302C85.8936 23.8219 85.4837 21.9093 85.4837 19.6648H83.4837C83.4837 22.1532 83.9388 24.377 84.8828 26.3084L86.6797 25.4302ZM85.4837 19.6648C85.4837 17.3991 85.894 15.471 86.6806 13.8526L84.8819 12.9783C83.9383 14.9196 83.4837 17.1577 83.4837 19.6648H85.4837ZM86.6787 13.8567C87.4792 12.2283 88.5728 10.9915 89.9563 10.1135L88.8846 8.42485C87.1658 9.51562 85.8333 11.043 84.8838 12.9743L86.6787 13.8567ZM89.9538 10.115C91.3365 9.24319 92.9615 8.79261 94.8643 8.79261V6.79261C92.6309 6.79261 90.6266 7.32641 88.8871 8.4233L89.9538 10.115ZM94.8643 8.79261C96.7673 8.79261 98.3861 9.24322 99.7575 10.1135L100.829 8.42485C99.0982 7.32639 97.0977 6.79261 94.8643 6.79261V8.79261ZM99.7599 10.115C101.152 10.9927 102.243 12.2279 103.033 13.8526L104.832 12.9783C103.891 11.0434 102.557 9.51436 100.827 8.4233L99.7599 10.115ZM103.035 13.8567C103.83 15.4741 104.245 17.4007 104.245 19.6648H106.245C106.245 17.1561 105.785 14.9165 104.83 12.9743L103.035 13.8567ZM104.245 19.6648C104.245 21.9077 103.831 23.8188 103.036 25.4261L104.829 26.3125C105.784 24.3801 106.245 22.1548 106.245 19.6648H104.245ZM103.034 25.4302C102.245 27.045 101.153 28.2763 99.7599 29.1548L100.827 30.8466C102.556 29.7564 103.89 28.2334 104.831 26.3084L103.034 25.4302ZM99.7575 29.1564C98.3861 30.0267 96.7673 30.4773 94.8643 30.4773V32.4773C97.0977 32.4773 99.0982 31.9435 100.829 30.845L99.7575 29.1564ZM94.8643 29.3153C96.6115 29.3153 98.1377 28.8642 99.3641 27.8904L98.1203 26.3241C97.3183 26.961 96.2592 27.3153 94.8643 27.3153V29.3153ZM99.3641 27.8904C100.533 26.9623 101.386 25.7477 101.932 24.2784L100.057 23.5824C99.6278 24.7381 98.98 25.6414 98.1203 26.3241L99.3641 27.8904ZM101.932 24.2784C102.464 22.8446 102.725 21.3037 102.725 19.6648H100.725C100.725 21.0884 100.499 22.3912 100.057 23.5824L101.932 24.2784ZM102.725 19.6648C102.725 18.0258 102.464 16.4809 101.933 15.0385L100.056 15.7299C100.499 16.9325 100.725 18.2413 100.725 19.6648H102.725ZM101.933 15.0385C101.388 13.5606 100.536 12.3365 99.3687 11.3982L98.1156 12.9569C98.9768 13.6493 99.6261 14.563 100.056 15.7299L101.933 15.0385ZM99.3687 11.3982C98.1422 10.4122 96.6143 9.95454 94.8643 9.95454V11.9545C96.2564 11.9545 97.3137 12.3123 98.1156 12.9569L99.3687 11.3982ZM94.8643 9.95454C93.1143 9.95454 91.5865 10.4122 90.3599 11.3982L91.6131 12.9569C92.415 12.3123 93.4723 11.9545 94.8643 11.9545V9.95454ZM90.3599 11.3982C89.1927 12.3365 88.3405 13.5606 87.796 15.0385L89.6727 15.7299C90.1026 14.563 90.7519 13.6493 91.6131 12.9569L90.3599 11.3982ZM87.796 15.0385C87.2646 16.4809 87.0035 18.0258 87.0035 19.6648H89.0035C89.0035 18.2413 89.2297 16.9325 89.6727 15.7299L87.796 15.0385ZM87.0035 19.6648C87.0035 21.3037 87.2646 22.8446 87.7969 24.2784L89.6719 23.5824C89.2297 22.3912 89.0035 21.0884 89.0035 19.6648H87.0035ZM87.7969 24.2784C88.3423 25.7477 89.1959 26.9623 90.3646 27.8904L91.6084 26.3241C90.7487 25.6414 90.1009 24.7381 89.6719 23.5824L87.7969 24.2784ZM90.3646 27.8904C91.591 28.8642 93.1171 29.3153 94.8643 29.3153V27.3153C93.4695 27.3153 92.4104 26.961 91.6084 26.3241L90.3646 27.8904ZM126.845 13.2216L127.118 14.1838L128.127 13.8981L127.793 12.9036L126.845 13.2216ZM123.683 14.1165L122.748 14.4695L123.072 15.3288L123.956 15.0787L123.683 14.1165ZM122.803 12.5803L122.002 13.1777L122.008 13.1866L122.015 13.1953L122.803 12.5803ZM121.252 11.3274L121.7 10.433L121.252 11.3274ZM115.227 11.8047L115.794 12.6285L115.796 12.6272L115.227 11.8047ZM114.794 16.3089L114.171 17.091V17.091L114.794 16.3089ZM117.777 17.5767L117.535 18.5469L117.539 18.5478L117.777 17.5767ZM121.178 18.4119L120.939 19.3831L120.942 19.3837L121.178 18.4119ZM125.757 20.6939L125.043 21.394L125.046 21.3975L125.757 20.6939ZM126.129 28.1364L125.322 27.5463L125.318 27.5514L126.129 28.1364ZM112.512 29.956L113.064 29.1223L112.512 29.956ZM109.604 25.5114L109.361 24.5412L108.428 24.7745L108.625 25.7161L109.604 25.5114ZM112.945 24.6761L113.913 24.4263L113.665 23.4653L112.702 23.706L112.945 24.6761ZM114.749 27.4503L114.178 28.2708L114.182 28.2738L114.749 27.4503ZM122.162 27.331L122.747 28.1419L122.749 28.1408L122.162 27.331ZM122.789 22.7969L122.088 23.5104L122.094 23.5167L122.789 22.7969ZM120.223 21.5739L119.995 22.5475L119.996 22.5478L120.223 21.5739ZM116.405 20.679L116.174 21.652L116.177 21.6526L116.405 20.679ZM111.781 18.3672L111.047 19.0461L111.054 19.0532L111.781 18.3672ZM111.409 10.9844L110.605 10.3895L110.601 10.3948L111.409 10.9844ZM114.406 8.64275L114 7.72923L113.997 7.73043L114.406 8.64275ZM124.071 9.28409L123.461 10.0767L123.464 10.079L124.071 9.28409ZM126.573 12.2594L123.411 13.1543L123.956 15.0787L127.118 14.1838L126.573 12.2594ZM124.619 13.7634C124.381 13.1317 124.034 12.5324 123.592 11.9652L122.015 13.1953C122.348 13.6224 122.588 14.0473 122.748 14.4695L124.619 13.7634ZM123.605 11.9828C123.12 11.3317 122.473 10.8198 121.7 10.433L120.805 12.2218C121.344 12.4913 121.731 12.8146 122.002 13.1777L123.605 11.9828ZM121.7 10.433C120.861 10.0135 119.853 9.83523 118.732 9.83523V11.8352C119.658 11.8352 120.332 11.9851 120.805 12.2218L121.7 10.433ZM118.732 9.83523C117.174 9.83523 115.795 10.1957 114.658 10.9822L115.796 12.6272C116.527 12.121 117.485 11.8352 118.732 11.8352V9.83523ZM114.66 10.9809C113.508 11.7735 112.84 12.8721 112.84 14.2358H114.84C114.84 13.6308 115.096 13.1086 115.794 12.6285L114.66 10.9809ZM112.84 14.2358C112.84 15.3889 113.277 16.3783 114.171 17.091L115.417 15.5269C115.039 15.2254 114.84 14.8327 114.84 14.2358H112.84ZM114.171 17.091C114.972 17.7294 116.129 18.1954 117.535 18.5468L118.02 16.6066C116.721 16.2819 115.889 15.9027 115.417 15.5269L114.171 17.091ZM117.539 18.5478L120.939 19.3831L121.416 17.4408L118.016 16.6056L117.539 18.5478ZM120.942 19.3837C122.889 19.8562 124.217 20.552 125.043 21.394L126.471 19.9938C125.288 18.7875 123.563 17.9619 121.414 17.4401L120.942 19.3837ZM125.046 21.3975C125.842 22.201 126.263 23.2442 126.263 24.6165H128.263C128.263 22.7871 127.68 21.2152 126.467 19.9903L125.046 21.3975ZM126.263 24.6165C126.263 25.7225 125.949 26.688 125.322 27.5463L126.937 28.7264C127.821 27.5165 128.263 26.1355 128.263 24.6165H126.263ZM125.318 27.5514C124.691 28.4214 123.797 29.1328 122.591 29.6686L123.403 31.4962C124.883 30.8388 126.076 29.9195 126.941 28.7213L125.318 27.5514ZM122.591 29.6686C121.401 30.1976 119.983 30.4773 118.314 30.4773V32.4773C120.205 32.4773 121.909 32.1603 123.403 31.4962L122.591 29.6686ZM118.314 30.4773C116.121 30.4773 114.393 30.0019 113.064 29.1223L111.96 30.7897C113.694 31.9384 115.834 32.4773 118.314 32.4773V30.4773ZM113.064 29.1223C111.772 28.2663 110.941 27.0217 110.583 25.3066L108.625 25.7161C109.082 27.8988 110.19 29.6172 111.96 30.7897L113.064 29.1223ZM109.846 26.4815L113.187 25.6463L112.702 23.706L109.361 24.5412L109.846 26.4815ZM111.977 24.926C112.343 26.3465 113.062 27.4938 114.178 28.2708L115.321 26.6298C114.667 26.1739 114.183 25.4717 113.913 24.4263L111.977 24.926ZM114.182 28.2738C115.291 29.0374 116.675 29.375 118.254 29.375V27.375C116.95 27.375 115.998 27.0962 115.317 26.6268L114.182 28.2738ZM118.254 29.375C120.027 29.375 121.559 28.9997 122.747 28.1419L121.577 26.5201C120.837 27.0543 119.763 27.375 118.254 27.375V29.375ZM122.749 28.1408C123.918 27.2938 124.624 26.1729 124.624 24.7955H122.624C122.624 25.3867 122.355 25.9562 121.575 26.5212L122.749 28.1408ZM124.624 24.7955C124.624 23.7371 124.241 22.8084 123.483 22.077L122.094 23.5167C122.45 23.8592 122.624 24.2629 122.624 24.7955H124.624ZM123.489 22.0834C122.75 21.3576 121.697 20.8901 120.45 20.5999L119.996 22.5478C121.057 22.7946 121.713 23.1424 122.088 23.5103L123.489 22.0834ZM120.451 20.6002L116.633 19.7054L116.177 21.6526L119.995 22.5475L120.451 20.6002ZM116.636 19.7059C114.638 19.2326 113.308 18.5283 112.509 17.6812L111.054 19.0532C112.224 20.2941 113.976 21.131 116.174 21.652L116.636 19.7059ZM112.516 17.6883C111.73 16.8385 111.32 15.7718 111.32 14.4148H109.32C109.32 16.2197 109.884 17.7879 111.047 19.046L112.516 17.6883ZM111.32 14.4148C111.32 13.3228 111.622 12.3882 112.216 11.574L110.601 10.3948C109.744 11.5692 109.32 12.9215 109.32 14.4148H111.32ZM112.212 11.5792C112.834 10.7386 113.691 10.0601 114.816 9.55508L113.997 7.73043C112.597 8.35892 111.454 9.24149 110.605 10.3895L112.212 11.5792ZM114.813 9.55627C115.939 9.05476 117.239 8.79261 118.732 8.79261V6.79261C117.003 6.79261 115.419 7.09723 114 7.72924L114.813 9.55627ZM118.732 8.79261C120.863 8.79261 122.401 9.26058 123.461 10.0767L124.681 8.49146C123.157 7.31896 121.135 6.79261 118.732 6.79261V8.79261ZM123.464 10.079C124.6 10.9458 125.411 12.0885 125.897 13.5396L127.793 12.9036C127.186 11.0934 126.148 9.61102 124.678 8.48922L123.464 10.079ZM136.454 30.0156L135.928 30.866L135.934 30.8698L136.454 30.0156ZM132.77 25.8991L131.87 26.3342L131.873 26.3403L132.77 25.8991ZM132.77 13.5199L131.869 13.0867L131.868 13.0888L132.77 13.5199ZM136.38 9.31392L136.926 10.1517L136.927 10.1509L136.38 9.31392ZM145.343 8.3892L145.667 7.44297L145.343 8.3892ZM148.52 10.3281L147.836 11.0577L147.84 11.0615L148.52 10.3281ZM150.802 13.848L151.735 13.4865V13.4865L150.802 13.848ZM151.652 20.7386V21.7386H152.652V20.7386H151.652ZM133.993 20.7386H132.993V21.7386H133.993V20.7386ZM133.993 17.696V16.696H132.993V17.696H133.993ZM148.073 17.696V18.696H149.073V17.696H148.073ZM147.297 14.2358L146.403 14.683L146.406 14.69L147.297 14.2358ZM145.12 11.8345L144.588 12.6815L144.592 12.684L145.12 11.8345ZM138.169 11.9986L138.73 12.8269L138.731 12.8257L138.169 11.9986ZM135.828 14.6832L134.932 14.2393L135.828 14.6832ZM135.902 24.6612L135.006 25.1055L135.011 25.1144L135.902 24.6612ZM138.423 27.3906L137.919 28.2544L137.925 28.2579L138.423 27.3906ZM144.672 27.9276L145 28.8724L145.007 28.8699L144.672 27.9276ZM146.626 26.7344L147.32 27.4545L147.327 27.4479L146.626 26.7344ZM147.894 24.7358L148.164 23.773L147.28 23.5248L146.957 24.3847L147.894 24.7358ZM151.294 25.6903L152.249 25.9867L152.554 25.0053L151.565 24.7276L151.294 25.6903ZM149.49 28.733L150.205 29.4318L150.209 29.4277L149.49 28.733ZM146.358 30.7614L146.716 31.6949L146.723 31.6924L146.358 30.7614ZM142.167 30.4773C140.11 30.4773 138.392 30.0247 136.974 29.1614L135.934 30.8698C137.718 31.9554 139.809 32.4773 142.167 32.4773V30.4773ZM136.98 29.1652C135.557 28.2846 134.454 27.0579 133.668 25.458L131.873 26.3403C132.817 28.2603 134.169 29.7779 135.928 30.866L136.98 29.1652ZM133.671 25.4641C132.893 23.8537 132.488 21.9492 132.488 19.7244H130.488C130.488 22.1928 130.938 24.4048 131.87 26.3342L133.671 25.4641ZM132.488 19.7244C132.488 17.5 132.892 15.5837 133.673 13.951L131.868 13.0888C130.938 15.0356 130.488 17.2557 130.488 19.7244H132.488ZM133.672 13.9531C134.464 12.3036 135.551 11.0477 136.926 10.1517L135.834 8.47609C134.126 9.58868 132.806 11.1367 131.869 13.0867L133.672 13.9531ZM136.927 10.1509C138.297 9.25515 139.911 8.79261 141.809 8.79261V6.79261C139.569 6.79261 137.565 7.34428 135.832 8.47695L136.927 10.1509ZM141.809 8.79261C142.888 8.79261 143.957 8.97221 145.02 9.33543L145.667 7.44297C144.403 7.01074 143.115 6.79261 141.809 6.79261V8.79261ZM145.02 9.33543C146.041 9.68439 146.978 10.2534 147.836 11.0577L149.204 9.59859C148.153 8.61308 146.973 7.88947 145.667 7.44297L145.02 9.33543ZM147.84 11.0615C148.663 11.8243 149.347 12.8608 149.87 14.2095L151.735 13.4865C151.124 11.9119 150.286 10.6019 149.2 9.59479L147.84 11.0615ZM149.87 14.2095C150.379 15.5223 150.652 17.191 150.652 19.2472H152.652C152.652 17.0278 152.359 15.097 151.735 13.4865L149.87 14.2095ZM150.652 19.2472V20.7386H152.652V19.2472H150.652ZM151.652 19.7386H133.993V21.7386H151.652V19.7386ZM134.993 20.7386V17.696H132.993V20.7386H134.993ZM133.993 18.696H148.073V16.696H133.993V18.696ZM149.073 17.696C149.073 16.2671 148.786 14.9545 148.188 13.7816L146.406 14.69C146.842 15.5455 147.073 16.5397 147.073 17.696H149.073ZM148.192 13.7886C147.604 12.6124 146.752 11.6713 145.647 10.985L144.592 12.684C145.376 13.1711 145.977 13.8308 146.403 14.683L148.192 13.7886ZM145.651 10.9875C144.534 10.2863 143.24 9.95454 141.809 9.95454V11.9545C142.923 11.9545 143.836 12.2094 144.588 12.6815L145.651 10.9875ZM141.809 9.95454C140.234 9.95454 138.819 10.3483 137.607 11.1715L138.731 12.8257C139.569 12.2568 140.58 11.9545 141.809 11.9545V9.95454ZM137.609 11.1703C136.451 11.9539 135.555 12.9816 134.932 14.2393L136.724 15.1272C137.194 14.1775 137.86 13.4154 138.73 12.8269L137.609 11.1703ZM134.932 14.2393C134.315 15.4845 134.007 16.8202 134.007 18.233H136.007C136.007 17.1202 136.247 16.0893 136.724 15.1272L134.932 14.2393ZM134.007 18.233V20.2614H136.007V18.233H134.007ZM134.007 20.2614C134.007 22.1026 134.325 23.7303 135.006 25.1055L136.798 24.217C136.287 23.1859 136.007 21.8803 136.007 20.2614H134.007ZM135.011 25.1144C135.698 26.4651 136.666 27.5237 137.919 28.2544L138.927 26.5268C138.032 26.0047 137.32 25.2437 136.794 24.2081L135.011 25.1144ZM137.925 28.2579C139.172 28.9735 140.596 29.3153 142.167 29.3153V27.3153C140.893 27.3153 139.822 27.0407 138.921 26.5234L137.925 28.2579ZM142.167 29.3153C143.184 29.3153 144.132 29.1731 145 28.8724L144.345 26.9827C143.721 27.1991 142.998 27.3153 142.167 27.3153V29.3153ZM145.007 28.8699C145.889 28.5564 146.665 28.0857 147.32 27.4545L145.932 26.0143C145.494 26.437 144.967 26.7617 144.337 26.9853L145.007 28.8699ZM147.327 27.4479C147.988 26.7982 148.486 26.004 148.83 25.0869L146.957 24.3847C146.705 25.0585 146.357 25.5967 145.925 26.0208L147.327 27.4479ZM147.624 25.6986L151.024 26.6531L151.565 24.7276L148.164 23.773L147.624 25.6986ZM150.339 25.3939C150.028 26.3968 149.508 27.2749 148.77 28.0382L150.209 29.4277C151.162 28.441 151.845 27.2907 152.249 25.9867L150.339 25.3939ZM148.774 28.0341C148.038 28.7877 147.117 29.3894 145.993 29.8303L146.723 31.6924C148.084 31.1589 149.251 30.4083 150.205 29.4318L148.774 28.0341ZM145.999 29.8278C144.888 30.2546 143.615 30.4773 142.167 30.4773V32.4773C143.82 32.4773 145.342 32.2227 146.716 31.6949L145.999 29.8278ZM170.549 31V32H171.256L171.492 31.3345L170.549 31ZM166.672 31L165.733 30.6553L165.239 32H166.672V31ZM177.887 0.454544V-0.545456H177.189L176.949 0.109859L177.887 0.454544ZM181.706 0.454544L182.644 0.109859L182.404 -0.545456H181.706V0.454544ZM192.922 31V32H194.354L193.86 30.6553L192.922 31ZM189.044 31L188.101 31.3345L188.338 32H189.044V31ZM179.916 5.28693L180.858 4.9524L180.622 4.28693H179.916V5.28693ZM179.677 5.28693V4.28693H178.971L178.735 4.9524L179.677 5.28693ZM171.981 19.0682V18.0682H170.981V19.0682H171.981ZM187.612 19.0682H188.612V18.0682H187.612V19.0682ZM187.612 22.3494V23.3494H188.612V22.3494H187.612ZM171.981 22.3494H170.981V23.3494H171.981V22.3494ZM170.549 30H166.672V32H170.549V30ZM167.61 31.3447L178.826 0.799231L176.949 0.109859L165.733 30.6553L167.61 31.3447ZM177.887 1.45454H181.706V-0.545456H177.887V1.45454ZM180.767 0.799231L191.983 31.3447L193.86 30.6553L182.644 0.109859L180.767 0.799231ZM192.922 30H189.044V32H192.922V30ZM189.986 30.6655L180.858 4.9524L178.973 5.62147L188.101 31.3345L189.986 30.6655ZM179.916 4.28693H179.677V6.28693H179.916V4.28693ZM178.735 4.9524L169.607 30.6655L171.492 31.3345L180.62 5.62147L178.735 4.9524ZM171.981 20.0682H187.612V18.0682H171.981V20.0682ZM186.612 19.0682V22.3494H188.612V19.0682H186.612ZM187.612 21.3494H171.981V23.3494H187.612V21.3494ZM172.981 22.3494V19.0682H170.981V22.3494H172.981ZM201.378 0.454544H202.378V-0.545456H201.378V0.454544ZM201.378 31V32H202.378V31H201.378ZM197.679 31H196.679V32H197.679V31ZM197.679 0.454544V-0.545456H196.679V0.454544H197.679ZM200.378 0.454544V31H202.378V0.454544H200.378ZM201.378 30H197.679V32H201.378V30ZM198.679 31V0.454544H196.679V31H198.679ZM197.679 1.45454H201.378V-0.545456H197.679V1.45454ZM18.7692 82H17.7692V83H18.7692V82ZM18.7692 51.4545V50.4545H17.7692V51.4545H18.7692ZM36.2195 53.2891L35.7176 54.154L35.7207 54.1558L36.2195 53.2891ZM41.0668 58.5241L40.17 58.9667L40.1708 58.9682L41.0668 58.5241ZM41.0518 74.8857L41.9478 75.3298L41.9486 75.3282L41.0518 74.8857ZM36.1001 80.1655L36.5915 81.0364L36.5946 81.0347L36.1001 80.1655ZM22.468 78.7188H21.468V79.7188H22.468V78.7188ZM37.9645 60.299L37.0526 60.7094L37.0534 60.7113L37.9645 60.299ZM34.3551 56.1825L33.8391 57.0391L33.843 57.0414L34.3551 56.1825ZM22.468 54.7358V53.7358H21.468V54.7358H22.468ZM28.1953 81H18.7692V83H28.1953V81ZM19.7692 82V51.4545H17.7692V82H19.7692ZM18.7692 52.4545H28.6129V50.4545H18.7692V52.4545ZM28.6129 52.4545C31.4377 52.4545 33.7919 53.0367 35.7176 54.154L36.7213 52.4241C34.4311 51.0954 31.7143 50.4545 28.6129 50.4545V52.4545ZM35.7207 54.1558C37.649 55.2655 39.13 56.8591 40.17 58.9667L41.9635 58.0816C40.7563 55.6352 39.0058 53.7387 36.7182 52.4223L35.7207 54.1558ZM40.1708 58.9682C41.211 61.0671 41.7521 63.6222 41.7521 66.6676H43.7521C43.7521 63.3892 43.1697 60.5153 41.9628 58.0801L40.1708 58.9682ZM41.7521 66.6676C41.7521 69.7323 41.2063 72.3131 40.1551 74.4431L41.9486 75.3282C43.1645 72.8644 43.7521 69.9666 43.7521 66.6676H41.7521ZM40.1559 74.4416C39.1086 76.5544 37.5958 78.1643 35.6057 79.2963L36.5946 81.0347C38.9397 79.7008 40.728 77.7908 41.9478 75.3298L40.1559 74.4416ZM35.6087 79.2945C33.6238 80.4145 31.1673 81 28.1953 81V83C31.4279 83 34.2413 82.3625 36.5915 81.0364L35.6087 79.2945ZM22.468 79.7188H27.9567V77.7188H22.468V79.7188ZM27.9567 79.7188C30.6062 79.7188 32.8872 79.2079 34.7419 78.1196L33.7297 76.3946C32.2633 77.2551 30.3583 77.7188 27.9567 77.7188V79.7188ZM34.7419 78.1196C36.5855 77.0377 37.9623 75.4911 38.8605 73.5085L37.0387 72.6832C36.3062 74.3001 35.2071 75.5276 33.7297 76.3946L34.7419 78.1196ZM38.8605 73.5085C39.7476 71.5503 40.1726 69.2602 40.1726 66.6676H38.1726C38.1726 69.0467 37.7822 71.0421 37.0387 72.6832L38.8605 73.5085ZM40.1726 66.6676C40.1726 64.0956 39.7528 61.8254 38.8756 59.8867L37.0534 60.7113C37.787 62.3323 38.1726 64.3078 38.1726 66.6676H40.1726ZM38.8764 59.8886C37.9916 57.9224 36.6538 56.3889 34.8673 55.3236L33.843 57.0414C35.2581 57.8852 36.3266 59.0961 37.0526 60.7094L38.8764 59.8886ZM34.8712 55.326C33.0769 54.245 30.8929 53.7358 28.3743 53.7358V55.7358C30.6284 55.7358 32.4316 56.1911 33.8391 57.0391L34.8712 55.326ZM28.3743 53.7358H22.468V55.7358H28.3743V53.7358ZM21.468 54.7358V78.7188H23.468V54.7358H21.468ZM48.4794 82H47.4794V83H48.4794V82ZM48.4794 59.0909V58.0909H47.4794V59.0909H48.4794ZM51.9993 59.0909H52.9993V58.0909H51.9993V59.0909ZM51.9993 82V83H52.9993V82H51.9993ZM48.4943 54.5717L47.8021 55.2934L47.8094 55.3004L48.4943 54.5717ZM48.4943 51.201L47.8094 50.4723L47.8021 50.4793L48.4943 51.201ZM52.0291 51.201L51.3369 51.9227L51.3442 51.9296L52.0291 51.201ZM52.0291 54.5717L51.3442 53.8431L51.3369 53.8501L52.0291 54.5717ZM49.4794 82V59.0909H47.4794V82H49.4794ZM48.4794 60.0909H51.9993V58.0909H48.4794V60.0909ZM50.9993 59.0909V82H52.9993V59.0909H50.9993ZM51.9993 81H48.4794V83H51.9993V81ZM50.2692 54.2727C49.8361 54.2727 49.4898 54.135 49.1792 53.8431L47.8094 55.3004C48.4931 55.9431 49.3301 56.2727 50.2692 56.2727V54.2727ZM49.1865 53.85C48.8896 53.5652 48.7635 53.2615 48.7635 52.8864H46.7635C46.7635 53.8238 47.1246 54.6436 47.8021 55.2934L49.1865 53.85ZM48.7635 52.8864C48.7635 52.5113 48.8896 52.2075 49.1865 51.9227L47.8021 50.4793C47.1246 51.1291 46.7635 51.949 46.7635 52.8864H48.7635ZM49.1792 51.9296C49.4898 51.6377 49.8361 51.5 50.2692 51.5V49.5C49.3301 49.5 48.4932 49.8296 47.8094 50.4724L49.1792 51.9296ZM50.2692 51.5C50.7019 51.5 51.0392 51.6372 51.3369 51.9227L52.7213 50.4793C52.0446 49.8302 51.2086 49.5 50.2692 49.5V51.5ZM51.3442 51.9296C51.6493 52.2164 51.7749 52.5182 51.7749 52.8864H53.7749C53.7749 51.9421 53.4033 51.1202 52.714 50.4724L51.3442 51.9296ZM51.7749 52.8864C51.7749 53.2546 51.6493 53.5563 51.3442 53.8431L52.714 55.3004C53.4033 54.6525 53.7749 53.8307 53.7749 52.8864H51.7749ZM51.3369 53.8501C51.0392 54.1356 50.7019 54.2727 50.2692 54.2727V56.2727C51.2086 56.2727 52.0446 55.9426 52.7213 55.2934L51.3369 53.8501ZM68.6479 59.0909H69.6479V58.0909H68.6479V59.0909ZM68.6479 62.0739V63.0739H69.6479V62.0739H68.6479ZM56.2985 62.0739H55.2985V63.0739H56.2985V62.0739ZM56.2985 59.0909V58.0909H55.2985V59.0909H56.2985ZM59.9973 82H58.9973V83H59.9973V82ZM60.9221 52.6477L60.1046 52.0718L60.9221 52.6477ZM63.3233 50.679L62.9172 49.7652L63.3233 50.679ZM68.5584 50.2315L68.3117 51.2006L68.5584 50.2315ZM69.7814 50.6193L70.7301 50.9355L71.0172 50.0742L70.1876 49.7055L69.7814 50.6193ZM68.7672 53.6619L68.451 54.6106L69.3997 54.9268L69.7159 53.9782L68.7672 53.6619ZM68.0215 53.4382L67.7427 54.3986L67.7507 54.4009L68.0215 53.4382ZM64.2779 54.184L63.5276 53.5227L63.5213 53.53L64.2779 54.184ZM63.5172 82V83H64.5172V82H63.5172ZM67.6479 59.0909V62.0739H69.6479V59.0909H67.6479ZM68.6479 61.0739H56.2985V63.0739H68.6479V61.0739ZM57.2985 62.0739V59.0909H55.2985V62.0739H57.2985ZM56.2985 60.0909H68.6479V58.0909H56.2985V60.0909ZM60.9973 82V55.929H58.9973V82H60.9973ZM60.9973 55.929C60.9973 54.7754 61.2664 53.8952 61.7395 53.2237L60.1046 52.0718C59.3447 53.1503 58.9973 54.4576 58.9973 55.929H60.9973ZM61.7395 53.2237C62.2512 52.4974 62.9091 51.9574 63.7295 51.5928L62.9172 49.7652C61.7688 50.2756 60.8258 51.0481 60.1046 52.0718L61.7395 53.2237ZM63.7295 51.5928C64.584 51.213 65.4845 51.0227 66.4405 51.0227V49.0227C65.2091 49.0227 64.0314 49.2699 62.9172 49.7652L63.7295 51.5928ZM66.4405 51.0227C67.2615 51.0227 67.8762 51.0898 68.3117 51.2006L68.8051 49.2624C68.1469 49.0949 67.3496 49.0227 66.4405 49.0227V51.0227ZM68.3117 51.2006C68.8441 51.3361 69.1858 51.4489 69.3753 51.5331L70.1876 49.7055C69.8401 49.5511 69.3665 49.4053 68.8051 49.2624L68.3117 51.2006ZM68.8327 50.3031L67.8185 53.3457L69.7159 53.9782L70.7301 50.9355L68.8327 50.3031ZM69.0835 52.7132C68.8823 52.6462 68.6162 52.5667 68.2922 52.4756L67.7507 54.4009C68.0631 54.4887 68.2942 54.5583 68.451 54.6106L69.0835 52.7132ZM68.3003 52.4779C67.8648 52.3514 67.3521 52.304 66.7985 52.304V54.304C67.2591 54.304 67.5617 54.346 67.7427 54.3986L68.3003 52.4779ZM66.7985 52.304C65.4897 52.304 64.3115 52.6334 63.5277 53.5227L65.0281 54.8451C65.2783 54.5612 65.7806 54.304 66.7985 54.304V52.304ZM63.5213 53.53C62.7984 54.3663 62.5172 55.4989 62.5172 56.7642H64.5172C64.5172 55.7624 64.7431 55.1749 65.0344 54.8379L63.5213 53.53ZM62.5172 56.7642V82H64.5172V56.7642H62.5172ZM63.5172 81H59.9973V83H63.5172V81ZM83.7827 59.0909H84.7827V58.0909H83.7827V59.0909ZM83.7827 62.0739V63.0739H84.7827V62.0739H83.7827ZM71.4332 62.0739H70.4332V63.0739H71.4332V62.0739ZM71.4332 59.0909V58.0909H70.4332V59.0909H71.4332ZM75.1321 82H74.1321V83H75.1321V82ZM76.0568 52.6477L75.2393 52.0718L76.0568 52.6477ZM78.4581 50.679L78.052 49.7652L78.4581 50.679ZM83.6932 50.2315L83.4465 51.2006L83.6932 50.2315ZM84.9162 50.6193L85.8649 50.9355L86.152 50.0742L85.3223 49.7055L84.9162 50.6193ZM83.902 53.6619L83.5858 54.6106L84.5344 54.9268L84.8507 53.9782L83.902 53.6619ZM83.1562 53.4382L82.8774 54.3986L82.8855 54.4009L83.1562 53.4382ZM79.4126 54.184L78.6624 53.5227L78.6561 53.53L79.4126 54.184ZM78.652 82V83H79.652V82H78.652ZM82.7827 59.0909V62.0739H84.7827V59.0909H82.7827ZM83.7827 61.0739H71.4332V63.0739H83.7827V61.0739ZM72.4332 62.0739V59.0909H70.4332V62.0739H72.4332ZM71.4332 60.0909H83.7827V58.0909H71.4332V60.0909ZM76.1321 82V55.929H74.1321V82H76.1321ZM76.1321 55.929C76.1321 54.7754 76.4012 53.8952 76.8743 53.2237L75.2393 52.0718C74.4795 53.1503 74.1321 54.4576 74.1321 55.929H76.1321ZM76.8743 53.2237C77.386 52.4974 78.0439 51.9574 78.8642 51.5928L78.052 49.7652C76.9036 50.2756 75.9606 51.0481 75.2393 52.0718L76.8743 53.2237ZM78.8642 51.5928C79.7188 51.213 80.6192 51.0227 81.5753 51.0227V49.0227C80.3438 49.0227 79.1662 49.2699 78.052 49.7652L78.8642 51.5928ZM81.5753 51.0227C82.3963 51.0227 83.0109 51.0898 83.4465 51.2006L83.9399 49.2624C83.2817 49.0949 82.4844 49.0227 81.5753 49.0227V51.0227ZM83.4465 51.2006C83.9788 51.3361 84.3206 51.4489 84.5101 51.5331L85.3223 49.7055C84.9749 49.5511 84.5013 49.4053 83.9399 49.2624L83.4465 51.2006ZM83.9675 50.3031L82.9533 53.3457L84.8507 53.9782L85.8649 50.9355L83.9675 50.3031ZM84.2182 52.7132C84.0171 52.6462 83.751 52.5667 83.427 52.4756L82.8855 54.4009C83.1979 54.4887 83.4289 54.5583 83.5858 54.6106L84.2182 52.7132ZM83.4351 52.4779C82.9995 52.3514 82.4868 52.304 81.9332 52.304V54.304C82.3939 54.304 82.6965 54.346 82.8774 54.3986L83.4351 52.4779ZM81.9332 52.304C80.6244 52.304 79.4463 52.6334 78.6624 53.5227L80.1628 54.8451C80.4131 54.5612 80.9154 54.304 81.9332 54.304V52.304ZM78.6561 53.53C77.9332 54.3663 77.652 55.4989 77.652 56.7642H79.652C79.652 55.7624 79.8779 55.1749 80.1692 54.8379L78.6561 53.53ZM77.652 56.7642V82H79.652V56.7642H77.652ZM78.652 81H75.1321V83H78.652V81ZM88.7157 82H87.7157V83H88.7157V82ZM88.7157 59.0909V58.0909H87.7157V59.0909H88.7157ZM92.2356 59.0909H93.2356V58.0909H92.2356V59.0909ZM92.2356 82V83H93.2356V82H92.2356ZM88.7306 54.5717L88.0384 55.2934L88.0457 55.3004L88.7306 54.5717ZM88.7306 51.201L88.0457 50.4723L88.0384 50.4793L88.7306 51.201ZM92.2654 51.201L91.5732 51.9227L91.5805 51.9296L92.2654 51.201ZM92.2654 54.5717L91.5805 53.8431L91.5732 53.8501L92.2654 54.5717ZM89.7157 82V59.0909H87.7157V82H89.7157ZM88.7157 60.0909H92.2356V58.0909H88.7157V60.0909ZM91.2356 59.0909V82H93.2356V59.0909H91.2356ZM92.2356 81H88.7157V83H92.2356V81ZM90.5055 54.2727C90.0724 54.2727 89.7261 54.135 89.4156 53.8431L88.0457 55.3004C88.7295 55.9431 89.5665 56.2727 90.5055 56.2727V54.2727ZM89.4229 53.85C89.1259 53.5652 88.9998 53.2615 88.9998 52.8864H86.9998C86.9998 53.8238 87.361 54.6436 88.0384 55.2934L89.4229 53.85ZM88.9998 52.8864C88.9998 52.5113 89.1259 52.2075 89.4229 51.9227L88.0384 50.4793C87.361 51.1291 86.9998 51.949 86.9998 52.8864H88.9998ZM89.4156 51.9296C89.7261 51.6377 90.0724 51.5 90.5055 51.5V49.5C89.5665 49.5 88.7295 49.8296 88.0457 50.4724L89.4156 51.9296ZM90.5055 51.5C90.9383 51.5 91.2756 51.6372 91.5732 51.9227L92.9577 50.4793C92.2809 49.8302 91.4449 49.5 90.5055 49.5V51.5ZM91.5805 51.9296C91.8856 52.2164 92.0112 52.5182 92.0112 52.8864H94.0112C94.0112 51.9421 93.6396 51.1202 92.9504 50.4724L91.5805 51.9296ZM92.0112 52.8864C92.0112 53.2546 91.8856 53.5563 91.5805 53.8431L92.9504 55.3004C93.6396 54.6525 94.0112 53.8307 94.0112 52.8864H92.0112ZM91.5732 53.8501C91.2756 54.1356 90.9383 54.2727 90.5055 54.2727V56.2727C91.4449 56.2727 92.2809 55.9426 92.9577 55.2934L91.5732 53.8501ZM102.441 80.956L101.894 81.7929L102.441 80.956ZM98.8913 64.505L97.991 64.0698L97.99 64.0719L98.8913 64.505ZM102.501 60.3139L103.047 61.1517L103.048 61.1509L102.501 60.3139ZM115.462 62.1932L116.255 61.5838L115.462 62.1932ZM116.998 65.9517V66.9517H118.146L117.988 65.8141L116.998 65.9517ZM113.478 65.9517L112.509 66.2007L112.703 66.9517H113.478V65.9517ZM111.688 63.1776L111.023 63.9241L111.031 63.9316L111.688 63.1776ZM104.38 63.0284L104.948 63.8518L104.949 63.8506L104.38 63.0284ZM101.979 66.0263L101.065 65.6188L101.064 65.6221L101.979 66.0263ZM101.964 75.169L101.043 75.5596L101.046 75.5655L101.964 75.169ZM104.35 78.2266L103.772 79.0424L103.776 79.0451L104.35 78.2266ZM110.48 78.8381L110.088 77.9183L110.48 78.8381ZM112.374 77.4659L113.13 78.1208L112.374 77.4659ZM113.478 75.3182V74.3182H112.706L112.511 75.0648L113.478 75.3182ZM116.998 75.3182L117.987 75.4637L118.156 74.3182H116.998V75.3182ZM115.521 78.9723L114.712 78.3855L114.711 78.3868L115.521 78.9723ZM112.434 81.5376L112.876 82.4349L112.878 82.4335L112.434 81.5376ZM107.989 81.4773C106.004 81.4773 104.352 81.0107 102.988 80.119L101.894 81.7929C103.632 82.9296 105.679 83.4773 107.989 83.4773V81.4773ZM102.988 80.119C101.602 79.2126 100.528 77.9627 99.7668 76.3401L97.9562 77.1897C98.8653 79.1268 100.178 80.671 101.894 81.7929L102.988 80.119ZM99.7668 76.3401C99.0033 74.7132 98.6087 72.8287 98.6087 70.6648H96.6087C96.6087 73.0747 97.0492 75.257 97.9562 77.1897L99.7668 76.3401ZM98.6087 70.6648C98.6087 68.4615 99.0131 66.5607 99.7927 64.938L97.99 64.0719C97.0593 66.0089 96.6087 68.2147 96.6087 70.6648H98.6087ZM99.7917 64.9401C100.584 63.3007 101.67 62.0486 103.047 61.1517L101.955 59.4761C100.249 60.5878 98.9287 62.1297 97.991 64.0698L99.7917 64.9401ZM103.048 61.1509C104.418 60.2551 106.033 59.7926 107.93 59.7926V57.7926C105.69 57.7926 103.686 58.3443 101.953 59.477L103.048 61.1509ZM107.93 59.7926C109.415 59.7926 110.721 60.067 111.866 60.5955L112.704 58.7795C111.264 58.1148 109.666 57.7926 107.93 57.7926V59.7926ZM111.866 60.5955C113.019 61.1278 113.947 61.8636 114.669 62.8025L116.255 61.5838C115.326 60.375 114.136 59.4404 112.704 58.7795L111.866 60.5955ZM114.669 62.8025C115.381 63.7297 115.831 64.8172 116.007 66.0893L117.988 65.8141C117.767 64.2225 117.193 62.8044 116.255 61.5838L114.669 62.8025ZM116.998 64.9517H113.478V66.9517H116.998V64.9517ZM114.446 65.7027C114.121 64.4365 113.401 63.3429 112.345 62.4235L111.031 63.9316C111.825 64.623 112.298 65.3789 112.509 66.2007L114.446 65.7027ZM112.354 62.431C111.211 61.4125 109.718 60.9545 107.989 60.9545V62.9545C109.363 62.9545 110.336 63.3119 111.023 63.9241L112.354 62.431ZM107.989 60.9545C106.433 60.9545 105.027 61.364 103.811 62.2062L104.949 63.8506C105.801 63.261 106.801 62.9545 107.989 62.9545V60.9545ZM103.812 62.2051C102.617 63.0291 101.706 64.1821 101.065 65.6188L102.892 66.4337C103.404 65.2852 104.095 64.4397 104.948 63.8518L103.812 62.2051ZM101.064 65.6221C100.429 67.0582 100.129 68.7078 100.129 70.5455H102.129C102.129 68.9229 102.394 67.5597 102.893 66.4304L101.064 65.6221ZM100.129 70.5455C100.129 72.4181 100.423 74.0976 101.043 75.5596L102.884 74.7785C102.391 73.6155 102.129 72.2125 102.129 70.5455H100.129ZM101.046 75.5655C101.675 77.0224 102.578 78.1965 103.772 79.0424L104.928 77.4107C104.074 76.805 103.386 75.9407 102.882 74.7726L101.046 75.5655ZM103.776 79.0451C104.995 79.901 106.414 80.3153 107.989 80.3153V78.3153C106.781 78.3153 105.773 78.0038 104.925 77.4081L103.776 79.0451ZM107.989 80.3153C109.022 80.3153 109.988 80.1353 110.873 79.7578L110.088 77.9183C109.481 78.1772 108.786 78.3153 107.989 78.3153V80.3153ZM110.873 79.7578C111.754 79.3818 112.511 78.8353 113.13 78.1208L111.619 76.811C111.204 77.2897 110.698 77.658 110.088 77.9183L110.873 79.7578ZM113.13 78.1208C113.757 77.3978 114.191 76.541 114.445 75.5715L112.511 75.0648C112.327 75.7658 112.026 76.3408 111.619 76.811L113.13 78.1208ZM113.478 76.3182H116.998V74.3182H113.478V76.3182ZM116.009 75.1727C115.833 76.369 115.4 77.435 114.712 78.3855L116.331 79.5591C117.213 78.342 117.765 76.9719 117.987 75.4637L116.009 75.1727ZM114.711 78.3868C114.038 79.3185 113.139 80.0717 111.99 80.6418L112.878 82.4335C114.294 81.7309 115.454 80.7738 116.332 79.5578L114.711 78.3868ZM111.992 80.6404C110.881 81.1875 109.556 81.4773 107.989 81.4773V83.4773C109.804 83.4773 111.442 83.1407 112.876 82.4349L111.992 80.6404ZM136.581 59.0909V58.0909H135.581V59.0909H136.581ZM140.101 59.0909H141.101V58.0909H140.101V59.0909ZM140.101 82V83H141.101V82H140.101ZM136.581 82H135.581V83H136.581V82ZM136.581 78.1222H137.581V77.1222H136.581V78.1222ZM136.342 78.1222V77.1222H135.702L135.434 77.7031L136.342 78.1222ZM133.837 81.0902L134.416 81.9054L134.421 81.902L133.837 81.0902ZM125.723 81.3587L125.227 82.2269L125.233 82.2302L125.723 81.3587ZM123.098 78.495L122.202 78.9395L122.204 78.9422L123.098 78.495ZM122.143 59.0909V58.0909H121.143V59.0909H122.143ZM125.663 59.0909H126.663V58.0909H125.663V59.0909ZM127.065 77.4062L126.337 78.0912L126.34 78.095L127.065 77.4062ZM133.344 78.2266L132.905 77.3283L132.901 77.3302L133.344 78.2266ZM135.641 76.1683L134.813 75.6075L134.809 75.6136L135.641 76.1683ZM137.581 72.6335V59.0909H135.581V72.6335H137.581ZM136.581 60.0909H140.101V58.0909H136.581V60.0909ZM139.101 59.0909V82H141.101V59.0909H139.101ZM140.101 81H136.581V83H140.101V81ZM137.581 82V78.1222H135.581V82H137.581ZM136.581 77.1222H136.342V79.1222H136.581V77.1222ZM135.434 77.7031C134.976 78.6959 134.259 79.5545 133.253 80.2784L134.421 81.902C135.681 80.9952 136.635 79.8751 137.25 78.5412L135.434 77.7031ZM133.257 80.275C132.331 80.9336 131.115 81.2983 129.541 81.2983V83.2983C131.428 83.2983 133.076 82.8576 134.416 81.9054L133.257 80.275ZM129.541 81.2983C128.26 81.2983 127.16 81.0195 126.213 80.4871L125.233 82.2302C126.513 82.9506 127.959 83.2983 129.541 83.2983V81.2983ZM126.219 80.4904C125.295 79.9626 124.551 79.164 123.992 78.0478L122.204 78.9422C122.918 80.3715 123.923 81.482 125.227 82.2269L126.219 80.4904ZM123.994 78.0506C123.446 76.9466 123.143 75.4952 123.143 73.6477H121.143C121.143 75.698 121.477 77.4781 122.202 78.9395L123.994 78.0506ZM123.143 73.6477V59.0909H121.143V73.6477H123.143ZM122.143 60.0909H125.663V58.0909H122.143V60.0909ZM124.663 59.0909V73.4091H126.663V59.0909H124.663ZM124.663 73.4091C124.663 75.274 125.191 76.8718 126.337 78.0912L127.794 76.7213C127.071 75.9521 126.663 74.8851 126.663 73.4091H124.663ZM126.34 78.095C127.487 79.3022 128.959 79.8977 130.675 79.8977V77.8977C129.467 77.8977 128.533 77.4989 127.79 76.7175L126.34 78.095ZM130.675 79.8977C131.725 79.8977 132.766 79.6281 133.788 79.1229L132.901 77.3302C132.113 77.7199 131.374 77.8977 130.675 77.8977V79.8977ZM133.784 79.1249C134.872 78.5926 135.768 77.7811 136.473 76.723L134.809 75.6136C134.282 76.4049 133.647 76.9656 132.905 77.3283L133.784 79.1249ZM136.469 76.7292C137.236 75.5979 137.581 74.2092 137.581 72.6335H135.581C135.581 73.9215 135.3 74.8893 134.813 75.6075L136.469 76.7292ZM150.068 51.4545H151.068V50.4545H150.068V51.4545ZM150.068 82V83H151.068V82H150.068ZM146.548 82H145.548V83H146.548V82ZM146.548 51.4545V50.4545H145.548V51.4545H146.548ZM149.068 51.4545V82H151.068V51.4545H149.068ZM150.068 81H146.548V83H150.068V81ZM147.548 82V51.4545H145.548V82H147.548ZM146.548 52.4545H150.068V50.4545H146.548V52.4545ZM166.478 59.0909H167.478V58.0909H166.478V59.0909ZM166.478 62.0739V63.0739H167.478V62.0739H166.478ZM154.605 62.0739H153.605V63.0739H154.605V62.0739ZM154.605 59.0909V58.0909H153.605V59.0909H154.605ZM158.066 53.6023V52.6023H157.066V53.6023H158.066ZM161.586 53.6023H162.586V52.6023H161.586V53.6023ZM162.018 77.6747L161.153 78.1764L161.159 78.1867L161.165 78.1969L162.018 77.6747ZM163.152 78.6591L162.805 79.5971L162.817 79.6016L162.829 79.6057L163.152 78.6591ZM165.583 78.8381L165.741 79.8255L165.76 79.8224L165.779 79.8186L165.583 78.8381ZM166.179 78.7188L167.155 78.4979L166.939 77.5469L165.983 77.7382L166.179 78.7188ZM166.895 81.8807L167.246 82.817L168.063 82.5107L167.871 81.6599L166.895 81.8807ZM165.896 82.1491L165.691 81.1704L165.68 81.1726L165.669 81.1751L165.896 82.1491ZM161.347 81.657L160.935 82.568L160.938 82.5696L161.347 81.657ZM158.99 79.7031L158.173 80.2791L158.177 80.2852L158.99 79.7031ZM165.478 59.0909V62.0739H167.478V59.0909H165.478ZM166.478 61.0739H154.605V63.0739H166.478V61.0739ZM155.605 62.0739V59.0909H153.605V62.0739H155.605ZM154.605 60.0909H166.478V58.0909H154.605V60.0909ZM158.066 54.6023H161.586V52.6023H158.066V54.6023ZM160.586 53.6023V75.4375H162.586V53.6023H160.586ZM160.586 75.4375C160.586 76.4957 160.733 77.4526 161.153 78.1764L162.883 77.173C162.726 76.9025 162.586 76.3679 162.586 75.4375H160.586ZM161.165 78.1969C161.56 78.8414 162.102 79.3373 162.805 79.5971L163.498 77.7211C163.286 77.6428 163.073 77.4825 162.871 77.1526L161.165 78.1969ZM162.829 79.6057C163.405 79.8018 164.007 79.8977 164.628 79.8977V77.8977C164.216 77.8977 163.833 77.8346 163.474 77.7124L162.829 79.6057ZM164.628 79.8977C165.044 79.8977 165.42 79.8768 165.741 79.8255L165.425 77.8506C165.248 77.8788 164.988 77.8977 164.628 77.8977V79.8977ZM165.779 79.8186C166.027 79.7689 166.226 79.7292 166.375 79.6993L165.983 77.7382C165.834 77.768 165.635 77.8078 165.387 77.8575L165.779 79.8186ZM165.204 78.9396L165.92 82.1015L167.871 81.6599L167.155 78.4979L165.204 78.9396ZM166.544 80.9444C166.375 81.0078 166.099 81.0851 165.691 81.1704L166.101 83.1279C166.548 83.0343 166.938 82.9325 167.246 82.817L166.544 80.9444ZM165.669 81.1751C165.343 81.2511 164.884 81.2983 164.27 81.2983V83.2983C164.969 83.2983 165.594 83.2461 166.122 83.1232L165.669 81.1751ZM164.27 81.2983C163.424 81.2983 162.589 81.1173 161.756 80.7443L160.938 82.5696C162.014 83.0517 163.128 83.2983 164.27 83.2983V81.2983ZM161.759 80.7459C160.981 80.3937 160.332 79.8587 159.804 79.121L158.177 80.2852C158.902 81.2975 159.824 82.0651 160.935 82.568L161.759 80.7459ZM159.808 79.1272C159.336 78.4581 159.066 77.5692 159.066 76.392H157.066C157.066 77.8797 157.411 79.1982 158.173 80.2791L159.808 79.1272ZM159.066 76.392V53.6023H157.066V76.392H159.066ZM172.444 90.4418L172.652 89.4637L172.642 89.4615L172.632 89.4596L172.444 90.4418ZM171.474 90.1733L170.513 89.8961L170.283 90.6956L171.027 91.0677L171.474 90.1733ZM172.369 87.071L172.617 86.1022L171.677 85.8618L171.408 86.7939L172.369 87.071ZM174.636 87.3097L174.545 86.3138L174.636 87.3097ZM176.381 86.4297L175.674 85.7226L175.667 85.7294L175.66 85.7363L176.381 86.4297ZM177.798 83.9091L178.737 84.2541L178.737 84.2533L177.798 83.9091ZM178.454 82.1193L179.393 82.4636L179.52 82.1188L179.393 81.7741L178.454 82.1193ZM169.983 59.0909V58.0909H168.549L169.044 59.4362L169.983 59.0909ZM173.801 59.0909L174.746 58.7636L174.513 58.0909H173.801V59.0909ZM180.125 77.3466L179.18 77.6739L179.413 78.3466H180.125V77.3466ZM180.363 77.3466V78.3466H181.075L181.308 77.6739L180.363 77.3466ZM186.687 59.0909V58.0909H185.975L185.742 58.7636L186.687 59.0909ZM190.505 59.0909L191.443 59.4383L191.942 58.0909H190.505V59.0909ZM180.781 85.3409L179.843 84.9935L179.843 84.9941L180.781 85.3409ZM179.155 88.2791L178.387 87.6389L178.383 87.6438L179.155 88.2791ZM176.903 90.0241L176.499 89.1095L176.495 89.1112L176.903 90.0241ZM174.039 89.5909C173.496 89.5909 173.036 89.5455 172.652 89.4637L172.235 91.4199C172.786 91.5369 173.389 91.5909 174.039 91.5909V89.5909ZM172.632 89.4596C172.414 89.418 172.245 89.3791 172.118 89.3438C172.054 89.3263 172.006 89.311 171.971 89.2985C171.935 89.2855 171.92 89.2784 171.921 89.2789L171.027 91.0677C171.342 91.2251 171.788 91.3343 172.255 91.4239L172.632 89.4596ZM172.435 90.4505L173.33 87.3482L171.408 86.7939L170.513 89.8961L172.435 90.4505ZM172.121 88.0398C173.052 88.2778 173.926 88.3784 174.727 88.3055L174.545 86.3138C174.034 86.3603 173.397 86.3017 172.617 86.1022L172.121 88.0398ZM174.727 88.3055C175.649 88.2217 176.447 87.803 177.102 87.1231L175.66 85.7363C175.3 86.1104 174.935 86.2783 174.545 86.3138L174.727 88.3055ZM177.088 87.1368C177.755 86.4696 178.289 85.4715 178.737 84.2541L176.859 83.5641C176.452 84.6734 176.041 85.3557 175.674 85.7226L177.088 87.1368ZM178.737 84.2533L179.393 82.4636L177.515 81.7751L176.859 83.5648L178.737 84.2533ZM179.393 81.7741L170.921 58.7457L169.044 59.4362L177.516 82.4646L179.393 81.7741ZM169.983 60.0909H173.801V58.0909H169.983V60.0909ZM172.856 59.4182L179.18 77.6739L181.07 77.0193L174.746 58.7636L172.856 59.4182ZM180.125 78.3466H180.363V76.3466H180.125V78.3466ZM181.308 77.6739L187.632 59.4182L185.742 58.7636L179.418 77.0193L181.308 77.6739ZM186.687 60.0909H190.505V58.0909H186.687V60.0909ZM189.568 58.7435L179.843 84.9935L181.719 85.6883L191.443 59.4383L189.568 58.7435ZM179.843 84.9941C179.435 86.0962 178.945 86.9695 178.387 87.6389L179.923 88.9193C180.658 88.0376 181.251 86.9521 181.719 85.6877L179.843 84.9941ZM178.383 87.6438C177.827 88.3195 177.199 88.8001 176.499 89.1095L177.307 90.9388C178.317 90.4925 179.191 89.8097 179.927 88.9145L178.383 87.6438ZM176.495 89.1112C175.796 89.4237 174.984 89.5909 174.039 89.5909V91.5909C175.223 91.5909 176.32 91.3803 177.311 90.9371L176.495 89.1112Z" fill="black" mask="url(#path-1-outside-1_613_168)"/>
</g>
<defs>
<filter id="filter0_d_613_168" x="0.409912" y="0.0369263" width="204.968" height="98.554" filterUnits="userSpaceOnUse" color-interpolation-filters="sRGB">
<feFlood flood-opacity="0" result="BackgroundImageFix"/>
<feColorMatrix in="SourceAlpha" type="matrix" values="0 0 0 0 0 0 0 0 0 0 0 0 0 0 0 0 0 0 127 0" result="hardAlpha"/>
<feOffset dy="4"/>
<feGaussianBlur stdDeviation="2"/>
<feComposite in2="hardAlpha" operator="out"/>
<feColorMatrix type="matrix" values="0 0 0 0 0 0 0 0 0 0 0 0 0 0 0 0 0 0 0.3 0"/>
<feBlend mode="normal" in2="BackgroundImageFix" result="effect1_dropShadow_613_168"/>
<feBlend mode="normal" in="SourceGraphic" in2="effect1_dropShadow_613_168" result="shape"/>
</filter>
</defs>
</svg>
