<svg width="187" height="99" viewBox="0 0 187 99" fill="none" xmlns="http://www.w3.org/2000/svg">
<g filter="url(#filter0_d_613_242)">
<mask id="path-1-outside-1_613_242" maskUnits="userSpaceOnUse" x="3" y="-1" width="181" height="93" fill="black">
<rect fill="white" x="3" y="-1" width="181" height="93"/>
<path d="M45.838 10H42.1391C41.9204 8.93608 41.5376 8.00142 40.9907 7.19602C40.4537 6.39062 39.7975 5.71449 39.0219 5.16761C38.2563 4.6108 37.4062 4.19318 36.4715 3.91477C35.5368 3.63636 34.5624 3.49716 33.5482 3.49716C31.6988 3.49716 30.0233 3.96449 28.5219 4.89915C27.0305 5.83381 25.8422 7.21094 24.9573 9.03054C24.0823 10.8501 23.6448 13.0824 23.6448 15.7273C23.6448 18.3722 24.0823 20.6044 24.9573 22.424C25.8422 24.2436 27.0305 25.6207 28.5219 26.5554C30.0233 27.4901 31.6988 27.9574 33.5482 27.9574C34.5624 27.9574 35.5368 27.8182 36.4715 27.5398C37.4062 27.2614 38.2563 26.8487 39.0219 26.3018C39.7975 25.745 40.4537 25.0639 40.9907 24.2585C41.5376 23.4432 41.9204 22.5085 42.1391 21.4545H45.838C45.5596 23.0156 45.0525 24.4126 44.3167 25.6456C43.5809 26.8786 42.6661 27.9276 41.5724 28.7926C40.4786 29.6477 39.2506 30.299 37.8884 30.7464C36.5361 31.1939 35.0894 31.4176 33.5482 31.4176C30.9431 31.4176 28.6263 30.7812 26.5979 29.5085C24.5695 28.2358 22.9736 26.4261 21.8103 24.0795C20.6469 21.733 20.0653 18.9489 20.0653 15.7273C20.0653 12.5057 20.6469 9.72159 21.8103 7.375C22.9736 5.02841 24.5695 3.21875 26.5979 1.94602C28.6263 0.673295 30.9431 0.0369307 33.5482 0.0369307C35.0894 0.0369307 36.5361 0.260652 37.8884 0.708096C39.2506 1.15554 40.4786 1.81179 41.5724 2.67685C42.6661 3.53196 43.5809 4.57599 44.3167 5.80895C45.0525 7.03196 45.5596 8.42898 45.838 10ZM54.8577 17.2188V31H51.3378V0.454545H54.8577V11.6705H55.156C55.6929 10.4872 56.4983 9.54758 57.5722 8.85156C58.656 8.1456 60.0977 7.79261 61.8975 7.79261C63.4585 7.79261 64.8257 8.10582 65.999 8.73224C67.1723 9.34872 68.0821 10.2983 68.7284 11.581C69.3847 12.8537 69.7128 14.4744 69.7128 16.4432V31H66.1929V16.6818C66.1929 14.8622 65.7206 13.4553 64.776 12.4609C63.8414 11.4567 62.5438 10.9545 60.8833 10.9545C59.7298 10.9545 58.6958 11.1982 57.781 11.6854C56.8762 12.1726 56.1602 12.8835 55.6333 13.8182C55.1162 14.7528 54.8577 15.8864 54.8577 17.2188ZM85.4591 31.4773C83.3909 31.4773 81.5763 30.9851 80.0152 30.0007C78.464 29.0163 77.251 27.6392 76.376 25.8693C75.5109 24.0994 75.0784 22.0312 75.0784 19.6648C75.0784 17.2784 75.5109 15.1953 76.376 13.4155C77.251 11.6357 78.464 10.2536 80.0152 9.26918C81.5763 8.2848 83.3909 7.79261 85.4591 7.79261C87.5273 7.79261 89.3369 8.2848 90.8881 9.26918C92.4491 10.2536 93.6622 11.6357 94.5273 13.4155C95.4023 15.1953 95.8398 17.2784 95.8398 19.6648C95.8398 22.0312 95.4023 24.0994 94.5273 25.8693C93.6622 27.6392 92.4491 29.0163 90.8881 30.0007C89.3369 30.9851 87.5273 31.4773 85.4591 31.4773ZM85.4591 28.3153C87.0301 28.3153 88.3227 27.9126 89.3369 27.1072C90.3511 26.3018 91.1018 25.2429 91.589 23.9304C92.0763 22.6179 92.3199 21.196 92.3199 19.6648C92.3199 18.1335 92.0763 16.7067 91.589 15.3842C91.1018 14.0618 90.3511 12.9929 89.3369 12.1776C88.3227 11.3622 87.0301 10.9545 85.4591 10.9545C83.8881 10.9545 82.5954 11.3622 81.5812 12.1776C80.567 12.9929 79.8163 14.0618 79.3291 15.3842C78.8419 16.7067 78.5983 18.1335 78.5983 19.6648C78.5983 21.196 78.8419 22.6179 79.3291 23.9304C79.8163 25.2429 80.567 26.3018 81.5812 27.1072C82.5954 27.9126 83.8881 28.3153 85.4591 28.3153ZM110.52 31.4773C108.451 31.4773 106.637 30.9851 105.076 30.0007C103.525 29.0163 102.312 27.6392 101.437 25.8693C100.571 24.0994 100.139 22.0312 100.139 19.6648C100.139 17.2784 100.571 15.1953 101.437 13.4155C102.312 11.6357 103.525 10.2536 105.076 9.26918C106.637 8.2848 108.451 7.79261 110.52 7.79261C112.588 7.79261 114.397 8.2848 115.949 9.26918C117.51 10.2536 118.723 11.6357 119.588 13.4155C120.463 15.1953 120.9 17.2784 120.9 19.6648C120.9 22.0312 120.463 24.0994 119.588 25.8693C118.723 27.6392 117.51 29.0163 115.949 30.0007C114.397 30.9851 112.588 31.4773 110.52 31.4773ZM110.52 28.3153C112.091 28.3153 113.383 27.9126 114.397 27.1072C115.412 26.3018 116.162 25.2429 116.65 23.9304C117.137 22.6179 117.38 21.196 117.38 19.6648C117.38 18.1335 117.137 16.7067 116.65 15.3842C116.162 14.0618 115.412 12.9929 114.397 12.1776C113.383 11.3622 112.091 10.9545 110.52 10.9545C108.949 10.9545 107.656 11.3622 106.642 12.1776C105.628 12.9929 104.877 14.0618 104.39 15.3842C103.902 16.7067 103.659 18.1335 103.659 19.6648C103.659 21.196 103.902 22.6179 104.39 23.9304C104.877 25.2429 105.628 26.3018 106.642 27.1072C107.656 27.9126 108.949 28.3153 110.52 28.3153ZM142.501 13.2216L139.339 14.1165C139.14 13.5895 138.847 13.0774 138.459 12.5803C138.081 12.0732 137.564 11.6555 136.908 11.3274C136.251 10.9993 135.411 10.8352 134.387 10.8352C132.985 10.8352 131.817 11.1584 130.882 11.8047C129.957 12.4411 129.495 13.2514 129.495 14.2358C129.495 15.1108 129.813 15.8018 130.449 16.3089C131.086 16.8161 132.08 17.2386 133.432 17.5767L136.833 18.4119C138.881 18.9091 140.408 19.6697 141.412 20.6939C142.416 21.7081 142.918 23.0156 142.918 24.6165C142.918 25.929 142.54 27.1023 141.785 28.1364C141.039 29.1705 139.995 29.9858 138.653 30.5824C137.31 31.179 135.749 31.4773 133.969 31.4773C131.633 31.4773 129.699 30.9702 128.168 29.956C126.636 28.9418 125.667 27.4602 125.259 25.5114L128.6 24.6761C128.918 25.9091 129.52 26.8338 130.405 27.4503C131.3 28.0668 132.468 28.375 133.91 28.375C135.55 28.375 136.853 28.027 137.817 27.331C138.792 26.625 139.279 25.7798 139.279 24.7955C139.279 24 139.001 23.3338 138.444 22.7969C137.887 22.25 137.032 21.8423 135.878 21.5739L132.06 20.679C129.962 20.1818 128.421 19.4112 127.437 18.3672C126.462 17.3132 125.975 15.9957 125.975 14.4148C125.975 13.1222 126.338 11.9787 127.064 10.9844C127.8 9.99006 128.799 9.20952 130.062 8.64275C131.334 8.07599 132.776 7.79261 134.387 7.79261C136.654 7.79261 138.434 8.28977 139.726 9.28409C141.029 10.2784 141.954 11.5909 142.501 13.2216ZM157.822 31.4773C155.614 31.4773 153.71 30.9901 152.109 30.0156C150.519 29.0312 149.291 27.6591 148.426 25.8991C147.57 24.1293 147.143 22.071 147.143 19.7244C147.143 17.3778 147.57 15.3097 148.426 13.5199C149.291 11.7202 150.494 10.3182 152.035 9.31392C153.586 8.29972 155.396 7.79261 157.464 7.79261C158.657 7.79261 159.835 7.99148 160.999 8.3892C162.162 8.78693 163.221 9.43324 164.176 10.3281C165.13 11.2131 165.891 12.3864 166.457 13.848C167.024 15.3097 167.308 17.1094 167.308 19.2472V20.7386H149.649V17.696H163.728C163.728 16.4034 163.47 15.25 162.953 14.2358C162.445 13.2216 161.72 12.4212 160.775 11.8345C159.84 11.2479 158.737 10.9545 157.464 10.9545C156.062 10.9545 154.849 11.3026 153.825 11.9986C152.81 12.6847 152.03 13.5795 151.483 14.6832C150.936 15.7869 150.663 16.9702 150.663 18.233V20.2614C150.663 21.9915 150.961 23.4581 151.558 24.6612C152.164 25.8544 153.004 26.7642 154.078 27.3906C155.152 28.0071 156.4 28.3153 157.822 28.3153C158.747 28.3153 159.582 28.1861 160.328 27.9276C161.083 27.6591 161.734 27.2614 162.281 26.7344C162.828 26.1974 163.251 25.5312 163.549 24.7358L166.95 25.6903C166.592 26.8438 165.99 27.858 165.145 28.733C164.3 29.598 163.256 30.2741 162.013 30.7614C160.77 31.2386 159.373 31.4773 157.822 31.4773ZM8.52868 90.5909C7.93208 90.5909 7.40012 90.5412 6.93279 90.4418C6.46547 90.3523 6.14231 90.2628 5.96333 90.1733L6.85822 87.071C7.71333 87.2898 8.46902 87.3693 9.12527 87.3097C9.78152 87.25 10.3632 86.9567 10.8703 86.4297C11.3873 85.9126 11.8596 85.0724 12.2872 83.9091L12.9434 82.1193L4.47186 59.0909H8.29004L14.6139 77.3466H14.8525L21.1764 59.0909H24.9946L15.2702 85.3409C14.8327 86.5241 14.2907 87.5036 13.6444 88.2791C12.9981 89.0646 12.2474 89.6463 11.3923 90.0241C10.5471 90.402 9.5926 90.5909 8.52868 90.5909ZM38.127 82.4773C36.0589 82.4773 34.2442 81.9851 32.6832 81.0007C31.132 80.0163 29.9189 78.6392 29.0439 76.8693C28.1789 75.0994 27.7464 73.0312 27.7464 70.6648C27.7464 68.2784 28.1789 66.1953 29.0439 64.4155C29.9189 62.6357 31.132 61.2536 32.6832 60.2692C34.2442 59.2848 36.0589 58.7926 38.127 58.7926C40.1952 58.7926 42.0049 59.2848 43.556 60.2692C45.1171 61.2536 46.3302 62.6357 47.1952 64.4155C48.0702 66.1953 48.5077 68.2784 48.5077 70.6648C48.5077 73.0312 48.0702 75.0994 47.1952 76.8693C46.3302 78.6392 45.1171 80.0163 43.556 81.0007C42.0049 81.9851 40.1952 82.4773 38.127 82.4773ZM38.127 79.3153C39.6981 79.3153 40.9907 78.9126 42.0049 78.1072C43.0191 77.3018 43.7698 76.2429 44.257 74.9304C44.7442 73.6179 44.9878 72.196 44.9878 70.6648C44.9878 69.1335 44.7442 67.7067 44.257 66.3842C43.7698 65.0618 43.0191 63.9929 42.0049 63.1776C40.9907 62.3622 39.6981 61.9545 38.127 61.9545C36.556 61.9545 35.2634 62.3622 34.2492 63.1776C33.235 63.9929 32.4843 65.0618 31.9971 66.3842C31.5099 67.7067 31.2662 69.1335 31.2662 70.6648C31.2662 72.196 31.5099 73.6179 31.9971 74.9304C32.4843 76.2429 33.235 77.3018 34.2492 78.1072C35.2634 78.9126 36.556 79.3153 38.127 79.3153ZM68.3183 72.6335V59.0909H71.8382V82H68.3183V78.1222H68.0796C67.5427 79.2855 66.7075 80.2749 65.574 81.0902C64.4404 81.8956 63.0086 82.2983 61.2785 82.2983C59.8467 82.2983 58.574 81.9851 57.4603 81.3587C56.3467 80.7223 55.4717 79.7678 54.8353 78.495C54.199 77.2124 53.8808 75.5966 53.8808 73.6477V59.0909H57.4007V73.4091C57.4007 75.0795 57.868 76.4119 58.8026 77.4062C59.7472 78.4006 60.9504 78.8977 62.412 78.8977C63.287 78.8977 64.1769 78.674 65.0818 78.2266C65.9965 77.7791 66.7622 77.093 67.3786 76.1683C68.0051 75.2436 68.3183 74.0653 68.3183 72.6335ZM78.2851 82V59.0909H81.6856V62.5511H81.9243C82.3419 61.4176 83.0976 60.4979 84.1913 59.7919C85.2851 59.0859 86.518 58.733 87.8902 58.733C88.1487 58.733 88.4719 58.7379 88.8596 58.7479C89.2474 58.7578 89.5408 58.7727 89.7396 58.7926V62.3722C89.6203 62.3423 89.3469 62.2976 88.9193 62.2379C88.5017 62.1683 88.0592 62.1335 87.5919 62.1335C86.4783 62.1335 85.4839 62.3672 84.6089 62.8345C83.7439 63.2919 83.0578 63.9283 82.5507 64.7436C82.0535 65.549 81.805 66.4687 81.805 67.5028V82H78.2851ZM114.375 82.4773C112.466 82.4773 110.781 81.995 109.319 81.0305C107.857 80.0561 106.714 78.6839 105.889 76.9141C105.063 75.1342 104.651 73.0312 104.651 70.6051C104.651 68.1989 105.063 66.1108 105.889 64.3409C106.714 62.571 107.862 61.2038 109.334 60.2393C110.805 59.2749 112.506 58.7926 114.435 58.7926C115.926 58.7926 117.104 59.0412 117.97 59.5384C118.845 60.0256 119.511 60.5824 119.968 61.2088C120.435 61.8253 120.798 62.3324 121.057 62.7301H121.355V51.4545H124.875V82H121.475V78.4801H121.057C120.798 78.8977 120.43 79.4247 119.953 80.0611C119.476 80.6875 118.795 81.2493 117.91 81.7464C117.025 82.2337 115.847 82.4773 114.375 82.4773ZM114.852 79.3153C116.264 79.3153 117.457 78.9474 118.432 78.2116C119.406 77.4659 120.147 76.4368 120.654 75.1243C121.161 73.8018 121.415 72.2756 121.415 70.5455C121.415 68.8352 121.166 67.3388 120.669 66.0561C120.172 64.7635 119.436 63.7592 118.462 63.0433C117.487 62.3175 116.284 61.9545 114.852 61.9545C113.361 61.9545 112.118 62.3374 111.124 63.103C110.139 63.8587 109.399 64.8878 108.901 66.1903C108.414 67.483 108.171 68.9347 108.171 70.5455C108.171 72.1761 108.419 73.6577 108.916 74.9901C109.423 76.3125 110.169 77.3665 111.153 78.152C112.148 78.9276 113.381 79.3153 114.852 79.3153ZM131.81 82V59.0909H135.33V82H131.81ZM133.6 55.2727C132.914 55.2727 132.323 55.0391 131.825 54.5717C131.338 54.1044 131.095 53.5426 131.095 52.8864C131.095 52.2301 131.338 51.6683 131.825 51.201C132.323 50.7337 132.914 50.5 133.6 50.5C134.286 50.5 134.873 50.7337 135.36 51.201C135.857 51.6683 136.106 52.2301 136.106 52.8864C136.106 53.5426 135.857 54.1044 135.36 54.5717C134.873 55.0391 134.286 55.2727 133.6 55.2727ZM158.005 64.2216L154.843 65.1165C154.644 64.5895 154.35 64.0774 153.963 63.5803C153.585 63.0732 153.068 62.6555 152.411 62.3274C151.755 61.9993 150.915 61.8352 149.891 61.8352C148.489 61.8352 147.321 62.1584 146.386 62.8047C145.461 63.4411 144.999 64.2514 144.999 65.2358C144.999 66.1108 145.317 66.8018 145.953 67.3089C146.59 67.8161 147.584 68.2386 148.936 68.5767L152.337 69.4119C154.385 69.9091 155.911 70.6697 156.916 71.6939C157.92 72.7081 158.422 74.0156 158.422 75.6165C158.422 76.929 158.044 78.1023 157.289 79.1364C156.543 80.1705 155.499 80.9858 154.157 81.5824C152.814 82.179 151.253 82.4773 149.473 82.4773C147.137 82.4773 145.203 81.9702 143.671 80.956C142.14 79.9418 141.171 78.4602 140.763 76.5114L144.104 75.6761C144.422 76.9091 145.024 77.8338 145.909 78.4503C146.804 79.0668 147.972 79.375 149.414 79.375C151.054 79.375 152.357 79.027 153.321 78.331C154.296 77.625 154.783 76.7798 154.783 75.7955C154.783 75 154.505 74.3338 153.948 73.7969C153.391 73.25 152.536 72.8423 151.382 72.5739L147.564 71.679C145.466 71.1818 143.925 70.4112 142.941 69.3672C141.966 68.3132 141.479 66.9957 141.479 65.4148C141.479 64.1222 141.842 62.9787 142.568 61.9844C143.304 60.9901 144.303 60.2095 145.566 59.6428C146.838 59.076 148.28 58.7926 149.891 58.7926C152.158 58.7926 153.938 59.2898 155.23 60.2841C156.533 61.2784 157.458 62.5909 158.005 64.2216ZM173.027 82.4773C170.88 82.4773 169.03 81.9702 167.479 80.956C165.928 79.9418 164.735 78.5447 163.9 76.7649C163.064 74.9851 162.647 72.9517 162.647 70.6648C162.647 68.3381 163.074 66.2848 163.929 64.505C164.794 62.7152 165.998 61.3182 167.539 60.3139C169.09 59.2997 170.9 58.7926 172.968 58.7926C174.579 58.7926 176.03 59.0909 177.323 59.6875C178.616 60.2841 179.674 61.1193 180.5 62.1932C181.325 63.267 181.837 64.5199 182.036 65.9517H178.516C178.248 64.9077 177.651 63.983 176.726 63.1776C175.812 62.3622 174.579 61.9545 173.027 61.9545C171.655 61.9545 170.452 62.3125 169.418 63.0284C168.394 63.7344 167.593 64.7337 167.017 66.0263C166.45 67.3089 166.167 68.8153 166.167 70.5455C166.167 72.3153 166.445 73.8565 167.002 75.169C167.569 76.4815 168.364 77.5007 169.388 78.2266C170.422 78.9524 171.635 79.3153 173.027 79.3153C173.942 79.3153 174.772 79.1562 175.518 78.8381C176.264 78.5199 176.895 78.0625 177.412 77.4659C177.929 76.8693 178.297 76.1534 178.516 75.3182H182.036C181.837 76.6705 181.345 77.8885 180.559 78.9723C179.784 80.0462 178.755 80.9013 177.472 81.5376C176.199 82.1641 174.718 82.4773 173.027 82.4773Z"/>
</mask>
<path d="M45.838 10H42.1391C41.9204 8.93608 41.5376 8.00142 40.9907 7.19602C40.4537 6.39062 39.7975 5.71449 39.0219 5.16761C38.2563 4.6108 37.4062 4.19318 36.4715 3.91477C35.5368 3.63636 34.5624 3.49716 33.5482 3.49716C31.6988 3.49716 30.0233 3.96449 28.5219 4.89915C27.0305 5.83381 25.8422 7.21094 24.9573 9.03054C24.0823 10.8501 23.6448 13.0824 23.6448 15.7273C23.6448 18.3722 24.0823 20.6044 24.9573 22.424C25.8422 24.2436 27.0305 25.6207 28.5219 26.5554C30.0233 27.4901 31.6988 27.9574 33.5482 27.9574C34.5624 27.9574 35.5368 27.8182 36.4715 27.5398C37.4062 27.2614 38.2563 26.8487 39.0219 26.3018C39.7975 25.745 40.4537 25.0639 40.9907 24.2585C41.5376 23.4432 41.9204 22.5085 42.1391 21.4545H45.838C45.5596 23.0156 45.0525 24.4126 44.3167 25.6456C43.5809 26.8786 42.6661 27.9276 41.5724 28.7926C40.4786 29.6477 39.2506 30.299 37.8884 30.7464C36.5361 31.1939 35.0894 31.4176 33.5482 31.4176C30.9431 31.4176 28.6263 30.7812 26.5979 29.5085C24.5695 28.2358 22.9736 26.4261 21.8103 24.0795C20.6469 21.733 20.0653 18.9489 20.0653 15.7273C20.0653 12.5057 20.6469 9.72159 21.8103 7.375C22.9736 5.02841 24.5695 3.21875 26.5979 1.94602C28.6263 0.673295 30.9431 0.0369307 33.5482 0.0369307C35.0894 0.0369307 36.5361 0.260652 37.8884 0.708096C39.2506 1.15554 40.4786 1.81179 41.5724 2.67685C42.6661 3.53196 43.5809 4.57599 44.3167 5.80895C45.0525 7.03196 45.5596 8.42898 45.838 10ZM54.8577 17.2188V31H51.3378V0.454545H54.8577V11.6705H55.156C55.6929 10.4872 56.4983 9.54758 57.5722 8.85156C58.656 8.1456 60.0977 7.79261 61.8975 7.79261C63.4585 7.79261 64.8257 8.10582 65.999 8.73224C67.1723 9.34872 68.0821 10.2983 68.7284 11.581C69.3847 12.8537 69.7128 14.4744 69.7128 16.4432V31H66.1929V16.6818C66.1929 14.8622 65.7206 13.4553 64.776 12.4609C63.8414 11.4567 62.5438 10.9545 60.8833 10.9545C59.7298 10.9545 58.6958 11.1982 57.781 11.6854C56.8762 12.1726 56.1602 12.8835 55.6333 13.8182C55.1162 14.7528 54.8577 15.8864 54.8577 17.2188ZM85.4591 31.4773C83.3909 31.4773 81.5763 30.9851 80.0152 30.0007C78.464 29.0163 77.251 27.6392 76.376 25.8693C75.5109 24.0994 75.0784 22.0312 75.0784 19.6648C75.0784 17.2784 75.5109 15.1953 76.376 13.4155C77.251 11.6357 78.464 10.2536 80.0152 9.26918C81.5763 8.2848 83.3909 7.79261 85.4591 7.79261C87.5273 7.79261 89.3369 8.2848 90.8881 9.26918C92.4491 10.2536 93.6622 11.6357 94.5273 13.4155C95.4023 15.1953 95.8398 17.2784 95.8398 19.6648C95.8398 22.0312 95.4023 24.0994 94.5273 25.8693C93.6622 27.6392 92.4491 29.0163 90.8881 30.0007C89.3369 30.9851 87.5273 31.4773 85.4591 31.4773ZM85.4591 28.3153C87.0301 28.3153 88.3227 27.9126 89.3369 27.1072C90.3511 26.3018 91.1018 25.2429 91.589 23.9304C92.0763 22.6179 92.3199 21.196 92.3199 19.6648C92.3199 18.1335 92.0763 16.7067 91.589 15.3842C91.1018 14.0618 90.3511 12.9929 89.3369 12.1776C88.3227 11.3622 87.0301 10.9545 85.4591 10.9545C83.8881 10.9545 82.5954 11.3622 81.5812 12.1776C80.567 12.9929 79.8163 14.0618 79.3291 15.3842C78.8419 16.7067 78.5983 18.1335 78.5983 19.6648C78.5983 21.196 78.8419 22.6179 79.3291 23.9304C79.8163 25.2429 80.567 26.3018 81.5812 27.1072C82.5954 27.9126 83.8881 28.3153 85.4591 28.3153ZM110.52 31.4773C108.451 31.4773 106.637 30.9851 105.076 30.0007C103.525 29.0163 102.312 27.6392 101.437 25.8693C100.571 24.0994 100.139 22.0312 100.139 19.6648C100.139 17.2784 100.571 15.1953 101.437 13.4155C102.312 11.6357 103.525 10.2536 105.076 9.26918C106.637 8.2848 108.451 7.79261 110.52 7.79261C112.588 7.79261 114.397 8.2848 115.949 9.26918C117.51 10.2536 118.723 11.6357 119.588 13.4155C120.463 15.1953 120.9 17.2784 120.9 19.6648C120.9 22.0312 120.463 24.0994 119.588 25.8693C118.723 27.6392 117.51 29.0163 115.949 30.0007C114.397 30.9851 112.588 31.4773 110.52 31.4773ZM110.52 28.3153C112.091 28.3153 113.383 27.9126 114.397 27.1072C115.412 26.3018 116.162 25.2429 116.65 23.9304C117.137 22.6179 117.38 21.196 117.38 19.6648C117.38 18.1335 117.137 16.7067 116.65 15.3842C116.162 14.0618 115.412 12.9929 114.397 12.1776C113.383 11.3622 112.091 10.9545 110.52 10.9545C108.949 10.9545 107.656 11.3622 106.642 12.1776C105.628 12.9929 104.877 14.0618 104.39 15.3842C103.902 16.7067 103.659 18.1335 103.659 19.6648C103.659 21.196 103.902 22.6179 104.39 23.9304C104.877 25.2429 105.628 26.3018 106.642 27.1072C107.656 27.9126 108.949 28.3153 110.52 28.3153ZM142.501 13.2216L139.339 14.1165C139.14 13.5895 138.847 13.0774 138.459 12.5803C138.081 12.0732 137.564 11.6555 136.908 11.3274C136.251 10.9993 135.411 10.8352 134.387 10.8352C132.985 10.8352 131.817 11.1584 130.882 11.8047C129.957 12.4411 129.495 13.2514 129.495 14.2358C129.495 15.1108 129.813 15.8018 130.449 16.3089C131.086 16.8161 132.08 17.2386 133.432 17.5767L136.833 18.4119C138.881 18.9091 140.408 19.6697 141.412 20.6939C142.416 21.7081 142.918 23.0156 142.918 24.6165C142.918 25.929 142.54 27.1023 141.785 28.1364C141.039 29.1705 139.995 29.9858 138.653 30.5824C137.31 31.179 135.749 31.4773 133.969 31.4773C131.633 31.4773 129.699 30.9702 128.168 29.956C126.636 28.9418 125.667 27.4602 125.259 25.5114L128.6 24.6761C128.918 25.9091 129.52 26.8338 130.405 27.4503C131.3 28.0668 132.468 28.375 133.91 28.375C135.55 28.375 136.853 28.027 137.817 27.331C138.792 26.625 139.279 25.7798 139.279 24.7955C139.279 24 139.001 23.3338 138.444 22.7969C137.887 22.25 137.032 21.8423 135.878 21.5739L132.06 20.679C129.962 20.1818 128.421 19.4112 127.437 18.3672C126.462 17.3132 125.975 15.9957 125.975 14.4148C125.975 13.1222 126.338 11.9787 127.064 10.9844C127.8 9.99006 128.799 9.20952 130.062 8.64275C131.334 8.07599 132.776 7.79261 134.387 7.79261C136.654 7.79261 138.434 8.28977 139.726 9.28409C141.029 10.2784 141.954 11.5909 142.501 13.2216ZM157.822 31.4773C155.614 31.4773 153.71 30.9901 152.109 30.0156C150.519 29.0312 149.291 27.6591 148.426 25.8991C147.57 24.1293 147.143 22.071 147.143 19.7244C147.143 17.3778 147.57 15.3097 148.426 13.5199C149.291 11.7202 150.494 10.3182 152.035 9.31392C153.586 8.29972 155.396 7.79261 157.464 7.79261C158.657 7.79261 159.835 7.99148 160.999 8.3892C162.162 8.78693 163.221 9.43324 164.176 10.3281C165.13 11.2131 165.891 12.3864 166.457 13.848C167.024 15.3097 167.308 17.1094 167.308 19.2472V20.7386H149.649V17.696H163.728C163.728 16.4034 163.47 15.25 162.953 14.2358C162.445 13.2216 161.72 12.4212 160.775 11.8345C159.84 11.2479 158.737 10.9545 157.464 10.9545C156.062 10.9545 154.849 11.3026 153.825 11.9986C152.81 12.6847 152.03 13.5795 151.483 14.6832C150.936 15.7869 150.663 16.9702 150.663 18.233V20.2614C150.663 21.9915 150.961 23.4581 151.558 24.6612C152.164 25.8544 153.004 26.7642 154.078 27.3906C155.152 28.0071 156.4 28.3153 157.822 28.3153C158.747 28.3153 159.582 28.1861 160.328 27.9276C161.083 27.6591 161.734 27.2614 162.281 26.7344C162.828 26.1974 163.251 25.5312 163.549 24.7358L166.95 25.6903C166.592 26.8438 165.99 27.858 165.145 28.733C164.3 29.598 163.256 30.2741 162.013 30.7614C160.77 31.2386 159.373 31.4773 157.822 31.4773ZM8.52868 90.5909C7.93208 90.5909 7.40012 90.5412 6.93279 90.4418C6.46547 90.3523 6.14231 90.2628 5.96333 90.1733L6.85822 87.071C7.71333 87.2898 8.46902 87.3693 9.12527 87.3097C9.78152 87.25 10.3632 86.9567 10.8703 86.4297C11.3873 85.9126 11.8596 85.0724 12.2872 83.9091L12.9434 82.1193L4.47186 59.0909H8.29004L14.6139 77.3466H14.8525L21.1764 59.0909H24.9946L15.2702 85.3409C14.8327 86.5241 14.2907 87.5036 13.6444 88.2791C12.9981 89.0646 12.2474 89.6463 11.3923 90.0241C10.5471 90.402 9.5926 90.5909 8.52868 90.5909ZM38.127 82.4773C36.0589 82.4773 34.2442 81.9851 32.6832 81.0007C31.132 80.0163 29.9189 78.6392 29.0439 76.8693C28.1789 75.0994 27.7464 73.0312 27.7464 70.6648C27.7464 68.2784 28.1789 66.1953 29.0439 64.4155C29.9189 62.6357 31.132 61.2536 32.6832 60.2692C34.2442 59.2848 36.0589 58.7926 38.127 58.7926C40.1952 58.7926 42.0049 59.2848 43.556 60.2692C45.1171 61.2536 46.3302 62.6357 47.1952 64.4155C48.0702 66.1953 48.5077 68.2784 48.5077 70.6648C48.5077 73.0312 48.0702 75.0994 47.1952 76.8693C46.3302 78.6392 45.1171 80.0163 43.556 81.0007C42.0049 81.9851 40.1952 82.4773 38.127 82.4773ZM38.127 79.3153C39.6981 79.3153 40.9907 78.9126 42.0049 78.1072C43.0191 77.3018 43.7698 76.2429 44.257 74.9304C44.7442 73.6179 44.9878 72.196 44.9878 70.6648C44.9878 69.1335 44.7442 67.7067 44.257 66.3842C43.7698 65.0618 43.0191 63.9929 42.0049 63.1776C40.9907 62.3622 39.6981 61.9545 38.127 61.9545C36.556 61.9545 35.2634 62.3622 34.2492 63.1776C33.235 63.9929 32.4843 65.0618 31.9971 66.3842C31.5099 67.7067 31.2662 69.1335 31.2662 70.6648C31.2662 72.196 31.5099 73.6179 31.9971 74.9304C32.4843 76.2429 33.235 77.3018 34.2492 78.1072C35.2634 78.9126 36.556 79.3153 38.127 79.3153ZM68.3183 72.6335V59.0909H71.8382V82H68.3183V78.1222H68.0796C67.5427 79.2855 66.7075 80.2749 65.574 81.0902C64.4404 81.8956 63.0086 82.2983 61.2785 82.2983C59.8467 82.2983 58.574 81.9851 57.4603 81.3587C56.3467 80.7223 55.4717 79.7678 54.8353 78.495C54.199 77.2124 53.8808 75.5966 53.8808 73.6477V59.0909H57.4007V73.4091C57.4007 75.0795 57.868 76.4119 58.8026 77.4062C59.7472 78.4006 60.9504 78.8977 62.412 78.8977C63.287 78.8977 64.1769 78.674 65.0818 78.2266C65.9965 77.7791 66.7622 77.093 67.3786 76.1683C68.0051 75.2436 68.3183 74.0653 68.3183 72.6335ZM78.2851 82V59.0909H81.6856V62.5511H81.9243C82.3419 61.4176 83.0976 60.4979 84.1913 59.7919C85.2851 59.0859 86.518 58.733 87.8902 58.733C88.1487 58.733 88.4719 58.7379 88.8596 58.7479C89.2474 58.7578 89.5408 58.7727 89.7396 58.7926V62.3722C89.6203 62.3423 89.3469 62.2976 88.9193 62.2379C88.5017 62.1683 88.0592 62.1335 87.5919 62.1335C86.4783 62.1335 85.4839 62.3672 84.6089 62.8345C83.7439 63.2919 83.0578 63.9283 82.5507 64.7436C82.0535 65.549 81.805 66.4687 81.805 67.5028V82H78.2851ZM114.375 82.4773C112.466 82.4773 110.781 81.995 109.319 81.0305C107.857 80.0561 106.714 78.6839 105.889 76.9141C105.063 75.1342 104.651 73.0312 104.651 70.6051C104.651 68.1989 105.063 66.1108 105.889 64.3409C106.714 62.571 107.862 61.2038 109.334 60.2393C110.805 59.2749 112.506 58.7926 114.435 58.7926C115.926 58.7926 117.104 59.0412 117.97 59.5384C118.845 60.0256 119.511 60.5824 119.968 61.2088C120.435 61.8253 120.798 62.3324 121.057 62.7301H121.355V51.4545H124.875V82H121.475V78.4801H121.057C120.798 78.8977 120.43 79.4247 119.953 80.0611C119.476 80.6875 118.795 81.2493 117.91 81.7464C117.025 82.2337 115.847 82.4773 114.375 82.4773ZM114.852 79.3153C116.264 79.3153 117.457 78.9474 118.432 78.2116C119.406 77.4659 120.147 76.4368 120.654 75.1243C121.161 73.8018 121.415 72.2756 121.415 70.5455C121.415 68.8352 121.166 67.3388 120.669 66.0561C120.172 64.7635 119.436 63.7592 118.462 63.0433C117.487 62.3175 116.284 61.9545 114.852 61.9545C113.361 61.9545 112.118 62.3374 111.124 63.103C110.139 63.8587 109.399 64.8878 108.901 66.1903C108.414 67.483 108.171 68.9347 108.171 70.5455C108.171 72.1761 108.419 73.6577 108.916 74.9901C109.423 76.3125 110.169 77.3665 111.153 78.152C112.148 78.9276 113.381 79.3153 114.852 79.3153ZM131.81 82V59.0909H135.33V82H131.81ZM133.6 55.2727C132.914 55.2727 132.323 55.0391 131.825 54.5717C131.338 54.1044 131.095 53.5426 131.095 52.8864C131.095 52.2301 131.338 51.6683 131.825 51.201C132.323 50.7337 132.914 50.5 133.6 50.5C134.286 50.5 134.873 50.7337 135.36 51.201C135.857 51.6683 136.106 52.2301 136.106 52.8864C136.106 53.5426 135.857 54.1044 135.36 54.5717C134.873 55.0391 134.286 55.2727 133.6 55.2727ZM158.005 64.2216L154.843 65.1165C154.644 64.5895 154.35 64.0774 153.963 63.5803C153.585 63.0732 153.068 62.6555 152.411 62.3274C151.755 61.9993 150.915 61.8352 149.891 61.8352C148.489 61.8352 147.321 62.1584 146.386 62.8047C145.461 63.4411 144.999 64.2514 144.999 65.2358C144.999 66.1108 145.317 66.8018 145.953 67.3089C146.59 67.8161 147.584 68.2386 148.936 68.5767L152.337 69.4119C154.385 69.9091 155.911 70.6697 156.916 71.6939C157.92 72.7081 158.422 74.0156 158.422 75.6165C158.422 76.929 158.044 78.1023 157.289 79.1364C156.543 80.1705 155.499 80.9858 154.157 81.5824C152.814 82.179 151.253 82.4773 149.473 82.4773C147.137 82.4773 145.203 81.9702 143.671 80.956C142.14 79.9418 141.171 78.4602 140.763 76.5114L144.104 75.6761C144.422 76.9091 145.024 77.8338 145.909 78.4503C146.804 79.0668 147.972 79.375 149.414 79.375C151.054 79.375 152.357 79.027 153.321 78.331C154.296 77.625 154.783 76.7798 154.783 75.7955C154.783 75 154.505 74.3338 153.948 73.7969C153.391 73.25 152.536 72.8423 151.382 72.5739L147.564 71.679C145.466 71.1818 143.925 70.4112 142.941 69.3672C141.966 68.3132 141.479 66.9957 141.479 65.4148C141.479 64.1222 141.842 62.9787 142.568 61.9844C143.304 60.9901 144.303 60.2095 145.566 59.6428C146.838 59.076 148.28 58.7926 149.891 58.7926C152.158 58.7926 153.938 59.2898 155.23 60.2841C156.533 61.2784 157.458 62.5909 158.005 64.2216ZM173.027 82.4773C170.88 82.4773 169.03 81.9702 167.479 80.956C165.928 79.9418 164.735 78.5447 163.9 76.7649C163.064 74.9851 162.647 72.9517 162.647 70.6648C162.647 68.3381 163.074 66.2848 163.929 64.505C164.794 62.7152 165.998 61.3182 167.539 60.3139C169.09 59.2997 170.9 58.7926 172.968 58.7926C174.579 58.7926 176.03 59.0909 177.323 59.6875C178.616 60.2841 179.674 61.1193 180.5 62.1932C181.325 63.267 181.837 64.5199 182.036 65.9517H178.516C178.248 64.9077 177.651 63.983 176.726 63.1776C175.812 62.3622 174.579 61.9545 173.027 61.9545C171.655 61.9545 170.452 62.3125 169.418 63.0284C168.394 63.7344 167.593 64.7337 167.017 66.0263C166.45 67.3089 166.167 68.8153 166.167 70.5455C166.167 72.3153 166.445 73.8565 167.002 75.169C167.569 76.4815 168.364 77.5007 169.388 78.2266C170.422 78.9524 171.635 79.3153 173.027 79.3153C173.942 79.3153 174.772 79.1562 175.518 78.8381C176.264 78.5199 176.895 78.0625 177.412 77.4659C177.929 76.8693 178.297 76.1534 178.516 75.3182H182.036C181.837 76.6705 181.345 77.8885 180.559 78.9723C179.784 80.0462 178.755 80.9013 177.472 81.5376C176.199 82.1641 174.718 82.4773 173.027 82.4773Z" fill="white"/>
<path d="M45.838 10V11H47.0308L46.8226 9.8255L45.838 10ZM42.1391 10L41.1596 10.2014L41.3238 11H42.1391V10ZM40.9907 7.19602L40.1586 7.75074L40.1634 7.75777L40.9907 7.19602ZM39.0219 5.16761L38.4338 5.97635L38.4397 5.98065L38.4457 5.98487L39.0219 5.16761ZM36.4715 3.91477L36.186 4.87316L36.4715 3.91477ZM28.5219 4.89915L27.9934 4.0502L27.9909 4.05178L28.5219 4.89915ZM24.9573 9.03054L24.058 8.59318L24.0561 8.59717L24.9573 9.03054ZM24.9573 22.424L24.0561 22.8574L24.058 22.8614L24.9573 22.424ZM28.5219 26.5554L27.9909 27.4028L27.9934 27.4043L28.5219 26.5554ZM36.4715 27.5398L36.186 26.5814L36.4715 27.5398ZM39.0219 26.3018L39.6032 27.1156L39.6051 27.1142L39.0219 26.3018ZM40.9907 24.2585L40.1602 23.7015L40.1586 23.7038L40.9907 24.2585ZM42.1391 21.4545V20.4545H41.3254L41.16 21.2513L42.1391 21.4545ZM45.838 21.4545L46.8224 21.6301L47.0321 20.4545H45.838V21.4545ZM44.3167 25.6456L43.458 25.1331L44.3167 25.6456ZM41.5724 28.7926L42.1883 29.5804L42.1927 29.577L41.5724 28.7926ZM37.8884 30.7464L37.5763 29.7964L37.5743 29.7971L37.8884 30.7464ZM26.5979 29.5085L26.0664 30.3556L26.5979 29.5085ZM21.8103 24.0795L22.7062 23.6354L21.8103 24.0795ZM37.8884 0.708096L37.5743 1.65748L37.5763 1.65816L37.8884 0.708096ZM41.5724 2.67685L40.952 3.46119L40.9564 3.46465L41.5724 2.67685ZM44.3167 5.80895L43.458 6.32141L43.4598 6.32447L44.3167 5.80895ZM45.838 9H42.1391V11H45.838V9ZM43.1186 9.7986C42.8764 8.62064 42.4469 7.56053 41.818 6.63427L40.1634 7.75777C40.6282 8.44231 40.9643 9.25152 41.1596 10.2014L43.1186 9.7986ZM41.8227 6.64132C41.2188 5.73549 40.4765 4.96968 39.5982 4.35036L38.4457 5.98487C39.1185 6.4593 39.6887 7.04576 40.1586 7.75072L41.8227 6.64132ZM39.6101 4.35888C38.75 3.73337 37.797 3.26617 36.757 2.95639L36.186 4.87316C37.0154 5.12019 37.7626 5.48822 38.4338 5.97635L39.6101 4.35888ZM36.757 2.95639C35.726 2.64929 34.6552 2.49716 33.5482 2.49716V4.49716C34.4696 4.49716 35.3477 4.62343 36.186 4.87316L36.757 2.95639ZM33.5482 2.49716C31.5209 2.49716 29.6609 3.01219 27.9934 4.0502L29.0504 5.74809C30.3858 4.91679 31.8766 4.49716 33.5482 4.49716V2.49716ZM27.9909 4.05178C26.3181 5.1001 25.0124 6.63085 24.058 8.59318L25.8566 9.4679C26.6721 7.79102 27.7428 6.56752 29.0529 5.74651L27.9909 4.05178ZM24.0561 8.59717C23.0992 10.5871 22.6448 12.977 22.6448 15.7273H24.6448C24.6448 13.1878 25.0654 11.1131 25.8585 9.46391L24.0561 8.59717ZM22.6448 15.7273C22.6448 18.4776 23.0992 20.8674 24.0561 22.8574L25.8585 21.9906C25.0654 20.3414 24.6448 18.2667 24.6448 15.7273H22.6448ZM24.058 22.8614C25.0124 24.8237 26.3181 26.3545 27.9909 27.4028L29.0529 25.708C27.7428 24.887 26.6721 23.6635 25.8566 21.9866L24.058 22.8614ZM27.9934 27.4043C29.6609 28.4424 31.5209 28.9574 33.5482 28.9574V26.9574C31.8766 26.9574 30.3858 26.5378 29.0504 25.7065L27.9934 27.4043ZM33.5482 28.9574C34.6552 28.9574 35.726 28.8053 36.757 28.4982L36.186 26.5814C35.3477 26.8311 34.4696 26.9574 33.5482 26.9574V28.9574ZM36.757 28.4982C37.7936 28.1894 38.7444 27.729 39.6032 27.1156L38.4407 25.4881C37.7682 25.9684 37.0187 26.3334 36.186 26.5814L36.757 28.4982ZM39.6051 27.1142C40.4799 26.4862 41.22 25.7174 41.8227 24.8132L40.1586 23.7038C39.6875 24.4105 39.1151 25.0039 38.4387 25.4895L39.6051 27.1142ZM41.8212 24.8156C42.4466 23.8831 42.8758 22.8259 43.1182 21.6578L41.16 21.2513C40.9649 22.1911 40.6285 23.0033 40.1602 23.7015L41.8212 24.8156ZM42.1391 22.4545H45.838V20.4545H42.1391V22.4545ZM44.8535 21.279C44.5941 22.7335 44.1257 24.0142 43.458 25.1331L45.1754 26.1581C45.9793 24.811 46.525 23.2978 46.8224 21.6301L44.8535 21.279ZM43.458 25.1331C42.7826 26.2649 41.9476 27.2209 40.952 28.0083L42.1927 29.577C43.3846 28.6343 44.3792 27.4922 45.1754 26.1581L43.458 25.1331ZM40.9564 28.0048C39.9568 28.7863 38.8323 29.3838 37.5763 29.7964L38.2005 31.6965C39.6689 31.2142 41.0004 30.5091 42.1883 29.5804L40.9564 28.0048ZM37.5743 29.7971C36.3313 30.2083 34.9914 30.4176 33.5482 30.4176V32.4176C35.1874 32.4176 36.741 32.1794 38.2025 31.6958L37.5743 29.7971ZM33.5482 30.4176C31.114 30.4176 28.9846 29.8255 27.1294 28.6615L26.0664 30.3556C28.268 31.737 30.7722 32.4176 33.5482 32.4176V30.4176ZM27.1294 28.6615C25.2718 27.4959 23.7955 25.8326 22.7062 23.6354L20.9143 24.5237C22.1517 27.0196 23.8672 28.9757 26.0664 30.3556L27.1294 28.6615ZM22.7062 23.6354C21.6253 21.455 21.0653 18.8296 21.0653 15.7273H19.0653C19.0653 19.0682 19.6686 22.011 20.9143 24.5237L22.7062 23.6354ZM21.0653 15.7273C21.0653 12.625 21.6253 9.99959 22.7062 7.81917L20.9143 6.93083C19.6686 9.44359 19.0653 12.3864 19.0653 15.7273H21.0653ZM22.7062 7.81917C23.7955 5.6219 25.2718 3.95862 27.1294 2.79309L26.0664 1.09896C23.8672 2.47888 22.1517 4.43492 20.9143 6.93083L22.7062 7.81917ZM27.1294 2.79309C28.9846 1.62903 31.114 1.03693 33.5482 1.03693V-0.963069C30.7722 -0.963069 28.268 -0.282443 26.0664 1.09896L27.1294 2.79309ZM33.5482 1.03693C34.9914 1.03693 36.3313 1.2462 37.5743 1.65747L38.2025 -0.241283C36.741 -0.724897 35.1874 -0.963069 33.5482 -0.963069V1.03693ZM37.5763 1.65816C38.8301 2.06996 39.9531 2.67112 40.952 3.46118L42.1927 1.89251C41.0041 0.952457 39.6712 0.241117 38.2005 -0.241965L37.5763 1.65816ZM40.9564 3.46465C41.9496 4.24115 42.7832 5.19074 43.458 6.32141L45.1754 5.29649C44.3785 3.96124 43.3826 2.82277 42.1883 1.88904L40.9564 3.46465ZM43.4598 6.32447C44.1255 7.43094 44.5938 8.70987 44.8533 10.1745L46.8226 9.8255C46.5254 8.14808 45.9795 6.63297 45.1736 5.29343L43.4598 6.32447ZM54.8577 31V32H55.8577V31H54.8577ZM51.3378 31H50.3378V32H51.3378V31ZM51.3378 0.454544V-0.545456H50.3378V0.454544H51.3378ZM54.8577 0.454544H55.8577V-0.545456H54.8577V0.454544ZM54.8577 11.6705H53.8577V12.6705H54.8577V11.6705ZM55.156 11.6705V12.6705H55.8003L56.0666 12.0837L55.156 11.6705ZM57.5722 8.85156L58.1161 9.69072L58.118 9.68948L57.5722 8.85156ZM65.999 8.73224L65.528 9.61441L65.5339 9.61749L65.999 8.73224ZM68.7284 11.581L67.8354 12.031L67.8396 12.0393L68.7284 11.581ZM69.7128 31V32H70.7128V31H69.7128ZM66.1929 31H65.1929V32H66.1929V31ZM64.776 12.4609L64.044 13.1423L64.051 13.1497L64.776 12.4609ZM57.781 11.6854L57.3109 10.8027L57.3069 10.8049L57.781 11.6854ZM55.6333 13.8182L54.7621 13.327L54.7582 13.3341L55.6333 13.8182ZM53.8577 17.2188V31H55.8577V17.2188H53.8577ZM54.8577 30H51.3378V32H54.8577V30ZM52.3378 31V0.454544H50.3378V31H52.3378ZM51.3378 1.45454H54.8577V-0.545456H51.3378V1.45454ZM53.8577 0.454544V11.6705H55.8577V0.454544H53.8577ZM54.8577 12.6705H55.156V10.6705H54.8577V12.6705ZM56.0666 12.0837C56.5258 11.0717 57.2053 10.2811 58.1161 9.69072L57.0283 8.01241C55.7914 8.81411 54.86 9.90271 54.2454 11.2572L56.0666 12.0837ZM58.118 9.68948C58.9874 9.12313 60.2185 8.79261 61.8975 8.79261V6.79261C59.977 6.79261 58.3245 7.16807 57.0264 8.01365L58.118 9.68948ZM61.8975 8.79261C63.3228 8.79261 64.5229 9.07777 65.528 9.61439L66.47 7.8501C65.1285 7.13388 63.5943 6.79261 61.8975 6.79261V8.79261ZM65.5339 9.61749C66.507 10.1288 67.2746 10.918 67.8354 12.0309L69.6215 11.131C68.8896 9.67859 67.8376 8.56864 66.4641 7.847L65.5339 9.61749ZM67.8396 12.0393C68.4006 13.1273 68.7128 14.5772 68.7128 16.4432H70.7128C70.7128 14.3716 70.3687 12.5801 69.6172 11.1227L67.8396 12.0393ZM68.7128 16.4432V31H70.7128V16.4432H68.7128ZM69.7128 30H66.1929V32H69.7128V30ZM67.1929 31V16.6818H65.1929V31H67.1929ZM67.1929 16.6818C67.1929 14.6919 66.6736 13.0065 65.501 11.7722L64.051 13.1497C64.7676 13.904 65.1929 15.0325 65.1929 16.6818H67.1929ZM65.508 11.7797C64.3451 10.5302 62.7584 9.95454 60.8833 9.95454V11.9545C62.3292 11.9545 63.3376 12.3832 64.044 13.1422L65.508 11.7797ZM60.8833 9.95454C59.5847 9.95454 58.3861 10.2301 57.3109 10.8027L58.2511 12.568C59.0054 12.1662 59.875 11.9545 60.8833 11.9545V9.95454ZM57.3069 10.8049C56.228 11.3858 55.3777 12.2353 54.7622 13.327L56.5043 14.3093C56.9428 13.5317 57.5243 12.9594 58.2551 12.5658L57.3069 10.8049ZM54.7582 13.3341C54.1413 14.4493 53.8577 15.7583 53.8577 17.2188H55.8577C55.8577 16.0144 56.0911 15.0564 56.5083 14.3022L54.7582 13.3341ZM80.0152 30.0007L79.4794 30.845L79.4818 30.8466L80.0152 30.0007ZM76.376 25.8693L75.4775 26.3084L75.4795 26.3125L76.376 25.8693ZM76.376 13.4155L75.4786 12.9743L75.4766 12.9783L76.376 13.4155ZM80.0152 9.26918L79.4818 8.4233L79.4794 8.42485L80.0152 9.26918ZM90.8881 9.26918L90.3522 10.1135L90.3547 10.115L90.8881 9.26918ZM94.5273 13.4155L93.6279 13.8526L93.6298 13.8567L94.5273 13.4155ZM94.5273 25.8693L93.6308 25.4261L93.6288 25.4302L94.5273 25.8693ZM90.8881 30.0007L90.3547 29.1548L90.3522 29.1564L90.8881 30.0007ZM89.3369 27.1072L88.715 26.3241L89.3369 27.1072ZM91.589 23.9304L92.5265 24.2784L91.589 23.9304ZM91.589 15.3842L92.5274 15.0385L91.589 15.3842ZM89.3369 12.1776L89.9635 11.3982L89.3369 12.1776ZM81.5812 12.1776L80.9547 11.3982L81.5812 12.1776ZM79.3291 15.3842L78.3908 15.0385H78.3908L79.3291 15.3842ZM79.3291 23.9304L78.3916 24.2784L79.3291 23.9304ZM81.5812 27.1072L82.2031 26.3241L81.5812 27.1072ZM85.4591 30.4773C83.5562 30.4773 81.9312 30.0267 80.5486 29.1548L79.4818 30.8466C81.2213 31.9435 83.2256 32.4773 85.4591 32.4773V30.4773ZM80.551 29.1564C79.1661 28.2775 78.0725 27.0445 77.2724 25.4261L75.4795 26.3125C76.4294 28.2339 77.762 29.7552 79.4794 30.845L80.551 29.1564ZM77.2744 25.4302C76.4883 23.8219 76.0784 21.9093 76.0784 19.6648H74.0784C74.0784 22.1532 74.5335 24.377 75.4775 26.3084L77.2744 25.4302ZM76.0784 19.6648C76.0784 17.3991 76.4888 15.471 77.2754 13.8526L75.4766 12.9783C74.5331 14.9196 74.0784 17.1577 74.0784 19.6648H76.0784ZM77.2734 13.8567C78.0739 12.2283 79.1675 10.9915 80.551 10.1135L79.4794 8.42485C77.7606 9.51562 76.428 11.043 75.4786 12.9743L77.2734 13.8567ZM80.5486 10.115C81.9312 9.24319 83.5562 8.79261 85.4591 8.79261V6.79261C83.2256 6.79261 81.2213 7.32641 79.4818 8.4233L80.5486 10.115ZM85.4591 8.79261C87.3621 8.79261 88.9809 9.24322 90.3522 10.1135L91.4239 8.42485C89.693 7.32639 87.6924 6.79261 85.4591 6.79261V8.79261ZM90.3547 10.115C91.7466 10.9927 92.8382 12.2279 93.6279 13.8526L95.4267 12.9783C94.4862 11.0434 93.1517 9.51436 91.4214 8.4233L90.3547 10.115ZM93.6298 13.8567C94.425 15.4741 94.8398 17.4007 94.8398 19.6648H96.8398C96.8398 17.1561 96.3795 14.9165 95.4247 12.9743L93.6298 13.8567ZM94.8398 19.6648C94.8398 21.9077 94.4255 23.8188 93.6308 25.4261L95.4237 26.3125C96.379 24.3801 96.8398 22.1548 96.8398 19.6648H94.8398ZM93.6288 25.4302C92.8396 27.045 91.748 28.2763 90.3547 29.1548L91.4214 30.8466C93.1503 29.7564 94.4848 28.2334 95.4257 26.3084L93.6288 25.4302ZM90.3522 29.1564C88.9809 30.0267 87.3621 30.4773 85.4591 30.4773V32.4773C87.6924 32.4773 89.693 31.9435 91.4239 30.845L90.3522 29.1564ZM85.4591 29.3153C87.2063 29.3153 88.7324 28.8642 89.9588 27.8904L88.715 26.3241C87.913 26.961 86.8539 27.3153 85.4591 27.3153V29.3153ZM89.9588 27.8904C91.1275 26.9623 91.9811 25.7477 92.5265 24.2784L90.6516 23.5824C90.2225 24.7381 89.5748 25.6414 88.715 26.3241L89.9588 27.8904ZM92.5265 24.2784C93.0588 22.8446 93.3199 21.3037 93.3199 19.6648H91.3199C91.3199 21.0884 91.0937 22.3912 90.6516 23.5824L92.5265 24.2784ZM93.3199 19.6648C93.3199 18.0258 93.0588 16.4809 92.5274 15.0385L90.6507 15.7299C91.0937 16.9325 91.3199 18.2413 91.3199 19.6648H93.3199ZM92.5274 15.0385C91.9829 13.5606 91.1307 12.3365 89.9635 11.3982L88.7104 12.9569C89.5716 13.6493 90.2208 14.563 90.6507 15.7299L92.5274 15.0385ZM89.9635 11.3982C88.737 10.4122 87.2091 9.95454 85.4591 9.95454V11.9545C86.8511 11.9545 87.9085 12.3123 88.7104 12.9569L89.9635 11.3982ZM85.4591 9.95454C83.7091 9.95454 82.1812 10.4122 80.9547 11.3982L82.2078 12.9569C83.0097 12.3123 84.067 11.9545 85.4591 11.9545V9.95454ZM80.9547 11.3982C79.7875 12.3365 78.9353 13.5606 78.3908 15.0385L80.2674 15.7299C80.6974 14.563 81.3466 13.6493 82.2078 12.9569L80.9547 11.3982ZM78.3908 15.0385C77.8594 16.4809 77.5983 18.0258 77.5983 19.6648H79.5983C79.5983 18.2413 79.8244 16.9325 80.2674 15.7299L78.3908 15.0385ZM77.5983 19.6648C77.5983 21.3037 77.8593 22.8446 78.3916 24.2784L80.2666 23.5824C79.8244 22.3912 79.5983 21.0884 79.5983 19.6648H77.5983ZM78.3916 24.2784C78.937 25.7477 79.7907 26.9623 80.9594 27.8904L82.2031 26.3241C81.3434 25.6414 80.6956 24.7381 80.2666 23.5824L78.3916 24.2784ZM80.9594 27.8904C82.1857 28.8642 83.7119 29.3153 85.4591 29.3153V27.3153C84.0642 27.3153 83.0051 26.961 82.2031 26.3241L80.9594 27.8904ZM105.076 30.0007L104.54 30.845L104.542 30.8466L105.076 30.0007ZM101.437 25.8693L100.538 26.3084L100.54 26.3125L101.437 25.8693ZM101.437 13.4155L100.539 12.9743L100.537 12.9783L101.437 13.4155ZM105.076 9.26918L104.542 8.4233L104.54 8.42485L105.076 9.26918ZM115.949 9.26918L115.413 10.1135L115.415 10.115L115.949 9.26918ZM119.588 13.4155L118.688 13.8526L118.69 13.8567L119.588 13.4155ZM119.588 25.8693L118.691 25.4261L118.689 25.4302L119.588 25.8693ZM115.949 30.0007L115.415 29.1548L115.413 29.1564L115.949 30.0007ZM114.397 27.1072L113.776 26.3241L114.397 27.1072ZM116.65 23.9304L117.587 24.2784L116.65 23.9304ZM116.65 15.3842L117.588 15.0385L116.65 15.3842ZM114.397 12.1776L115.024 11.3982L114.397 12.1776ZM106.642 12.1776L106.015 11.3982L106.642 12.1776ZM104.39 15.3842L103.451 15.0385L104.39 15.3842ZM104.39 23.9304L103.452 24.2784L104.39 23.9304ZM106.642 27.1072L107.264 26.3241L106.642 27.1072ZM110.52 30.4773C108.617 30.4773 106.992 30.0267 105.609 29.1548L104.542 30.8466C106.282 31.9435 108.286 32.4773 110.52 32.4773V30.4773ZM105.612 29.1564C104.227 28.2775 103.133 27.0445 102.333 25.4261L100.54 26.3125C101.49 28.2339 102.823 29.7552 104.54 30.845L105.612 29.1564ZM102.335 25.4302C101.549 23.8219 101.139 21.9093 101.139 19.6648H99.1389C99.1389 22.1532 99.5941 24.377 100.538 26.3084L102.335 25.4302ZM101.139 19.6648C101.139 17.3991 101.549 15.471 102.336 13.8526L100.537 12.9783C99.5936 14.9196 99.1389 17.1577 99.1389 19.6648H101.139ZM102.334 13.8567C103.134 12.2283 104.228 10.9915 105.612 10.1135L104.54 8.42485C102.821 9.51562 101.489 11.043 100.539 12.9743L102.334 13.8567ZM105.609 10.115C106.992 9.24319 108.617 8.79261 110.52 8.79261V6.79261C108.286 6.79261 106.282 7.32641 104.542 8.4233L105.609 10.115ZM110.52 8.79261C112.423 8.79261 114.041 9.24322 115.413 10.1135L116.484 8.42485C114.754 7.32639 112.753 6.79261 110.52 6.79261V8.79261ZM115.415 10.115C116.807 10.9927 117.899 12.2279 118.688 13.8526L120.487 12.9783C119.547 11.0434 118.212 9.51436 116.482 8.4233L115.415 10.115ZM118.69 13.8567C119.486 15.4741 119.9 17.4007 119.9 19.6648H121.9C121.9 17.1561 121.44 14.9165 120.485 12.9743L118.69 13.8567ZM119.9 19.6648C119.9 21.9077 119.486 23.8188 118.691 25.4261L120.484 26.3125C121.44 24.3801 121.9 22.1548 121.9 19.6648H119.9ZM118.689 25.4302C117.9 27.045 116.809 28.2763 115.415 29.1548L116.482 30.8466C118.211 29.7564 119.545 28.2334 120.486 26.3084L118.689 25.4302ZM115.413 29.1564C114.041 30.0267 112.423 30.4773 110.52 30.4773V32.4773C112.753 32.4773 114.754 31.9435 116.484 30.845L115.413 29.1564ZM110.52 29.3153C112.267 29.3153 113.793 28.8642 115.019 27.8904L113.776 26.3241C112.974 26.961 111.914 27.3153 110.52 27.3153V29.3153ZM115.019 27.8904C116.188 26.9623 117.042 25.7477 117.587 24.2784L115.712 23.5824C115.283 24.7381 114.635 25.6414 113.776 26.3241L115.019 27.8904ZM117.587 24.2784C118.119 22.8446 118.38 21.3037 118.38 19.6648H116.38C116.38 21.0884 116.154 22.3912 115.712 23.5824L117.587 24.2784ZM118.38 19.6648C118.38 18.0258 118.119 16.4809 117.588 15.0385L115.711 15.7299C116.154 16.9325 116.38 18.2413 116.38 19.6648H118.38ZM117.588 15.0385C117.043 13.5606 116.191 12.3365 115.024 11.3982L113.771 12.9569C114.632 13.6493 115.281 14.563 115.711 15.7299L117.588 15.0385ZM115.024 11.3982C113.798 10.4122 112.27 9.95454 110.52 9.95454V11.9545C111.912 11.9545 112.969 12.3123 113.771 12.9569L115.024 11.3982ZM110.52 9.95454C108.77 9.95454 107.242 10.4122 106.015 11.3982L107.268 12.9569C108.07 12.3123 109.128 11.9545 110.52 11.9545V9.95454ZM106.015 11.3982C104.848 12.3365 103.996 13.5606 103.451 15.0385L105.328 15.7299C105.758 14.563 106.407 13.6493 107.268 12.9569L106.015 11.3982ZM103.451 15.0385C102.92 16.4809 102.659 18.0258 102.659 19.6648H104.659C104.659 18.2413 104.885 16.9325 105.328 15.7299L103.451 15.0385ZM102.659 19.6648C102.659 21.3037 102.92 22.8446 103.452 24.2784L105.327 23.5824C104.885 22.3912 104.659 21.0884 104.659 19.6648H102.659ZM103.452 24.2784C103.998 25.7477 104.851 26.9623 106.02 27.8904L107.264 26.3241C106.404 25.6414 105.756 24.7381 105.327 23.5824L103.452 24.2784ZM106.02 27.8904C107.246 28.8642 108.772 29.3153 110.52 29.3153V27.3153C109.125 27.3153 108.066 26.961 107.264 26.3241L106.02 27.8904ZM142.501 13.2216L142.773 14.1838L143.782 13.8981L143.449 12.9036L142.501 13.2216ZM139.339 14.1165L138.403 14.4695L138.727 15.3288L139.611 15.0787L139.339 14.1165ZM138.459 12.5803L137.657 13.1777L137.663 13.1866L137.67 13.1953L138.459 12.5803ZM136.908 11.3274L137.355 10.433L136.908 11.3274ZM130.882 11.8047L131.449 12.6285L131.451 12.6272L130.882 11.8047ZM130.449 16.3089L129.826 17.091V17.091L130.449 16.3089ZM133.432 17.5767L133.19 18.5469L133.194 18.5478L133.432 17.5767ZM136.833 18.4119L136.594 19.3831L136.597 19.3837L136.833 18.4119ZM141.412 20.6939L140.698 21.394L140.701 21.3975L141.412 20.6939ZM141.785 28.1364L140.977 27.5463L140.974 27.5514L141.785 28.1364ZM128.168 29.956L128.72 29.1223L128.168 29.956ZM125.259 25.5114L125.017 24.5412L124.083 24.7745L124.28 25.7161L125.259 25.5114ZM128.6 24.6761L129.568 24.4263L129.32 23.4653L128.358 23.706L128.6 24.6761ZM130.405 27.4503L129.833 28.2708L129.837 28.2738L130.405 27.4503ZM137.817 27.331L138.403 28.1419L138.404 28.1408L137.817 27.331ZM138.444 22.7969L137.743 23.5104L137.75 23.5167L138.444 22.7969ZM135.878 21.5739L135.65 22.5475L135.652 22.5478L135.878 21.5739ZM132.06 20.679L131.83 21.652L131.832 21.6526L132.06 20.679ZM127.437 18.3672L126.702 19.0461L126.709 19.0532L127.437 18.3672ZM127.064 10.9844L126.26 10.3895L126.256 10.3948L127.064 10.9844ZM130.062 8.64275L129.655 7.72923L129.652 7.73043L130.062 8.64275ZM139.726 9.28409L139.117 10.0767L139.12 10.079L139.726 9.28409ZM142.228 12.2594L139.066 13.1543L139.611 15.0787L142.773 14.1838L142.228 12.2594ZM140.274 13.7634C140.036 13.1317 139.69 12.5324 139.247 11.9652L137.67 13.1953C138.003 13.6224 138.244 14.0473 138.403 14.4695L140.274 13.7634ZM139.261 11.9828C138.775 11.3317 138.128 10.8198 137.355 10.433L136.46 12.2218C136.999 12.4913 137.386 12.8146 137.657 13.1777L139.261 11.9828ZM137.355 10.433C136.516 10.0135 135.509 9.83523 134.387 9.83523V11.8352C135.314 11.8352 135.987 11.9851 136.46 12.2218L137.355 10.433ZM134.387 9.83523C132.83 9.83523 131.451 10.1957 130.313 10.9822L131.451 12.6272C132.183 12.121 133.14 11.8352 134.387 11.8352V9.83523ZM130.315 10.9809C129.163 11.7735 128.495 12.8721 128.495 14.2358H130.495C130.495 13.6308 130.751 13.1086 131.449 12.6285L130.315 10.9809ZM128.495 14.2358C128.495 15.3889 128.932 16.3783 129.826 17.091L131.073 15.5269C130.694 15.2254 130.495 14.8327 130.495 14.2358H128.495ZM129.826 17.091C130.627 17.7294 131.784 18.1954 133.19 18.5468L133.675 16.6066C132.376 16.2819 131.544 15.9027 131.073 15.5269L129.826 17.091ZM133.194 18.5478L136.594 19.3831L137.072 17.4408L133.671 16.6056L133.194 18.5478ZM136.597 19.3837C138.544 19.8562 139.872 20.552 140.698 21.394L142.126 19.9938C140.943 18.7875 139.219 17.9619 137.069 17.4401L136.597 19.3837ZM140.701 21.3975C141.497 22.201 141.918 23.2442 141.918 24.6165H143.918C143.918 22.7871 143.335 21.2152 142.122 19.9903L140.701 21.3975ZM141.918 24.6165C141.918 25.7225 141.605 26.688 140.977 27.5463L142.592 28.7264C143.476 27.5165 143.918 26.1355 143.918 24.6165H141.918ZM140.974 27.5514C140.346 28.4214 139.452 29.1328 138.246 29.6686L139.059 31.4962C140.538 30.8388 141.732 29.9195 142.596 28.7213L140.974 27.5514ZM138.246 29.6686C137.056 30.1976 135.638 30.4773 133.969 30.4773V32.4773C135.86 32.4773 137.564 32.1603 139.059 31.4962L138.246 29.6686ZM133.969 30.4773C131.776 30.4773 130.048 30.0019 128.72 29.1223L127.615 30.7897C129.35 31.9384 131.49 32.4773 133.969 32.4773V30.4773ZM128.72 29.1223C127.427 28.2663 126.597 27.0217 126.238 25.3066L124.28 25.7161C124.737 27.8988 125.845 29.6172 127.615 30.7897L128.72 29.1223ZM125.502 26.4815L128.843 25.6463L128.358 23.706L125.017 24.5412L125.502 26.4815ZM127.632 24.926C127.998 26.3465 128.718 27.4938 129.833 28.2708L130.976 26.6298C130.322 26.1739 129.838 25.4717 129.568 24.4263L127.632 24.926ZM129.837 28.2738C130.946 29.0374 132.331 29.375 133.91 29.375V27.375C132.605 27.375 131.653 27.0962 130.972 26.6268L129.837 28.2738ZM133.91 29.375C135.683 29.375 137.214 28.9997 138.403 28.1419L137.232 26.5201C136.492 27.0543 135.418 27.375 133.91 27.375V29.375ZM138.404 28.1408C139.573 27.2938 140.279 26.1729 140.279 24.7955H138.279C138.279 25.3867 138.01 25.9562 137.231 26.5212L138.404 28.1408ZM140.279 24.7955C140.279 23.7371 139.896 22.8084 139.138 22.077L137.75 23.5167C138.105 23.8592 138.279 24.2629 138.279 24.7955H140.279ZM139.145 22.0834C138.406 21.3576 137.352 20.8901 136.105 20.5999L135.652 22.5478C136.712 22.7946 137.368 23.1424 137.743 23.5103L139.145 22.0834ZM136.107 20.6002L132.288 19.7054L131.832 21.6526L135.65 22.5475L136.107 20.6002ZM132.291 19.7059C130.294 19.2326 128.963 18.5283 128.164 17.6812L126.709 19.0532C127.879 20.2941 129.631 21.131 131.83 21.652L132.291 19.7059ZM128.171 17.6883C127.385 16.8385 126.975 15.7718 126.975 14.4148H124.975C124.975 16.2197 125.539 17.7879 126.702 19.046L128.171 17.6883ZM126.975 14.4148C126.975 13.3228 127.277 12.3882 127.872 11.574L126.256 10.3948C125.399 11.5692 124.975 12.9215 124.975 14.4148H126.975ZM127.868 11.5792C128.49 10.7386 129.346 10.0601 130.471 9.55508L129.652 7.73043C128.252 8.35892 127.11 9.24149 126.26 10.3895L127.868 11.5792ZM130.469 9.55627C131.595 9.05476 132.895 8.79261 134.387 8.79261V6.79261C132.658 6.79261 131.074 7.09723 129.655 7.72924L130.469 9.55627ZM134.387 8.79261C136.518 8.79261 138.056 9.26058 139.117 10.0767L140.336 8.49146C138.812 7.31896 136.79 6.79261 134.387 6.79261V8.79261ZM139.12 10.079C140.255 10.9458 141.066 12.0885 141.553 13.5396L143.449 12.9036C142.842 11.0934 141.803 9.61102 140.333 8.48922L139.12 10.079ZM152.109 30.0156L151.583 30.866L151.59 30.8698L152.109 30.0156ZM148.426 25.8991L147.525 26.3342L147.528 26.3403L148.426 25.8991ZM148.426 13.5199L147.524 13.0867L147.523 13.0888L148.426 13.5199ZM152.035 9.31392L152.581 10.1517L152.582 10.1509L152.035 9.31392ZM160.999 8.3892L161.322 7.44297L160.999 8.3892ZM164.176 10.3281L163.492 11.0577L163.496 11.0615L164.176 10.3281ZM166.457 13.848L167.39 13.4865V13.4865L166.457 13.848ZM167.308 20.7386V21.7386H168.308V20.7386H167.308ZM149.649 20.7386H148.649V21.7386H149.649V20.7386ZM149.649 17.696V16.696H148.649V17.696H149.649ZM163.728 17.696V18.696H164.728V17.696H163.728ZM162.952 14.2358L162.058 14.683L162.062 14.69L162.952 14.2358ZM160.775 11.8345L160.243 12.6815L160.247 12.684L160.775 11.8345ZM153.825 11.9986L154.385 12.8269L154.387 12.8257L153.825 11.9986ZM151.483 14.6832L150.587 14.2393L151.483 14.6832ZM151.558 24.6612L150.662 25.1055L150.666 25.1144L151.558 24.6612ZM154.078 27.3906L153.574 28.2544L153.58 28.2579L154.078 27.3906ZM160.327 27.9276L160.655 28.8724L160.662 28.8699L160.327 27.9276ZM162.281 26.7344L162.975 27.4545L162.982 27.4479L162.281 26.7344ZM163.549 24.7358L163.819 23.773L162.935 23.5248L162.613 24.3847L163.549 24.7358ZM166.95 25.6903L167.905 25.9867L168.209 25.0053L167.22 24.7276L166.95 25.6903ZM165.145 28.733L165.86 29.4318L165.864 29.4277L165.145 28.733ZM162.013 30.7614L162.371 31.6949L162.378 31.6924L162.013 30.7614ZM157.822 30.4773C155.765 30.4773 154.048 30.0247 152.629 29.1614L151.59 30.8698C153.373 31.9554 155.464 32.4773 157.822 32.4773V30.4773ZM152.636 29.1652C151.212 28.2846 150.109 27.0579 149.323 25.458L147.528 26.3403C148.472 28.2603 149.825 29.7779 151.583 30.866L152.636 29.1652ZM149.326 25.4641C148.548 23.8537 148.143 21.9492 148.143 19.7244H146.143C146.143 22.1928 146.593 24.4048 147.525 26.3342L149.326 25.4641ZM148.143 19.7244C148.143 17.5 148.548 15.5837 149.328 13.951L147.523 13.0888C146.593 15.0356 146.143 17.2557 146.143 19.7244H148.143ZM149.327 13.9531C150.12 12.3036 151.206 11.0477 152.581 10.1517L151.489 8.47609C149.782 9.58868 148.461 11.1367 147.524 13.0867L149.327 13.9531ZM152.582 10.1509C153.952 9.25515 155.567 8.79261 157.464 8.79261V6.79261C155.225 6.79261 153.22 7.34428 151.488 8.47695L152.582 10.1509ZM157.464 8.79261C158.544 8.79261 159.613 8.97221 160.675 9.33543L161.322 7.44297C160.058 7.01074 158.77 6.79261 157.464 6.79261V8.79261ZM160.675 9.33543C161.696 9.68439 162.634 10.2534 163.492 11.0577L164.859 9.59859C163.808 8.61308 162.628 7.88947 161.322 7.44297L160.675 9.33543ZM163.496 11.0615C164.318 11.8243 165.002 12.8608 165.525 14.2095L167.39 13.4865C166.779 11.9119 165.942 10.6019 164.855 9.59479L163.496 11.0615ZM165.525 14.2095C166.034 15.5223 166.308 17.191 166.308 19.2472H168.308C168.308 17.0278 168.014 15.097 167.39 13.4865L165.525 14.2095ZM166.308 19.2472V20.7386H168.308V19.2472H166.308ZM167.308 19.7386H149.649V21.7386H167.308V19.7386ZM150.649 20.7386V17.696H148.649V20.7386H150.649ZM149.649 18.696H163.728V16.696H149.649V18.696ZM164.728 17.696C164.728 16.2671 164.441 14.9545 163.843 13.7816L162.062 14.69C162.498 15.5455 162.728 16.5397 162.728 17.696H164.728ZM163.847 13.7886C163.259 12.6124 162.408 11.6713 161.303 10.985L160.247 12.684C161.032 13.1711 161.632 13.8308 162.058 14.683L163.847 13.7886ZM161.307 10.9875C160.189 10.2863 158.895 9.95454 157.464 9.95454V11.9545C158.578 11.9545 159.491 12.2094 160.243 12.6815L161.307 10.9875ZM157.464 9.95454C155.889 9.95454 154.474 10.3483 153.263 11.1715L154.387 12.8257C155.224 12.2568 156.235 11.9545 157.464 11.9545V9.95454ZM153.264 11.1703C152.106 11.9539 151.21 12.9816 150.587 14.2393L152.379 15.1272C152.85 14.1775 153.515 13.4154 154.385 12.8269L153.264 11.1703ZM150.587 14.2393C149.97 15.4845 149.663 16.8202 149.663 18.233H151.663C151.663 17.1202 151.902 16.0893 152.379 15.1272L150.587 14.2393ZM149.663 18.233V20.2614H151.663V18.233H149.663ZM149.663 20.2614C149.663 22.1026 149.98 23.7303 150.662 25.1055L152.454 24.217C151.942 23.1859 151.663 21.8803 151.663 20.2614H149.663ZM150.666 25.1144C151.353 26.4651 152.322 27.5237 153.574 28.2544L154.582 26.5268C153.687 26.0047 152.975 25.2437 152.449 24.2081L150.666 25.1144ZM153.58 28.2579C154.827 28.9735 156.252 29.3153 157.822 29.3153V27.3153C156.548 27.3153 155.477 27.0407 154.576 26.5234L153.58 28.2579ZM157.822 29.3153C158.839 29.3153 159.788 29.1731 160.655 28.8724L160 26.9827C159.376 27.1991 158.654 27.3153 157.822 27.3153V29.3153ZM160.662 28.8699C161.544 28.5564 162.32 28.0857 162.975 27.4545L161.587 26.0143C161.149 26.437 160.622 26.7617 159.993 26.9853L160.662 28.8699ZM162.982 27.4479C163.644 26.7982 164.142 26.004 164.485 25.0869L162.613 24.3847C162.36 25.0585 162.013 25.5967 161.581 26.0208L162.982 27.4479ZM163.279 25.6986L166.679 26.6531L167.22 24.7276L163.819 23.773L163.279 25.6986ZM165.995 25.3939C165.683 26.3968 165.163 27.2749 164.426 28.0382L165.864 29.4277C166.817 28.441 167.5 27.2907 167.905 25.9867L165.995 25.3939ZM164.43 28.0341C163.693 28.7877 162.773 29.3894 161.648 29.8303L162.378 31.6924C163.739 31.1589 164.906 30.4083 165.86 29.4318L164.43 28.0341ZM161.654 29.8278C160.543 30.2546 159.27 30.4773 157.822 30.4773V32.4773C159.476 32.4773 160.997 32.2227 162.371 31.6949L161.654 29.8278ZM6.9328 90.4418L7.1409 89.4637L7.13091 89.4615L7.12087 89.4596L6.9328 90.4418ZM5.96333 90.1733L5.00251 89.8961L4.77189 90.6956L5.51612 91.0677L5.96333 90.1733ZM6.85822 87.071L7.10605 86.1022L6.16626 85.8618L5.8974 86.7939L6.85822 87.071ZM9.12527 87.3097L9.03473 86.3138H9.03473L9.12527 87.3097ZM10.8703 86.4297L10.1632 85.7226L10.1564 85.7294L10.1497 85.7363L10.8703 86.4297ZM12.2872 83.9091L13.2258 84.2541L13.2261 84.2533L12.2872 83.9091ZM12.9434 82.1193L13.8823 82.4636L14.0088 82.1188L13.882 81.7741L12.9434 82.1193ZM4.47186 59.0909V58.0909H3.03846L3.53335 59.4362L4.47186 59.0909ZM8.29004 59.0909L9.23495 58.7636L9.00193 58.0909H8.29004V59.0909ZM14.6139 77.3466L13.669 77.6739L13.902 78.3466H14.6139V77.3466ZM14.8525 77.3466V78.3466H15.5644L15.7975 77.6739L14.8525 77.3466ZM21.1764 59.0909V58.0909H20.4645L20.2315 58.7636L21.1764 59.0909ZM24.9946 59.0909L25.9323 59.4383L26.4315 58.0909H24.9946V59.0909ZM15.2702 85.3409L14.3324 84.9935L14.3322 84.9941L15.2702 85.3409ZM13.6444 88.2791L12.8762 87.6389L12.8722 87.6438L13.6444 88.2791ZM11.3923 90.0241L10.9881 89.1095L10.9842 89.1112L11.3923 90.0241ZM8.52868 89.5909C7.98557 89.5909 7.52541 89.5455 7.1409 89.4637L6.72469 91.4199C7.27484 91.5369 7.8786 91.5909 8.52868 91.5909V89.5909ZM7.12087 89.4596C6.90372 89.418 6.73414 89.3791 6.60681 89.3438C6.54362 89.3263 6.49553 89.311 6.46035 89.2985C6.42402 89.2855 6.40954 89.2784 6.41055 89.2789L5.51612 91.0677C5.83096 91.2251 6.2769 91.3343 6.74472 91.4239L7.12087 89.4596ZM6.92416 90.4505L7.81905 87.3482L5.8974 86.7939L5.00251 89.8961L6.92416 90.4505ZM6.61039 88.0398C7.5408 88.2778 8.41482 88.3784 9.2158 88.3055L9.03473 86.3138C8.52321 86.3603 7.88587 86.3017 7.10605 86.1022L6.61039 88.0398ZM9.2158 88.3055C10.1384 88.2217 10.9366 87.803 11.5909 87.1231L10.1497 85.7363C9.78976 86.1104 9.42462 86.2783 9.03473 86.3138L9.2158 88.3055ZM11.5774 87.1368C12.2446 86.4696 12.7784 85.4715 13.2258 84.2541L11.3486 83.5641C10.9409 84.6734 10.5301 85.3557 10.1632 85.7226L11.5774 87.1368ZM13.2261 84.2533L13.8823 82.4636L12.0046 81.7751L11.3483 83.5648L13.2261 84.2533ZM13.882 81.7741L5.41037 58.7457L3.53335 59.4362L12.0049 82.4646L13.882 81.7741ZM4.47186 60.0909H8.29004V58.0909H4.47186V60.0909ZM7.34513 59.4182L13.669 77.6739L15.5588 77.0193L9.23495 58.7636L7.34513 59.4182ZM14.6139 78.3466H14.8525V76.3466H14.6139V78.3466ZM15.7975 77.6739L22.1213 59.4182L20.2315 58.7636L13.9076 77.0193L15.7975 77.6739ZM21.1764 60.0909H24.9946V58.0909H21.1764V60.0909ZM24.0569 58.7435L14.3324 84.9935L16.2079 85.6883L25.9323 59.4383L24.0569 58.7435ZM14.3322 84.9941C13.9247 86.0962 13.4341 86.9695 12.8762 87.6389L14.4127 88.9193C15.1474 88.0376 15.7406 86.9521 16.2081 85.6877L14.3322 84.9941ZM12.8722 87.6438C12.3162 88.3195 11.6882 88.8001 10.9881 89.1095L11.7965 90.9388C12.8067 90.4925 13.6801 89.8097 14.4167 88.9145L12.8722 87.6438ZM10.9842 89.1112C10.2852 89.4237 9.47284 89.5909 8.52868 89.5909V91.5909C9.71236 91.5909 10.8091 91.3803 11.8004 90.9371L10.9842 89.1112ZM32.6832 81.0007L32.1473 81.845L32.1498 81.8466L32.6832 81.0007ZM29.0439 76.8693L28.1455 77.3084L28.1475 77.3125L29.0439 76.8693ZM29.0439 64.4155L28.1465 63.9743L28.1446 63.9783L29.0439 64.4155ZM32.6832 60.2692L32.1498 59.4233L32.1473 59.4249L32.6832 60.2692ZM43.556 60.2692L43.0202 61.1135L43.0226 61.1151L43.556 60.2692ZM47.1952 64.4155L46.2958 64.8526L46.2978 64.8567L47.1952 64.4155ZM47.1952 76.8693L46.2988 76.4261L46.2968 76.4302L47.1952 76.8693ZM43.556 81.0007L43.0226 80.1548L43.0202 80.1564L43.556 81.0007ZM42.0049 78.1072L41.383 77.3241L42.0049 78.1072ZM44.257 74.9304L45.1945 75.2784L44.257 74.9304ZM44.257 66.3842L45.1954 66.0385L44.257 66.3842ZM42.0049 63.1776L42.6314 62.3982L42.0049 63.1776ZM34.2492 63.1776L33.6226 62.3982L34.2492 63.1776ZM31.9971 66.3842L31.0587 66.0385L31.9971 66.3842ZM31.9971 74.9304L31.0596 75.2784L31.9971 74.9304ZM34.2492 78.1072L34.8711 77.3241L34.2492 78.1072ZM38.127 81.4773C36.2242 81.4773 34.5992 81.0267 33.2165 80.1548L32.1498 81.8466C33.8893 82.9435 35.8935 83.4773 38.127 83.4773V81.4773ZM33.219 80.1564C31.8341 79.2775 30.7405 78.0445 29.9404 76.4261L28.1475 77.3125C29.0974 79.2339 30.4299 80.7552 32.1473 81.845L33.219 80.1564ZM29.9424 76.4302C29.1563 74.8219 28.7464 72.9093 28.7464 70.6648H26.7464C26.7464 73.1532 27.2015 75.377 28.1455 77.3084L29.9424 76.4302ZM28.7464 70.6648C28.7464 68.3991 29.1567 66.471 29.9433 64.8526L28.1446 63.9783C27.201 65.9196 26.7464 68.1577 26.7464 70.6648H28.7464ZM29.9414 64.8567C30.7419 63.2283 31.8355 61.9915 33.219 61.1135L32.1473 59.4249C30.4285 60.5156 29.096 62.043 28.1465 63.9743L29.9414 64.8567ZM33.2165 61.1151C34.5992 60.2432 36.2242 59.7926 38.127 59.7926V57.7926C35.8935 57.7926 33.8893 58.3264 32.1498 59.4233L33.2165 61.1151ZM38.127 59.7926C40.03 59.7926 41.6488 60.2432 43.0202 61.1135L44.0918 59.4249C42.3609 58.3264 40.3604 57.7926 38.127 57.7926V59.7926ZM43.0226 61.1151C44.4145 61.9927 45.5061 63.2279 46.2958 64.8526L48.0946 63.9783C47.1542 62.0434 45.8197 60.5144 44.0894 59.4233L43.0226 61.1151ZM46.2978 64.8567C47.093 66.4741 47.5077 68.4007 47.5077 70.6648H49.5077C49.5077 68.1561 49.0475 65.9165 48.0926 63.9743L46.2978 64.8567ZM47.5077 70.6648C47.5077 72.9077 47.0934 74.8188 46.2988 76.4261L48.0917 77.3125C49.047 75.3801 49.5077 73.1548 49.5077 70.6648H47.5077ZM46.2968 76.4302C45.5076 78.045 44.4159 79.2763 43.0226 80.1548L44.0894 81.8466C45.8183 80.7564 47.1528 79.2334 48.0937 77.3084L46.2968 76.4302ZM43.0202 80.1564C41.6488 81.0267 40.03 81.4773 38.127 81.4773V83.4773C40.3604 83.4773 42.3609 82.9435 44.0918 81.845L43.0202 80.1564ZM38.127 80.3153C39.8742 80.3153 41.4004 79.8643 42.6268 78.8904L41.383 77.3241C40.581 77.961 39.5219 78.3153 38.127 78.3153V80.3153ZM42.6268 78.8904C43.7955 77.9623 44.6491 76.7477 45.1945 75.2784L43.3195 74.5824C42.8905 75.7381 42.2427 76.6414 41.383 77.3241L42.6268 78.8904ZM45.1945 75.2784C45.7268 73.8446 45.9878 72.3037 45.9878 70.6648H43.9878C43.9878 72.0884 43.7617 73.3912 43.3195 74.5824L45.1945 75.2784ZM45.9878 70.6648C45.9878 69.0258 45.7267 67.4809 45.1954 66.0385L43.3187 66.7299C43.7617 67.9325 43.9878 69.2413 43.9878 70.6648H45.9878ZM45.1954 66.0385C44.6508 64.5606 43.7986 63.3365 42.6314 62.3982L41.3783 63.9569C42.2395 64.6493 42.8888 65.563 43.3187 66.7299L45.1954 66.0385ZM42.6314 62.3982C41.4049 61.4122 39.877 60.9545 38.127 60.9545V62.9545C39.5191 62.9545 40.5764 63.3123 41.3783 63.9569L42.6314 62.3982ZM38.127 60.9545C36.377 60.9545 34.8492 61.4122 33.6226 62.3982L34.8758 63.9569C35.6777 63.3123 36.735 62.9545 38.127 62.9545V60.9545ZM33.6226 62.3982C32.4554 63.3365 31.6032 64.5606 31.0587 66.0385L32.9354 66.7299C33.3653 65.563 34.0145 64.6493 34.8758 63.9569L33.6226 62.3982ZM31.0587 66.0385C30.5273 67.4809 30.2662 69.0258 30.2662 70.6648H32.2662C32.2662 69.2413 32.4924 67.9325 32.9354 66.7299L31.0587 66.0385ZM30.2662 70.6648C30.2662 72.3037 30.5273 73.8446 31.0596 75.2784L32.9346 74.5824C32.4924 73.3912 32.2662 72.0884 32.2662 70.6648H30.2662ZM31.0596 75.2784C31.605 76.7477 32.4586 77.9623 33.6273 78.8904L34.8711 77.3241C34.0114 76.6414 33.3636 75.7381 32.9346 74.5824L31.0596 75.2784ZM33.6273 78.8904C34.8537 79.8643 36.3798 80.3153 38.127 80.3153V78.3153C36.7322 78.3153 35.6731 77.961 34.8711 77.3241L33.6273 78.8904ZM68.3183 59.0909V58.0909H67.3183V59.0909H68.3183ZM71.8382 59.0909H72.8382V58.0909H71.8382V59.0909ZM71.8382 82V83H72.8382V82H71.8382ZM68.3183 82H67.3183V83H68.3183V82ZM68.3183 78.1222H69.3183V77.1222H68.3183V78.1222ZM68.0796 78.1222V77.1222H67.4398L67.1717 77.7031L68.0796 78.1222ZM65.574 81.0902L66.1532 81.9054L66.1579 81.902L65.574 81.0902ZM57.4603 81.3587L56.9642 82.2269L56.9701 82.2302L57.4603 81.3587ZM54.8353 78.495L53.9395 78.9395L53.9409 78.9422L54.8353 78.495ZM53.8808 59.0909V58.0909H52.8808V59.0909H53.8808ZM57.4007 59.0909H58.4007V58.0909H57.4007V59.0909ZM58.8026 77.4062L58.074 78.0912L58.0776 78.095L58.8026 77.4062ZM65.0818 78.2266L64.6424 77.3283L64.6385 77.3302L65.0818 78.2266ZM67.3786 76.1683L66.5507 75.6075L66.5466 75.6136L67.3786 76.1683ZM69.3183 72.6335V59.0909H67.3183V72.6335H69.3183ZM68.3183 60.0909H71.8382V58.0909H68.3183V60.0909ZM70.8382 59.0909V82H72.8382V59.0909H70.8382ZM71.8382 81H68.3183V83H71.8382V81ZM69.3183 82V78.1222H67.3183V82H69.3183ZM68.3183 77.1222H68.0796V79.1222H68.3183V77.1222ZM67.1717 77.7031C66.7134 78.6959 65.9964 79.5545 64.99 80.2784L66.1579 81.902C67.4186 80.9952 68.372 79.8751 68.9876 78.5412L67.1717 77.7031ZM64.9947 80.275C64.0679 80.9336 62.8522 81.2983 61.2785 81.2983V83.2983C63.165 83.2983 64.813 82.8576 66.1532 81.9054L64.9947 80.275ZM61.2785 81.2983C59.9973 81.2983 58.8971 81.0195 57.9506 80.4871L56.9701 82.2302C58.2508 82.9506 59.6961 83.2983 61.2785 83.2983V81.2983ZM57.9565 80.4904C57.0327 79.9626 56.2878 79.164 55.7297 78.0478L53.9409 78.9422C54.6555 80.3715 55.6606 81.482 56.9642 82.2269L57.9565 80.4904ZM55.7311 78.0506C55.1834 76.9466 54.8808 75.4952 54.8808 73.6477H52.8808C52.8808 75.698 53.2145 77.4781 53.9395 78.9395L55.7311 78.0506ZM54.8808 73.6477V59.0909H52.8808V73.6477H54.8808ZM53.8808 60.0909H57.4007V58.0909H53.8808V60.0909ZM56.4007 59.0909V73.4091H58.4007V59.0909H56.4007ZM56.4007 73.4091C56.4007 75.274 56.9278 76.8718 58.074 78.0912L59.5313 76.7213C58.8081 75.9521 58.4007 74.8851 58.4007 73.4091H56.4007ZM58.0776 78.095C59.2245 79.3022 60.6964 79.8977 62.412 79.8977V77.8977C61.2043 77.8977 60.27 77.4989 59.5276 76.7175L58.0776 78.095ZM62.412 79.8977C63.4628 79.8977 64.5036 79.6281 65.525 79.1229L64.6385 77.3302C63.8503 77.7199 63.1113 77.8977 62.412 77.8977V79.8977ZM65.5211 79.1249C66.6092 78.5926 67.5053 77.7811 68.2107 76.723L66.5466 75.6136C66.0191 76.4049 65.3838 76.9656 64.6424 77.3283L65.5211 79.1249ZM68.2066 76.7292C68.9729 75.5979 69.3183 74.2092 69.3183 72.6335H67.3183C67.3183 73.9215 67.0372 74.8893 66.5507 75.6075L68.2066 76.7292ZM78.2851 82H77.2851V83H78.2851V82ZM78.2851 59.0909V58.0909H77.2851V59.0909H78.2851ZM81.6856 59.0909H82.6856V58.0909H81.6856V59.0909ZM81.6856 62.5511H80.6856V63.5511H81.6856V62.5511ZM81.9243 62.5511V63.5511H82.6216L82.8626 62.8968L81.9243 62.5511ZM84.1913 59.7919L83.649 58.9517V58.9517L84.1913 59.7919ZM89.7396 58.7926H90.7396V57.8876L89.8391 57.7976L89.7396 58.7926ZM89.7396 62.3722L89.4971 63.3423L90.7396 63.6529V62.3722H89.7396ZM88.9193 62.2379L88.7549 63.2243L88.768 63.2265L88.7811 63.2283L88.9193 62.2379ZM84.6089 62.8345L85.0764 63.7186L85.08 63.7166L84.6089 62.8345ZM82.5507 64.7436L81.7015 64.2155L81.6998 64.2183L82.5507 64.7436ZM81.805 82V83H82.805V82H81.805ZM79.2851 82V59.0909H77.2851V82H79.2851ZM78.2851 60.0909H81.6856V58.0909H78.2851V60.0909ZM80.6856 59.0909V62.5511H82.6856V59.0909H80.6856ZM81.6856 63.5511H81.9243V61.5511H81.6856V63.5511ZM82.8626 62.8968C83.1993 61.9829 83.807 61.2302 84.7336 60.6321L83.649 58.9517C82.3882 59.7655 81.4844 60.8524 80.9859 62.2054L82.8626 62.8968ZM84.7336 60.6321C85.6568 60.0362 86.6995 59.733 87.8902 59.733V57.733C86.3366 57.733 84.9133 58.1357 83.649 58.9517L84.7336 60.6321ZM87.8902 59.733C88.1371 59.733 88.451 59.7377 88.834 59.7475L88.8853 57.7482C88.4927 57.7381 88.1603 57.733 87.8902 57.733V59.733ZM88.834 59.7475C89.2155 59.7573 89.479 59.7715 89.6401 59.7877L89.8391 57.7976C89.6025 57.7739 89.2794 57.7583 88.8853 57.7482L88.834 59.7475ZM88.7396 58.7926V62.3722H90.7396V58.7926H88.7396ZM89.9821 61.402C89.8008 61.3567 89.4701 61.3051 89.0575 61.2475L88.7811 63.2283C88.9909 63.2576 89.1576 63.2825 89.2836 63.3031C89.3465 63.3134 89.3964 63.3222 89.4347 63.3294C89.4537 63.333 89.4685 63.336 89.4797 63.3384C89.4852 63.3396 89.4894 63.3405 89.4925 63.3412C89.494 63.3416 89.4951 63.3418 89.4959 63.342C89.4967 63.3422 89.4971 63.3423 89.4971 63.3423L89.9821 61.402ZM89.0837 61.2515C88.6065 61.172 88.1087 61.1335 87.5919 61.1335V63.1335C88.0097 63.1335 88.3969 63.1646 88.7549 63.2243L89.0837 61.2515ZM87.5919 61.1335C86.3344 61.1335 85.1748 61.3986 84.1378 61.9524L85.08 63.7166C85.7931 63.3358 86.6221 63.1335 87.5919 63.1335V61.1335ZM84.1415 61.9505C83.1231 62.489 82.304 63.2468 81.7015 64.2155L83.3998 65.2717C83.8116 64.6097 84.3647 64.0948 85.0764 63.7186L84.1415 61.9505ZM81.6998 64.2183C81.0962 65.1961 80.805 66.301 80.805 67.5028H82.805C82.805 66.6365 83.0109 65.9019 83.4016 65.2689L81.6998 64.2183ZM80.805 67.5028V82H82.805V67.5028H80.805ZM81.805 81H78.2851V83H81.805V81ZM109.319 81.0305L108.764 81.8626L108.768 81.8652L109.319 81.0305ZM105.889 76.9141L104.981 77.3347L104.982 77.3367L105.889 76.9141ZM105.889 64.3409L104.982 63.9183L105.889 64.3409ZM109.334 60.2393L108.786 59.403L109.334 60.2393ZM117.97 59.5384L117.471 60.4054L117.483 60.412L117.97 59.5384ZM119.968 61.2088L119.161 61.7985L119.166 61.8058L119.171 61.8129L119.968 61.2088ZM121.057 62.7301L120.218 63.2751L120.514 63.7301H121.057V62.7301ZM121.355 62.7301V63.7301H122.355V62.7301H121.355ZM121.355 51.4545V50.4545H120.355V51.4545H121.355ZM124.875 51.4545H125.875V50.4545H124.875V51.4545ZM124.875 82V83H125.875V82H124.875ZM121.475 82H120.475V83H121.475V82ZM121.475 78.4801H122.475V77.4801H121.475V78.4801ZM121.057 78.4801V77.4801H120.5L120.207 77.9538L121.057 78.4801ZM119.953 80.0611L120.749 80.6671L120.753 80.6611L119.953 80.0611ZM117.91 81.7465L118.392 82.6225L118.4 82.6183L117.91 81.7465ZM118.432 78.2116L119.035 79.0097L119.04 79.0058L118.432 78.2116ZM120.654 75.1243L121.587 75.4847L121.588 75.4823L120.654 75.1243ZM120.669 66.0561L119.736 66.4151L119.737 66.4175L120.669 66.0561ZM118.462 63.0433L117.864 63.8453L117.87 63.8492L118.462 63.0433ZM111.124 63.103L111.733 63.8962L111.734 63.8953L111.124 63.103ZM108.901 66.1903L107.967 65.8337L107.966 65.8376L108.901 66.1903ZM108.916 74.9901L107.979 75.3397L107.983 75.3481L108.916 74.9901ZM111.154 78.152L110.53 78.9337L110.538 78.9405L111.154 78.152ZM114.375 81.4773C112.643 81.4773 111.153 81.0428 109.87 80.1959L108.768 81.8652C110.408 82.9473 112.289 83.4773 114.375 83.4773V81.4773ZM109.874 80.1985C108.581 79.3368 107.552 78.1143 106.795 76.4915L104.982 77.3367C105.876 79.2536 107.133 80.7754 108.764 81.8626L109.874 80.1985ZM106.796 76.4934C106.044 74.8728 105.651 72.9195 105.651 70.6051H103.651C103.651 73.143 104.082 75.3957 104.981 77.3347L106.796 76.4934ZM105.651 70.6051C105.651 68.3118 106.044 66.374 106.795 64.7635L104.982 63.9183C104.083 65.8476 103.651 68.086 103.651 70.6051H105.651ZM106.795 64.7635C107.55 63.1431 108.583 61.9273 109.882 61.0757L108.786 59.403C107.142 60.4804 105.877 61.999 104.982 63.9183L106.795 64.7635ZM109.882 61.0757C111.175 60.2282 112.681 59.7926 114.435 59.7926V57.7926C112.331 57.7926 110.436 58.3215 108.786 59.403L109.882 61.0757ZM114.435 59.7926C115.832 59.7926 116.815 60.0281 117.471 60.4054L118.468 58.6713C117.394 58.0543 116.021 57.7926 114.435 57.7926V59.7926ZM117.483 60.412C118.267 60.8486 118.809 61.3176 119.161 61.7985L120.776 60.6191C120.212 59.8471 119.422 59.2025 118.456 58.6647L117.483 60.412ZM119.171 61.8129C119.632 62.4205 119.979 62.9061 120.218 63.2751L121.895 62.1851C121.618 61.7587 121.239 61.2301 120.765 60.6047L119.171 61.8129ZM121.057 63.7301H121.355V61.7301H121.057V63.7301ZM122.355 62.7301V51.4545H120.355V62.7301H122.355ZM121.355 52.4545H124.875V50.4545H121.355V52.4545ZM123.875 51.4545V82H125.875V51.4545H123.875ZM124.875 81H121.475V83H124.875V81ZM122.475 82V78.4801H120.475V82H122.475ZM121.475 77.4801H121.057V79.4801H121.475V77.4801ZM120.207 77.9538C119.97 78.3355 119.622 78.8359 119.153 79.4611L120.753 80.6611C121.239 80.0135 121.626 79.4599 121.907 79.0065L120.207 77.9538ZM119.158 79.455C118.783 79.9465 118.219 80.4258 117.42 80.8746L118.4 82.6183C119.371 82.0728 120.169 81.4285 120.749 80.6671L119.158 79.455ZM117.428 80.8704C116.743 81.2476 115.75 81.4773 114.375 81.4773V83.4773C115.943 83.4773 117.307 83.2198 118.392 82.6225L117.428 80.8704ZM114.852 80.3153C116.446 80.3153 117.86 79.8964 119.035 79.0097L117.829 77.4136C117.055 77.9985 116.082 78.3153 114.852 78.3153V80.3153ZM119.04 79.0058C120.181 78.1325 121.023 76.9432 121.587 75.4847L119.721 74.7639C119.271 75.9304 118.632 76.7993 117.824 77.4175L119.04 79.0058ZM121.588 75.4823C122.147 74.0234 122.415 72.3717 122.415 70.5455H120.415C120.415 72.1795 120.175 73.5803 119.721 74.7663L121.588 75.4823ZM122.415 70.5455C122.415 68.7406 122.153 67.1169 121.602 65.6947L119.737 66.4175C120.18 67.5607 120.415 68.9298 120.415 70.5455H122.415ZM121.602 65.6971C121.047 64.2526 120.204 63.0824 119.054 62.2374L117.87 63.8492C118.668 64.4361 119.297 65.2744 119.736 66.4151L121.602 65.6971ZM119.059 62.2414C117.883 61.3651 116.46 60.9545 114.852 60.9545V62.9545C116.109 62.9545 117.092 63.2699 117.864 63.8453L119.059 62.2414ZM114.852 60.9545C113.183 60.9545 111.714 61.3863 110.514 62.3107L111.734 63.8953C112.522 63.2884 113.539 62.9545 114.852 62.9545V60.9545ZM110.515 62.3098C109.366 63.1916 108.522 64.3803 107.967 65.8338L109.836 66.5469C110.275 65.3953 110.913 64.5258 111.733 63.8962L110.515 62.3098ZM107.966 65.8376C107.43 67.26 107.171 68.8338 107.171 70.5455H109.171C109.171 69.0355 109.399 67.7059 109.837 66.543L107.966 65.8376ZM107.171 70.5455C107.171 72.2782 107.435 73.8803 107.979 75.3396L109.853 74.6405C109.403 73.435 109.171 72.0741 109.171 70.5455H107.171ZM107.983 75.3481C108.545 76.8156 109.389 78.0237 110.53 78.9336L111.777 77.3704C110.949 76.7093 110.301 75.8094 109.85 74.632L107.983 75.3481ZM110.538 78.9405C111.737 79.8752 113.197 80.3153 114.852 80.3153V78.3153C113.565 78.3153 112.559 77.9799 111.769 77.3635L110.538 78.9405ZM131.81 82H130.81V83H131.81V82ZM131.81 59.0909V58.0909H130.81V59.0909H131.81ZM135.33 59.0909H136.33V58.0909H135.33V59.0909ZM135.33 82V83H136.33V82H135.33ZM131.825 54.5717L131.133 55.2934L131.14 55.3004L131.825 54.5717ZM131.825 51.201L131.14 50.4723L131.133 50.4793L131.825 51.201ZM135.36 51.201L134.668 51.9227L134.675 51.9296L135.36 51.201ZM135.36 54.5717L134.675 53.8431L134.668 53.8501L135.36 54.5717ZM132.81 82V59.0909H130.81V82H132.81ZM131.81 60.0909H135.33V58.0909H131.81V60.0909ZM134.33 59.0909V82H136.33V59.0909H134.33ZM135.33 81H131.81V83H135.33V81ZM133.6 54.2727C133.167 54.2727 132.821 54.135 132.51 53.8431L131.14 55.3004C131.824 55.9431 132.661 56.2727 133.6 56.2727V54.2727ZM132.518 53.85C132.221 53.5652 132.095 53.2615 132.095 52.8864H130.095C130.095 53.8238 130.456 54.6436 131.133 55.2934L132.518 53.85ZM132.095 52.8864C132.095 52.5113 132.221 52.2075 132.518 51.9227L131.133 50.4793C130.456 51.1291 130.095 51.949 130.095 52.8864H132.095ZM132.51 51.9296C132.821 51.6377 133.167 51.5 133.6 51.5V49.5C132.661 49.5 131.824 49.8296 131.14 50.4724L132.51 51.9296ZM133.6 51.5C134.033 51.5 134.37 51.6372 134.668 51.9227L136.052 50.4793C135.376 49.8302 134.54 49.5 133.6 49.5V51.5ZM134.675 51.9296C134.98 52.2164 135.106 52.5182 135.106 52.8864H137.106C137.106 51.9421 136.734 51.1202 136.045 50.4724L134.675 51.9296ZM135.106 52.8864C135.106 53.2546 134.98 53.5563 134.675 53.8431L136.045 55.3004C136.734 54.6525 137.106 53.8307 137.106 52.8864H135.106ZM134.668 53.8501C134.37 54.1356 134.033 54.2727 133.6 54.2727V56.2727C134.54 56.2727 135.376 55.9426 136.052 55.2934L134.668 53.8501ZM158.005 64.2216L158.277 65.1838L159.286 64.8981L158.953 63.9036L158.005 64.2216ZM154.843 65.1165L153.907 65.4695L154.231 66.3288L155.115 66.0787L154.843 65.1165ZM153.963 63.5803L153.161 64.1777L153.167 64.1866L153.174 64.1953L153.963 63.5803ZM152.411 62.3274L152.859 61.433L152.411 62.3274ZM146.386 62.8047L146.953 63.6285L146.955 63.6272L146.386 62.8047ZM145.953 67.309L145.33 68.091L145.953 67.309ZM148.936 68.5767L148.694 69.5469L148.698 69.5478L148.936 68.5767ZM152.337 69.4119L152.098 70.3831L152.101 70.3837L152.337 69.4119ZM156.916 71.6939L156.202 72.394L156.205 72.3975L156.916 71.6939ZM157.289 79.1364L156.481 78.5463L156.478 78.5514L157.289 79.1364ZM143.671 80.956L144.224 80.1223L143.671 80.956ZM140.763 76.5114L140.521 75.5412L139.587 75.7745L139.784 76.7161L140.763 76.5114ZM144.104 75.6761L145.072 75.4263L144.824 74.4653L143.861 74.706L144.104 75.6761ZM145.909 78.4503L145.337 79.2708L145.341 79.2738L145.909 78.4503ZM153.321 78.331L153.906 79.1419L153.908 79.1408L153.321 78.331ZM153.948 73.7969L153.247 74.5104L153.254 74.5167L153.948 73.7969ZM151.382 72.5739L151.154 73.5475L151.156 73.5478L151.382 72.5739ZM147.564 71.679L147.334 72.652L147.336 72.6526L147.564 71.679ZM142.941 69.3672L142.206 70.0461L142.213 70.0532L142.941 69.3672ZM142.568 61.9844L141.764 61.3895L141.76 61.3948L142.568 61.9844ZM145.566 59.6428L145.159 58.7292L145.156 58.7304L145.566 59.6428ZM155.23 60.2841L154.621 61.0767L154.624 61.079L155.23 60.2841ZM157.732 63.2594L154.57 64.1543L155.115 66.0787L158.277 65.1838L157.732 63.2594ZM155.778 64.7634C155.54 64.1317 155.194 63.5324 154.751 62.9652L153.174 64.1953C153.507 64.6224 153.748 65.0473 153.907 65.4695L155.778 64.7634ZM154.765 62.9828C154.279 62.3317 153.632 61.8198 152.859 61.433L151.964 63.2218C152.503 63.4913 152.89 63.8146 153.161 64.1777L154.765 62.9828ZM152.859 61.433C152.02 61.0135 151.012 60.8352 149.891 60.8352V62.8352C150.818 62.8352 151.491 62.9851 151.964 63.2218L152.859 61.433ZM149.891 60.8352C148.334 60.8352 146.955 61.1957 145.817 61.9822L146.955 63.6272C147.687 63.121 148.644 62.8352 149.891 62.8352V60.8352ZM145.819 61.9809C144.667 62.7735 143.999 63.8721 143.999 65.2358H145.999C145.999 64.6308 146.255 64.1086 146.953 63.6285L145.819 61.9809ZM143.999 65.2358C143.999 66.3889 144.436 67.3783 145.33 68.091L146.577 66.5269C146.198 66.2254 145.999 65.8327 145.999 65.2358H143.999ZM145.33 68.091C146.131 68.7294 147.288 69.1954 148.694 69.5468L149.179 67.6066C147.88 67.2819 147.048 66.9027 146.577 66.5269L145.33 68.091ZM148.698 69.5478L152.098 70.3831L152.575 68.4408L149.175 67.6056L148.698 69.5478ZM152.101 70.3837C154.048 70.8562 155.376 71.552 156.202 72.394L157.63 70.9938C156.447 69.7875 154.723 68.9619 152.573 68.4401L152.101 70.3837ZM156.205 72.3975C157.001 73.201 157.422 74.2442 157.422 75.6165H159.422C159.422 73.7871 158.839 72.2152 157.626 70.9903L156.205 72.3975ZM157.422 75.6165C157.422 76.7225 157.108 77.688 156.481 78.5463L158.096 79.7264C158.98 78.5165 159.422 77.1355 159.422 75.6165H157.422ZM156.478 78.5514C155.85 79.4214 154.956 80.1328 153.75 80.6686L154.563 82.4962C156.042 81.8388 157.236 80.9195 158.1 79.7213L156.478 78.5514ZM153.75 80.6686C152.56 81.1976 151.142 81.4773 149.473 81.4773V83.4773C151.364 83.4773 153.068 83.1603 154.563 82.4962L153.75 80.6686ZM149.473 81.4773C147.28 81.4773 145.552 81.0019 144.224 80.1223L143.119 81.7897C144.854 82.9384 146.993 83.4773 149.473 83.4773V81.4773ZM144.224 80.1223C142.931 79.2663 142.101 78.0217 141.742 76.3066L139.784 76.7161C140.241 78.8988 141.349 80.6172 143.119 81.7897L144.224 80.1223ZM141.006 77.4815L144.346 76.6463L143.861 74.706L140.521 75.5412L141.006 77.4815ZM143.136 75.926C143.502 77.3465 144.222 78.4938 145.337 79.2708L146.48 77.6298C145.826 77.1739 145.342 76.4717 145.072 75.4263L143.136 75.926ZM145.341 79.2738C146.45 80.0374 147.834 80.375 149.414 80.375V78.375C148.109 78.375 147.157 78.0962 146.476 77.6268L145.341 79.2738ZM149.414 80.375C151.186 80.375 152.718 79.9997 153.906 79.1419L152.736 77.5201C151.996 78.0543 150.922 78.375 149.414 78.375V80.375ZM153.908 79.1408C155.077 78.2938 155.783 77.1729 155.783 75.7955H153.783C153.783 76.3867 153.514 76.9562 152.735 77.5212L153.908 79.1408ZM155.783 75.7955C155.783 74.7371 155.4 73.8084 154.642 73.077L153.254 74.5167C153.609 74.8592 153.783 75.2629 153.783 75.7955H155.783ZM154.648 73.0834C153.909 72.3576 152.856 71.8901 151.609 71.5999L151.156 73.5478C152.216 73.7946 152.872 74.1424 153.247 74.5103L154.648 73.0834ZM151.611 71.6003L147.792 70.7054L147.336 72.6526L151.154 73.5475L151.611 71.6003ZM147.795 70.7059C145.797 70.2326 144.467 69.5283 143.668 68.6812L142.213 70.0532C143.383 71.2941 145.135 72.131 147.334 72.652L147.795 70.7059ZM143.675 68.6883C142.889 67.8385 142.479 66.7718 142.479 65.4148H140.479C140.479 67.2197 141.043 68.7879 142.206 70.046L143.675 68.6883ZM142.479 65.4148C142.479 64.3228 142.781 63.3882 143.375 62.574L141.76 61.3948C140.903 62.5692 140.479 63.9215 140.479 65.4148H142.479ZM143.372 62.5792C143.994 61.7386 144.85 61.0601 145.975 60.5551L145.156 58.7304C143.756 59.3589 142.613 60.2415 141.764 61.3895L143.372 62.5792ZM145.972 60.5563C147.099 60.0548 148.399 59.7926 149.891 59.7926V57.7926C148.162 57.7926 146.578 58.0972 145.159 58.7292L145.972 60.5563ZM149.891 59.7926C152.022 59.7926 153.56 60.2606 154.621 61.0767L155.84 59.4915C154.316 58.319 152.294 57.7926 149.891 57.7926V59.7926ZM154.624 61.079C155.759 61.9458 156.57 63.0885 157.056 64.5396L158.953 63.9036C158.346 62.0934 157.307 60.611 155.837 59.4892L154.624 61.079ZM167.479 80.956L166.932 81.7929L167.479 80.956ZM163.929 64.505L163.029 64.0698L163.028 64.0719L163.929 64.505ZM167.539 60.3139L168.085 61.1517L168.086 61.1509L167.539 60.3139ZM180.5 62.1932L181.293 61.5838L180.5 62.1932ZM182.036 65.9517V66.9517H183.184L183.026 65.8141L182.036 65.9517ZM178.516 65.9517L177.548 66.2007L177.741 66.9517H178.516V65.9517ZM176.726 63.1776L176.061 63.9241L176.07 63.9316L176.726 63.1776ZM169.418 63.0284L169.986 63.8518L169.987 63.8506L169.418 63.0284ZM167.017 66.0263L166.104 65.6188L166.102 65.6221L167.017 66.0263ZM167.002 75.169L166.081 75.5596L166.084 75.5655L167.002 75.169ZM169.388 78.2266L168.81 79.0424L168.814 79.0451L169.388 78.2266ZM175.518 78.8381L175.126 77.9183L175.518 78.8381ZM177.412 77.4659L178.168 78.1208L177.412 77.4659ZM178.516 75.3182V74.3182H177.744L177.549 75.0648L178.516 75.3182ZM182.036 75.3182L183.025 75.4637L183.194 74.3182H182.036V75.3182ZM180.559 78.9723L179.75 78.3855L179.749 78.3868L180.559 78.9723ZM177.472 81.5376L177.914 82.4349L177.916 82.4335L177.472 81.5376ZM173.027 81.4773C171.042 81.4773 169.39 81.0107 168.026 80.119L166.932 81.7929C168.67 82.9296 170.717 83.4773 173.027 83.4773V81.4773ZM168.026 80.119C166.64 79.2126 165.566 77.9627 164.805 76.3401L162.994 77.1897C163.903 79.1268 165.216 80.671 166.932 81.7929L168.026 80.119ZM164.805 76.3401C164.041 74.7132 163.647 72.8287 163.647 70.6648H161.647C161.647 73.0747 162.087 75.257 162.994 77.1897L164.805 76.3401ZM163.647 70.6648C163.647 68.4615 164.051 66.5607 164.831 64.938L163.028 64.0719C162.097 66.0089 161.647 68.2147 161.647 70.6648H163.647ZM164.83 64.9401C165.622 63.3007 166.708 62.0486 168.085 61.1517L166.993 59.4761C165.287 60.5878 163.967 62.1297 163.029 64.0698L164.83 64.9401ZM168.086 61.1509C169.456 60.2551 171.071 59.7926 172.968 59.7926V57.7926C170.729 57.7926 168.724 58.3443 166.992 59.477L168.086 61.1509ZM172.968 59.7926C174.453 59.7926 175.759 60.067 176.904 60.5955L177.742 58.7795C176.302 58.1148 174.704 57.7926 172.968 57.7926V59.7926ZM176.904 60.5955C178.057 61.1278 178.985 61.8636 179.707 62.8025L181.293 61.5838C180.364 60.375 179.174 59.4404 177.742 58.7795L176.904 60.5955ZM179.707 62.8025C180.419 63.7297 180.869 64.8172 181.045 66.0893L183.026 65.8141C182.805 64.2225 182.231 62.8044 181.293 61.5838L179.707 62.8025ZM182.036 64.9517H178.516V66.9517H182.036V64.9517ZM179.485 65.7027C179.159 64.4365 178.439 63.3429 177.383 62.4235L176.07 63.9316C176.863 64.623 177.336 65.3789 177.548 66.2007L179.485 65.7027ZM177.392 62.431C176.249 61.4125 174.757 60.9545 173.027 60.9545V62.9545C174.401 62.9545 175.374 63.3119 176.061 63.9241L177.392 62.431ZM173.027 60.9545C171.471 60.9545 170.065 61.364 168.849 62.2062L169.987 63.8506C170.839 63.261 171.839 62.9545 173.027 62.9545V60.9545ZM168.851 62.2051C167.655 63.0291 166.745 64.1821 166.104 65.6188L167.93 66.4337C168.442 65.2852 169.133 64.4397 169.986 63.8518L168.851 62.2051ZM166.102 65.6221C165.468 67.0582 165.167 68.7078 165.167 70.5455H167.167C167.167 68.9229 167.432 67.5597 167.931 66.4304L166.102 65.6221ZM165.167 70.5455C165.167 72.4181 165.461 74.0976 166.081 75.5596L167.922 74.7785C167.429 73.6155 167.167 72.2125 167.167 70.5455H165.167ZM166.084 75.5655C166.713 77.0224 167.616 78.1965 168.81 79.0424L169.966 77.4107C169.112 76.805 168.424 75.9407 167.92 74.7726L166.084 75.5655ZM168.814 79.0451C170.033 79.901 171.452 80.3153 173.027 80.3153V78.3153C171.819 78.3153 170.811 78.0038 169.963 77.4081L168.814 79.0451ZM173.027 80.3153C174.06 80.3153 175.026 80.1353 175.911 79.7578L175.126 77.9183C174.519 78.1772 173.825 78.3153 173.027 78.3153V80.3153ZM175.911 79.7578C176.792 79.3818 177.549 78.8353 178.168 78.1208L176.657 76.811C176.242 77.2897 175.736 77.658 175.126 77.9183L175.911 79.7578ZM178.168 78.1208C178.795 77.3978 179.23 76.541 179.483 75.5715L177.549 75.0648C177.365 75.7658 177.064 76.3408 176.657 76.811L178.168 78.1208ZM178.516 76.3182H182.036V74.3182H178.516V76.3182ZM181.047 75.1727C180.871 76.369 180.439 77.435 179.75 78.3855L181.369 79.5591C182.251 78.342 182.804 76.9719 183.025 75.4637L181.047 75.1727ZM179.749 78.3868C179.076 79.3185 178.177 80.0717 177.028 80.6418L177.916 82.4335C179.333 81.7309 180.492 80.7738 181.37 79.5578L179.749 78.3868ZM177.03 80.6404C175.919 81.1875 174.594 81.4773 173.027 81.4773V83.4773C174.842 83.4773 176.48 83.1407 177.914 82.4349L177.03 80.6404Z" fill="black" mask="url(#path-1-outside-1_613_242)"/>
</g>
<defs>
<filter id="filter0_d_613_242" x="0.471924" y="0.0369263" width="185.564" height="98.554" filterUnits="userSpaceOnUse" color-interpolation-filters="sRGB">
<feFlood flood-opacity="0" result="BackgroundImageFix"/>
<feColorMatrix in="SourceAlpha" type="matrix" values="0 0 0 0 0 0 0 0 0 0 0 0 0 0 0 0 0 0 127 0" result="hardAlpha"/>
<feOffset dy="4"/>
<feGaussianBlur stdDeviation="2"/>
<feComposite in2="hardAlpha" operator="out"/>
<feColorMatrix type="matrix" values="0 0 0 0 0 0 0 0 0 0 0 0 0 0 0 0 0 0 0.3 0"/>
<feBlend mode="normal" in2="BackgroundImageFix" result="effect1_dropShadow_613_242"/>
<feBlend mode="normal" in="SourceGraphic" in2="effect1_dropShadow_613_242" result="shape"/>
</filter>
</defs>
</svg>
