<svg width="256" height="100" viewBox="0 0 256 100" fill="none" xmlns="http://www.w3.org/2000/svg">
<g filter="url(#filter0_d_683_184)">
<mask id="path-1-outside-1_683_184" maskUnits="userSpaceOnUse" x="3" y="-1" width="250" height="94" fill="black">
<rect fill="white" x="3" y="-1" width="250" height="94"/>
<path d="M30.2091 11H26.5102C26.2915 9.93608 25.9086 9.00142 25.3618 8.19602C24.8248 7.39062 24.1686 6.71449 23.393 6.16761C22.6274 5.6108 21.7773 5.19318 20.8426 4.91477C19.9079 4.63636 18.9335 4.49716 17.9193 4.49716C16.0699 4.49716 14.3944 4.96449 12.893 5.89915C11.4015 6.83381 10.2133 8.21094 9.32839 10.0305C8.45339 11.8501 8.01589 14.0824 8.01589 16.7273C8.01589 19.3722 8.45339 21.6044 9.32839 23.424C10.2133 25.2436 11.4015 26.6207 12.893 27.5554C14.3944 28.4901 16.0699 28.9574 17.9193 28.9574C18.9335 28.9574 19.9079 28.8182 20.8426 28.5398C21.7773 28.2614 22.6274 27.8487 23.393 27.3018C24.1686 26.745 24.8248 26.0639 25.3618 25.2585C25.9086 24.4432 26.2915 23.5085 26.5102 22.4545H30.2091C29.9307 24.0156 29.4236 25.4126 28.6878 26.6456C27.952 27.8786 27.0372 28.9276 25.9434 29.7926C24.8497 30.6477 23.6217 31.299 22.2595 31.7464C20.9072 32.1939 19.4605 32.4176 17.9193 32.4176C15.3142 32.4176 12.9974 31.7812 10.969 30.5085C8.94061 29.2358 7.34473 27.4261 6.18137 25.0795C5.01802 22.733 4.43635 19.9489 4.43635 16.7273C4.43635 13.5057 5.01802 10.7216 6.18137 8.375C7.34473 6.02841 8.94061 4.21875 10.969 2.94602C12.9974 1.67329 15.3142 1.03693 17.9193 1.03693C19.4605 1.03693 20.9072 1.26065 22.2595 1.7081C23.6217 2.15554 24.8497 2.81179 25.9434 3.67685C27.0372 4.53196 27.952 5.57599 28.6878 6.80895C29.4236 8.03196 29.9307 9.42898 30.2091 11ZM39.2288 18.2188V32H35.7089V1.45454H39.2288V12.6705H39.5271C40.064 11.4872 40.8694 10.5476 41.9433 9.85156C43.0271 9.1456 44.4688 8.79261 46.2686 8.79261C47.8296 8.79261 49.1968 9.10582 50.3701 9.73224C51.5434 10.3487 52.4532 11.2983 53.0995 12.581C53.7558 13.8537 54.0839 15.4744 54.0839 17.4432V32H50.564V17.6818C50.564 15.8622 50.0917 14.4553 49.1471 13.4609C48.2124 12.4567 46.9149 11.9545 45.2544 11.9545C44.1009 11.9545 43.0669 12.1982 42.1521 12.6854C41.2472 13.1726 40.5313 13.8835 40.0044 14.8182C39.4873 15.7528 39.2288 16.8864 39.2288 18.2188ZM69.8302 32.4773C67.762 32.4773 65.9474 31.9851 64.3863 31.0007C62.8351 30.0163 61.6221 28.6392 60.7471 26.8693C59.882 25.0994 59.4495 23.0312 59.4495 20.6648C59.4495 18.2784 59.882 16.1953 60.7471 14.4155C61.6221 12.6357 62.8351 11.2536 64.3863 10.2692C65.9474 9.2848 67.762 8.79261 69.8302 8.79261C71.8983 8.79261 73.708 9.2848 75.2591 10.2692C76.8202 11.2536 78.0333 12.6357 78.8983 14.4155C79.7733 16.1953 80.2108 18.2784 80.2108 20.6648C80.2108 23.0312 79.7733 25.0994 78.8983 26.8693C78.0333 28.6392 76.8202 30.0163 75.2591 31.0007C73.708 31.9851 71.8983 32.4773 69.8302 32.4773ZM69.8302 29.3153C71.4012 29.3153 72.6938 28.9126 73.708 28.1072C74.7222 27.3018 75.4729 26.2429 75.9601 24.9304C76.4474 23.6179 76.691 22.196 76.691 20.6648C76.691 19.1335 76.4474 17.7067 75.9601 16.3842C75.4729 15.0618 74.7222 13.9929 73.708 13.1776C72.6938 12.3622 71.4012 11.9545 69.8302 11.9545C68.2591 11.9545 66.9665 12.3622 65.9523 13.1776C64.9381 13.9929 64.1874 15.0618 63.7002 16.3842C63.213 17.7067 62.9694 19.1335 62.9694 20.6648C62.9694 22.196 63.213 23.6179 63.7002 24.9304C64.1874 26.2429 64.9381 27.3018 65.9523 28.1072C66.9665 28.9126 68.2591 29.3153 69.8302 29.3153ZM94.8907 32.4773C92.8225 32.4773 91.0079 31.9851 89.4468 31.0007C87.8957 30.0163 86.6826 28.6392 85.8076 26.8693C84.9426 25.0994 84.51 23.0312 84.51 20.6648C84.51 18.2784 84.9426 16.1953 85.8076 14.4155C86.6826 12.6357 87.8957 11.2536 89.4468 10.2692C91.0079 9.2848 92.8225 8.79261 94.8907 8.79261C96.9589 8.79261 98.7686 9.2848 100.32 10.2692C101.881 11.2536 103.094 12.6357 103.959 14.4155C104.834 16.1953 105.271 18.2784 105.271 20.6648C105.271 23.0312 104.834 25.0994 103.959 26.8693C103.094 28.6392 101.881 30.0163 100.32 31.0007C98.7686 31.9851 96.9589 32.4773 94.8907 32.4773ZM94.8907 29.3153C96.4617 29.3153 97.7544 28.9126 98.7686 28.1072C99.7828 27.3018 100.533 26.2429 101.021 24.9304C101.508 23.6179 101.752 22.196 101.752 20.6648C101.752 19.1335 101.508 17.7067 101.021 16.3842C100.533 15.0618 99.7828 13.9929 98.7686 13.1776C97.7544 12.3622 96.4617 11.9545 94.8907 11.9545C93.3197 11.9545 92.0271 12.3622 91.0129 13.1776C89.9987 13.9929 89.248 15.0618 88.7607 16.3842C88.2735 17.7067 88.0299 19.1335 88.0299 20.6648C88.0299 22.196 88.2735 23.6179 88.7607 24.9304C89.248 26.2429 89.9987 27.3018 91.0129 28.1072C92.0271 28.9126 93.3197 29.3153 94.8907 29.3153ZM126.872 14.2216L123.71 15.1165C123.511 14.5895 123.218 14.0774 122.83 13.5803C122.452 13.0732 121.935 12.6555 121.279 12.3274C120.622 11.9993 119.782 11.8352 118.758 11.8352C117.356 11.8352 116.188 12.1584 115.253 12.8047C114.328 13.4411 113.866 14.2514 113.866 15.2358C113.866 16.1108 114.184 16.8018 114.821 17.3089C115.457 17.8161 116.451 18.2386 117.804 18.5767L121.204 19.4119C123.252 19.9091 124.779 20.6697 125.783 21.6939C126.787 22.7081 127.289 24.0156 127.289 25.6165C127.289 26.929 126.911 28.1023 126.156 29.1364C125.41 30.1705 124.366 30.9858 123.024 31.5824C121.681 32.179 120.12 32.4773 118.34 32.4773C116.004 32.4773 114.07 31.9702 112.539 30.956C111.007 29.9418 110.038 28.4602 109.63 26.5114L112.971 25.6761C113.289 26.9091 113.891 27.8338 114.776 28.4503C115.671 29.0668 116.839 29.375 118.281 29.375C119.921 29.375 121.224 29.027 122.188 28.331C123.163 27.625 123.65 26.7798 123.65 25.7955C123.65 25 123.372 24.3338 122.815 23.7969C122.258 23.25 121.403 22.8423 120.25 22.5739L116.431 21.679C114.333 21.1818 112.792 20.4112 111.808 19.3672C110.833 18.3132 110.346 16.9957 110.346 15.4148C110.346 14.1222 110.709 12.9787 111.435 11.9844C112.171 10.9901 113.17 10.2095 114.433 9.64275C115.706 9.07599 117.147 8.79261 118.758 8.79261C121.025 8.79261 122.805 9.28977 124.098 10.2841C125.4 11.2784 126.325 12.5909 126.872 14.2216ZM142.193 32.4773C139.986 32.4773 138.081 31.9901 136.481 31.0156C134.89 30.0312 133.662 28.6591 132.797 26.8991C131.941 25.1293 131.514 23.071 131.514 20.7244C131.514 18.3778 131.941 16.3097 132.797 14.5199C133.662 12.7202 134.865 11.3182 136.406 10.3139C137.957 9.29972 139.767 8.79261 141.835 8.79261C143.028 8.79261 144.206 8.99148 145.37 9.3892C146.533 9.78693 147.592 10.4332 148.547 11.3281C149.501 12.2131 150.262 13.3864 150.829 14.848C151.395 16.3097 151.679 18.1094 151.679 20.2472V21.7386H134.02V18.696H148.099C148.099 17.4034 147.841 16.25 147.324 15.2358C146.816 14.2216 146.091 13.4212 145.146 12.8345C144.211 12.2479 143.108 11.9545 141.835 11.9545C140.433 11.9545 139.22 12.3026 138.196 12.9986C137.182 13.6847 136.401 14.5795 135.854 15.6832C135.307 16.7869 135.034 17.9702 135.034 19.233V21.2614C135.034 22.9915 135.332 24.4581 135.929 25.6612C136.535 26.8544 137.375 27.7642 138.449 28.3906C139.523 29.0071 140.771 29.3153 142.193 29.3153C143.118 29.3153 143.953 29.1861 144.699 28.9276C145.454 28.6591 146.106 28.2614 146.652 27.7344C147.199 27.1974 147.622 26.5312 147.92 25.7358L151.321 26.6903C150.963 27.8438 150.361 28.858 149.516 29.733C148.671 30.598 147.627 31.2741 146.384 31.7614C145.141 32.2386 143.744 32.4773 142.193 32.4773ZM169.323 32V1.45454H187.638V4.73579H173.022V15.0568H186.266V18.3381H173.022V32H169.323ZM193.496 32V9.09091H197.016V32H193.496ZM195.286 5.27273C194.6 5.27273 194.008 5.03906 193.511 4.57173C193.024 4.1044 192.78 3.54261 192.78 2.88636C192.78 2.23011 193.024 1.66832 193.511 1.20099C194.008 0.733664 194.6 0.5 195.286 0.5C195.972 0.5 196.559 0.733664 197.046 1.20099C197.543 1.66832 197.791 2.23011 197.791 2.88636C197.791 3.54261 197.543 4.1044 197.046 4.57173C196.559 5.03906 195.972 5.27273 195.286 5.27273ZM203.463 32V9.09091H206.863V12.5511H207.102C207.52 11.4176 208.275 10.4979 209.369 9.7919C210.463 9.08594 211.696 8.73295 213.068 8.73295C213.326 8.73295 213.65 8.73792 214.037 8.74787C214.425 8.75781 214.718 8.77273 214.917 8.79261V12.3722C214.798 12.3423 214.525 12.2976 214.097 12.2379C213.679 12.1683 213.237 12.1335 212.77 12.1335C211.656 12.1335 210.662 12.3672 209.787 12.8345C208.922 13.2919 208.236 13.9283 207.728 14.7436C207.231 15.549 206.983 16.4687 206.983 17.5028V32H203.463ZM235.317 14.2216L232.155 15.1165C231.956 14.5895 231.663 14.0774 231.275 13.5803C230.897 13.0732 230.38 12.6555 229.724 12.3274C229.068 11.9993 228.228 11.8352 227.203 11.8352C225.801 11.8352 224.633 12.1584 223.698 12.8047C222.774 13.4411 222.311 14.2514 222.311 15.2358C222.311 16.1108 222.63 16.8018 223.266 17.3089C223.902 17.8161 224.897 18.2386 226.249 18.5767L229.649 19.4119C231.698 19.9091 233.224 20.6697 234.228 21.6939C235.233 22.7081 235.735 24.0156 235.735 25.6165C235.735 26.929 235.357 28.1023 234.601 29.1364C233.855 30.1705 232.811 30.9858 231.469 31.5824C230.127 32.179 228.566 32.4773 226.786 32.4773C224.449 32.4773 222.515 31.9702 220.984 30.956C219.453 29.9418 218.483 28.4602 218.076 26.5114L221.416 25.6761C221.735 26.9091 222.336 27.8338 223.221 28.4503C224.116 29.0668 225.284 29.375 226.726 29.375C228.367 29.375 229.669 29.027 230.634 28.331C231.608 27.625 232.095 26.7798 232.095 25.7955C232.095 25 231.817 24.3338 231.26 23.7969C230.703 23.25 229.848 22.8423 228.695 22.5739L224.877 21.679C222.779 21.1818 221.237 20.4112 220.253 19.3672C219.279 18.3132 218.791 16.9957 218.791 15.4148C218.791 14.1222 219.154 12.9787 219.88 11.9844C220.616 10.9901 221.615 10.2095 222.878 9.64275C224.151 9.07599 225.593 8.79261 227.203 8.79261C229.47 8.79261 231.25 9.28977 232.543 10.2841C233.845 11.2784 234.77 12.5909 235.317 14.2216ZM250.996 9.09091V12.0739H239.124V9.09091H250.996ZM242.584 3.60227H246.104V25.4375C246.104 26.4318 246.248 27.1776 246.537 27.6747C246.835 28.1619 247.213 28.4901 247.67 28.6591C248.138 28.8182 248.63 28.8977 249.147 28.8977C249.535 28.8977 249.853 28.8778 250.101 28.8381C250.35 28.7884 250.549 28.7486 250.698 28.7188L251.414 31.8807C251.175 31.9702 250.842 32.0597 250.415 32.1491C249.987 32.2486 249.445 32.2983 248.789 32.2983C247.794 32.2983 246.82 32.0845 245.866 31.657C244.921 31.2294 244.135 30.5781 243.509 29.7031C242.892 28.8281 242.584 27.7244 242.584 26.392V3.60227ZM18.3667 83H14.4889L25.7048 52.4545H29.523L40.7389 83H36.8611L27.7332 57.2869H27.4946L18.3667 83ZM19.7986 71.0682H35.4292V74.3494H19.7986V71.0682ZM49.1956 52.4545V83H45.4967V52.4545H49.1956ZM77.8506 83H68.4244V52.4545H78.2682C81.2313 52.4545 83.7668 53.0661 85.8747 54.2891C87.9827 55.5021 89.5985 57.2472 90.722 59.5241C91.8456 61.7912 92.4074 64.5057 92.4074 67.6676C92.4074 70.8494 91.8406 73.5888 90.7071 75.8857C89.5736 78.1726 87.923 79.9325 85.7554 81.1655C83.5878 82.3885 80.9529 83 77.8506 83ZM72.1233 79.7188H77.6119C80.1375 79.7188 82.2306 79.2315 83.8911 78.2571C85.5516 77.2827 86.7895 75.8956 87.6048 74.0959C88.4202 72.2962 88.8279 70.1534 88.8279 67.6676C88.8279 65.2017 88.4252 63.0788 87.6198 61.299C86.8144 59.5092 85.6112 58.1371 84.0104 57.1825C82.4095 56.218 80.4159 55.7358 78.0296 55.7358H72.1233V79.7188ZM98.1347 83V60.0909H101.655V83H98.1347ZM99.9244 56.2727C99.2384 56.2727 98.6468 56.0391 98.1496 55.5717C97.6624 55.1044 97.4188 54.5426 97.4188 53.8864C97.4188 53.2301 97.6624 52.6683 98.1496 52.201C98.6468 51.7337 99.2384 51.5 99.9244 51.5C100.611 51.5 101.197 51.7337 101.684 52.201C102.182 52.6683 102.43 53.2301 102.43 53.8864C102.43 54.5426 102.182 55.1044 101.684 55.5717C101.197 56.0391 100.611 56.2727 99.9244 56.2727ZM118.303 60.0909V63.0739H105.954V60.0909H118.303ZM109.653 83V56.929C109.653 55.6165 109.961 54.5227 110.577 53.6477C111.194 52.7727 111.994 52.1165 112.979 51.679C113.963 51.2415 115.002 51.0227 116.096 51.0227C116.961 51.0227 117.667 51.0923 118.214 51.2315C118.761 51.3707 119.168 51.5 119.437 51.6193L118.422 54.6619C118.244 54.6023 117.995 54.5277 117.677 54.4382C117.369 54.3487 116.961 54.304 116.454 54.304C115.29 54.304 114.45 54.5973 113.933 55.1839C113.426 55.7706 113.172 56.6307 113.172 57.7642V83H109.653ZM133.438 60.0909V63.0739H121.089V60.0909H133.438ZM124.787 83V56.929C124.787 55.6165 125.096 54.5227 125.712 53.6477C126.329 52.7727 127.129 52.1165 128.113 51.679C129.098 51.2415 130.137 51.0227 131.231 51.0227C132.096 51.0227 132.802 51.0923 133.348 51.2315C133.895 51.3707 134.303 51.5 134.571 51.6193L133.557 54.6619C133.378 54.6023 133.13 54.5277 132.812 54.4382C132.503 54.3487 132.096 54.304 131.589 54.304C130.425 54.304 129.585 54.5973 129.068 55.1839C128.561 55.7706 128.307 56.6307 128.307 57.7642V83H124.787ZM138.371 83V60.0909H141.891V83H138.371ZM140.161 56.2727C139.475 56.2727 138.883 56.0391 138.386 55.5717C137.899 55.1044 137.655 54.5426 137.655 53.8864C137.655 53.2301 137.899 52.6683 138.386 52.201C138.883 51.7337 139.475 51.5 140.161 51.5C140.847 51.5 141.434 51.7337 141.921 52.201C142.418 52.6683 142.666 53.2301 142.666 53.8864C142.666 54.5426 142.418 55.1044 141.921 55.5717C141.434 56.0391 140.847 56.2727 140.161 56.2727ZM157.645 83.4773C155.497 83.4773 153.647 82.9702 152.096 81.956C150.545 80.9418 149.352 79.5447 148.517 77.7649C147.682 75.9851 147.264 73.9517 147.264 71.6648C147.264 69.3381 147.691 67.2848 148.547 65.505C149.412 63.7152 150.615 62.3182 152.156 61.3139C153.707 60.2997 155.517 59.7926 157.585 59.7926C159.196 59.7926 160.647 60.0909 161.94 60.6875C163.233 61.2841 164.292 62.1193 165.117 63.1932C165.942 64.267 166.454 65.5199 166.653 66.9517H163.133C162.865 65.9077 162.268 64.983 161.343 64.1776C160.429 63.3622 159.196 62.9545 157.645 62.9545C156.272 62.9545 155.069 63.3125 154.035 64.0284C153.011 64.7344 152.211 65.7337 151.634 67.0263C151.067 68.3089 150.784 69.8153 150.784 71.5455C150.784 73.3153 151.062 74.8565 151.619 76.169C152.186 77.4815 152.981 78.5007 154.005 79.2266C155.04 79.9524 156.253 80.3153 157.645 80.3153C158.559 80.3153 159.39 80.1562 160.135 79.8381C160.881 79.5199 161.513 79.0625 162.03 78.4659C162.547 77.8693 162.915 77.1534 163.133 76.3182H166.653C166.454 77.6705 165.962 78.8885 165.177 79.9723C164.401 81.0462 163.372 81.9013 162.089 82.5376C160.816 83.1641 159.335 83.4773 157.645 83.4773ZM186.236 73.6335V60.0909H189.756V83H186.236V79.1222H185.998C185.461 80.2855 184.625 81.2749 183.492 82.0902C182.358 82.8956 180.927 83.2983 179.196 83.2983C177.765 83.2983 176.492 82.9851 175.378 82.3587C174.265 81.7223 173.39 80.7678 172.753 79.495C172.117 78.2124 171.799 76.5966 171.799 74.6477V60.0909H175.319V74.4091C175.319 76.0795 175.786 77.4119 176.721 78.4062C177.665 79.4006 178.868 79.8977 180.33 79.8977C181.205 79.8977 182.095 79.674 183 79.2266C183.915 78.7791 184.68 78.093 185.297 77.1683C185.923 76.2436 186.236 75.0653 186.236 73.6335ZM199.723 52.4545V83H196.203V52.4545H199.723ZM216.133 60.0909V63.0739H204.261V60.0909H216.133ZM207.721 54.6023H211.241V76.4375C211.241 77.4318 211.385 78.1776 211.673 78.6747C211.972 79.1619 212.35 79.4901 212.807 79.6591C213.274 79.8182 213.766 79.8977 214.283 79.8977C214.671 79.8977 214.989 79.8778 215.238 79.8381C215.487 79.7884 215.685 79.7486 215.835 79.7188L216.551 82.8807C216.312 82.9702 215.979 83.0597 215.551 83.1491C215.124 83.2486 214.582 83.2983 213.926 83.2983C212.931 83.2983 211.957 83.0845 211.002 82.657C210.058 82.2294 209.272 81.5781 208.646 80.7031C208.029 79.8281 207.721 78.7244 207.721 77.392V54.6023ZM223.695 91.5909C223.098 91.5909 222.566 91.5412 222.099 91.4418C221.631 91.3523 221.308 91.2628 221.129 91.1733L222.024 88.071C222.879 88.2898 223.635 88.3693 224.291 88.3097C224.948 88.25 225.529 87.9567 226.036 87.4297C226.553 86.9126 227.026 86.0724 227.453 84.9091L228.109 83.1193L219.638 60.0909H223.456L229.78 78.3466H230.019L236.342 60.0909H240.161L230.436 86.3409C229.999 87.5241 229.457 88.5036 228.81 89.2791C228.164 90.0646 227.413 90.6463 226.558 91.0241C225.713 91.402 224.759 91.5909 223.695 91.5909Z"/>
</mask>
<path d="M30.2091 11H26.5102C26.2915 9.93608 25.9086 9.00142 25.3618 8.19602C24.8248 7.39062 24.1686 6.71449 23.393 6.16761C22.6274 5.6108 21.7773 5.19318 20.8426 4.91477C19.9079 4.63636 18.9335 4.49716 17.9193 4.49716C16.0699 4.49716 14.3944 4.96449 12.893 5.89915C11.4015 6.83381 10.2133 8.21094 9.32839 10.0305C8.45339 11.8501 8.01589 14.0824 8.01589 16.7273C8.01589 19.3722 8.45339 21.6044 9.32839 23.424C10.2133 25.2436 11.4015 26.6207 12.893 27.5554C14.3944 28.4901 16.0699 28.9574 17.9193 28.9574C18.9335 28.9574 19.9079 28.8182 20.8426 28.5398C21.7773 28.2614 22.6274 27.8487 23.393 27.3018C24.1686 26.745 24.8248 26.0639 25.3618 25.2585C25.9086 24.4432 26.2915 23.5085 26.5102 22.4545H30.2091C29.9307 24.0156 29.4236 25.4126 28.6878 26.6456C27.952 27.8786 27.0372 28.9276 25.9434 29.7926C24.8497 30.6477 23.6217 31.299 22.2595 31.7464C20.9072 32.1939 19.4605 32.4176 17.9193 32.4176C15.3142 32.4176 12.9974 31.7812 10.969 30.5085C8.94061 29.2358 7.34473 27.4261 6.18137 25.0795C5.01802 22.733 4.43635 19.9489 4.43635 16.7273C4.43635 13.5057 5.01802 10.7216 6.18137 8.375C7.34473 6.02841 8.94061 4.21875 10.969 2.94602C12.9974 1.67329 15.3142 1.03693 17.9193 1.03693C19.4605 1.03693 20.9072 1.26065 22.2595 1.7081C23.6217 2.15554 24.8497 2.81179 25.9434 3.67685C27.0372 4.53196 27.952 5.57599 28.6878 6.80895C29.4236 8.03196 29.9307 9.42898 30.2091 11ZM39.2288 18.2188V32H35.7089V1.45454H39.2288V12.6705H39.5271C40.064 11.4872 40.8694 10.5476 41.9433 9.85156C43.0271 9.1456 44.4688 8.79261 46.2686 8.79261C47.8296 8.79261 49.1968 9.10582 50.3701 9.73224C51.5434 10.3487 52.4532 11.2983 53.0995 12.581C53.7558 13.8537 54.0839 15.4744 54.0839 17.4432V32H50.564V17.6818C50.564 15.8622 50.0917 14.4553 49.1471 13.4609C48.2124 12.4567 46.9149 11.9545 45.2544 11.9545C44.1009 11.9545 43.0669 12.1982 42.1521 12.6854C41.2472 13.1726 40.5313 13.8835 40.0044 14.8182C39.4873 15.7528 39.2288 16.8864 39.2288 18.2188ZM69.8302 32.4773C67.762 32.4773 65.9474 31.9851 64.3863 31.0007C62.8351 30.0163 61.6221 28.6392 60.7471 26.8693C59.882 25.0994 59.4495 23.0312 59.4495 20.6648C59.4495 18.2784 59.882 16.1953 60.7471 14.4155C61.6221 12.6357 62.8351 11.2536 64.3863 10.2692C65.9474 9.2848 67.762 8.79261 69.8302 8.79261C71.8983 8.79261 73.708 9.2848 75.2591 10.2692C76.8202 11.2536 78.0333 12.6357 78.8983 14.4155C79.7733 16.1953 80.2108 18.2784 80.2108 20.6648C80.2108 23.0312 79.7733 25.0994 78.8983 26.8693C78.0333 28.6392 76.8202 30.0163 75.2591 31.0007C73.708 31.9851 71.8983 32.4773 69.8302 32.4773ZM69.8302 29.3153C71.4012 29.3153 72.6938 28.9126 73.708 28.1072C74.7222 27.3018 75.4729 26.2429 75.9601 24.9304C76.4474 23.6179 76.691 22.196 76.691 20.6648C76.691 19.1335 76.4474 17.7067 75.9601 16.3842C75.4729 15.0618 74.7222 13.9929 73.708 13.1776C72.6938 12.3622 71.4012 11.9545 69.8302 11.9545C68.2591 11.9545 66.9665 12.3622 65.9523 13.1776C64.9381 13.9929 64.1874 15.0618 63.7002 16.3842C63.213 17.7067 62.9694 19.1335 62.9694 20.6648C62.9694 22.196 63.213 23.6179 63.7002 24.9304C64.1874 26.2429 64.9381 27.3018 65.9523 28.1072C66.9665 28.9126 68.2591 29.3153 69.8302 29.3153ZM94.8907 32.4773C92.8225 32.4773 91.0079 31.9851 89.4468 31.0007C87.8957 30.0163 86.6826 28.6392 85.8076 26.8693C84.9426 25.0994 84.51 23.0312 84.51 20.6648C84.51 18.2784 84.9426 16.1953 85.8076 14.4155C86.6826 12.6357 87.8957 11.2536 89.4468 10.2692C91.0079 9.2848 92.8225 8.79261 94.8907 8.79261C96.9589 8.79261 98.7686 9.2848 100.32 10.2692C101.881 11.2536 103.094 12.6357 103.959 14.4155C104.834 16.1953 105.271 18.2784 105.271 20.6648C105.271 23.0312 104.834 25.0994 103.959 26.8693C103.094 28.6392 101.881 30.0163 100.32 31.0007C98.7686 31.9851 96.9589 32.4773 94.8907 32.4773ZM94.8907 29.3153C96.4617 29.3153 97.7544 28.9126 98.7686 28.1072C99.7828 27.3018 100.533 26.2429 101.021 24.9304C101.508 23.6179 101.752 22.196 101.752 20.6648C101.752 19.1335 101.508 17.7067 101.021 16.3842C100.533 15.0618 99.7828 13.9929 98.7686 13.1776C97.7544 12.3622 96.4617 11.9545 94.8907 11.9545C93.3197 11.9545 92.0271 12.3622 91.0129 13.1776C89.9987 13.9929 89.248 15.0618 88.7607 16.3842C88.2735 17.7067 88.0299 19.1335 88.0299 20.6648C88.0299 22.196 88.2735 23.6179 88.7607 24.9304C89.248 26.2429 89.9987 27.3018 91.0129 28.1072C92.0271 28.9126 93.3197 29.3153 94.8907 29.3153ZM126.872 14.2216L123.71 15.1165C123.511 14.5895 123.218 14.0774 122.83 13.5803C122.452 13.0732 121.935 12.6555 121.279 12.3274C120.622 11.9993 119.782 11.8352 118.758 11.8352C117.356 11.8352 116.188 12.1584 115.253 12.8047C114.328 13.4411 113.866 14.2514 113.866 15.2358C113.866 16.1108 114.184 16.8018 114.821 17.3089C115.457 17.8161 116.451 18.2386 117.804 18.5767L121.204 19.4119C123.252 19.9091 124.779 20.6697 125.783 21.6939C126.787 22.7081 127.289 24.0156 127.289 25.6165C127.289 26.929 126.911 28.1023 126.156 29.1364C125.41 30.1705 124.366 30.9858 123.024 31.5824C121.681 32.179 120.12 32.4773 118.34 32.4773C116.004 32.4773 114.07 31.9702 112.539 30.956C111.007 29.9418 110.038 28.4602 109.63 26.5114L112.971 25.6761C113.289 26.9091 113.891 27.8338 114.776 28.4503C115.671 29.0668 116.839 29.375 118.281 29.375C119.921 29.375 121.224 29.027 122.188 28.331C123.163 27.625 123.65 26.7798 123.65 25.7955C123.65 25 123.372 24.3338 122.815 23.7969C122.258 23.25 121.403 22.8423 120.25 22.5739L116.431 21.679C114.333 21.1818 112.792 20.4112 111.808 19.3672C110.833 18.3132 110.346 16.9957 110.346 15.4148C110.346 14.1222 110.709 12.9787 111.435 11.9844C112.171 10.9901 113.17 10.2095 114.433 9.64275C115.706 9.07599 117.147 8.79261 118.758 8.79261C121.025 8.79261 122.805 9.28977 124.098 10.2841C125.4 11.2784 126.325 12.5909 126.872 14.2216ZM142.193 32.4773C139.986 32.4773 138.081 31.9901 136.481 31.0156C134.89 30.0312 133.662 28.6591 132.797 26.8991C131.941 25.1293 131.514 23.071 131.514 20.7244C131.514 18.3778 131.941 16.3097 132.797 14.5199C133.662 12.7202 134.865 11.3182 136.406 10.3139C137.957 9.29972 139.767 8.79261 141.835 8.79261C143.028 8.79261 144.206 8.99148 145.37 9.3892C146.533 9.78693 147.592 10.4332 148.547 11.3281C149.501 12.2131 150.262 13.3864 150.829 14.848C151.395 16.3097 151.679 18.1094 151.679 20.2472V21.7386H134.02V18.696H148.099C148.099 17.4034 147.841 16.25 147.324 15.2358C146.816 14.2216 146.091 13.4212 145.146 12.8345C144.211 12.2479 143.108 11.9545 141.835 11.9545C140.433 11.9545 139.22 12.3026 138.196 12.9986C137.182 13.6847 136.401 14.5795 135.854 15.6832C135.307 16.7869 135.034 17.9702 135.034 19.233V21.2614C135.034 22.9915 135.332 24.4581 135.929 25.6612C136.535 26.8544 137.375 27.7642 138.449 28.3906C139.523 29.0071 140.771 29.3153 142.193 29.3153C143.118 29.3153 143.953 29.1861 144.699 28.9276C145.454 28.6591 146.106 28.2614 146.652 27.7344C147.199 27.1974 147.622 26.5312 147.92 25.7358L151.321 26.6903C150.963 27.8438 150.361 28.858 149.516 29.733C148.671 30.598 147.627 31.2741 146.384 31.7614C145.141 32.2386 143.744 32.4773 142.193 32.4773ZM169.323 32V1.45454H187.638V4.73579H173.022V15.0568H186.266V18.3381H173.022V32H169.323ZM193.496 32V9.09091H197.016V32H193.496ZM195.286 5.27273C194.6 5.27273 194.008 5.03906 193.511 4.57173C193.024 4.1044 192.78 3.54261 192.78 2.88636C192.78 2.23011 193.024 1.66832 193.511 1.20099C194.008 0.733664 194.6 0.5 195.286 0.5C195.972 0.5 196.559 0.733664 197.046 1.20099C197.543 1.66832 197.791 2.23011 197.791 2.88636C197.791 3.54261 197.543 4.1044 197.046 4.57173C196.559 5.03906 195.972 5.27273 195.286 5.27273ZM203.463 32V9.09091H206.863V12.5511H207.102C207.52 11.4176 208.275 10.4979 209.369 9.7919C210.463 9.08594 211.696 8.73295 213.068 8.73295C213.326 8.73295 213.65 8.73792 214.037 8.74787C214.425 8.75781 214.718 8.77273 214.917 8.79261V12.3722C214.798 12.3423 214.525 12.2976 214.097 12.2379C213.679 12.1683 213.237 12.1335 212.77 12.1335C211.656 12.1335 210.662 12.3672 209.787 12.8345C208.922 13.2919 208.236 13.9283 207.728 14.7436C207.231 15.549 206.983 16.4687 206.983 17.5028V32H203.463ZM235.317 14.2216L232.155 15.1165C231.956 14.5895 231.663 14.0774 231.275 13.5803C230.897 13.0732 230.38 12.6555 229.724 12.3274C229.068 11.9993 228.228 11.8352 227.203 11.8352C225.801 11.8352 224.633 12.1584 223.698 12.8047C222.774 13.4411 222.311 14.2514 222.311 15.2358C222.311 16.1108 222.63 16.8018 223.266 17.3089C223.902 17.8161 224.897 18.2386 226.249 18.5767L229.649 19.4119C231.698 19.9091 233.224 20.6697 234.228 21.6939C235.233 22.7081 235.735 24.0156 235.735 25.6165C235.735 26.929 235.357 28.1023 234.601 29.1364C233.855 30.1705 232.811 30.9858 231.469 31.5824C230.127 32.179 228.566 32.4773 226.786 32.4773C224.449 32.4773 222.515 31.9702 220.984 30.956C219.453 29.9418 218.483 28.4602 218.076 26.5114L221.416 25.6761C221.735 26.9091 222.336 27.8338 223.221 28.4503C224.116 29.0668 225.284 29.375 226.726 29.375C228.367 29.375 229.669 29.027 230.634 28.331C231.608 27.625 232.095 26.7798 232.095 25.7955C232.095 25 231.817 24.3338 231.26 23.7969C230.703 23.25 229.848 22.8423 228.695 22.5739L224.877 21.679C222.779 21.1818 221.237 20.4112 220.253 19.3672C219.279 18.3132 218.791 16.9957 218.791 15.4148C218.791 14.1222 219.154 12.9787 219.88 11.9844C220.616 10.9901 221.615 10.2095 222.878 9.64275C224.151 9.07599 225.593 8.79261 227.203 8.79261C229.47 8.79261 231.25 9.28977 232.543 10.2841C233.845 11.2784 234.77 12.5909 235.317 14.2216ZM250.996 9.09091V12.0739H239.124V9.09091H250.996ZM242.584 3.60227H246.104V25.4375C246.104 26.4318 246.248 27.1776 246.537 27.6747C246.835 28.1619 247.213 28.4901 247.67 28.6591C248.138 28.8182 248.63 28.8977 249.147 28.8977C249.535 28.8977 249.853 28.8778 250.101 28.8381C250.35 28.7884 250.549 28.7486 250.698 28.7188L251.414 31.8807C251.175 31.9702 250.842 32.0597 250.415 32.1491C249.987 32.2486 249.445 32.2983 248.789 32.2983C247.794 32.2983 246.82 32.0845 245.866 31.657C244.921 31.2294 244.135 30.5781 243.509 29.7031C242.892 28.8281 242.584 27.7244 242.584 26.392V3.60227ZM18.3667 83H14.4889L25.7048 52.4545H29.523L40.7389 83H36.8611L27.7332 57.2869H27.4946L18.3667 83ZM19.7986 71.0682H35.4292V74.3494H19.7986V71.0682ZM49.1956 52.4545V83H45.4967V52.4545H49.1956ZM77.8506 83H68.4244V52.4545H78.2682C81.2313 52.4545 83.7668 53.0661 85.8747 54.2891C87.9827 55.5021 89.5985 57.2472 90.722 59.5241C91.8456 61.7912 92.4074 64.5057 92.4074 67.6676C92.4074 70.8494 91.8406 73.5888 90.7071 75.8857C89.5736 78.1726 87.923 79.9325 85.7554 81.1655C83.5878 82.3885 80.9529 83 77.8506 83ZM72.1233 79.7188H77.6119C80.1375 79.7188 82.2306 79.2315 83.8911 78.2571C85.5516 77.2827 86.7895 75.8956 87.6048 74.0959C88.4202 72.2962 88.8279 70.1534 88.8279 67.6676C88.8279 65.2017 88.4252 63.0788 87.6198 61.299C86.8144 59.5092 85.6112 58.1371 84.0104 57.1825C82.4095 56.218 80.4159 55.7358 78.0296 55.7358H72.1233V79.7188ZM98.1347 83V60.0909H101.655V83H98.1347ZM99.9244 56.2727C99.2384 56.2727 98.6468 56.0391 98.1496 55.5717C97.6624 55.1044 97.4188 54.5426 97.4188 53.8864C97.4188 53.2301 97.6624 52.6683 98.1496 52.201C98.6468 51.7337 99.2384 51.5 99.9244 51.5C100.611 51.5 101.197 51.7337 101.684 52.201C102.182 52.6683 102.43 53.2301 102.43 53.8864C102.43 54.5426 102.182 55.1044 101.684 55.5717C101.197 56.0391 100.611 56.2727 99.9244 56.2727ZM118.303 60.0909V63.0739H105.954V60.0909H118.303ZM109.653 83V56.929C109.653 55.6165 109.961 54.5227 110.577 53.6477C111.194 52.7727 111.994 52.1165 112.979 51.679C113.963 51.2415 115.002 51.0227 116.096 51.0227C116.961 51.0227 117.667 51.0923 118.214 51.2315C118.761 51.3707 119.168 51.5 119.437 51.6193L118.422 54.6619C118.244 54.6023 117.995 54.5277 117.677 54.4382C117.369 54.3487 116.961 54.304 116.454 54.304C115.29 54.304 114.45 54.5973 113.933 55.1839C113.426 55.7706 113.172 56.6307 113.172 57.7642V83H109.653ZM133.438 60.0909V63.0739H121.089V60.0909H133.438ZM124.787 83V56.929C124.787 55.6165 125.096 54.5227 125.712 53.6477C126.329 52.7727 127.129 52.1165 128.113 51.679C129.098 51.2415 130.137 51.0227 131.231 51.0227C132.096 51.0227 132.802 51.0923 133.348 51.2315C133.895 51.3707 134.303 51.5 134.571 51.6193L133.557 54.6619C133.378 54.6023 133.13 54.5277 132.812 54.4382C132.503 54.3487 132.096 54.304 131.589 54.304C130.425 54.304 129.585 54.5973 129.068 55.1839C128.561 55.7706 128.307 56.6307 128.307 57.7642V83H124.787ZM138.371 83V60.0909H141.891V83H138.371ZM140.161 56.2727C139.475 56.2727 138.883 56.0391 138.386 55.5717C137.899 55.1044 137.655 54.5426 137.655 53.8864C137.655 53.2301 137.899 52.6683 138.386 52.201C138.883 51.7337 139.475 51.5 140.161 51.5C140.847 51.5 141.434 51.7337 141.921 52.201C142.418 52.6683 142.666 53.2301 142.666 53.8864C142.666 54.5426 142.418 55.1044 141.921 55.5717C141.434 56.0391 140.847 56.2727 140.161 56.2727ZM157.645 83.4773C155.497 83.4773 153.647 82.9702 152.096 81.956C150.545 80.9418 149.352 79.5447 148.517 77.7649C147.682 75.9851 147.264 73.9517 147.264 71.6648C147.264 69.3381 147.691 67.2848 148.547 65.505C149.412 63.7152 150.615 62.3182 152.156 61.3139C153.707 60.2997 155.517 59.7926 157.585 59.7926C159.196 59.7926 160.647 60.0909 161.94 60.6875C163.233 61.2841 164.292 62.1193 165.117 63.1932C165.942 64.267 166.454 65.5199 166.653 66.9517H163.133C162.865 65.9077 162.268 64.983 161.343 64.1776C160.429 63.3622 159.196 62.9545 157.645 62.9545C156.272 62.9545 155.069 63.3125 154.035 64.0284C153.011 64.7344 152.211 65.7337 151.634 67.0263C151.067 68.3089 150.784 69.8153 150.784 71.5455C150.784 73.3153 151.062 74.8565 151.619 76.169C152.186 77.4815 152.981 78.5007 154.005 79.2266C155.04 79.9524 156.253 80.3153 157.645 80.3153C158.559 80.3153 159.39 80.1562 160.135 79.8381C160.881 79.5199 161.513 79.0625 162.03 78.4659C162.547 77.8693 162.915 77.1534 163.133 76.3182H166.653C166.454 77.6705 165.962 78.8885 165.177 79.9723C164.401 81.0462 163.372 81.9013 162.089 82.5376C160.816 83.1641 159.335 83.4773 157.645 83.4773ZM186.236 73.6335V60.0909H189.756V83H186.236V79.1222H185.998C185.461 80.2855 184.625 81.2749 183.492 82.0902C182.358 82.8956 180.927 83.2983 179.196 83.2983C177.765 83.2983 176.492 82.9851 175.378 82.3587C174.265 81.7223 173.39 80.7678 172.753 79.495C172.117 78.2124 171.799 76.5966 171.799 74.6477V60.0909H175.319V74.4091C175.319 76.0795 175.786 77.4119 176.721 78.4062C177.665 79.4006 178.868 79.8977 180.33 79.8977C181.205 79.8977 182.095 79.674 183 79.2266C183.915 78.7791 184.68 78.093 185.297 77.1683C185.923 76.2436 186.236 75.0653 186.236 73.6335ZM199.723 52.4545V83H196.203V52.4545H199.723ZM216.133 60.0909V63.0739H204.261V60.0909H216.133ZM207.721 54.6023H211.241V76.4375C211.241 77.4318 211.385 78.1776 211.673 78.6747C211.972 79.1619 212.35 79.4901 212.807 79.6591C213.274 79.8182 213.766 79.8977 214.283 79.8977C214.671 79.8977 214.989 79.8778 215.238 79.8381C215.487 79.7884 215.685 79.7486 215.835 79.7188L216.551 82.8807C216.312 82.9702 215.979 83.0597 215.551 83.1491C215.124 83.2486 214.582 83.2983 213.926 83.2983C212.931 83.2983 211.957 83.0845 211.002 82.657C210.058 82.2294 209.272 81.5781 208.646 80.7031C208.029 79.8281 207.721 78.7244 207.721 77.392V54.6023ZM223.695 91.5909C223.098 91.5909 222.566 91.5412 222.099 91.4418C221.631 91.3523 221.308 91.2628 221.129 91.1733L222.024 88.071C222.879 88.2898 223.635 88.3693 224.291 88.3097C224.948 88.25 225.529 87.9567 226.036 87.4297C226.553 86.9126 227.026 86.0724 227.453 84.9091L228.109 83.1193L219.638 60.0909H223.456L229.78 78.3466H230.019L236.342 60.0909H240.161L230.436 86.3409C229.999 87.5241 229.457 88.5036 228.81 89.2791C228.164 90.0646 227.413 90.6463 226.558 91.0241C225.713 91.402 224.759 91.5909 223.695 91.5909Z" fill="white"/>
<path d="M30.2091 11V12H31.4019L31.1937 10.8255L30.2091 11ZM26.5102 11L25.5307 11.2014L25.6949 12H26.5102V11ZM25.3618 8.19602L24.5297 8.75074L24.5345 8.75777L25.3618 8.19602ZM23.393 6.16761L22.8049 6.97635L22.8108 6.98065L22.8168 6.98487L23.393 6.16761ZM20.8426 4.91477L20.5571 5.87316L20.5571 5.87316L20.8426 4.91477ZM12.893 5.89915L12.3645 5.0502L12.362 5.05178L12.893 5.89915ZM9.32839 10.0305L8.4291 9.59318L8.42718 9.59717L9.32839 10.0305ZM9.32839 23.424L8.42717 23.8574L8.4291 23.8614L9.32839 23.424ZM12.893 27.5554L12.362 28.4028L12.3645 28.4043L12.893 27.5554ZM20.8426 28.5398L20.5571 27.5814L20.5571 27.5814L20.8426 28.5398ZM23.393 27.3018L23.9743 28.1156L23.9762 28.1142L23.393 27.3018ZM25.3618 25.2585L24.5313 24.7015L24.5297 24.7038L25.3618 25.2585ZM26.5102 22.4545V21.4545H25.6964L25.5311 22.2513L26.5102 22.4545ZM30.2091 22.4545L31.1935 22.6301L31.4032 21.4545H30.2091V22.4545ZM28.6878 26.6456L27.8291 26.1331L27.8291 26.1331L28.6878 26.6456ZM25.9434 29.7926L26.5594 30.5804L26.5638 30.5769L25.9434 29.7926ZM22.2595 31.7464L21.9474 30.7964L21.9454 30.7971L22.2595 31.7464ZM10.969 30.5085L10.4375 31.3556L10.4375 31.3556L10.969 30.5085ZM6.18137 25.0795L7.07732 24.6354L7.07732 24.6354L6.18137 25.0795ZM22.2595 1.7081L21.9454 2.65748L21.9474 2.65816L22.2595 1.7081ZM25.9434 3.67685L25.3231 4.46119L25.3275 4.46465L25.9434 3.67685ZM28.6878 6.80895L27.829 7.32141L27.8309 7.32447L28.6878 6.80895ZM30.2091 10H26.5102V12H30.2091V10ZM27.4897 10.7986C27.2475 9.62064 26.818 8.56053 26.1891 7.63427L24.5345 8.75777C24.9993 9.44231 25.3354 10.2515 25.5307 11.2014L27.4897 10.7986ZM26.1938 7.64132C25.5899 6.73549 24.8476 5.96968 23.9693 5.35036L22.8168 6.98487C23.4896 7.4593 24.0597 8.04576 24.5297 8.75072L26.1938 7.64132ZM23.9812 5.35888C23.1211 4.73337 22.1681 4.26617 21.1281 3.95639L20.5571 5.87316C21.3865 6.12019 22.1337 6.48822 22.8049 6.97635L23.9812 5.35888ZM21.1281 3.95639C20.0971 3.64929 19.0263 3.49716 17.9193 3.49716V5.49716C18.8407 5.49716 19.7188 5.62343 20.5571 5.87316L21.1281 3.95639ZM17.9193 3.49716C15.892 3.49716 14.032 4.01219 12.3645 5.0502L13.4215 6.74809C14.7569 5.91679 16.2477 5.49716 17.9193 5.49716V3.49716ZM12.362 5.05178C10.6892 6.1001 9.38346 7.63085 8.4291 9.59318L10.2277 10.4679C11.0432 8.79102 12.1139 7.56752 13.424 6.74651L12.362 5.05178ZM8.42718 9.59717C7.47025 11.5871 7.01589 13.977 7.01589 16.7273H9.01589C9.01589 14.1878 9.43653 12.1131 10.2296 10.4639L8.42718 9.59717ZM7.01589 16.7273C7.01589 19.4776 7.47025 21.8674 8.42718 23.8574L10.2296 22.9906C9.43653 21.3414 9.01589 19.2667 9.01589 16.7273H7.01589ZM8.4291 23.8614C9.38346 25.8237 10.6892 27.3544 12.362 28.4028L13.424 26.708C12.1139 25.887 11.0432 24.6635 10.2277 22.9866L8.4291 23.8614ZM12.3645 28.4043C14.032 29.4424 15.892 29.9574 17.9193 29.9574V27.9574C16.2477 27.9574 14.7569 27.5378 13.4215 26.7065L12.3645 28.4043ZM17.9193 29.9574C19.0263 29.9574 20.0971 29.8053 21.1281 29.4982L20.5571 27.5814C19.7188 27.8311 18.8407 27.9574 17.9193 27.9574V29.9574ZM21.1281 29.4982C22.1647 29.1894 23.1155 28.729 23.9743 28.1156L22.8118 26.4881C22.1393 26.9684 21.3898 27.3334 20.5571 27.5814L21.1281 29.4982ZM23.9762 28.1142C24.8509 27.4862 25.5911 26.7174 26.1938 25.8132L24.5297 24.7038C24.0586 25.4105 23.4862 26.0039 22.8098 26.4895L23.9762 28.1142ZM26.1923 25.8156C26.8177 24.8831 27.2469 23.8259 27.4893 22.6578L25.5311 22.2513C25.336 23.1911 24.9996 24.0033 24.5313 24.7015L26.1923 25.8156ZM26.5102 23.4545H30.2091V21.4545H26.5102V23.4545ZM29.2246 22.279C28.9652 23.7335 28.4968 25.0142 27.8291 26.1331L29.5465 27.1581C30.3503 25.811 30.8961 24.2978 31.1935 22.6301L29.2246 22.279ZM27.8291 26.1331C27.1537 27.2649 26.3187 28.2209 25.3231 29.0083L26.5638 30.5769C27.7557 29.6343 28.7503 28.4922 29.5465 27.1581L27.8291 26.1331ZM25.3275 29.0048C24.3279 29.7863 23.2034 30.3838 21.9474 30.7964L22.5716 32.6965C24.04 32.2142 25.3715 31.5091 26.5594 30.5804L25.3275 29.0048ZM21.9454 30.7971C20.7024 31.2083 19.3625 31.4176 17.9193 31.4176V33.4176C19.5585 33.4176 21.112 33.1794 22.5736 32.6958L21.9454 30.7971ZM17.9193 31.4176C15.485 31.4176 13.3557 30.8255 11.5005 29.6615L10.4375 31.3556C12.6391 32.737 15.1433 33.4176 17.9193 33.4176V31.4176ZM11.5005 29.6615C9.64293 28.4959 8.16664 26.8326 7.07732 24.6354L5.28543 25.5237C6.52281 28.0196 8.23828 29.9757 10.4375 31.3556L11.5005 29.6615ZM7.07732 24.6354C5.99635 22.455 5.43635 19.8296 5.43635 16.7273H3.43635C3.43635 20.0682 4.0397 23.011 5.28543 25.5237L7.07732 24.6354ZM5.43635 16.7273C5.43635 13.625 5.99635 10.9996 7.07732 8.81917L5.28543 7.93083C4.0397 10.4436 3.43635 13.3864 3.43635 16.7273H5.43635ZM7.07732 8.81917C8.16664 6.6219 9.64293 4.95862 11.5005 3.79309L10.4375 2.09896C8.23828 3.47888 6.52281 5.43492 5.28543 7.93083L7.07732 8.81917ZM11.5005 3.79309C13.3557 2.62903 15.485 2.03693 17.9193 2.03693V0.0369307C15.1433 0.0369307 12.6391 0.717557 10.4375 2.09896L11.5005 3.79309ZM17.9193 2.03693C19.3625 2.03693 20.7024 2.2462 21.9454 2.65747L22.5736 0.758717C21.112 0.275102 19.5585 0.0369307 17.9193 0.0369307V2.03693ZM21.9474 2.65816C23.2012 3.06996 24.3242 3.67112 25.3231 4.46118L26.5638 2.89251C25.3752 1.95246 24.0423 1.24112 22.5716 0.758035L21.9474 2.65816ZM25.3275 4.46465C26.3207 5.24115 27.1543 6.19074 27.8291 7.32141L29.5465 6.29649C28.7496 4.96124 27.7537 3.82277 26.5594 2.88904L25.3275 4.46465ZM27.8309 7.32447C28.4966 8.43094 28.9649 9.70987 29.2244 11.1745L31.1937 10.8255C30.8965 9.14808 30.3506 7.63297 29.5446 6.29343L27.8309 7.32447ZM39.2288 32V33H40.2288V32H39.2288ZM35.7089 32H34.7089V33H35.7089V32ZM35.7089 1.45454V0.454545H34.7089V1.45454H35.7089ZM39.2288 1.45454H40.2288V0.454545H39.2288V1.45454ZM39.2288 12.6705H38.2288V13.6705H39.2288V12.6705ZM39.5271 12.6705V13.6705H40.1714L40.4377 13.0837L39.5271 12.6705ZM41.9433 9.85156L42.4872 10.6907L42.4891 10.6895L41.9433 9.85156ZM50.3701 9.73224L49.8991 10.6144L49.905 10.6175L50.3701 9.73224ZM53.0995 12.581L52.2064 13.031L52.2107 13.0393L53.0995 12.581ZM54.0839 32V33H55.0839V32H54.0839ZM50.564 32H49.564V33H50.564V32ZM49.1471 13.4609L48.415 14.1423L48.4221 14.1497L49.1471 13.4609ZM42.1521 12.6854L41.682 11.8027L41.678 11.8049L42.1521 12.6854ZM40.0044 14.8182L39.1332 14.327L39.1293 14.3341L40.0044 14.8182ZM38.2288 18.2188V32H40.2288V18.2188H38.2288ZM39.2288 31H35.7089V33H39.2288V31ZM36.7089 32V1.45454H34.7089V32H36.7089ZM35.7089 2.45454H39.2288V0.454545H35.7089V2.45454ZM38.2288 1.45454V12.6705H40.2288V1.45454H38.2288ZM39.2288 13.6705H39.5271V11.6705H39.2288V13.6705ZM40.4377 13.0837C40.8969 12.0717 41.5763 11.2811 42.4872 10.6907L41.3994 9.01241C40.1625 9.81411 39.2311 10.9027 38.6164 12.2572L40.4377 13.0837ZM42.4891 10.6895C43.3585 10.1231 44.5896 9.79261 46.2686 9.79261V7.79261C44.3481 7.79261 42.6956 8.16807 41.3975 9.01365L42.4891 10.6895ZM46.2686 9.79261C47.6939 9.79261 48.894 10.0778 49.8991 10.6144L50.8411 8.8501C49.4996 8.13388 47.9653 7.79261 46.2686 7.79261V9.79261ZM49.905 10.6175C50.8781 11.1288 51.6457 11.918 52.2065 13.0309L53.9926 12.131C53.2607 10.6786 52.2087 9.56864 50.8352 8.847L49.905 10.6175ZM52.2107 13.0393C52.7717 14.1273 53.0839 15.5772 53.0839 17.4432H55.0839C55.0839 15.3716 54.7398 13.5801 53.9883 12.1227L52.2107 13.0393ZM53.0839 17.4432V32H55.0839V17.4432H53.0839ZM54.0839 31H50.564V33H54.0839V31ZM51.564 32V17.6818H49.564V32H51.564ZM51.564 17.6818C51.564 15.6919 51.0447 14.0065 49.8721 12.7722L48.4221 14.1497C49.1387 14.904 49.564 16.0325 49.564 17.6818H51.564ZM49.8791 12.7797C48.7162 11.5302 47.1295 10.9545 45.2544 10.9545V12.9545C46.7003 12.9545 47.7087 13.3832 48.4151 14.1422L49.8791 12.7797ZM45.2544 10.9545C43.9558 10.9545 42.7572 11.2301 41.682 11.8027L42.6222 13.568C43.3765 13.1662 44.2461 12.9545 45.2544 12.9545V10.9545ZM41.678 11.8049C40.5991 12.3858 39.7488 13.2353 39.1333 14.327L40.8754 15.3093C41.3139 14.5317 41.8954 13.9594 42.6262 13.5658L41.678 11.8049ZM39.1293 14.3341C38.5124 15.4493 38.2288 16.7583 38.2288 18.2188H40.2288C40.2288 17.0144 40.4622 16.0564 40.8794 15.3022L39.1293 14.3341ZM64.3863 31.0007L63.8504 31.845L63.8529 31.8466L64.3863 31.0007ZM60.7471 26.8693L59.8486 27.3084L59.8506 27.3125L60.7471 26.8693ZM60.7471 14.4155L59.8496 13.9743L59.8477 13.9783L60.7471 14.4155ZM64.3863 10.2692L63.8529 9.4233L63.8505 9.42485L64.3863 10.2692ZM75.2591 10.2692L74.7233 11.1135L74.7258 11.115L75.2591 10.2692ZM78.8983 14.4155L77.9989 14.8526L78.0009 14.8567L78.8983 14.4155ZM78.8983 26.8693L78.0019 26.4261L77.9999 26.4302L78.8983 26.8693ZM75.2591 31.0007L74.7258 30.1548L74.7233 30.1564L75.2591 31.0007ZM73.708 28.1072L73.0861 27.3241L73.0861 27.3241L73.708 28.1072ZM75.9601 24.9304L76.8976 25.2784L76.8976 25.2784L75.9601 24.9304ZM75.9601 16.3842L76.8985 16.0385L76.8985 16.0385L75.9601 16.3842ZM73.708 13.1776L74.3346 12.3982L74.3346 12.3982L73.708 13.1776ZM65.9523 13.1776L65.3258 12.3982L65.3258 12.3982L65.9523 13.1776ZM63.7002 16.3842L62.7619 16.0385L62.7619 16.0385L63.7002 16.3842ZM63.7002 24.9304L62.7627 25.2784L62.7627 25.2784L63.7002 24.9304ZM65.9523 28.1072L66.5742 27.3241L66.5742 27.3241L65.9523 28.1072ZM69.8302 31.4773C67.9273 31.4773 66.3023 31.0267 64.9197 30.1548L63.8529 31.8466C65.5924 32.9435 67.5967 33.4773 69.8302 33.4773V31.4773ZM64.9221 30.1564C63.5372 29.2775 62.4436 28.0445 61.6435 26.4261L59.8506 27.3125C60.8005 29.2339 62.1331 30.7552 63.8505 31.845L64.9221 30.1564ZM61.6455 26.4302C60.8594 24.8219 60.4495 22.9093 60.4495 20.6648H58.4495C58.4495 23.1532 58.9046 25.377 59.8486 27.3084L61.6455 26.4302ZM60.4495 20.6648C60.4495 18.3991 60.8599 16.471 61.6465 14.8526L59.8477 13.9783C58.9042 15.9196 58.4495 18.1577 58.4495 20.6648H60.4495ZM61.6445 14.8567C62.445 13.2283 63.5386 11.9915 64.9221 11.1135L63.8505 9.42485C62.1317 10.5156 60.7991 12.043 59.8497 13.9743L61.6445 14.8567ZM64.9197 11.115C66.3023 10.2432 67.9273 9.79261 69.8302 9.79261V7.79261C67.5967 7.79261 65.5924 8.32641 63.8529 9.4233L64.9197 11.115ZM69.8302 9.79261C71.7332 9.79261 73.352 10.2432 74.7233 11.1135L75.795 9.42485C74.0641 8.32639 72.0635 7.79261 69.8302 7.79261V9.79261ZM74.7258 11.115C76.1176 11.9927 77.2093 13.2279 77.999 14.8526L79.7977 13.9783C78.8573 12.0434 77.5228 10.5144 75.7925 9.4233L74.7258 11.115ZM78.0009 14.8567C78.7961 16.4741 79.2108 18.4007 79.2108 20.6648H81.2108C81.2108 18.1561 80.7506 15.9165 79.7958 13.9743L78.0009 14.8567ZM79.2108 20.6648C79.2108 22.9077 78.7966 24.8188 78.0019 26.4261L79.7948 27.3125C80.7501 25.3801 81.2108 23.1548 81.2108 20.6648H79.2108ZM77.9999 26.4302C77.2107 28.045 76.1191 29.2763 74.7258 30.1548L75.7925 31.8466C77.5214 30.7564 78.8559 29.2334 79.7968 27.3084L77.9999 26.4302ZM74.7233 30.1564C73.352 31.0267 71.7332 31.4773 69.8302 31.4773V33.4773C72.0635 33.4773 74.0641 32.9435 75.795 31.845L74.7233 30.1564ZM69.8302 30.3153C71.5774 30.3153 73.1035 29.8642 74.3299 28.8904L73.0861 27.3241C72.2841 27.961 71.225 28.3153 69.8302 28.3153V30.3153ZM74.3299 28.8904C75.4986 27.9623 76.3522 26.7477 76.8976 25.2784L75.0226 24.5824C74.5936 25.7381 73.9458 26.6414 73.0861 27.3241L74.3299 28.8904ZM76.8976 25.2784C77.4299 23.8446 77.691 22.3037 77.691 20.6648H75.691C75.691 22.0884 75.4648 23.3912 75.0226 24.5824L76.8976 25.2784ZM77.691 20.6648C77.691 19.0258 77.4299 17.4809 76.8985 16.0385L75.0218 16.7299C75.4648 17.9325 75.691 19.2413 75.691 20.6648H77.691ZM76.8985 16.0385C76.354 14.5606 75.5018 13.3365 74.3346 12.3982L73.0815 13.9569C73.9427 14.6493 74.5919 15.563 75.0218 16.7299L76.8985 16.0385ZM74.3346 12.3982C73.108 11.4122 71.5802 10.9545 69.8302 10.9545V12.9545C71.2222 12.9545 72.2796 13.3123 73.0815 13.9569L74.3346 12.3982ZM69.8302 10.9545C68.0802 10.9545 66.5523 11.4122 65.3258 12.3982L66.5789 13.9569C67.3808 13.3123 68.4381 12.9545 69.8302 12.9545V10.9545ZM65.3258 12.3982C64.1586 13.3365 63.3064 14.5606 62.7619 16.0385L64.6385 16.7299C65.0685 15.563 65.7177 14.6493 66.5789 13.9569L65.3258 12.3982ZM62.7619 16.0385C62.2305 17.4809 61.9694 19.0258 61.9694 20.6648H63.9694C63.9694 19.2413 64.1955 17.9325 64.6385 16.7299L62.7619 16.0385ZM61.9694 20.6648C61.9694 22.3037 62.2304 23.8446 62.7627 25.2784L64.6377 24.5824C64.1955 23.3912 63.9694 22.0884 63.9694 20.6648H61.9694ZM62.7627 25.2784C63.3081 26.7477 64.1618 27.9623 65.3304 28.8904L66.5742 27.3241C65.7145 26.6414 65.0667 25.7381 64.6377 24.5824L62.7627 25.2784ZM65.3304 28.8904C66.5568 29.8642 68.083 30.3153 69.8302 30.3153V28.3153C68.4353 28.3153 67.3762 27.961 66.5742 27.3241L65.3304 28.8904ZM89.4468 31.0007L88.911 31.845L88.9134 31.8466L89.4468 31.0007ZM85.8076 26.8693L84.9092 27.3084L84.9112 27.3125L85.8076 26.8693ZM85.8076 14.4155L84.9102 13.9743L84.9082 13.9783L85.8076 14.4155ZM89.4468 10.2692L88.9134 9.4233L88.911 9.42485L89.4468 10.2692ZM100.32 10.2692L99.7839 11.1135L99.7863 11.115L100.32 10.2692ZM103.959 14.4155L103.059 14.8526L103.061 14.8567L103.959 14.4155ZM103.959 26.8693L103.062 26.4261L103.06 26.4302L103.959 26.8693ZM100.32 31.0007L99.7863 30.1548L99.7839 30.1564L100.32 31.0007ZM98.7686 28.1072L98.1467 27.3241L98.1467 27.3241L98.7686 28.1072ZM101.021 24.9304L101.958 25.2784L101.958 25.2784L101.021 24.9304ZM101.021 16.3842L101.959 16.0385L101.959 16.0385L101.021 16.3842ZM98.7686 13.1776L99.3951 12.3982L99.3951 12.3982L98.7686 13.1776ZM91.0129 13.1776L90.3863 12.3982L90.3863 12.3982L91.0129 13.1776ZM88.7607 16.3842L87.8224 16.0385L87.8224 16.0385L88.7607 16.3842ZM88.7607 24.9304L87.8233 25.2784L87.8233 25.2784L88.7607 24.9304ZM91.0129 28.1072L91.6348 27.3241L91.6348 27.3241L91.0129 28.1072ZM94.8907 31.4773C92.9878 31.4773 91.3629 31.0267 89.9802 30.1548L88.9134 31.8466C90.6529 32.9435 92.6572 33.4773 94.8907 33.4773V31.4773ZM89.9826 30.1564C88.5978 29.2775 87.5042 28.0445 86.704 26.4261L84.9112 27.3125C85.8611 29.2339 87.1936 30.7552 88.911 31.845L89.9826 30.1564ZM86.706 26.4302C85.9199 24.8219 85.51 22.9093 85.51 20.6648H83.51C83.51 23.1532 83.9652 25.377 84.9092 27.3084L86.706 26.4302ZM85.51 20.6648C85.51 18.3991 85.9204 16.471 86.707 14.8526L84.9082 13.9783C83.9647 15.9196 83.51 18.1577 83.51 20.6648H85.51ZM86.705 14.8567C87.5056 13.2283 88.5992 11.9915 89.9826 11.1135L88.911 9.42485C87.1922 10.5156 85.8597 12.043 84.9102 13.9743L86.705 14.8567ZM89.9802 11.115C91.3629 10.2432 92.9878 9.79261 94.8907 9.79261V7.79261C92.6572 7.79261 90.6529 8.32641 88.9134 9.4233L89.9802 11.115ZM94.8907 9.79261C96.7937 9.79261 98.4125 10.2432 99.7839 11.1135L100.856 9.42485C99.1246 8.32639 97.1241 7.79261 94.8907 7.79261V9.79261ZM99.7863 11.115C101.178 11.9927 102.27 13.2279 103.06 14.8526L104.858 13.9783C103.918 12.0434 102.583 10.5144 100.853 9.4233L99.7863 11.115ZM103.061 14.8567C103.857 16.4741 104.271 18.4007 104.271 20.6648H106.271C106.271 18.1561 105.811 15.9165 104.856 13.9743L103.061 14.8567ZM104.271 20.6648C104.271 22.9077 103.857 24.8188 103.062 26.4261L104.855 27.3125C105.811 25.3801 106.271 23.1548 106.271 20.6648H104.271ZM103.06 26.4302C102.271 28.045 101.18 29.2763 99.7863 30.1548L100.853 31.8466C102.582 30.7564 103.916 29.2334 104.857 27.3084L103.06 26.4302ZM99.7839 30.1564C98.4125 31.0267 96.7937 31.4773 94.8907 31.4773V33.4773C97.1241 33.4773 99.1246 32.9435 100.856 31.845L99.7839 30.1564ZM94.8907 30.3153C96.6379 30.3153 98.1641 29.8642 99.3904 28.8904L98.1467 27.3241C97.3446 27.961 96.2856 28.3153 94.8907 28.3153V30.3153ZM99.3904 28.8904C100.559 27.9623 101.413 26.7477 101.958 25.2784L100.083 24.5824C99.6542 25.7381 99.0064 26.6414 98.1467 27.3241L99.3904 28.8904ZM101.958 25.2784C102.49 23.8446 102.752 22.3037 102.752 20.6648H100.752C100.752 22.0884 100.525 23.3912 100.083 24.5824L101.958 25.2784ZM102.752 20.6648C102.752 19.0258 102.49 17.4809 101.959 16.0385L100.082 16.7299C100.525 17.9325 100.752 19.2413 100.752 20.6648H102.752ZM101.959 16.0385C101.415 14.5606 100.562 13.3365 99.3951 12.3982L98.142 13.9569C99.0032 14.6493 99.6524 15.563 100.082 16.7299L101.959 16.0385ZM99.3951 12.3982C98.1686 11.4122 96.6407 10.9545 94.8907 10.9545V12.9545C96.2828 12.9545 97.3401 13.3123 98.142 13.9569L99.3951 12.3982ZM94.8907 10.9545C93.1407 10.9545 91.6128 11.4122 90.3863 12.3982L91.6394 13.9569C92.4413 13.3123 93.4987 12.9545 94.8907 12.9545V10.9545ZM90.3863 12.3982C89.2191 13.3365 88.3669 14.5606 87.8224 16.0385L89.6991 16.7299C90.129 15.563 90.7782 14.6493 91.6394 13.9569L90.3863 12.3982ZM87.8224 16.0385C87.291 17.4809 87.0299 19.0258 87.0299 20.6648H89.0299C89.0299 19.2413 89.256 17.9325 89.6991 16.7299L87.8224 16.0385ZM87.0299 20.6648C87.0299 22.3037 87.291 23.8446 87.8233 25.2784L89.6982 24.5824C89.2561 23.3912 89.0299 22.0884 89.0299 20.6648H87.0299ZM87.8233 25.2784C88.3687 26.7477 89.2223 27.9623 90.391 28.8904L91.6348 27.3241C90.775 26.6414 90.1273 25.7381 89.6982 24.5824L87.8233 25.2784ZM90.391 28.8904C91.6174 29.8642 93.1435 30.3153 94.8907 30.3153V28.3153C93.4959 28.3153 92.4368 27.961 91.6348 27.3241L90.391 28.8904ZM126.872 14.2216L127.144 15.1838L128.153 14.8981L127.82 13.9036L126.872 14.2216ZM123.71 15.1165L122.774 15.4695L123.098 16.3288L123.982 16.0787L123.71 15.1165ZM122.83 13.5803L122.028 14.1777L122.035 14.1866L122.041 14.1953L122.83 13.5803ZM121.279 12.3274L121.726 11.433L121.726 11.433L121.279 12.3274ZM115.253 12.8047L115.82 13.6285L115.822 13.6272L115.253 12.8047ZM114.821 17.3089L114.197 18.091L114.197 18.091L114.821 17.3089ZM117.804 18.5767L117.561 19.5469L117.565 19.5478L117.804 18.5767ZM121.204 19.4119L120.966 20.3831L120.968 20.3837L121.204 19.4119ZM125.783 21.6939L125.069 22.394L125.072 22.3975L125.783 21.6939ZM126.156 29.1364L125.348 28.5463L125.345 28.5514L126.156 29.1364ZM112.539 30.956L113.091 30.1223L113.091 30.1223L112.539 30.956ZM109.63 26.5114L109.388 25.5412L108.454 25.7745L108.651 26.7161L109.63 26.5114ZM112.971 25.6761L113.939 25.4263L113.691 24.4653L112.729 24.706L112.971 25.6761ZM114.776 28.4503L114.204 29.2708L114.209 29.2738L114.776 28.4503ZM122.188 28.331L122.774 29.1419L122.775 29.1408L122.188 28.331ZM122.815 23.7969L122.114 24.5104L122.121 24.5167L122.815 23.7969ZM120.25 22.5739L120.021 23.5475L120.023 23.5478L120.25 22.5739ZM116.431 21.679L116.201 22.652L116.203 22.6526L116.431 21.679ZM111.808 19.3672L111.073 20.0461L111.08 20.0532L111.808 19.3672ZM111.435 11.9844L110.631 11.3895L110.627 11.3948L111.435 11.9844ZM114.433 9.64275L114.026 8.72923L114.023 8.73043L114.433 9.64275ZM124.098 10.2841L123.488 11.0767L123.491 11.079L124.098 10.2841ZM126.599 13.2594L123.437 14.1543L123.982 16.0787L127.144 15.1838L126.599 13.2594ZM124.645 14.7634C124.407 14.1317 124.061 13.5324 123.618 12.9652L122.041 14.1953C122.374 14.6224 122.615 15.0473 122.774 15.4695L124.645 14.7634ZM123.632 12.9828C123.147 12.3317 122.5 11.8198 121.726 11.433L120.831 13.2218C121.37 13.4913 121.757 13.8146 122.028 14.1777L123.632 12.9828ZM121.726 11.433C120.887 11.0135 119.88 10.8352 118.758 10.8352V12.8352C119.685 12.8352 120.358 12.9851 120.831 13.2218L121.726 11.433ZM118.758 10.8352C117.201 10.8352 115.822 11.1957 114.684 11.9822L115.822 13.6272C116.554 13.121 117.511 12.8352 118.758 12.8352V10.8352ZM114.686 11.9809C113.535 12.7735 112.866 13.8721 112.866 15.2358H114.866C114.866 14.6308 115.122 14.1086 115.82 13.6285L114.686 11.9809ZM112.866 15.2358C112.866 16.3889 113.303 17.3783 114.197 18.091L115.444 16.5269C115.065 16.2254 114.866 15.8327 114.866 15.2358H112.866ZM114.197 18.091C114.999 18.7294 116.155 19.1954 117.561 19.5468L118.046 17.6066C116.747 17.2819 115.915 16.9027 115.444 16.5269L114.197 18.091ZM117.565 19.5478L120.966 20.3831L121.443 18.4408L118.042 17.6056L117.565 19.5478ZM120.968 20.3837C122.915 20.8562 124.243 21.552 125.069 22.394L126.497 20.9938C125.314 19.7875 123.59 18.9619 121.44 18.4401L120.968 20.3837ZM125.072 22.3975C125.868 23.201 126.289 24.2442 126.289 25.6165H128.289C128.289 23.7871 127.706 22.2152 126.494 20.9903L125.072 22.3975ZM126.289 25.6165C126.289 26.7225 125.976 27.688 125.348 28.5463L126.963 29.7264C127.847 28.5165 128.289 27.1355 128.289 25.6165H126.289ZM125.345 28.5514C124.717 29.4214 123.823 30.1328 122.618 30.6686L123.43 32.4962C124.909 31.8388 126.103 30.9195 126.967 29.7213L125.345 28.5514ZM122.618 30.6686C121.427 31.1976 120.009 31.4773 118.34 31.4773V33.4773C120.231 33.4773 121.936 33.1603 123.43 32.4962L122.618 30.6686ZM118.34 31.4773C116.147 31.4773 114.419 31.0019 113.091 30.1223L111.986 31.7897C113.721 32.9384 115.861 33.4773 118.34 33.4773V31.4773ZM113.091 30.1223C111.799 29.2663 110.968 28.0217 110.609 26.3066L108.651 26.7161C109.108 28.8988 110.216 30.6172 111.986 31.7897L113.091 30.1223ZM109.873 27.4815L113.214 26.6463L112.729 24.706L109.388 25.5412L109.873 27.4815ZM112.003 25.926C112.369 27.3465 113.089 28.4938 114.204 29.2708L115.347 27.6298C114.693 27.1739 114.209 26.4717 113.939 25.4263L112.003 25.926ZM114.209 29.2738C115.317 30.0374 116.702 30.375 118.281 30.375V28.375C116.976 28.375 116.025 28.0962 115.343 27.6268L114.209 29.2738ZM118.281 30.375C120.054 30.375 121.585 29.9997 122.774 29.1419L121.603 27.5201C120.863 28.0543 119.789 28.375 118.281 28.375V30.375ZM122.775 29.1408C123.944 28.2938 124.65 27.1729 124.65 25.7955H122.65C122.65 26.3867 122.382 26.9562 121.602 27.5212L122.775 29.1408ZM124.65 25.7955C124.65 24.7371 124.267 23.8084 123.509 23.077L122.121 24.5167C122.476 24.8592 122.65 25.2629 122.65 25.7955H124.65ZM123.516 23.0834C122.777 22.3576 121.723 21.8901 120.476 21.5999L120.023 23.5478C121.083 23.7946 121.74 24.1424 122.114 24.5103L123.516 23.0834ZM120.478 21.6002L116.66 20.7054L116.203 22.6526L120.021 23.5475L120.478 21.6002ZM116.662 20.7059C114.665 20.2326 113.334 19.5283 112.535 18.6812L111.08 20.0532C112.25 21.2941 114.002 22.131 116.201 22.652L116.662 20.7059ZM112.542 18.6883C111.756 17.8385 111.346 16.7718 111.346 15.4148H109.346C109.346 17.2197 109.91 18.7879 111.074 20.046L112.542 18.6883ZM111.346 15.4148C111.346 14.3228 111.648 13.3882 112.243 12.574L110.627 11.3948C109.77 12.5692 109.346 13.9215 109.346 15.4148H111.346ZM112.239 12.5792C112.861 11.7386 113.717 11.0601 114.842 10.5551L114.023 8.73043C112.623 9.35891 111.481 10.2415 110.631 11.3895L112.239 12.5792ZM114.84 10.5563C115.966 10.0548 117.266 9.79261 118.758 9.79261V7.79261C117.029 7.79261 115.445 8.09723 114.026 8.72924L114.84 10.5563ZM118.758 9.79261C120.889 9.79261 122.427 10.2606 123.488 11.0767L124.707 9.49146C123.183 8.31896 121.161 7.79261 118.758 7.79261V9.79261ZM123.491 11.079C124.626 11.9458 125.437 13.0885 125.924 14.5396L127.82 13.9036C127.213 12.0934 126.174 10.611 124.704 9.48922L123.491 11.079ZM136.481 31.0156L135.954 31.866L135.961 31.8698L136.481 31.0156ZM132.797 26.8991L131.896 27.3342L131.899 27.3403L132.797 26.8991ZM132.797 14.5199L131.895 14.0867L131.894 14.0888L132.797 14.5199ZM136.406 10.3139L136.952 11.1517L136.953 11.1509L136.406 10.3139ZM145.37 9.3892L145.693 8.44297L145.693 8.44297L145.37 9.3892ZM148.547 11.3281L147.863 12.0577L147.867 12.0615L148.547 11.3281ZM150.829 14.848L151.761 14.4865L151.761 14.4865L150.829 14.848ZM151.679 21.7386V22.7386H152.679V21.7386H151.679ZM134.02 21.7386H133.02V22.7386H134.02V21.7386ZM134.02 18.696V17.696H133.02V18.696H134.02ZM148.099 18.696V19.696H149.099V18.696H148.099ZM147.324 15.2358L146.429 15.683L146.433 15.69L147.324 15.2358ZM145.146 12.8345L144.614 13.6815L144.618 13.684L145.146 12.8345ZM138.196 12.9986L138.756 13.8269L138.758 13.8257L138.196 12.9986ZM135.854 15.6832L134.958 15.2393L134.958 15.2393L135.854 15.6832ZM135.929 25.6612L135.033 26.1055L135.037 26.1144L135.929 25.6612ZM138.449 28.3906L137.945 29.2544L137.951 29.2579L138.449 28.3906ZM144.699 28.9276L145.026 29.8724L145.033 29.8699L144.699 28.9276ZM146.652 27.7344L147.346 28.4545L147.353 28.4479L146.652 27.7344ZM147.92 25.7358L148.19 24.773L147.306 24.5248L146.984 25.3847L147.92 25.7358ZM151.321 26.6903L152.276 26.9867L152.58 26.0053L151.591 25.7276L151.321 26.6903ZM149.516 29.733L150.231 30.4318L150.235 30.4277L149.516 29.733ZM146.384 31.7614L146.742 32.6949L146.749 32.6924L146.384 31.7614ZM142.193 31.4773C140.136 31.4773 138.419 31.0247 137.001 30.1614L135.961 31.8698C137.744 32.9554 139.835 33.4773 142.193 33.4773V31.4773ZM137.007 30.1652C135.583 29.2846 134.48 28.0579 133.694 26.458L131.899 27.3403C132.843 29.2603 134.196 30.7779 135.954 31.866L137.007 30.1652ZM133.697 26.4641C132.919 24.8537 132.514 22.9492 132.514 20.7244H130.514C130.514 23.1928 130.964 25.4048 131.896 27.3342L133.697 26.4641ZM132.514 20.7244C132.514 18.5 132.919 16.5837 133.699 14.951L131.894 14.0888C130.964 16.0356 130.514 18.2557 130.514 20.7244H132.514ZM133.698 14.9531C134.491 13.3036 135.577 12.0477 136.952 11.1517L135.86 9.47609C134.153 10.5887 132.833 12.1367 131.895 14.0867L133.698 14.9531ZM136.953 11.1509C138.323 10.2552 139.938 9.79261 141.835 9.79261V7.79261C139.596 7.79261 137.591 8.34428 135.859 9.47695L136.953 11.1509ZM141.835 9.79261C142.915 9.79261 143.984 9.97221 145.046 10.3354L145.693 8.44297C144.429 8.01074 143.142 7.79261 141.835 7.79261V9.79261ZM145.046 10.3354C146.067 10.6844 147.005 11.2534 147.863 12.0577L149.231 10.5986C148.179 9.61308 146.999 8.88947 145.693 8.44297L145.046 10.3354ZM147.867 12.0615C148.69 12.8243 149.373 13.8608 149.896 15.2095L151.761 14.4865C151.15 12.9119 150.313 11.6019 149.226 10.5948L147.867 12.0615ZM149.896 15.2095C150.405 16.5223 150.679 18.191 150.679 20.2472H152.679C152.679 18.0278 152.385 16.097 151.761 14.4865L149.896 15.2095ZM150.679 20.2472V21.7386H152.679V20.2472H150.679ZM151.679 20.7386H134.02V22.7386H151.679V20.7386ZM135.02 21.7386V18.696H133.02V21.7386H135.02ZM134.02 19.696H148.099V17.696H134.02V19.696ZM149.099 18.696C149.099 17.2671 148.812 15.9545 148.215 14.7816L146.433 15.69C146.869 16.5455 147.099 17.5397 147.099 18.696H149.099ZM148.218 14.7886C147.63 13.6124 146.779 12.6713 145.674 11.985L144.618 13.684C145.403 14.1711 146.003 14.8308 146.429 15.683L148.218 14.7886ZM145.678 11.9875C144.56 11.2863 143.266 10.9545 141.835 10.9545V12.9545C142.949 12.9545 143.862 13.2094 144.614 13.6815L145.678 11.9875ZM141.835 10.9545C140.26 10.9545 138.845 11.3483 137.634 12.1715L138.758 13.8257C139.595 13.2568 140.606 12.9545 141.835 12.9545V10.9545ZM137.635 12.1703C136.477 12.9539 135.581 13.9816 134.958 15.2393L136.75 16.1272C137.221 15.1775 137.886 14.4154 138.756 13.8269L137.635 12.1703ZM134.958 15.2393C134.341 16.4845 134.034 17.8202 134.034 19.233H136.034C136.034 18.1202 136.273 17.0893 136.75 16.1272L134.958 15.2393ZM134.034 19.233V21.2614H136.034V19.233H134.034ZM134.034 21.2614C134.034 23.1026 134.351 24.7303 135.033 26.1055L136.825 25.217C136.313 24.1859 136.034 22.8803 136.034 21.2614H134.034ZM135.037 26.1144C135.724 27.4651 136.693 28.5237 137.945 29.2544L138.953 27.5268C138.058 27.0047 137.347 26.2437 136.82 25.2081L135.037 26.1144ZM137.951 29.2579C139.198 29.9735 140.623 30.3153 142.193 30.3153V28.3153C140.919 28.3153 139.848 28.0407 138.947 27.5234L137.951 29.2579ZM142.193 30.3153C143.21 30.3153 144.159 30.1731 145.026 29.8724L144.371 27.9827C143.747 28.1991 143.025 28.3153 142.193 28.3153V30.3153ZM145.033 29.8699C145.916 29.5564 146.691 29.0857 147.346 28.4545L145.959 27.0143C145.52 27.437 144.993 27.7617 144.364 27.9853L145.033 29.8699ZM147.353 28.4479C148.015 27.7982 148.513 27.004 148.857 26.0869L146.984 25.3847C146.731 26.0585 146.384 26.5967 145.952 27.0208L147.353 28.4479ZM147.65 26.6986L151.051 27.6531L151.591 25.7276L148.19 24.773L147.65 26.6986ZM150.366 26.3939C150.054 27.3968 149.534 28.2749 148.797 29.0382L150.235 30.4277C151.188 29.441 151.871 28.2907 152.276 26.9867L150.366 26.3939ZM148.801 29.0341C148.064 29.7877 147.144 30.3894 146.019 30.8303L146.749 32.6924C148.11 32.1589 149.277 31.4083 150.231 30.4318L148.801 29.0341ZM146.025 30.8278C144.914 31.2546 143.641 31.4773 142.193 31.4773V33.4773C143.847 33.4773 145.368 33.2227 146.742 32.6949L146.025 30.8278ZM169.323 32H168.323V33H169.323V32ZM169.323 1.45454V0.454545H168.323V1.45454H169.323ZM187.638 1.45454H188.638V0.454545H187.638V1.45454ZM187.638 4.73579V5.73579H188.638V4.73579H187.638ZM173.022 4.73579V3.73579H172.022V4.73579H173.022ZM173.022 15.0568H172.022V16.0568H173.022V15.0568ZM186.266 15.0568H187.266V14.0568H186.266V15.0568ZM186.266 18.3381V19.3381H187.266V18.3381H186.266ZM173.022 18.3381V17.3381H172.022V18.3381H173.022ZM173.022 32V33H174.022V32H173.022ZM170.323 32V1.45454H168.323V32H170.323ZM169.323 2.45454H187.638V0.454545H169.323V2.45454ZM186.638 1.45454V4.73579H188.638V1.45454H186.638ZM187.638 3.73579H173.022V5.73579H187.638V3.73579ZM172.022 4.73579V15.0568H174.022V4.73579H172.022ZM173.022 16.0568H186.266V14.0568H173.022V16.0568ZM185.266 15.0568V18.3381H187.266V15.0568H185.266ZM186.266 17.3381H173.022V19.3381H186.266V17.3381ZM172.022 18.3381V32H174.022V18.3381H172.022ZM173.022 31H169.323V33H173.022V31ZM193.496 32H192.496V33H193.496V32ZM193.496 9.09091V8.09091H192.496V9.09091H193.496ZM197.016 9.09091H198.016V8.09091H197.016V9.09091ZM197.016 32V33H198.016V32H197.016ZM193.511 4.57173L192.819 5.29345L192.826 5.30036L193.511 4.57173ZM193.511 1.20099L192.826 0.472328L192.819 0.479312L193.511 1.20099ZM197.046 1.20099L196.353 1.92271L196.361 1.92962L197.046 1.20099ZM197.046 4.57173L196.361 3.84307L196.353 3.85005L197.046 4.57173ZM194.496 32V9.09091H192.496V32H194.496ZM193.496 10.0909H197.016V8.09091H193.496V10.0909ZM196.016 9.09091V32H198.016V9.09091H196.016ZM197.016 31H193.496V33H197.016V31ZM195.286 4.27273C194.853 4.27273 194.506 4.13505 194.196 3.84311L192.826 5.30036C193.51 5.94308 194.347 6.27273 195.286 6.27273V4.27273ZM194.203 3.85005C193.906 3.56521 193.78 3.26148 193.78 2.88636H191.78C191.78 3.82375 192.141 4.6436 192.819 5.29341L194.203 3.85005ZM193.78 2.88636C193.78 2.51125 193.906 2.20752 194.203 1.92267L192.819 0.479312C192.141 1.12913 191.78 1.94898 191.78 2.88636H193.78ZM194.196 1.92962C194.506 1.63768 194.853 1.5 195.286 1.5V-0.5C194.347 -0.5 193.51 -0.170353 192.826 0.472365L194.196 1.92962ZM195.286 1.5C195.719 1.5 196.056 1.63715 196.353 1.92268L197.738 0.479311C197.061 -0.169825 196.225 -0.5 195.286 -0.5V1.5ZM196.361 1.92962C196.666 2.21641 196.791 2.51818 196.791 2.88636H198.791C198.791 1.94205 198.42 1.12023 197.731 0.472366L196.361 1.92962ZM196.791 2.88636C196.791 3.25455 196.666 3.55631 196.361 3.8431L197.731 5.30036C198.42 4.65249 198.791 3.83068 198.791 2.88636H196.791ZM196.353 3.85005C196.056 4.13557 195.719 4.27273 195.286 4.27273V6.27273C196.225 6.27273 197.061 5.94255 197.738 5.29341L196.353 3.85005ZM203.463 32H202.463V33H203.463V32ZM203.463 9.09091V8.09091H202.463V9.09091H203.463ZM206.863 9.09091H207.863V8.09091H206.863V9.09091ZM206.863 12.5511H205.863V13.5511H206.863V12.5511ZM207.102 12.5511V13.5511H207.799L208.04 12.8968L207.102 12.5511ZM209.369 9.7919L208.827 8.95172L208.827 8.95172L209.369 9.7919ZM214.917 8.79261H215.917V7.88763L215.017 7.79758L214.917 8.79261ZM214.917 12.3722L214.675 13.3423L215.917 13.6529V12.3722H214.917ZM214.097 12.2379L213.933 13.2243L213.946 13.2265L213.959 13.2283L214.097 12.2379ZM209.787 12.8345L210.254 13.7186L210.258 13.7166L209.787 12.8345ZM207.728 14.7436L206.879 14.2155L206.877 14.2183L207.728 14.7436ZM206.983 32V33H207.983V32H206.983ZM204.463 32V9.09091H202.463V32H204.463ZM203.463 10.0909H206.863V8.09091H203.463V10.0909ZM205.863 9.09091V12.5511H207.863V9.09091H205.863ZM206.863 13.5511H207.102V11.5511H206.863V13.5511ZM208.04 12.8968C208.377 11.9829 208.985 11.2302 209.911 10.6321L208.827 8.95172C207.566 9.76554 206.662 10.8524 206.164 12.2054L208.04 12.8968ZM209.911 10.6321C210.835 10.0362 211.877 9.73295 213.068 9.73295V7.73295C211.514 7.73295 210.091 8.13566 208.827 8.95172L209.911 10.6321ZM213.068 9.73295C213.315 9.73295 213.629 9.73772 214.012 9.74754L214.063 7.7482C213.67 7.73813 213.338 7.73295 213.068 7.73295V9.73295ZM214.012 9.74754C214.393 9.75732 214.657 9.77154 214.818 9.78765L215.017 7.79758C214.78 7.77391 214.457 7.7583 214.063 7.7482L214.012 9.74754ZM213.917 8.79261V12.3722H215.917V8.79261H213.917ZM215.16 11.402C214.978 11.3567 214.648 11.3051 214.235 11.2475L213.959 13.2283C214.169 13.2576 214.335 13.2825 214.461 13.3031C214.524 13.3134 214.574 13.3222 214.612 13.3294C214.631 13.333 214.646 13.336 214.657 13.3384C214.663 13.3396 214.667 13.3405 214.67 13.3412C214.672 13.3416 214.673 13.3418 214.674 13.342C214.674 13.3422 214.675 13.3423 214.675 13.3423L215.16 11.402ZM214.261 11.2515C213.784 11.172 213.286 11.1335 212.77 11.1335V13.1335C213.187 13.1335 213.575 13.1646 213.933 13.2243L214.261 11.2515ZM212.77 11.1335C211.512 11.1335 210.353 11.3986 209.316 11.9524L210.258 13.7166C210.971 13.3358 211.8 13.1335 212.77 13.1335V11.1335ZM209.319 11.9505C208.301 12.489 207.482 13.2468 206.879 14.2155L208.578 15.2717C208.989 14.6097 209.542 14.0948 210.254 13.7186L209.319 11.9505ZM206.877 14.2183C206.274 15.1961 205.983 16.301 205.983 17.5028H207.983C207.983 16.6365 208.189 15.9019 208.579 15.2689L206.877 14.2183ZM205.983 17.5028V32H207.983V17.5028H205.983ZM206.983 31H203.463V33H206.983V31ZM235.317 14.2216L235.589 15.1838L236.599 14.8981L236.265 13.9036L235.317 14.2216ZM232.155 15.1165L231.219 15.4695L231.544 16.3288L232.427 16.0787L232.155 15.1165ZM231.275 13.5803L230.473 14.1777L230.48 14.1866L230.487 14.1953L231.275 13.5803ZM229.724 12.3274L230.171 11.433L230.171 11.433L229.724 12.3274ZM223.698 12.8047L224.265 13.6285L224.267 13.6272L223.698 12.8047ZM223.266 17.3089L222.643 18.091L222.643 18.091L223.266 17.3089ZM226.249 18.5767L226.006 19.5469L226.01 19.5478L226.249 18.5767ZM229.649 19.4119L229.411 20.3831L229.414 20.3837L229.649 19.4119ZM234.228 21.6939L233.514 22.394L233.518 22.3975L234.228 21.6939ZM234.601 29.1364L233.794 28.5463L233.79 28.5514L234.601 29.1364ZM220.984 30.956L221.536 30.1223L221.536 30.1223L220.984 30.956ZM218.076 26.5114L217.833 25.5412L216.9 25.7745L217.097 26.7161L218.076 26.5114ZM221.416 25.6761L222.385 25.4263L222.137 24.4653L221.174 24.706L221.416 25.6761ZM223.221 28.4503L222.65 29.2708L222.654 29.2738L223.221 28.4503ZM230.634 28.331L231.219 29.1419L231.22 29.1408L230.634 28.331ZM231.26 23.7969L230.559 24.5104L230.566 24.5167L231.26 23.7969ZM228.695 22.5739L228.467 23.5475L228.468 23.5478L228.695 22.5739ZM224.877 21.679L224.646 22.652L224.648 22.6526L224.877 21.679ZM220.253 19.3672L219.519 20.0461L219.526 20.0532L220.253 19.3672ZM219.88 11.9844L219.076 11.3895L219.073 11.3948L219.88 11.9844ZM222.878 9.64275L222.471 8.72923L222.469 8.73043L222.878 9.64275ZM232.543 10.2841L231.933 11.0767L231.936 11.079L232.543 10.2841ZM235.045 13.2594L231.883 14.1543L232.427 16.0787L235.589 15.1838L235.045 13.2594ZM233.091 14.7634C232.852 14.1317 232.506 13.5324 232.064 12.9652L230.487 14.1953C230.82 14.6224 231.06 15.0473 231.219 15.4695L233.091 14.7634ZM232.077 12.9828C231.592 12.3317 230.945 11.8198 230.171 11.433L229.277 13.2218C229.816 13.4913 230.203 13.8146 230.473 14.1777L232.077 12.9828ZM230.171 11.433C229.332 11.0135 228.325 10.8352 227.203 10.8352V12.8352C228.13 12.8352 228.803 12.9851 229.277 13.2218L230.171 11.433ZM227.203 10.8352C225.646 10.8352 224.267 11.1957 223.13 11.9822L224.267 13.6272C224.999 13.121 225.957 12.8352 227.203 12.8352V10.8352ZM223.132 11.9809C221.98 12.7735 221.311 13.8721 221.311 15.2358H223.311C223.311 14.6308 223.568 14.1086 224.265 13.6285L223.132 11.9809ZM221.311 15.2358C221.311 16.3889 221.748 17.3783 222.643 18.091L223.889 16.5269C223.511 16.2254 223.311 15.8327 223.311 15.2358H221.311ZM222.643 18.091C223.444 18.7294 224.601 19.1954 226.006 19.5468L226.491 17.6066C225.193 17.2819 224.361 16.9027 223.889 16.5269L222.643 18.091ZM226.01 19.5478L229.411 20.3831L229.888 18.4408L226.487 17.6056L226.01 19.5478ZM229.414 20.3837C231.36 20.8562 232.689 21.552 233.514 22.394L234.942 20.9938C233.759 19.7875 232.035 18.9619 229.885 18.4401L229.414 20.3837ZM233.518 22.3975C234.313 23.201 234.735 24.2442 234.735 25.6165H236.735C236.735 23.7871 236.152 22.2152 234.939 20.9903L233.518 22.3975ZM234.735 25.6165C234.735 26.7225 234.421 27.688 233.794 28.5463L235.409 29.7264C236.293 28.5165 236.735 27.1355 236.735 25.6165H234.735ZM233.79 28.5514C233.163 29.4214 232.268 30.1328 231.063 30.6686L231.875 32.4962C233.354 31.8388 234.548 30.9195 235.412 29.7213L233.79 28.5514ZM231.063 30.6686C229.872 31.1976 228.455 31.4773 226.786 31.4773V33.4773C228.677 33.4773 230.381 33.1603 231.875 32.4962L231.063 30.6686ZM226.786 31.4773C224.592 31.4773 222.864 31.0019 221.536 30.1223L220.432 31.7897C222.166 32.9384 224.306 33.4773 226.786 33.4773V31.4773ZM221.536 30.1223C220.244 29.2663 219.413 28.0217 219.054 26.3066L217.097 26.7161C217.553 28.8988 218.662 30.6172 220.432 31.7897L221.536 30.1223ZM218.318 27.4815L221.659 26.6463L221.174 24.706L217.833 25.5412L218.318 27.4815ZM220.448 25.926C220.815 27.3465 221.534 28.4938 222.65 29.2708L223.793 27.6298C223.138 27.1739 222.655 26.4717 222.385 25.4263L220.448 25.926ZM222.654 29.2738C223.762 30.0374 225.147 30.375 226.726 30.375V28.375C225.422 28.375 224.47 28.0962 223.788 27.6268L222.654 29.2738ZM226.726 30.375C228.499 30.375 230.03 29.9997 231.219 29.1419L230.049 27.5201C229.308 28.0543 228.235 28.375 226.726 28.375V30.375ZM231.22 29.1408C232.39 28.2938 233.095 27.1729 233.095 25.7955H231.095C231.095 26.3867 230.827 26.9562 230.047 27.5212L231.22 29.1408ZM233.095 25.7955C233.095 24.7371 232.713 23.8084 231.954 23.077L230.566 24.5167C230.921 24.8592 231.095 25.2629 231.095 25.7955H233.095ZM231.961 23.0834C231.222 22.3576 230.168 21.8901 228.922 21.5999L228.468 23.5478C229.528 23.7946 230.185 24.1424 230.56 24.5103L231.961 23.0834ZM228.923 21.6002L225.105 20.7054L224.648 22.6526L228.467 23.5475L228.923 21.6002ZM225.107 20.7059C223.11 20.2326 221.779 19.5283 220.981 18.6812L219.526 20.0532C220.696 21.2941 222.447 22.131 224.646 22.652L225.107 20.7059ZM220.987 18.6883C220.202 17.8385 219.791 16.7718 219.791 15.4148H217.791C217.791 17.2197 218.356 18.7879 219.519 20.046L220.987 18.6883ZM219.791 15.4148C219.791 14.3228 220.094 13.3882 220.688 12.574L219.073 11.3948C218.215 12.5692 217.791 13.9215 217.791 15.4148H219.791ZM220.684 12.5792C221.306 11.7386 222.162 11.0601 223.288 10.5551L222.469 8.73043C221.068 9.35891 219.926 10.2415 219.076 11.3895L220.684 12.5792ZM223.285 10.5563C224.411 10.0548 225.711 9.79261 227.203 9.79261V7.79261C225.474 7.79261 223.891 8.09723 222.471 8.72924L223.285 10.5563ZM227.203 9.79261C229.334 9.79261 230.872 10.2606 231.933 11.0767L233.153 9.49146C231.628 8.31896 229.607 7.79261 227.203 7.79261V9.79261ZM231.936 11.079C233.072 11.9458 233.882 13.0885 234.369 14.5396L236.265 13.9036C235.658 12.0934 234.619 10.611 233.15 9.48922L231.936 11.079ZM250.996 9.09091H251.996V8.09091H250.996V9.09091ZM250.996 12.0739V13.0739H251.996V12.0739H250.996ZM239.124 12.0739H238.124V13.0739H239.124V12.0739ZM239.124 9.09091V8.09091H238.124V9.09091H239.124ZM242.584 3.60227V2.60227H241.584V3.60227H242.584ZM246.104 3.60227H247.104V2.60227H246.104V3.60227ZM246.537 27.6747L245.672 28.1764L245.678 28.1867L245.684 28.1969L246.537 27.6747ZM247.67 28.6591L247.324 29.5971L247.336 29.6016L247.348 29.6057L247.67 28.6591ZM250.101 28.8381L250.259 29.8255L250.278 29.8224L250.297 29.8186L250.101 28.8381ZM250.698 28.7188L251.673 28.4979L251.458 27.5469L250.502 27.7382L250.698 28.7188ZM251.414 31.8807L251.765 32.817L252.582 32.5107L252.389 31.6599L251.414 31.8807ZM250.415 32.1491L250.21 31.1704L250.199 31.1726L250.188 31.1751L250.415 32.1491ZM245.866 31.657L245.453 32.568L245.457 32.5696L245.866 31.657ZM243.509 29.7031L242.691 30.2791L242.696 30.2852L243.509 29.7031ZM249.996 9.09091V12.0739H251.996V9.09091H249.996ZM250.996 11.0739H239.124V13.0739H250.996V11.0739ZM240.124 12.0739V9.09091H238.124V12.0739H240.124ZM239.124 10.0909H250.996V8.09091H239.124V10.0909ZM242.584 4.60227H246.104V2.60227H242.584V4.60227ZM245.104 3.60227V25.4375H247.104V3.60227H245.104ZM245.104 25.4375C245.104 26.4957 245.252 27.4526 245.672 28.1764L247.402 27.173C247.245 26.9025 247.104 26.3679 247.104 25.4375H245.104ZM245.684 28.1969C246.078 28.8414 246.621 29.3373 247.324 29.5971L248.017 27.7211C247.805 27.6428 247.592 27.4825 247.39 27.1526L245.684 28.1969ZM247.348 29.6057C247.924 29.8018 248.525 29.8977 249.147 29.8977V27.8977C248.734 27.8977 248.351 27.8346 247.992 27.7124L247.348 29.6057ZM249.147 29.8977C249.562 29.8977 249.939 29.8768 250.259 29.8255L249.943 27.8506C249.767 27.8788 249.507 27.8977 249.147 27.8977V29.8977ZM250.297 29.8186C250.546 29.7689 250.745 29.7292 250.894 29.6993L250.502 27.7382C250.353 27.768 250.154 27.8078 249.905 27.8575L250.297 29.8186ZM249.723 28.9396L250.438 32.1015L252.389 31.6599L251.673 28.4979L249.723 28.9396ZM251.063 30.9444C250.893 31.0078 250.617 31.0851 250.21 31.1704L250.619 33.1279C251.067 33.0343 251.457 32.9325 251.765 32.817L251.063 30.9444ZM250.188 31.1751C249.862 31.2511 249.402 31.2983 248.789 31.2983V33.2983C249.488 33.2983 250.112 33.2461 250.641 33.1232L250.188 31.1751ZM248.789 31.2983C247.943 31.2983 247.107 31.1173 246.274 30.7443L245.457 32.5696C246.533 33.0517 247.646 33.2983 248.789 33.2983V31.2983ZM246.278 30.7459C245.5 30.3937 244.85 29.8587 244.322 29.121L242.696 30.2852C243.421 31.2975 244.342 32.0651 245.453 32.568L246.278 30.7459ZM244.326 29.1272C243.855 28.4581 243.584 27.5692 243.584 26.392H241.584C241.584 27.8797 241.93 29.1982 242.691 30.2791L244.326 29.1272ZM243.584 26.392V3.60227H241.584V26.392H243.584ZM18.3667 83V84H19.0729L19.3091 83.3345L18.3667 83ZM14.4889 83L13.5502 82.6553L13.0564 84H14.4889V83ZM25.7048 52.4545V51.4545H25.0067L24.7661 52.1099L25.7048 52.4545ZM29.523 52.4545L30.4617 52.1099L30.2211 51.4545H29.523V52.4545ZM40.7389 83V84H42.1714L41.6776 82.6553L40.7389 83ZM36.8611 83L35.9187 83.3345L36.1549 84H36.8611V83ZM27.7332 57.2869L28.6756 56.9524L28.4394 56.2869H27.7332V57.2869ZM27.4946 57.2869V56.2869H26.7884L26.5522 56.9524L27.4946 57.2869ZM19.7986 71.0682V70.0682H18.7986V71.0682H19.7986ZM35.4292 71.0682H36.4292V70.0682H35.4292V71.0682ZM35.4292 74.3494V75.3494H36.4292V74.3494H35.4292ZM19.7986 74.3494H18.7986V75.3494H19.7986V74.3494ZM18.3667 82H14.4889V84H18.3667V82ZM15.4276 83.3447L26.6435 52.7992L24.7661 52.1099L13.5502 82.6553L15.4276 83.3447ZM25.7048 53.4545H29.523V51.4545H25.7048V53.4545ZM28.5843 52.7992L39.8002 83.3447L41.6776 82.6553L30.4617 52.1099L28.5843 52.7992ZM40.7389 82H36.8611V84H40.7389V82ZM37.8034 82.6655L28.6756 56.9524L26.7908 57.6215L35.9187 83.3345L37.8034 82.6655ZM27.7332 56.2869H27.4946V58.2869H27.7332V56.2869ZM26.5522 56.9524L17.4244 82.6655L19.3091 83.3345L28.437 57.6215L26.5522 56.9524ZM19.7986 72.0682H35.4292V70.0682H19.7986V72.0682ZM34.4292 71.0682V74.3494H36.4292V71.0682H34.4292ZM35.4292 73.3494H19.7986V75.3494H35.4292V73.3494ZM20.7986 74.3494V71.0682H18.7986V74.3494H20.7986ZM49.1956 52.4545H50.1956V51.4545H49.1956V52.4545ZM49.1956 83V84H50.1956V83H49.1956ZM45.4967 83H44.4967V84H45.4967V83ZM45.4967 52.4545V51.4545H44.4967V52.4545H45.4967ZM48.1956 52.4545V83H50.1956V52.4545H48.1956ZM49.1956 82H45.4967V84H49.1956V82ZM46.4967 83V52.4545H44.4967V83H46.4967ZM45.4967 53.4545H49.1956V51.4545H45.4967V53.4545ZM68.4244 83H67.4244V84H68.4244V83ZM68.4244 52.4545V51.4545H67.4244V52.4545H68.4244ZM85.8747 54.2891L85.3729 55.154L85.376 55.1558L85.8747 54.2891ZM90.722 59.5241L89.8253 59.9667L89.826 59.9682L90.722 59.5241ZM90.7071 75.8857L91.6031 76.3297L91.6039 76.3282L90.7071 75.8857ZM85.7554 81.1655L86.2468 82.0364L86.2498 82.0347L85.7554 81.1655ZM72.1233 79.7188H71.1233V80.7188H72.1233V79.7188ZM87.6198 61.299L86.7078 61.7094L86.7087 61.7113L87.6198 61.299ZM84.0104 57.1825L83.4943 58.0391L83.4982 58.0414L84.0104 57.1825ZM72.1233 55.7358V54.7358H71.1233V55.7358H72.1233ZM77.8506 82H68.4244V84H77.8506V82ZM69.4244 83V52.4545H67.4244V83H69.4244ZM68.4244 53.4545H78.2682V51.4545H68.4244V53.4545ZM78.2682 53.4545C81.093 53.4545 83.4472 54.0367 85.3729 55.154L86.3766 53.4241C84.0864 52.0954 81.3696 51.4545 78.2682 51.4545V53.4545ZM85.376 55.1558C87.3043 56.2655 88.7853 57.8591 89.8253 59.9667L91.6188 59.0816C90.4116 56.6352 88.6611 54.7387 86.3735 53.4223L85.376 55.1558ZM89.826 59.9682C90.8663 62.0671 91.4074 64.6222 91.4074 67.6676H93.4074C93.4074 64.3892 92.8249 61.5153 91.618 59.0801L89.826 59.9682ZM91.4074 67.6676C91.4074 70.7323 90.8615 73.3131 89.8104 75.4431L91.6039 76.3282C92.8198 73.8644 93.4074 70.9666 93.4074 67.6676H91.4074ZM89.8111 75.4416C88.7639 77.5544 87.2511 79.1643 85.261 80.2963L86.2498 82.0347C88.595 80.7008 90.3833 78.7908 91.6031 76.3297L89.8111 75.4416ZM85.264 80.2945C83.279 81.4145 80.8226 82 77.8506 82V84C81.0832 84 83.8966 83.3625 86.2468 82.0364L85.264 80.2945ZM72.1233 80.7188H77.6119V78.7188H72.1233V80.7188ZM77.6119 80.7188C80.2614 80.7188 82.5425 80.2079 84.3972 79.1196L83.385 77.3946C81.9186 78.2551 80.0136 78.7188 77.6119 78.7188V80.7188ZM84.3972 79.1196C86.2408 78.0377 87.6175 76.4911 88.5157 74.5085L86.694 73.6832C85.9615 75.3001 84.8624 76.5276 83.385 77.3946L84.3972 79.1196ZM88.5157 74.5085C89.4029 72.5503 89.8279 70.2602 89.8279 67.6676H87.8279C87.8279 70.0467 87.4375 72.0421 86.694 73.6832L88.5157 74.5085ZM89.8279 67.6676C89.8279 65.0956 89.4081 62.8254 88.5308 60.8867L86.7087 61.7113C87.4422 63.3323 87.8279 65.3078 87.8279 67.6676H89.8279ZM88.5317 60.8886C87.6469 58.9224 86.3091 57.3889 84.5225 56.3236L83.4982 58.0414C84.9134 58.8852 85.9818 60.0961 86.7078 61.7094L88.5317 60.8886ZM84.5264 56.326C82.7322 55.245 80.5482 54.7358 78.0296 54.7358V56.7358C80.2837 56.7358 82.0869 57.1911 83.4943 58.0391L84.5264 56.326ZM78.0296 54.7358H72.1233V56.7358H78.0296V54.7358ZM71.1233 55.7358V79.7188H73.1233V55.7358H71.1233ZM98.1347 83H97.1347V84H98.1347V83ZM98.1347 60.0909V59.0909H97.1347V60.0909H98.1347ZM101.655 60.0909H102.655V59.0909H101.655V60.0909ZM101.655 83V84H102.655V83H101.655ZM98.1496 55.5717L97.4573 56.2935L97.4647 56.3004L98.1496 55.5717ZM98.1496 52.201L97.4646 51.4723L97.4574 51.4793L98.1496 52.201ZM101.684 52.201L100.992 52.9227L100.999 52.9296L101.684 52.201ZM101.684 55.5717L100.999 54.8431L100.992 54.8501L101.684 55.5717ZM99.1347 83V60.0909H97.1347V83H99.1347ZM98.1347 61.0909H101.655V59.0909H98.1347V61.0909ZM100.655 60.0909V83H102.655V60.0909H100.655ZM101.655 82H98.1347V84H101.655V82ZM99.9244 55.2727C99.4913 55.2727 99.1451 55.135 98.8345 54.8431L97.4647 56.3004C98.1484 56.9431 98.9854 57.2727 99.9244 57.2727V55.2727ZM98.8418 54.85C98.5449 54.5652 98.4188 54.2615 98.4188 53.8864H96.4188C96.4188 54.8238 96.7799 55.6436 97.4574 56.2934L98.8418 54.85ZM98.4188 53.8864C98.4188 53.5113 98.5449 53.2075 98.8418 52.9227L97.4574 51.4793C96.7799 52.1291 96.4188 52.949 96.4188 53.8864H98.4188ZM98.8345 52.9296C99.1451 52.6377 99.4913 52.5 99.9244 52.5V50.5C98.9854 50.5 98.1484 50.8296 97.4647 51.4724L98.8345 52.9296ZM99.9244 52.5C100.357 52.5 100.694 52.6372 100.992 52.9227L102.377 51.4793C101.7 50.8302 100.864 50.5 99.9244 50.5V52.5ZM100.999 52.9296C101.305 53.2164 101.43 53.5182 101.43 53.8864H103.43C103.43 52.9421 103.059 52.1202 102.369 51.4724L100.999 52.9296ZM101.43 53.8864C101.43 54.2546 101.305 54.5563 100.999 54.8431L102.369 56.3004C103.059 55.6525 103.43 54.8307 103.43 53.8864H101.43ZM100.992 54.8501C100.694 55.1356 100.357 55.2727 99.9244 55.2727V57.2727C100.864 57.2727 101.7 56.9426 102.377 56.2934L100.992 54.8501ZM118.303 60.0909H119.303V59.0909H118.303V60.0909ZM118.303 63.0739V64.0739H119.303V63.0739H118.303ZM105.954 63.0739H104.954V64.0739H105.954V63.0739ZM105.954 60.0909V59.0909H104.954V60.0909H105.954ZM109.653 83H108.653V84H109.653V83ZM110.577 53.6477L109.76 53.0718L109.76 53.0718L110.577 53.6477ZM112.979 51.679L112.572 50.7652L112.572 50.7652L112.979 51.679ZM118.214 51.2315L117.967 52.2006L117.967 52.2006L118.214 51.2315ZM119.437 51.6193L120.385 51.9355L120.672 51.0742L119.843 50.7055L119.437 51.6193ZM118.422 54.6619L118.106 55.6106L119.055 55.9268L119.371 54.9782L118.422 54.6619ZM117.677 54.4382L117.398 55.3986L117.406 55.4009L117.677 54.4382ZM113.933 55.1839L113.183 54.5227L113.177 54.53L113.933 55.1839ZM113.172 83V84H114.172V83H113.172ZM117.303 60.0909V63.0739H119.303V60.0909H117.303ZM118.303 62.0739H105.954V64.0739H118.303V62.0739ZM106.954 63.0739V60.0909H104.954V63.0739H106.954ZM105.954 61.0909H118.303V59.0909H105.954V61.0909ZM110.653 83V56.929H108.653V83H110.653ZM110.653 56.929C110.653 55.7754 110.922 54.8952 111.395 54.2237L109.76 53.0718C109 54.1503 108.653 55.4576 108.653 56.929H110.653ZM111.395 54.2237C111.907 53.4974 112.564 52.9574 113.385 52.5928L112.572 50.7652C111.424 51.2756 110.481 52.0481 109.76 53.0718L111.395 54.2237ZM113.385 52.5928C114.239 52.213 115.14 52.0227 116.096 52.0227V50.0227C114.864 50.0227 113.687 50.2699 112.572 50.7652L113.385 52.5928ZM116.096 52.0227C116.917 52.0227 117.531 52.0898 117.967 52.2006L118.46 50.2624C117.802 50.0949 117.005 50.0227 116.096 50.0227V52.0227ZM117.967 52.2006C118.499 52.3361 118.841 52.4489 119.031 52.5331L119.843 50.7055C119.495 50.5511 119.022 50.4053 118.46 50.2624L117.967 52.2006ZM118.488 51.3031L117.474 54.3457L119.371 54.9782L120.385 51.9355L118.488 51.3031ZM118.739 53.7132C118.538 53.6462 118.271 53.5667 117.948 53.4756L117.406 55.4009C117.718 55.4887 117.949 55.5583 118.106 55.6106L118.739 53.7132ZM117.956 53.4779C117.52 53.3514 117.007 53.304 116.454 53.304V55.304C116.914 55.304 117.217 55.346 117.398 55.3986L117.956 53.4779ZM116.454 53.304C115.145 53.304 113.967 53.6334 113.183 54.5227L114.683 55.8451C114.934 55.5612 115.436 55.304 116.454 55.304V53.304ZM113.177 54.53C112.454 55.3663 112.172 56.4989 112.172 57.7642H114.172C114.172 56.7624 114.398 56.1749 114.69 55.8379L113.177 54.53ZM112.172 57.7642V83H114.172V57.7642H112.172ZM113.172 82H109.653V84H113.172V82ZM133.438 60.0909H134.438V59.0909H133.438V60.0909ZM133.438 63.0739V64.0739H134.438V63.0739H133.438ZM121.089 63.0739H120.089V64.0739H121.089V63.0739ZM121.089 60.0909V59.0909H120.089V60.0909H121.089ZM124.787 83H123.787V84H124.787V83ZM125.712 53.6477L124.895 53.0718L124.895 53.0718L125.712 53.6477ZM128.113 51.679L127.707 50.7652L127.707 50.7652L128.113 51.679ZM133.348 51.2315L133.102 52.2006L133.102 52.2006L133.348 51.2315ZM134.571 51.6193L135.52 51.9355L135.807 51.0742L134.978 50.7055L134.571 51.6193ZM133.557 54.6619L133.241 55.6106L134.19 55.9268L134.506 54.9782L133.557 54.6619ZM132.812 54.4382L132.533 55.3986L132.541 55.4009L132.812 54.4382ZM129.068 55.1839L128.318 54.5227L128.311 54.53L129.068 55.1839ZM128.307 83V84H129.307V83H128.307ZM132.438 60.0909V63.0739H134.438V60.0909H132.438ZM133.438 62.0739H121.089V64.0739H133.438V62.0739ZM122.089 63.0739V60.0909H120.089V63.0739H122.089ZM121.089 61.0909H133.438V59.0909H121.089V61.0909ZM125.787 83V56.929H123.787V83H125.787ZM125.787 56.929C125.787 55.7754 126.056 54.8952 126.53 54.2237L124.895 53.0718C124.135 54.1503 123.787 55.4576 123.787 56.929H125.787ZM126.53 54.2237C127.041 53.4974 127.699 52.9574 128.52 52.5928L127.707 50.7652C126.559 51.2756 125.616 52.0481 124.895 53.0718L126.53 54.2237ZM128.52 52.5928C129.374 52.213 130.275 52.0227 131.231 52.0227V50.0227C129.999 50.0227 128.821 50.2699 127.707 50.7652L128.52 52.5928ZM131.231 52.0227C132.052 52.0227 132.666 52.0898 133.102 52.2006L133.595 50.2624C132.937 50.0949 132.14 50.0227 131.231 50.0227V52.0227ZM133.102 52.2006C133.634 52.3361 133.976 52.4489 134.165 52.5331L134.978 50.7055C134.63 50.5511 134.157 50.4053 133.595 50.2624L133.102 52.2006ZM133.623 51.3031L132.609 54.3457L134.506 54.9782L135.52 51.9355L133.623 51.3031ZM133.873 53.7132C133.672 53.6462 133.406 53.5667 133.082 53.4756L132.541 55.4009C132.853 55.4887 133.084 55.5583 133.241 55.6106L133.873 53.7132ZM133.09 53.4779C132.655 53.3514 132.142 53.304 131.589 53.304V55.304C132.049 55.304 132.352 55.346 132.533 55.3986L133.09 53.4779ZM131.589 53.304C130.28 53.304 129.102 53.6334 128.318 54.5227L129.818 55.8451C130.068 55.5612 130.571 55.304 131.589 55.304V53.304ZM128.311 54.53C127.588 55.3663 127.307 56.4989 127.307 57.7642H129.307C129.307 56.7624 129.533 56.1749 129.824 55.8379L128.311 54.53ZM127.307 57.7642V83H129.307V57.7642H127.307ZM128.307 82H124.787V84H128.307V82ZM138.371 83H137.371V84H138.371V83ZM138.371 60.0909V59.0909H137.371V60.0909H138.371ZM141.891 60.0909H142.891V59.0909H141.891V60.0909ZM141.891 83V84H142.891V83H141.891ZM138.386 55.5717L137.694 56.2935L137.701 56.3004L138.386 55.5717ZM138.386 52.201L137.701 51.4723L137.694 51.4793L138.386 52.201ZM141.921 52.201L141.228 52.9227L141.236 52.9296L141.921 52.201ZM141.921 55.5717L141.236 54.8431L141.228 54.8501L141.921 55.5717ZM139.371 83V60.0909H137.371V83H139.371ZM138.371 61.0909H141.891V59.0909H138.371V61.0909ZM140.891 60.0909V83H142.891V60.0909H140.891ZM141.891 82H138.371V84H141.891V82ZM140.161 55.2727C139.728 55.2727 139.381 55.135 139.071 54.8431L137.701 56.3004C138.385 56.9431 139.222 57.2727 140.161 57.2727V55.2727ZM139.078 54.85C138.781 54.5652 138.655 54.2615 138.655 53.8864H136.655C136.655 54.8238 137.016 55.6436 137.694 56.2934L139.078 54.85ZM138.655 53.8864C138.655 53.5113 138.781 53.2075 139.078 52.9227L137.694 51.4793C137.016 52.1291 136.655 52.949 136.655 53.8864H138.655ZM139.071 52.9296C139.381 52.6377 139.728 52.5 140.161 52.5V50.5C139.222 50.5 138.385 50.8296 137.701 51.4724L139.071 52.9296ZM140.161 52.5C140.594 52.5 140.931 52.6372 141.228 52.9227L142.613 51.4793C141.936 50.8302 141.1 50.5 140.161 50.5V52.5ZM141.236 52.9296C141.541 53.2164 141.666 53.5182 141.666 53.8864H143.666C143.666 52.9421 143.295 52.1202 142.606 51.4724L141.236 52.9296ZM141.666 53.8864C141.666 54.2546 141.541 54.5563 141.236 54.8431L142.606 56.3004C143.295 55.6525 143.666 54.8307 143.666 53.8864H141.666ZM141.228 54.8501C140.931 55.1356 140.594 55.2727 140.161 55.2727V57.2727C141.1 57.2727 141.936 56.9426 142.613 56.2934L141.228 54.8501ZM152.096 81.956L151.549 82.7929L151.549 82.7929L152.096 81.956ZM148.547 65.505L147.646 65.0698L147.645 65.0719L148.547 65.505ZM152.156 61.3139L152.702 62.1517L152.703 62.1509L152.156 61.3139ZM165.117 63.1932L165.91 62.5838L165.91 62.5838L165.117 63.1932ZM166.653 66.9517V67.9517H167.802L167.644 66.8141L166.653 66.9517ZM163.133 66.9517L162.165 67.2007L162.358 67.9517H163.133V66.9517ZM161.343 64.1776L160.678 64.9241L160.687 64.9316L161.343 64.1776ZM154.035 64.0284L154.603 64.8518L154.604 64.8506L154.035 64.0284ZM151.634 67.0263L150.721 66.6188L150.719 66.6221L151.634 67.0263ZM151.619 76.169L150.698 76.5596L150.701 76.5655L151.619 76.169ZM154.005 79.2266L153.427 80.0424L153.431 80.0451L154.005 79.2266ZM160.135 79.8381L159.743 78.9183L159.743 78.9183L160.135 79.8381ZM162.03 78.4659L162.785 79.1208L162.785 79.1208L162.03 78.4659ZM163.133 76.3182V75.3182H162.361L162.166 76.0648L163.133 76.3182ZM166.653 76.3182L167.643 76.4637L167.811 75.3182H166.653V76.3182ZM165.177 79.9723L164.367 79.3855L164.366 79.3868L165.177 79.9723ZM162.089 82.5376L162.531 83.4349L162.534 83.4335L162.089 82.5376ZM157.645 82.4773C155.66 82.4773 154.007 82.0107 152.644 81.119L151.549 82.7929C153.287 83.9296 155.334 84.4773 157.645 84.4773V82.4773ZM152.644 81.119C151.257 80.2126 150.183 78.9627 149.422 77.3401L147.612 78.1897C148.521 80.1268 149.833 81.671 151.549 82.7929L152.644 81.119ZM149.422 77.3401C148.659 75.7132 148.264 73.8287 148.264 71.6648H146.264C146.264 74.0747 146.704 76.257 147.612 78.1897L149.422 77.3401ZM148.264 71.6648C148.264 69.4615 148.668 67.5607 149.448 65.938L147.645 65.0719C146.715 67.0089 146.264 69.2147 146.264 71.6648H148.264ZM149.447 65.9401C150.239 64.3007 151.326 63.0486 152.702 62.1517L151.61 60.4761C149.904 61.5878 148.584 63.1297 147.646 65.0698L149.447 65.9401ZM152.703 62.1509C154.073 61.2552 155.688 60.7926 157.585 60.7926V58.7926C155.346 58.7926 153.341 59.3443 151.609 60.4769L152.703 62.1509ZM157.585 60.7926C159.07 60.7926 160.376 61.067 161.521 61.5955L162.359 59.7795C160.919 59.1148 159.321 58.7926 157.585 58.7926V60.7926ZM161.521 61.5955C162.674 62.1278 163.602 62.8636 164.324 63.8025L165.91 62.5838C164.981 61.375 163.791 60.4404 162.359 59.7795L161.521 61.5955ZM164.324 63.8025C165.037 64.7297 165.486 65.8172 165.663 67.0893L167.644 66.8141C167.423 65.2225 166.848 63.8044 165.91 62.5838L164.324 63.8025ZM166.653 65.9517H163.133V67.9517H166.653V65.9517ZM164.102 66.7027C163.776 65.4365 163.056 64.3429 162 63.4235L160.687 64.9316C161.481 65.623 161.953 66.3789 162.165 67.2007L164.102 66.7027ZM162.009 63.431C160.866 62.4125 159.374 61.9545 157.645 61.9545V63.9545C159.018 63.9545 159.991 64.3119 160.678 64.9241L162.009 63.431ZM157.645 61.9545C156.088 61.9545 154.683 62.364 153.466 63.2062L154.604 64.8506C155.456 64.261 156.456 63.9545 157.645 63.9545V61.9545ZM153.468 63.2051C152.272 64.0291 151.362 65.1821 150.721 66.6188L152.547 67.4337C153.06 66.2852 153.75 65.4397 154.603 64.8518L153.468 63.2051ZM150.719 66.6221C150.085 68.0582 149.784 69.7078 149.784 71.5455H151.784C151.784 69.9229 152.05 68.5597 152.549 67.4304L150.719 66.6221ZM149.784 71.5455C149.784 73.4181 150.078 75.0976 150.698 76.5596L152.54 75.7785C152.046 74.6155 151.784 73.2125 151.784 71.5455H149.784ZM150.701 76.5655C151.33 78.0224 152.234 79.1965 153.427 80.0424L154.584 78.4107C153.729 77.805 153.042 76.9407 152.537 75.7726L150.701 76.5655ZM153.431 80.0451C154.65 80.901 156.069 81.3153 157.645 81.3153V79.3153C156.436 79.3153 155.429 79.0038 154.58 78.4081L153.431 80.0451ZM157.645 81.3153C158.677 81.3153 159.643 81.1353 160.528 80.7578L159.743 78.9183C159.136 79.1772 158.442 79.3153 157.645 79.3153V81.3153ZM160.528 80.7578C161.409 80.3818 162.166 79.8353 162.785 79.1208L161.274 77.811C160.859 78.2897 160.353 78.658 159.743 78.9183L160.528 80.7578ZM162.785 79.1208C163.412 78.3978 163.847 77.541 164.101 76.5715L162.166 76.0648C161.982 76.7658 161.681 77.3408 161.274 77.811L162.785 79.1208ZM163.133 77.3182H166.653V75.3182H163.133V77.3182ZM165.664 76.1727C165.488 77.369 165.056 78.435 164.367 79.3855L165.986 80.5591C166.868 79.342 167.421 77.9719 167.643 76.4637L165.664 76.1727ZM164.366 79.3868C163.693 80.3185 162.794 81.0717 161.645 81.6418L162.534 83.4335C163.95 82.7309 165.109 81.7738 165.987 80.5578L164.366 79.3868ZM161.648 81.6404C160.536 82.1875 159.211 82.4773 157.645 82.4773V84.4773C159.459 84.4773 161.097 84.1407 162.531 83.4349L161.648 81.6404ZM186.236 60.0909V59.0909H185.236V60.0909H186.236ZM189.756 60.0909H190.756V59.0909H189.756V60.0909ZM189.756 83V84H190.756V83H189.756ZM186.236 83H185.236V84H186.236V83ZM186.236 79.1222H187.236V78.1222H186.236V79.1222ZM185.998 79.1222V78.1222H185.358L185.09 78.7031L185.998 79.1222ZM183.492 82.0902L184.071 82.9054L184.076 82.902L183.492 82.0902ZM175.378 82.3587L174.882 83.2269L174.888 83.2302L175.378 82.3587ZM172.753 79.495L171.857 79.9395L171.859 79.9422L172.753 79.495ZM171.799 60.0909V59.0909H170.799V60.0909H171.799ZM175.319 60.0909H176.319V59.0909H175.319V60.0909ZM176.721 78.4062L175.992 79.0912L175.996 79.095L176.721 78.4062ZM183 79.2266L182.56 78.3283L182.556 78.3302L183 79.2266ZM185.297 77.1683L184.469 76.6075L184.465 76.6136L185.297 77.1683ZM187.236 73.6335V60.0909H185.236V73.6335H187.236ZM186.236 61.0909H189.756V59.0909H186.236V61.0909ZM188.756 60.0909V83H190.756V60.0909H188.756ZM189.756 82H186.236V84H189.756V82ZM187.236 83V79.1222H185.236V83H187.236ZM186.236 78.1222H185.998V80.1222H186.236V78.1222ZM185.09 78.7031C184.631 79.6959 183.914 80.5545 182.908 81.2784L184.076 82.902C185.337 81.9952 186.29 80.8751 186.906 79.5412L185.09 78.7031ZM182.913 81.275C181.986 81.9336 180.77 82.2983 179.196 82.2983V84.2983C181.083 84.2983 182.731 83.8576 184.071 82.9054L182.913 81.275ZM179.196 82.2983C177.915 82.2983 176.815 82.0195 175.869 81.4871L174.888 83.2302C176.169 83.9506 177.614 84.2983 179.196 84.2983V82.2983ZM175.874 81.4904C174.951 80.9626 174.206 80.164 173.648 79.0478L171.859 79.9422C172.573 81.3715 173.579 82.482 174.882 83.2269L175.874 81.4904ZM173.649 79.0506C173.101 77.9466 172.799 76.4952 172.799 74.6477H170.799C170.799 76.698 171.132 78.4781 171.857 79.9395L173.649 79.0506ZM172.799 74.6477V60.0909H170.799V74.6477H172.799ZM171.799 61.0909H175.319V59.0909H171.799V61.0909ZM174.319 60.0909V74.4091H176.319V60.0909H174.319ZM174.319 74.4091C174.319 76.274 174.846 77.8718 175.992 79.0912L177.449 77.7213C176.726 76.9521 176.319 75.8851 176.319 74.4091H174.319ZM175.996 79.095C177.142 80.3022 178.614 80.8977 180.33 80.8977V78.8977C179.122 78.8977 178.188 78.4989 177.446 77.7175L175.996 79.095ZM180.33 80.8977C181.381 80.8977 182.422 80.6281 183.443 80.123L182.556 78.3302C181.768 78.7199 181.029 78.8977 180.33 78.8977V80.8977ZM183.439 80.1249C184.527 79.5926 185.423 78.7811 186.129 77.723L184.465 76.6136C183.937 77.4049 183.302 77.9656 182.56 78.3283L183.439 80.1249ZM186.125 77.7292C186.891 76.5979 187.236 75.2092 187.236 73.6335H185.236C185.236 74.9215 184.955 75.8893 184.469 76.6075L186.125 77.7292ZM199.723 52.4545H200.723V51.4545H199.723V52.4545ZM199.723 83V84H200.723V83H199.723ZM196.203 83H195.203V84H196.203V83ZM196.203 52.4545V51.4545H195.203V52.4545H196.203ZM198.723 52.4545V83H200.723V52.4545H198.723ZM199.723 82H196.203V84H199.723V82ZM197.203 83V52.4545H195.203V83H197.203ZM196.203 53.4545H199.723V51.4545H196.203V53.4545ZM216.133 60.0909H217.133V59.0909H216.133V60.0909ZM216.133 63.0739V64.0739H217.133V63.0739H216.133ZM204.261 63.0739H203.261V64.0739H204.261V63.0739ZM204.261 60.0909V59.0909H203.261V60.0909H204.261ZM207.721 54.6023V53.6023H206.721V54.6023H207.721ZM211.241 54.6023H212.241V53.6023H211.241V54.6023ZM211.673 78.6747L210.808 79.1764L210.814 79.1867L210.821 79.1969L211.673 78.6747ZM212.807 79.6591L212.46 80.5971L212.472 80.6016L212.485 80.6057L212.807 79.6591ZM215.238 79.8381L215.396 80.8255L215.415 80.8224L215.434 80.8186L215.238 79.8381ZM215.835 79.7188L216.81 79.4979L216.595 78.5469L215.638 78.7382L215.835 79.7188ZM216.551 82.8807L216.902 83.817L217.718 83.5107L217.526 82.6599L216.551 82.8807ZM215.551 83.1491L215.346 82.1704L215.336 82.1726L215.325 82.1751L215.551 83.1491ZM211.002 82.657L210.59 83.568L210.593 83.5696L211.002 82.657ZM208.646 80.7031L207.828 81.2791L207.833 81.2852L208.646 80.7031ZM215.133 60.0909V63.0739H217.133V60.0909H215.133ZM216.133 62.0739H204.261V64.0739H216.133V62.0739ZM205.261 63.0739V60.0909H203.261V63.0739H205.261ZM204.261 61.0909H216.133V59.0909H204.261V61.0909ZM207.721 55.6023H211.241V53.6023H207.721V55.6023ZM210.241 54.6023V76.4375H212.241V54.6023H210.241ZM210.241 76.4375C210.241 77.4957 210.389 78.4526 210.808 79.1764L212.538 78.173C212.382 77.9025 212.241 77.3679 212.241 76.4375H210.241ZM210.821 79.1969C211.215 79.8414 211.757 80.3373 212.46 80.5971L213.154 78.7211C212.942 78.6428 212.728 78.4825 212.526 78.1526L210.821 79.1969ZM212.485 80.6057C213.061 80.8018 213.662 80.8977 214.283 80.8977V78.8977C213.871 78.8977 213.488 78.8346 213.129 78.7124L212.485 80.6057ZM214.283 80.8977C214.699 80.8977 215.075 80.8768 215.396 80.8255L215.08 78.8506C214.904 78.8788 214.643 78.8977 214.283 78.8977V80.8977ZM215.434 80.8186C215.683 80.7689 215.882 80.7292 216.031 80.6993L215.638 78.7382C215.489 78.768 215.29 78.8078 215.042 78.8575L215.434 80.8186ZM214.859 79.9396L215.575 83.1015L217.526 82.6599L216.81 79.4979L214.859 79.9396ZM216.199 81.9444C216.03 82.0078 215.754 82.0851 215.346 82.1704L215.756 84.1279C216.204 84.0343 216.594 83.9325 216.902 83.817L216.199 81.9444ZM215.325 82.1751C214.998 82.2511 214.539 82.2983 213.926 82.2983V84.2983C214.624 84.2983 215.249 84.2461 215.778 84.1232L215.325 82.1751ZM213.926 82.2983C213.079 82.2983 212.244 82.1173 211.411 81.7443L210.593 83.5696C211.67 84.0517 212.783 84.2983 213.926 84.2983V82.2983ZM211.415 81.7459C210.636 81.3937 209.987 80.8587 209.459 80.121L207.833 81.2852C208.557 82.2975 209.479 83.0651 210.59 83.568L211.415 81.7459ZM209.463 80.1272C208.992 79.4581 208.721 78.5692 208.721 77.392H206.721C206.721 78.8797 207.067 80.1982 207.828 81.2791L209.463 80.1272ZM208.721 77.392V54.6023H206.721V77.392H208.721ZM222.099 91.4418L222.307 90.4637L222.297 90.4615L222.287 90.4596L222.099 91.4418ZM221.129 91.1733L220.169 90.8961L219.938 91.6956L220.682 92.0677L221.129 91.1733ZM222.024 88.071L222.272 87.1022L221.332 86.8618L221.063 87.7939L222.024 88.071ZM224.291 88.3097L224.201 87.3138L224.201 87.3138L224.291 88.3097ZM226.036 87.4297L225.329 86.7226L225.322 86.7294L225.316 86.7363L226.036 87.4297ZM227.453 84.9091L228.392 85.2541L228.392 85.2533L227.453 84.9091ZM228.109 83.1193L229.048 83.4636L229.175 83.1188L229.048 82.7741L228.109 83.1193ZM219.638 60.0909V59.0909H218.204L218.699 60.4362L219.638 60.0909ZM223.456 60.0909L224.401 59.7636L224.168 59.0909H223.456V60.0909ZM229.78 78.3466L228.835 78.6739L229.068 79.3466H229.78V78.3466ZM230.019 78.3466V79.3466H230.73L230.963 78.6739L230.019 78.3466ZM236.342 60.0909V59.0909H235.631L235.398 59.7636L236.342 60.0909ZM240.161 60.0909L241.098 60.4383L241.597 59.0909H240.161V60.0909ZM230.436 86.3409L229.498 85.9935L229.498 85.9941L230.436 86.3409ZM228.81 89.2791L228.042 88.6389L228.038 88.6438L228.81 89.2791ZM226.558 91.0241L226.154 90.1095L226.15 90.1112L226.558 91.0241ZM223.695 90.5909C223.152 90.5909 222.691 90.5455 222.307 90.4637L221.891 92.4199C222.441 92.5369 223.045 92.5909 223.695 92.5909V90.5909ZM222.287 90.4596C222.07 90.418 221.9 90.3791 221.773 90.3438C221.71 90.3263 221.662 90.311 221.626 90.2985C221.59 90.2855 221.576 90.2784 221.577 90.2789L220.682 92.0677C220.997 92.2251 221.443 92.3343 221.911 92.4239L222.287 90.4596ZM222.09 91.4505L222.985 88.3482L221.063 87.7939L220.169 90.8961L222.09 91.4505ZM221.776 89.0398C222.707 89.2778 223.581 89.3784 224.382 89.3056L224.201 87.3138C223.689 87.3603 223.052 87.3017 222.272 87.1022L221.776 89.0398ZM224.382 89.3056C225.304 89.2217 226.103 88.803 226.757 88.1231L225.316 86.7363C224.956 87.1104 224.591 87.2783 224.201 87.3138L224.382 89.3056ZM226.743 88.1368C227.411 87.4696 227.944 86.4715 228.392 85.2541L226.515 84.5641C226.107 85.6734 225.696 86.3557 225.329 86.7226L226.743 88.1368ZM228.392 85.2533L229.048 83.4636L227.171 82.7751L226.514 84.5648L228.392 85.2533ZM229.048 82.7741L220.576 59.7457L218.699 60.4362L227.171 83.4646L229.048 82.7741ZM219.638 61.0909H223.456V59.0909H219.638V61.0909ZM222.511 60.4182L228.835 78.6739L230.725 78.0193L224.401 59.7636L222.511 60.4182ZM229.78 79.3466H230.019V77.3466H229.78V79.3466ZM230.963 78.6739L237.287 60.4182L235.398 59.7636L229.074 78.0193L230.963 78.6739ZM236.342 61.0909H240.161V59.0909H236.342V61.0909ZM239.223 59.7435L229.498 85.9935L231.374 86.6883L241.098 60.4383L239.223 59.7435ZM229.498 85.9941C229.091 87.0962 228.6 87.9695 228.042 88.6389L229.579 89.9193C230.313 89.0376 230.907 87.9521 231.374 86.6877L229.498 85.9941ZM228.038 88.6438C227.482 89.3195 226.854 89.8002 226.154 90.1095L226.962 91.9388C227.973 91.4925 228.846 90.8097 229.583 89.9145L228.038 88.6438ZM226.15 90.1112C225.451 90.4237 224.639 90.5909 223.695 90.5909V92.5909C224.878 92.5909 225.975 92.3803 226.966 91.9371L226.15 90.1112Z" fill="black" mask="url(#path-1-outside-1_683_184)"/>
</g>
<defs>
<filter id="filter0_d_683_184" x="0.436401" y="0.5" width="254.977" height="99.0909" filterUnits="userSpaceOnUse" color-interpolation-filters="sRGB">
<feFlood flood-opacity="0" result="BackgroundImageFix"/>
<feColorMatrix in="SourceAlpha" type="matrix" values="0 0 0 0 0 0 0 0 0 0 0 0 0 0 0 0 0 0 127 0" result="hardAlpha"/>
<feOffset dy="4"/>
<feGaussianBlur stdDeviation="2"/>
<feComposite in2="hardAlpha" operator="out"/>
<feColorMatrix type="matrix" values="0 0 0 0 0 0 0 0 0 0 0 0 0 0 0 0 0 0 0.3 0"/>
<feBlend mode="normal" in2="BackgroundImageFix" result="effect1_dropShadow_683_184"/>
<feBlend mode="normal" in="SourceGraphic" in2="effect1_dropShadow_683_184" result="shape"/>
</filter>
</defs>
</svg>
