<svg width="239" height="48" viewBox="0 0 239 48" fill="none" xmlns="http://www.w3.org/2000/svg">
<g filter="url(#filter0_d_413_297)">
<mask id="path-1-outside-1_413_297" maskUnits="userSpaceOnUse" x="3" y="-1" width="234" height="42" fill="black">
<rect fill="white" x="3" y="-1" width="234" height="42"/>
<path d="M4.70961 31V0.454545H8.40847V14.0568H24.6954V0.454545H28.3943V31H24.6954V17.3381H8.40847V31H4.70961ZM44.629 31.4773C42.5608 31.4773 40.7462 30.9851 39.1851 30.0007C37.634 29.0163 36.4209 27.6392 35.5459 25.8693C34.6808 24.0994 34.2483 22.0312 34.2483 19.6648C34.2483 17.2784 34.6808 15.1953 35.5459 13.4155C36.4209 11.6357 37.634 10.2536 39.1851 9.26918C40.7462 8.2848 42.5608 7.79261 44.629 7.79261C46.6972 7.79261 48.5068 8.2848 50.058 9.26918C51.6191 10.2536 52.8321 11.6357 53.6972 13.4155C54.5722 15.1953 55.0097 17.2784 55.0097 19.6648C55.0097 22.0312 54.5722 24.0994 53.6972 25.8693C52.8321 27.6392 51.6191 29.0163 50.058 30.0007C48.5068 30.9851 46.6972 31.4773 44.629 31.4773ZM44.629 28.3153C46.2 28.3153 47.4926 27.9126 48.5068 27.1072C49.521 26.3018 50.2718 25.2429 50.759 23.9304C51.2462 22.6179 51.4898 21.196 51.4898 19.6648C51.4898 18.1335 51.2462 16.7067 50.759 15.3842C50.2718 14.0618 49.521 12.9929 48.5068 12.1776C47.4926 11.3622 46.2 10.9545 44.629 10.9545C43.058 10.9545 41.7654 11.3622 40.7512 12.1776C39.737 12.9929 38.9862 14.0618 38.499 15.3842C38.0118 16.7067 37.7682 18.1335 37.7682 19.6648C37.7682 21.196 38.0118 22.6179 38.499 23.9304C38.9862 25.2429 39.737 26.3018 40.7512 27.1072C41.7654 27.9126 43.058 28.3153 44.629 28.3153ZM64.7938 31L57.8137 8.09091H61.5125L66.4642 25.6307H66.7029L71.5949 8.09091H75.3534L80.1858 25.571H80.4244L85.3762 8.09091H89.075L82.0949 31H78.6347L73.6233 13.4006H73.2654L68.254 31H64.7938ZM115.504 8.09091V11.0739H103.632V8.09091H115.504ZM107.092 2.60227H110.612V24.4375C110.612 25.4318 110.756 26.1776 111.044 26.6747C111.343 27.1619 111.721 27.4901 112.178 27.6591C112.645 27.8182 113.138 27.8977 113.655 27.8977C114.042 27.8977 114.361 27.8778 114.609 27.8381C114.858 27.7884 115.057 27.7486 115.206 27.7188L115.922 30.8807C115.683 30.9702 115.35 31.0597 114.922 31.1491C114.495 31.2486 113.953 31.2983 113.297 31.2983C112.302 31.2983 111.328 31.0845 110.373 30.657C109.429 30.2294 108.643 29.5781 108.017 28.7031C107.4 27.8281 107.092 26.7244 107.092 25.392V2.60227ZM129.859 31.4773C127.791 31.4773 125.977 30.9851 124.416 30.0007C122.864 29.0163 121.651 27.6392 120.776 25.8693C119.911 24.0994 119.479 22.0312 119.479 19.6648C119.479 17.2784 119.911 15.1953 120.776 13.4155C121.651 11.6357 122.864 10.2536 124.416 9.26918C125.977 8.2848 127.791 7.79261 129.859 7.79261C131.928 7.79261 133.737 8.2848 135.288 9.26918C136.85 10.2536 138.063 11.6357 138.928 13.4155C139.803 15.1953 140.24 17.2784 140.24 19.6648C140.24 22.0312 139.803 24.0994 138.928 25.8693C138.063 27.6392 136.85 29.0163 135.288 30.0007C133.737 30.9851 131.928 31.4773 129.859 31.4773ZM129.859 28.3153C131.43 28.3153 132.723 27.9126 133.737 27.1072C134.752 26.3018 135.502 25.2429 135.989 23.9304C136.477 22.6179 136.72 21.196 136.72 19.6648C136.72 18.1335 136.477 16.7067 135.989 15.3842C135.502 14.0618 134.752 12.9929 133.737 12.1776C132.723 11.3622 131.43 10.9545 129.859 10.9545C128.288 10.9545 126.996 11.3622 125.982 12.1776C124.967 12.9929 124.217 14.0618 123.729 15.3842C123.242 16.7067 122.999 18.1335 122.999 19.6648C122.999 21.196 123.242 22.6179 123.729 23.9304C124.217 25.2429 124.967 26.3018 125.982 27.1072C126.996 27.9126 128.288 28.3153 129.859 28.3153ZM157.426 39.5909V8.09091H160.826V11.7301H161.244C161.502 11.3324 161.86 10.8253 162.318 10.2088C162.785 9.58239 163.451 9.02557 164.316 8.53835C165.191 8.04119 166.375 7.79261 167.866 7.79261C169.795 7.79261 171.495 8.27486 172.967 9.23935C174.438 10.2038 175.587 11.571 176.412 13.3409C177.237 15.1108 177.65 17.1989 177.65 19.6051C177.65 22.0312 177.237 24.1342 176.412 25.9141C175.587 27.6839 174.443 29.0561 172.982 30.0305C171.52 30.995 169.835 31.4773 167.926 31.4773C166.454 31.4773 165.276 31.2337 164.391 30.7464C163.506 30.2493 162.825 29.6875 162.348 29.0611C161.87 28.4247 161.502 27.8977 161.244 27.4801H160.946V39.5909H157.426ZM160.886 19.5455C160.886 21.2756 161.139 22.8018 161.647 24.1243C162.154 25.4368 162.894 26.4659 163.869 27.2116C164.843 27.9474 166.036 28.3153 167.448 28.3153C168.92 28.3153 170.148 27.9276 171.132 27.152C172.127 26.3665 172.872 25.3125 173.37 23.9901C173.877 22.6577 174.13 21.1761 174.13 19.5455C174.13 17.9347 173.882 16.483 173.385 15.1903C172.897 13.8878 172.157 12.8587 171.162 12.103C170.178 11.3374 168.94 10.9545 167.448 10.9545C166.017 10.9545 164.813 11.3175 163.839 12.0433C162.865 12.7592 162.129 13.7635 161.632 15.0561C161.134 16.3388 160.886 17.8352 160.886 19.5455ZM186.539 0.454545V31H183.019V0.454545H186.539ZM199.728 31.5369C198.276 31.5369 196.959 31.2635 195.775 30.7166C194.592 30.1598 193.652 29.3594 192.956 28.3153C192.26 27.2614 191.912 25.9886 191.912 24.4972C191.912 23.1847 192.171 22.1207 192.688 21.3054C193.205 20.4801 193.896 19.8338 194.761 19.3665C195.626 18.8991 196.581 18.5511 197.625 18.3224C198.679 18.0838 199.738 17.8949 200.802 17.7557C202.194 17.5767 203.322 17.4425 204.187 17.353C205.062 17.2536 205.699 17.0895 206.096 16.8608C206.504 16.6321 206.708 16.2344 206.708 15.6676V15.5483C206.708 14.0767 206.305 12.9332 205.5 12.1179C204.704 11.3026 203.496 10.8949 201.875 10.8949C200.195 10.8949 198.878 11.2628 197.923 11.9986C196.968 12.7344 196.297 13.5199 195.91 14.3551L192.569 13.1619C193.165 11.7699 193.961 10.6861 194.955 9.91051C195.959 9.125 197.053 8.57812 198.236 8.26989C199.429 7.9517 200.603 7.79261 201.756 7.79261C202.492 7.79261 203.337 7.8821 204.292 8.06108C205.256 8.23011 206.186 8.5831 207.081 9.12003C207.986 9.65696 208.736 10.4673 209.333 11.5511C209.929 12.6349 210.228 14.0866 210.228 15.9062V31H206.708V27.8977H206.529C206.29 28.3949 205.892 28.9268 205.336 29.4936C204.779 30.0604 204.038 30.5426 203.113 30.9403C202.189 31.3381 201.06 31.5369 199.728 31.5369ZM200.265 28.375C201.657 28.375 202.83 28.1016 203.785 27.5547C204.749 27.0078 205.475 26.3018 205.962 25.4368C206.459 24.5717 206.708 23.6619 206.708 22.7074V19.4858C206.559 19.6648 206.231 19.8288 205.723 19.978C205.226 20.1172 204.65 20.2415 203.993 20.3509C203.347 20.4503 202.716 20.5398 202.099 20.6193C201.493 20.6889 201 20.7486 200.623 20.7983C199.708 20.9176 198.853 21.1115 198.057 21.38C197.272 21.6385 196.635 22.0312 196.148 22.5582C195.671 23.0753 195.432 23.7812 195.432 24.6761C195.432 25.8991 195.885 26.8239 196.79 27.4503C197.704 28.0668 198.863 28.375 200.265 28.375ZM218.099 39.5909C217.502 39.5909 216.97 39.5412 216.503 39.4418C216.036 39.3523 215.713 39.2628 215.534 39.1733L216.429 36.071C217.284 36.2898 218.039 36.3693 218.696 36.3097C219.352 36.25 219.934 35.9567 220.441 35.4297C220.958 34.9126 221.43 34.0724 221.858 32.9091L222.514 31.1193L214.042 8.09091H217.86L224.184 26.3466H224.423L230.747 8.09091H234.565L224.84 34.3409C224.403 35.5241 223.861 36.5036 223.215 37.2791C222.568 38.0646 221.818 38.6463 220.963 39.0241C220.117 39.402 219.163 39.5909 218.099 39.5909Z"/>
</mask>
<path d="M4.70961 31V0.454545H8.40847V14.0568H24.6954V0.454545H28.3943V31H24.6954V17.3381H8.40847V31H4.70961ZM44.629 31.4773C42.5608 31.4773 40.7462 30.9851 39.1851 30.0007C37.634 29.0163 36.4209 27.6392 35.5459 25.8693C34.6808 24.0994 34.2483 22.0312 34.2483 19.6648C34.2483 17.2784 34.6808 15.1953 35.5459 13.4155C36.4209 11.6357 37.634 10.2536 39.1851 9.26918C40.7462 8.2848 42.5608 7.79261 44.629 7.79261C46.6972 7.79261 48.5068 8.2848 50.058 9.26918C51.6191 10.2536 52.8321 11.6357 53.6972 13.4155C54.5722 15.1953 55.0097 17.2784 55.0097 19.6648C55.0097 22.0312 54.5722 24.0994 53.6972 25.8693C52.8321 27.6392 51.6191 29.0163 50.058 30.0007C48.5068 30.9851 46.6972 31.4773 44.629 31.4773ZM44.629 28.3153C46.2 28.3153 47.4926 27.9126 48.5068 27.1072C49.521 26.3018 50.2718 25.2429 50.759 23.9304C51.2462 22.6179 51.4898 21.196 51.4898 19.6648C51.4898 18.1335 51.2462 16.7067 50.759 15.3842C50.2718 14.0618 49.521 12.9929 48.5068 12.1776C47.4926 11.3622 46.2 10.9545 44.629 10.9545C43.058 10.9545 41.7654 11.3622 40.7512 12.1776C39.737 12.9929 38.9862 14.0618 38.499 15.3842C38.0118 16.7067 37.7682 18.1335 37.7682 19.6648C37.7682 21.196 38.0118 22.6179 38.499 23.9304C38.9862 25.2429 39.737 26.3018 40.7512 27.1072C41.7654 27.9126 43.058 28.3153 44.629 28.3153ZM64.7938 31L57.8137 8.09091H61.5125L66.4642 25.6307H66.7029L71.5949 8.09091H75.3534L80.1858 25.571H80.4244L85.3762 8.09091H89.075L82.0949 31H78.6347L73.6233 13.4006H73.2654L68.254 31H64.7938ZM115.504 8.09091V11.0739H103.632V8.09091H115.504ZM107.092 2.60227H110.612V24.4375C110.612 25.4318 110.756 26.1776 111.044 26.6747C111.343 27.1619 111.721 27.4901 112.178 27.6591C112.645 27.8182 113.138 27.8977 113.655 27.8977C114.042 27.8977 114.361 27.8778 114.609 27.8381C114.858 27.7884 115.057 27.7486 115.206 27.7188L115.922 30.8807C115.683 30.9702 115.35 31.0597 114.922 31.1491C114.495 31.2486 113.953 31.2983 113.297 31.2983C112.302 31.2983 111.328 31.0845 110.373 30.657C109.429 30.2294 108.643 29.5781 108.017 28.7031C107.4 27.8281 107.092 26.7244 107.092 25.392V2.60227ZM129.859 31.4773C127.791 31.4773 125.977 30.9851 124.416 30.0007C122.864 29.0163 121.651 27.6392 120.776 25.8693C119.911 24.0994 119.479 22.0312 119.479 19.6648C119.479 17.2784 119.911 15.1953 120.776 13.4155C121.651 11.6357 122.864 10.2536 124.416 9.26918C125.977 8.2848 127.791 7.79261 129.859 7.79261C131.928 7.79261 133.737 8.2848 135.288 9.26918C136.85 10.2536 138.063 11.6357 138.928 13.4155C139.803 15.1953 140.24 17.2784 140.24 19.6648C140.24 22.0312 139.803 24.0994 138.928 25.8693C138.063 27.6392 136.85 29.0163 135.288 30.0007C133.737 30.9851 131.928 31.4773 129.859 31.4773ZM129.859 28.3153C131.43 28.3153 132.723 27.9126 133.737 27.1072C134.752 26.3018 135.502 25.2429 135.989 23.9304C136.477 22.6179 136.72 21.196 136.72 19.6648C136.72 18.1335 136.477 16.7067 135.989 15.3842C135.502 14.0618 134.752 12.9929 133.737 12.1776C132.723 11.3622 131.43 10.9545 129.859 10.9545C128.288 10.9545 126.996 11.3622 125.982 12.1776C124.967 12.9929 124.217 14.0618 123.729 15.3842C123.242 16.7067 122.999 18.1335 122.999 19.6648C122.999 21.196 123.242 22.6179 123.729 23.9304C124.217 25.2429 124.967 26.3018 125.982 27.1072C126.996 27.9126 128.288 28.3153 129.859 28.3153ZM157.426 39.5909V8.09091H160.826V11.7301H161.244C161.502 11.3324 161.86 10.8253 162.318 10.2088C162.785 9.58239 163.451 9.02557 164.316 8.53835C165.191 8.04119 166.375 7.79261 167.866 7.79261C169.795 7.79261 171.495 8.27486 172.967 9.23935C174.438 10.2038 175.587 11.571 176.412 13.3409C177.237 15.1108 177.65 17.1989 177.65 19.6051C177.65 22.0312 177.237 24.1342 176.412 25.9141C175.587 27.6839 174.443 29.0561 172.982 30.0305C171.52 30.995 169.835 31.4773 167.926 31.4773C166.454 31.4773 165.276 31.2337 164.391 30.7464C163.506 30.2493 162.825 29.6875 162.348 29.0611C161.87 28.4247 161.502 27.8977 161.244 27.4801H160.946V39.5909H157.426ZM160.886 19.5455C160.886 21.2756 161.139 22.8018 161.647 24.1243C162.154 25.4368 162.894 26.4659 163.869 27.2116C164.843 27.9474 166.036 28.3153 167.448 28.3153C168.92 28.3153 170.148 27.9276 171.132 27.152C172.127 26.3665 172.872 25.3125 173.37 23.9901C173.877 22.6577 174.13 21.1761 174.13 19.5455C174.13 17.9347 173.882 16.483 173.385 15.1903C172.897 13.8878 172.157 12.8587 171.162 12.103C170.178 11.3374 168.94 10.9545 167.448 10.9545C166.017 10.9545 164.813 11.3175 163.839 12.0433C162.865 12.7592 162.129 13.7635 161.632 15.0561C161.134 16.3388 160.886 17.8352 160.886 19.5455ZM186.539 0.454545V31H183.019V0.454545H186.539ZM199.728 31.5369C198.276 31.5369 196.959 31.2635 195.775 30.7166C194.592 30.1598 193.652 29.3594 192.956 28.3153C192.26 27.2614 191.912 25.9886 191.912 24.4972C191.912 23.1847 192.171 22.1207 192.688 21.3054C193.205 20.4801 193.896 19.8338 194.761 19.3665C195.626 18.8991 196.581 18.5511 197.625 18.3224C198.679 18.0838 199.738 17.8949 200.802 17.7557C202.194 17.5767 203.322 17.4425 204.187 17.353C205.062 17.2536 205.699 17.0895 206.096 16.8608C206.504 16.6321 206.708 16.2344 206.708 15.6676V15.5483C206.708 14.0767 206.305 12.9332 205.5 12.1179C204.704 11.3026 203.496 10.8949 201.875 10.8949C200.195 10.8949 198.878 11.2628 197.923 11.9986C196.968 12.7344 196.297 13.5199 195.91 14.3551L192.569 13.1619C193.165 11.7699 193.961 10.6861 194.955 9.91051C195.959 9.125 197.053 8.57812 198.236 8.26989C199.429 7.9517 200.603 7.79261 201.756 7.79261C202.492 7.79261 203.337 7.8821 204.292 8.06108C205.256 8.23011 206.186 8.5831 207.081 9.12003C207.986 9.65696 208.736 10.4673 209.333 11.5511C209.929 12.6349 210.228 14.0866 210.228 15.9062V31H206.708V27.8977H206.529C206.29 28.3949 205.892 28.9268 205.336 29.4936C204.779 30.0604 204.038 30.5426 203.113 30.9403C202.189 31.3381 201.06 31.5369 199.728 31.5369ZM200.265 28.375C201.657 28.375 202.83 28.1016 203.785 27.5547C204.749 27.0078 205.475 26.3018 205.962 25.4368C206.459 24.5717 206.708 23.6619 206.708 22.7074V19.4858C206.559 19.6648 206.231 19.8288 205.723 19.978C205.226 20.1172 204.65 20.2415 203.993 20.3509C203.347 20.4503 202.716 20.5398 202.099 20.6193C201.493 20.6889 201 20.7486 200.623 20.7983C199.708 20.9176 198.853 21.1115 198.057 21.38C197.272 21.6385 196.635 22.0312 196.148 22.5582C195.671 23.0753 195.432 23.7812 195.432 24.6761C195.432 25.8991 195.885 26.8239 196.79 27.4503C197.704 28.0668 198.863 28.375 200.265 28.375ZM218.099 39.5909C217.502 39.5909 216.97 39.5412 216.503 39.4418C216.036 39.3523 215.713 39.2628 215.534 39.1733L216.429 36.071C217.284 36.2898 218.039 36.3693 218.696 36.3097C219.352 36.25 219.934 35.9567 220.441 35.4297C220.958 34.9126 221.43 34.0724 221.858 32.9091L222.514 31.1193L214.042 8.09091H217.86L224.184 26.3466H224.423L230.747 8.09091H234.565L224.84 34.3409C224.403 35.5241 223.861 36.5036 223.215 37.2791C222.568 38.0646 221.818 38.6463 220.963 39.0241C220.117 39.402 219.163 39.5909 218.099 39.5909Z" fill="white"/>
<path d="M4.70961 31H3.70961V32H4.70961V31ZM4.70961 0.454544V-0.545456H3.70961V0.454544H4.70961ZM8.40847 0.454544H9.40847V-0.545456H8.40847V0.454544ZM8.40847 14.0568H7.40847V15.0568H8.40847V14.0568ZM24.6954 14.0568V15.0568H25.6954V14.0568H24.6954ZM24.6954 0.454544V-0.545456H23.6954V0.454544H24.6954ZM28.3943 0.454544H29.3943V-0.545456H28.3943V0.454544ZM28.3943 31V32H29.3943V31H28.3943ZM24.6954 31H23.6954V32H24.6954V31ZM24.6954 17.3381H25.6954V16.3381H24.6954V17.3381ZM8.40847 17.3381V16.3381H7.40847V17.3381H8.40847ZM8.40847 31V32H9.40847V31H8.40847ZM5.70961 31V0.454544H3.70961V31H5.70961ZM4.70961 1.45454H8.40847V-0.545456H4.70961V1.45454ZM7.40847 0.454544V14.0568H9.40847V0.454544H7.40847ZM8.40847 15.0568H24.6954V13.0568H8.40847V15.0568ZM25.6954 14.0568V0.454544H23.6954V14.0568H25.6954ZM24.6954 1.45454H28.3943V-0.545456H24.6954V1.45454ZM27.3943 0.454544V31H29.3943V0.454544H27.3943ZM28.3943 30H24.6954V32H28.3943V30ZM25.6954 31V17.3381H23.6954V31H25.6954ZM24.6954 16.3381H8.40847V18.3381H24.6954V16.3381ZM7.40847 17.3381V31H9.40847V17.3381H7.40847ZM8.40847 30H4.70961V32H8.40847V30ZM39.1851 30.0007L38.6493 30.845L38.6517 30.8466L39.1851 30.0007ZM35.5459 25.8693L34.6475 26.3084L34.6495 26.3125L35.5459 25.8693ZM35.5459 13.4155L34.6485 12.9743L34.6465 12.9783L35.5459 13.4155ZM39.1851 9.26918L38.6517 8.4233L38.6493 8.42485L39.1851 9.26918ZM50.058 9.26918L49.5221 10.1135L49.5246 10.115L50.058 9.26918ZM53.6972 13.4155L52.7978 13.8526L52.7998 13.8567L53.6972 13.4155ZM53.6972 25.8693L52.8007 25.4261L52.7987 25.4302L53.6972 25.8693ZM50.058 30.0007L49.5246 29.1548L49.5221 29.1564L50.058 30.0007ZM48.5068 27.1072L47.885 26.3241L48.5068 27.1072ZM50.759 23.9304L51.6965 24.2784L50.759 23.9304ZM50.759 15.3842L51.6973 15.0385L50.759 15.3842ZM48.5068 12.1776L49.1334 11.3982L48.5068 12.1776ZM40.7512 12.1776L40.1246 11.3982H40.1246L40.7512 12.1776ZM38.499 15.3842L37.5607 15.0385L38.499 15.3842ZM38.499 23.9304L37.5615 24.2784L38.499 23.9304ZM40.7512 27.1072L41.373 26.3241L40.7512 27.1072ZM44.629 30.4773C42.7261 30.4773 41.1011 30.0267 39.7185 29.1548L38.6517 30.8466C40.3912 31.9435 42.3955 32.4773 44.629 32.4773V30.4773ZM39.7209 29.1564C38.336 28.2775 37.2424 27.0445 36.4423 25.4261L34.6495 26.3125C35.5994 28.2339 36.9319 29.7552 38.6493 30.845L39.7209 29.1564ZM36.4443 25.4302C35.6582 23.8219 35.2483 21.9093 35.2483 19.6648H33.2483C33.2483 22.1532 33.7035 24.377 34.6475 26.3084L36.4443 25.4302ZM35.2483 19.6648C35.2483 17.3991 35.6587 15.471 36.4453 13.8526L34.6465 12.9783C33.703 14.9196 33.2483 17.1577 33.2483 19.6648H35.2483ZM36.4433 13.8567C37.2439 12.2283 38.3374 10.9915 39.7209 10.1135L38.6493 8.42485C36.9305 9.51562 35.5979 11.043 34.6485 12.9743L36.4433 13.8567ZM39.7185 10.115C41.1011 9.24319 42.7261 8.79261 44.629 8.79261V6.79261C42.3955 6.79261 40.3912 7.32641 38.6517 8.4233L39.7185 10.115ZM44.629 8.79261C46.532 8.79261 48.1508 9.24322 49.5221 10.1135L50.5938 8.42485C48.8629 7.32639 46.8624 6.79261 44.629 6.79261V8.79261ZM49.5246 10.115C50.9165 10.9927 52.0081 12.2279 52.7978 13.8526L54.5966 12.9783C53.6561 11.0434 52.3216 9.51436 50.5914 8.4233L49.5246 10.115ZM52.7998 13.8567C53.5949 15.4741 54.0097 17.4007 54.0097 19.6648H56.0097C56.0097 17.1561 55.5494 14.9165 54.5946 12.9743L52.7998 13.8567ZM54.0097 19.6648C54.0097 21.9077 53.5954 23.8188 52.8007 25.4261L54.5936 26.3125C55.549 24.3801 56.0097 22.1548 56.0097 19.6648H54.0097ZM52.7987 25.4302C52.0095 27.045 50.9179 28.2763 49.5246 29.1548L50.5914 30.8466C52.3202 29.7564 53.6547 28.2334 54.5956 26.3084L52.7987 25.4302ZM49.5221 29.1564C48.1508 30.0267 46.532 30.4773 44.629 30.4773V32.4773C46.8624 32.4773 48.8629 31.9435 50.5938 30.845L49.5221 29.1564ZM44.629 29.3153C46.3762 29.3153 47.9023 28.8642 49.1287 27.8904L47.885 26.3241C47.0829 26.961 46.0238 27.3153 44.629 27.3153V29.3153ZM49.1287 27.8904C50.2974 26.9623 51.1511 25.7477 51.6965 24.2784L49.8215 23.5824C49.3924 24.7381 48.7447 25.6414 47.885 26.3241L49.1287 27.8904ZM51.6965 24.2784C52.2287 22.8446 52.4898 21.3037 52.4898 19.6648H50.4898C50.4898 21.0884 50.2636 22.3912 49.8215 23.5824L51.6965 24.2784ZM52.4898 19.6648C52.4898 18.0258 52.2287 16.4809 51.6973 15.0385L49.8206 15.7299C50.2637 16.9325 50.4898 18.2413 50.4898 19.6648H52.4898ZM51.6973 15.0385C51.1528 13.5606 50.3006 12.3365 49.1334 11.3982L47.8803 12.9569C48.7415 13.6493 49.3907 14.563 49.8206 15.7299L51.6973 15.0385ZM49.1334 11.3982C47.9069 10.4122 46.379 9.95454 44.629 9.95454V11.9545C46.021 11.9545 47.0784 12.3123 47.8803 12.9569L49.1334 11.3982ZM44.629 9.95454C42.879 9.95454 41.3511 10.4122 40.1246 11.3982L41.3777 12.9569C42.1796 12.3123 43.237 11.9545 44.629 11.9545V9.95454ZM40.1246 11.3982C38.9574 12.3365 38.1052 13.5606 37.5607 15.0385L39.4374 15.7299C39.8673 14.563 40.5165 13.6493 41.3777 12.9569L40.1246 11.3982ZM37.5607 15.0385C37.0293 16.4809 36.7682 18.0258 36.7682 19.6648H38.7682C38.7682 18.2413 38.9943 16.9325 39.4374 15.7299L37.5607 15.0385ZM36.7682 19.6648C36.7682 21.3037 37.0293 22.8446 37.5615 24.2784L39.4365 23.5824C38.9943 22.3912 38.7682 21.0884 38.7682 19.6648H36.7682ZM37.5615 24.2784C38.1069 25.7477 38.9606 26.9623 40.1293 27.8904L41.373 26.3241C40.5133 25.6414 39.8655 24.7381 39.4365 23.5824L37.5615 24.2784ZM40.1293 27.8904C41.3557 28.8642 42.8818 29.3153 44.629 29.3153V27.3153C43.2341 27.3153 42.1751 26.961 41.373 26.3241L40.1293 27.8904ZM64.7938 31L63.8372 31.2915L64.0531 32H64.7938V31ZM57.8137 8.09091V7.09091H56.4636L56.8571 8.38237L57.8137 8.09091ZM61.5125 8.09091L62.4749 7.81922L62.2693 7.09091H61.5125V8.09091ZM66.4642 25.6307L65.5018 25.9024L65.7075 26.6307H66.4642V25.6307ZM66.7029 25.6307V26.6307H67.4621L67.6661 25.8993L66.7029 25.6307ZM71.5949 8.09091V7.09091H70.8356L70.6317 7.82225L71.5949 8.09091ZM75.3534 8.09091L76.3173 7.82445L76.1145 7.09091H75.3534V8.09091ZM80.1858 25.571L79.222 25.8375L79.4248 26.571H80.1858V25.571ZM80.4244 25.571V26.571H81.1805L81.3866 25.8436L80.4244 25.571ZM85.3762 8.09091V7.09091H84.6201L84.414 7.81836L85.3762 8.09091ZM89.075 8.09091L90.0316 8.38237L90.4251 7.09091H89.075V8.09091ZM82.0949 31V32H82.8356L83.0515 31.2915L82.0949 31ZM78.6347 31L77.6729 31.2739L77.8797 32H78.6347V31ZM73.6233 13.4006L74.5851 13.1267L74.3783 12.4006H73.6233V13.4006ZM73.2654 13.4006V12.4006H72.5104L72.3036 13.1267L73.2654 13.4006ZM68.254 31V32H69.009L69.2158 31.2739L68.254 31ZM65.7504 30.7085L58.7702 7.79945L56.8571 8.38237L63.8372 31.2915L65.7504 30.7085ZM57.8137 9.09091H61.5125V7.09091H57.8137V9.09091ZM60.5501 8.3626L65.5018 25.9024L67.4266 25.359L62.4749 7.81922L60.5501 8.3626ZM66.4642 26.6307H66.7029V24.6307H66.4642V26.6307ZM67.6661 25.8993L72.5581 8.35957L70.6317 7.82225L65.7396 25.362L67.6661 25.8993ZM71.5949 9.09091H75.3534V7.09091H71.5949V9.09091ZM74.3896 8.35736L79.222 25.8375L81.1497 25.3046L76.3173 7.82445L74.3896 8.35736ZM80.1858 26.571H80.4244V24.571H80.1858V26.571ZM81.3866 25.8436L86.3383 8.36346L84.414 7.81836L79.4623 25.2985L81.3866 25.8436ZM85.3762 9.09091H89.075V7.09091H85.3762V9.09091ZM88.1184 7.79945L81.1383 30.7085L83.0515 31.2915L90.0316 8.38237L88.1184 7.79945ZM82.0949 30H78.6347V32H82.0949V30ZM79.5965 30.7261L74.5851 13.1267L72.6615 13.6744L77.6729 31.2739L79.5965 30.7261ZM73.6233 12.4006H73.2654V14.4006H73.6233V12.4006ZM72.3036 13.1267L67.2922 30.7261L69.2158 31.2739L74.2271 13.6744L72.3036 13.1267ZM68.254 30H64.7938V32H68.254V30ZM115.504 8.09091H116.504V7.09091H115.504V8.09091ZM115.504 11.0739V12.0739H116.504V11.0739H115.504ZM103.632 11.0739H102.632V12.0739H103.632V11.0739ZM103.632 8.09091V7.09091H102.632V8.09091H103.632ZM107.092 2.60227V1.60227H106.092V2.60227H107.092ZM110.612 2.60227H111.612V1.60227H110.612V2.60227ZM111.044 26.6747L110.179 27.1764L110.185 27.1867L110.192 27.1969L111.044 26.6747ZM112.178 27.6591L111.831 28.5971L111.843 28.6016L111.856 28.6057L112.178 27.6591ZM114.609 27.8381L114.767 28.8255L114.786 28.8224L114.805 28.8186L114.609 27.8381ZM115.206 27.7188L116.181 27.4979L115.966 26.5469L115.01 26.7382L115.206 27.7188ZM115.922 30.8807L116.273 31.817L117.09 31.5107L116.897 30.6599L115.922 30.8807ZM114.922 31.1491L114.717 30.1704L114.707 30.1726L114.696 30.1751L114.922 31.1491ZM110.373 30.657L109.961 31.568L109.965 31.5696L110.373 30.657ZM108.017 28.7031L107.199 29.2791L107.204 29.2852L108.017 28.7031ZM114.504 8.09091V11.0739H116.504V8.09091H114.504ZM115.504 10.0739H103.632V12.0739H115.504V10.0739ZM104.632 11.0739V8.09091H102.632V11.0739H104.632ZM103.632 9.09091H115.504V7.09091H103.632V9.09091ZM107.092 3.60227H110.612V1.60227H107.092V3.60227ZM109.612 2.60227V24.4375H111.612V2.60227H109.612ZM109.612 24.4375C109.612 25.4957 109.76 26.4526 110.179 27.1764L111.91 26.173C111.753 25.9025 111.612 25.3679 111.612 24.4375H109.612ZM110.192 27.1969C110.586 27.8414 111.129 28.3373 111.831 28.5971L112.525 26.7211C112.313 26.6428 112.099 26.4825 111.897 26.1526L110.192 27.1969ZM111.856 28.6057C112.432 28.8018 113.033 28.8977 113.655 28.8977V26.8977C113.242 26.8977 112.859 26.8346 112.5 26.7124L111.856 28.6057ZM113.655 28.8977C114.07 28.8977 114.446 28.8768 114.767 28.8255L114.451 26.8506C114.275 26.8788 114.014 26.8977 113.655 26.8977V28.8977ZM114.805 28.8186C115.054 28.7689 115.253 28.7292 115.402 28.6993L115.01 26.7382C114.86 26.768 114.662 26.8078 114.413 26.8575L114.805 28.8186ZM114.23 27.9396L114.946 31.1015L116.897 30.6599L116.181 27.4979L114.23 27.9396ZM115.57 29.9444C115.401 30.0078 115.125 30.0851 114.717 30.1704L115.127 32.1279C115.575 32.0343 115.965 31.9325 116.273 31.817L115.57 29.9444ZM114.696 30.1751C114.369 30.2511 113.91 30.2983 113.297 30.2983V32.2983C113.996 32.2983 114.62 32.2461 115.149 32.1232L114.696 30.1751ZM113.297 30.2983C112.45 30.2983 111.615 30.1173 110.782 29.7443L109.965 31.5696C111.041 32.0517 112.154 32.2983 113.297 32.2983V30.2983ZM110.786 29.7459C110.007 29.3937 109.358 28.8587 108.83 28.121L107.204 29.2852C107.928 30.2975 108.85 31.0651 109.961 31.568L110.786 29.7459ZM108.834 28.1272C108.363 27.4581 108.092 26.5692 108.092 25.392H106.092C106.092 26.8797 106.438 28.1982 107.199 29.2791L108.834 28.1272ZM108.092 25.392V2.60227H106.092V25.392H108.092ZM124.416 30.0007L123.88 30.845L123.882 30.8466L124.416 30.0007ZM120.776 25.8693L119.878 26.3084L119.88 26.3125L120.776 25.8693ZM120.776 13.4155L119.879 12.9743L119.877 12.9783L120.776 13.4155ZM124.416 9.26918L123.882 8.4233L123.88 8.42485L124.416 9.26918ZM135.288 9.26918L134.753 10.1135L134.755 10.115L135.288 9.26918ZM138.928 13.4155L138.028 13.8526L138.03 13.8567L138.928 13.4155ZM138.928 25.8693L138.031 25.4261L138.029 25.4302L138.928 25.8693ZM135.288 30.0007L134.755 29.1548L134.753 29.1564L135.288 30.0007ZM133.737 27.1072L133.115 26.3241L133.737 27.1072ZM135.989 23.9304L136.927 24.2784L135.989 23.9304ZM135.989 15.3842L136.928 15.0385L135.989 15.3842ZM133.737 12.1776L134.364 11.3982L133.737 12.1776ZM125.982 12.1776L125.355 11.3982L125.982 12.1776ZM123.729 15.3842L122.791 15.0385L123.729 15.3842ZM123.729 23.9304L122.792 24.2784L123.729 23.9304ZM125.982 27.1072L126.604 26.3241L125.982 27.1072ZM129.859 30.4773C127.957 30.4773 126.332 30.0267 124.949 29.1548L123.882 30.8466C125.622 31.9435 127.626 32.4773 129.859 32.4773V30.4773ZM124.951 29.1564C123.567 28.2775 122.473 27.0445 121.673 25.4261L119.88 26.3125C120.83 28.2339 122.162 29.7552 123.88 30.845L124.951 29.1564ZM121.675 25.4302C120.889 23.8219 120.479 21.9093 120.479 19.6648H118.479C118.479 22.1532 118.934 24.377 119.878 26.3084L121.675 25.4302ZM120.479 19.6648C120.479 17.3991 120.889 15.471 121.676 13.8526L119.877 12.9783C118.933 14.9196 118.479 17.1577 118.479 19.6648H120.479ZM121.674 13.8567C122.474 12.2283 123.568 10.9915 124.951 10.1135L123.88 8.42485C122.161 9.51562 120.828 11.043 119.879 12.9743L121.674 13.8567ZM124.949 10.115C126.332 9.24319 127.957 8.79261 129.859 8.79261V6.79261C127.626 6.79261 125.622 7.32641 123.882 8.4233L124.949 10.115ZM129.859 8.79261C131.762 8.79261 133.381 9.24322 134.753 10.1135L135.824 8.42485C134.093 7.32639 132.093 6.79261 129.859 6.79261V8.79261ZM134.755 10.115C136.147 10.9927 137.239 12.2279 138.028 13.8526L139.827 12.9783C138.887 11.0434 137.552 9.51436 135.822 8.4233L134.755 10.115ZM138.03 13.8567C138.825 15.4741 139.24 17.4007 139.24 19.6648H141.24C141.24 17.1561 140.78 14.9165 139.825 12.9743L138.03 13.8567ZM139.24 19.6648C139.24 21.9077 138.826 23.8188 138.031 25.4261L139.824 26.3125C140.779 24.3801 141.24 22.1548 141.24 19.6648H139.24ZM138.029 25.4302C137.24 27.045 136.148 28.2763 134.755 29.1548L135.822 30.8466C137.551 29.7564 138.885 28.2334 139.826 26.3084L138.029 25.4302ZM134.753 29.1564C133.381 30.0267 131.762 30.4773 129.859 30.4773V32.4773C132.093 32.4773 134.093 31.9435 135.824 30.845L134.753 29.1564ZM129.859 29.3153C131.607 29.3153 133.133 28.8642 134.359 27.8904L133.115 26.3241C132.313 26.961 131.254 27.3153 129.859 27.3153V29.3153ZM134.359 27.8904C135.528 26.9623 136.382 25.7477 136.927 24.2784L135.052 23.5824C134.623 24.7381 133.975 25.6414 133.115 26.3241L134.359 27.8904ZM136.927 24.2784C137.459 22.8446 137.72 21.3037 137.72 19.6648H135.72C135.72 21.0884 135.494 22.3912 135.052 23.5824L136.927 24.2784ZM137.72 19.6648C137.72 18.0258 137.459 16.4809 136.928 15.0385L135.051 15.7299C135.494 16.9325 135.72 18.2413 135.72 19.6648H137.72ZM136.928 15.0385C136.383 13.5606 135.531 12.3365 134.364 11.3982L133.111 12.9569C133.972 13.6493 134.621 14.563 135.051 15.7299L136.928 15.0385ZM134.364 11.3982C133.137 10.4122 131.609 9.95454 129.859 9.95454V11.9545C131.252 11.9545 132.309 12.3123 133.111 12.9569L134.364 11.3982ZM129.859 9.95454C128.109 9.95454 126.582 10.4122 125.355 11.3982L126.608 12.9569C127.41 12.3123 128.467 11.9545 129.859 11.9545V9.95454ZM125.355 11.3982C124.188 12.3365 123.336 13.5606 122.791 15.0385L124.668 15.7299C125.098 14.563 125.747 13.6493 126.608 12.9569L125.355 11.3982ZM122.791 15.0385C122.26 16.4809 121.999 18.0258 121.999 19.6648H123.999C123.999 18.2413 124.225 16.9325 124.668 15.7299L122.791 15.0385ZM121.999 19.6648C121.999 21.3037 122.26 22.8446 122.792 24.2784L124.667 23.5824C124.225 22.3912 123.999 21.0884 123.999 19.6648H121.999ZM122.792 24.2784C123.337 25.7477 124.191 26.9623 125.36 27.8904L126.604 26.3241C125.744 25.6414 125.096 24.7381 124.667 23.5824L122.792 24.2784ZM125.36 27.8904C126.586 28.8642 128.112 29.3153 129.859 29.3153V27.3153C128.465 27.3153 127.406 26.961 126.604 26.3241L125.36 27.8904ZM157.426 39.5909H156.426V40.5909H157.426V39.5909ZM157.426 8.09091V7.09091H156.426V8.09091H157.426ZM160.826 8.09091H161.826V7.09091H160.826V8.09091ZM160.826 11.7301H159.826V12.7301H160.826V11.7301ZM161.244 11.7301V12.7301H161.787L162.082 12.2751L161.244 11.7301ZM162.318 10.2088L161.516 9.61084L161.515 9.61296L162.318 10.2088ZM164.316 8.53835L164.807 9.40967L164.81 9.40781L164.316 8.53835ZM172.967 9.23935L173.515 8.40298V8.40297L172.967 9.23935ZM176.412 13.3409L177.319 12.9183V12.9183L176.412 13.3409ZM176.412 25.9141L177.319 26.3367L177.319 26.3347L176.412 25.9141ZM172.982 30.0305L173.533 30.8652L173.536 30.8626L172.982 30.0305ZM164.391 30.7464L163.901 31.6183L163.909 31.6225L164.391 30.7464ZM162.348 29.0611L161.548 29.6611L161.552 29.6671L162.348 29.0611ZM161.244 27.4801L162.094 26.9538L161.801 26.4801H161.244V27.4801ZM160.946 27.4801V26.4801H159.946V27.4801H160.946ZM160.946 39.5909V40.5909H161.946V39.5909H160.946ZM161.647 24.1243L160.713 24.4823L160.714 24.4847L161.647 24.1243ZM163.869 27.2116L163.261 28.0058L163.266 28.0097L163.869 27.2116ZM171.132 27.152L171.751 27.9375L171.752 27.9367L171.132 27.152ZM173.37 23.9901L172.435 23.6343L172.434 23.6382L173.37 23.9901ZM173.385 15.1903L172.448 15.5407L172.451 15.5493L173.385 15.1903ZM171.162 12.103L170.548 12.8924L170.557 12.8991L171.162 12.103ZM163.839 12.0433L164.431 12.8492L164.436 12.8453L163.839 12.0433ZM161.632 15.0561L162.564 15.4175L162.565 15.4151L161.632 15.0561ZM158.426 39.5909V8.09091H156.426V39.5909H158.426ZM157.426 9.09091H160.826V7.09091H157.426V9.09091ZM159.826 8.09091V11.7301H161.826V8.09091H159.826ZM160.826 12.7301H161.244V10.7301H160.826V12.7301ZM162.082 12.2751C162.325 11.9019 162.669 11.4133 163.121 10.8047L161.515 9.61296C161.051 10.2373 160.68 10.7629 160.405 11.1851L162.082 12.2751ZM163.119 10.8068C163.484 10.318 164.032 9.84628 164.807 9.40966L163.826 7.66705C162.871 8.20486 162.086 8.84676 161.516 9.61084L163.119 10.8068ZM164.81 9.40781C165.479 9.02774 166.47 8.79261 167.866 8.79261V6.79261C166.279 6.79261 164.903 7.05465 163.822 7.6689L164.81 9.40781ZM167.866 8.79261C169.62 8.79261 171.126 9.22821 172.419 10.0757L173.515 8.40297C171.865 7.32151 169.97 6.79261 167.866 6.79261V8.79261ZM172.419 10.0757C173.718 10.9273 174.75 12.1431 175.506 13.7635L177.319 12.9183C176.424 10.999 175.159 9.48036 173.515 8.40298L172.419 10.0757ZM175.506 13.7635C176.257 15.374 176.65 17.3118 176.65 19.6051H178.65C178.65 17.086 178.218 14.8476 177.319 12.9183L175.506 13.7635ZM176.65 19.6051C176.65 21.9195 176.256 23.8728 175.505 25.4934L177.319 26.3347C178.219 24.3957 178.65 22.143 178.65 19.6051H176.65ZM175.506 25.4915C174.749 27.1143 173.72 28.3368 172.427 29.1985L173.536 30.8626C175.167 29.7754 176.425 28.2536 177.319 26.3367L175.506 25.4915ZM172.431 29.1959C171.148 30.0428 169.657 30.4773 167.926 30.4773V32.4773C170.012 32.4773 171.893 31.9473 173.533 30.8652L172.431 29.1959ZM167.926 30.4773C166.551 30.4773 165.558 30.2476 164.873 29.8704L163.909 31.6225C164.993 32.2198 166.357 32.4773 167.926 32.4773V30.4773ZM164.881 29.8746C164.082 29.4258 163.517 28.9465 163.143 28.455L161.552 29.6671C162.132 30.4285 162.93 31.0728 163.901 31.6183L164.881 29.8746ZM163.148 28.4611C162.679 27.8359 162.33 27.3355 162.094 26.9538L160.394 28.0065C160.674 28.4599 161.062 29.0135 161.548 29.6611L163.148 28.4611ZM161.244 26.4801H160.946V28.4801H161.244V26.4801ZM159.946 27.4801V39.5909H161.946V27.4801H159.946ZM160.946 38.5909H157.426V40.5909H160.946V38.5909ZM159.886 19.5455C159.886 21.3717 160.153 23.0234 160.713 24.4823L162.58 23.7663C162.126 22.5803 161.886 21.1795 161.886 19.5455H159.886ZM160.714 24.4847C161.277 25.9432 162.12 27.1325 163.261 28.0058L164.477 26.4175C163.669 25.7993 163.03 24.9304 162.579 23.7639L160.714 24.4847ZM163.266 28.0097C164.441 28.8964 165.854 29.3153 167.448 29.3153V27.3153C166.219 27.3153 165.246 26.9985 164.471 26.4136L163.266 28.0097ZM167.448 29.3153C169.104 29.3153 170.561 28.8753 171.751 27.9375L170.514 26.3665C169.735 26.9798 168.736 27.3153 167.448 27.3153V29.3153ZM171.752 27.9367C172.905 27.0257 173.752 25.8146 174.306 24.3419L172.434 23.6382C171.993 24.8104 171.348 25.7072 170.512 26.3673L171.752 27.9367ZM174.304 24.3458C174.86 22.8847 175.13 21.2804 175.13 19.5455H173.13C173.13 21.0719 172.893 22.4307 172.435 23.6343L174.304 24.3458ZM175.13 19.5455C175.13 17.8316 174.866 16.2556 174.318 14.8314L172.451 15.5493C172.898 16.7103 173.13 18.0377 173.13 19.5455H175.13ZM174.321 14.84C173.775 13.3812 172.929 12.1895 171.767 11.3068L170.557 12.8991C171.384 13.5278 172.019 14.3943 172.448 15.5407L174.321 14.84ZM171.776 11.3136C170.584 10.3862 169.117 9.95454 167.448 9.95454V11.9545C168.763 11.9545 169.772 12.2885 170.548 12.8923L171.776 11.3136ZM167.448 9.95454C165.841 9.95454 164.418 10.3651 163.242 11.2414L164.436 12.8453C165.209 12.2699 166.192 11.9545 167.448 11.9545V9.95454ZM163.247 11.2374C162.097 12.0824 161.254 13.2526 160.698 14.6971L162.565 15.4151C163.004 14.2744 163.632 13.4361 164.431 12.8492L163.247 11.2374ZM160.699 14.6947C160.148 16.1169 159.886 17.7406 159.886 19.5455H161.886C161.886 17.9298 162.121 16.5607 162.564 15.4175L160.699 14.6947ZM186.539 0.454544H187.539V-0.545456H186.539V0.454544ZM186.539 31V32H187.539V31H186.539ZM183.019 31H182.019V32H183.019V31ZM183.019 0.454544V-0.545456H182.019V0.454544H183.019ZM185.539 0.454544V31H187.539V0.454544H185.539ZM186.539 30H183.019V32H186.539V30ZM184.019 31V0.454544H182.019V31H184.019ZM183.019 1.45454H186.539V-0.545456H183.019V1.45454ZM195.775 30.7166L195.349 31.6215L195.356 31.6244L195.775 30.7166ZM192.956 28.3153L192.122 28.8664L192.124 28.87L192.956 28.3153ZM192.688 21.3054L193.532 21.8409L193.535 21.8363L192.688 21.3054ZM197.625 18.3224L197.839 19.2993L197.846 19.2978L197.625 18.3224ZM200.802 17.7557L200.674 16.7638L200.672 16.7641L200.802 17.7557ZM204.187 17.353L204.29 18.3477L204.3 18.3466L204.187 17.353ZM206.096 16.8608L205.607 15.9886L205.598 15.9939L206.096 16.8608ZM205.5 12.1179L204.784 12.8162L204.788 12.8207L205.5 12.1179ZM197.923 11.9986L198.534 12.7906L197.923 11.9986ZM195.91 14.3551L195.573 15.2969L196.432 15.6037L196.817 14.7762L195.91 14.3551ZM192.569 13.1619L191.649 12.768L191.23 13.7459L192.232 14.1037L192.569 13.1619ZM194.955 9.91051L195.57 10.699L195.571 10.6982L194.955 9.91051ZM198.236 8.26989L198.488 9.23761L198.494 9.23612L198.236 8.26989ZM204.292 8.06108L204.107 9.04402L204.119 9.04606L204.292 8.06108ZM207.081 9.12003L206.566 9.97753L206.57 9.98001L207.081 9.12003ZM209.333 11.5511L208.457 12.0334L209.333 11.5511ZM210.228 31V32H211.228V31H210.228ZM206.708 31H205.708V32H206.708V31ZM206.708 27.8977H207.708V26.8977H206.708V27.8977ZM206.529 27.8977V26.8977H205.9L205.627 27.465L206.529 27.8977ZM205.336 29.4936L206.049 30.1944V30.1944L205.336 29.4936ZM203.113 30.9403L202.718 30.0217L203.113 30.9403ZM203.785 27.5547L203.291 26.6848L203.287 26.687L203.785 27.5547ZM205.962 25.4368L205.095 24.9385L205.091 24.9461L205.962 25.4368ZM206.708 19.4858H207.708V16.7237L205.94 18.8456L206.708 19.4858ZM205.723 19.978L205.993 20.941L206.006 20.9373L205.723 19.978ZM203.993 20.3509L204.145 21.3393L204.158 21.3372L203.993 20.3509ZM202.099 20.6193L202.213 21.6129L202.227 21.6111L202.099 20.6193ZM200.623 20.7983L200.752 21.7899L200.753 21.7897L200.623 20.7983ZM198.057 21.38L198.37 22.3299L198.377 22.3275L198.057 21.38ZM196.148 22.5582L195.414 21.8794L195.413 21.88L196.148 22.5582ZM196.79 27.4503L196.22 28.2725L196.231 28.2795L196.79 27.4503ZM199.728 30.5369C198.404 30.5369 197.232 30.2884 196.195 29.8089L195.356 31.6244C196.685 32.2386 198.148 32.5369 199.728 32.5369V30.5369ZM196.201 29.8118C195.175 29.3291 194.379 28.6466 193.788 27.7606L192.124 28.87C192.926 30.0721 194.009 30.9905 195.35 31.6214L196.201 29.8118ZM193.791 27.7643C193.221 26.9015 192.912 25.8288 192.912 24.4972H190.912C190.912 26.1485 191.3 27.6212 192.122 28.8664L193.791 27.7643ZM192.912 24.4972C192.912 23.3083 193.147 22.4483 193.532 21.8409L191.843 20.7699C191.194 21.7932 190.912 23.061 190.912 24.4972H192.912ZM193.535 21.8363C193.96 21.159 194.522 20.6323 195.236 20.2463L194.286 18.4867C193.27 19.0353 192.45 19.8012 191.841 20.7745L193.535 21.8363ZM195.236 20.2463C196.012 19.827 196.878 19.5097 197.839 19.2993L197.411 17.3456C196.283 17.5926 195.24 17.9713 194.286 18.4867L195.236 20.2463ZM197.846 19.2978C198.87 19.0659 199.898 18.8824 200.931 18.7472L200.672 16.7641C199.577 16.9074 198.488 17.1017 197.404 17.3471L197.846 19.2978ZM200.929 18.7475C202.317 18.569 203.437 18.436 204.29 18.3477L204.084 16.3583C203.208 16.449 202.07 16.5844 200.674 16.7638L200.929 18.7475ZM204.3 18.3466C205.209 18.2433 206.014 18.0618 206.595 17.7277L205.598 15.9939C205.383 16.1172 204.915 16.2638 204.074 16.3594L204.3 18.3466ZM206.586 17.7329C207.381 17.2869 207.708 16.5051 207.708 15.6676H205.708C205.708 15.8338 205.678 15.9099 205.665 15.9349C205.657 15.9504 205.648 15.9659 205.607 15.9887L206.586 17.7329ZM207.708 15.6676V15.5483H205.708V15.6676H207.708ZM207.708 15.5483C207.708 13.8917 207.25 12.4667 206.211 11.4151L204.788 12.8207C205.36 13.3998 205.708 14.2617 205.708 15.5483H207.708ZM206.216 11.4196C205.164 10.342 203.65 9.89489 201.875 9.89489V11.8949C203.342 11.8949 204.244 12.2631 204.784 12.8162L206.216 11.4196ZM201.875 9.89489C200.06 9.89489 198.499 10.2917 197.313 11.2066L198.534 12.7906C199.256 12.2339 200.331 11.8949 201.875 11.8949V9.89489ZM197.313 11.2066C196.269 12.0112 195.476 12.9152 195.003 13.934L196.817 14.7762C197.119 14.1246 197.668 13.4576 198.534 12.7906L197.313 11.2066ZM196.246 13.4134L192.905 12.2202L192.232 14.1037L195.573 15.2969L196.246 13.4134ZM193.488 13.5558C194.031 12.2878 194.733 11.3518 195.57 10.699L194.34 9.12201C193.188 10.0203 192.299 11.252 191.649 12.768L193.488 13.5558ZM195.571 10.6982C196.472 9.99327 197.443 9.50987 198.488 9.23759L197.984 7.30218C196.663 7.64638 195.446 8.25673 194.339 9.12284L195.571 10.6982ZM198.494 9.23612C199.609 8.93878 200.696 8.79261 201.756 8.79261V6.79261C200.51 6.79261 199.25 6.96463 197.979 7.30365L198.494 9.23612ZM201.756 8.79261C202.414 8.79261 203.196 8.87299 204.107 9.04395L204.476 7.07821C203.479 6.89122 202.57 6.79261 201.756 6.79261V8.79261ZM204.119 9.04606C204.955 9.19257 205.77 9.4995 206.566 9.97752L207.595 8.26253C206.602 7.66669 205.557 7.26766 204.464 7.07609L204.119 9.04606ZM206.57 9.98001C207.297 10.411 207.931 11.0781 208.457 12.0334L210.209 11.0689C209.542 9.85654 208.674 8.90292 207.591 8.26004L206.57 9.98001ZM208.457 12.0334C208.943 12.9161 209.228 14.1815 209.228 15.9062H211.228C211.228 13.9918 210.916 12.3538 210.209 11.0689L208.457 12.0334ZM209.228 15.9062V31H211.228V15.9062H209.228ZM210.228 30H206.708V32H210.228V30ZM207.708 31V27.8977H205.708V31H207.708ZM206.708 26.8977H206.529V28.8977H206.708V26.8977ZM205.627 27.465C205.452 27.8298 205.133 28.2729 204.622 28.7928L206.049 30.1944C206.652 29.5808 207.128 28.9599 207.43 28.3305L205.627 27.465ZM204.622 28.7928C204.177 29.2459 203.554 29.6621 202.718 30.0217L203.508 31.859C204.522 31.4231 205.381 30.8749 206.049 30.1944L204.622 28.7928ZM202.718 30.0217C201.952 30.3514 200.966 30.5369 199.728 30.5369V32.5369C201.154 32.5369 202.426 32.3247 203.508 31.859L202.718 30.0217ZM200.265 29.375C201.786 29.375 203.141 29.0761 204.282 28.4224L203.287 26.687C202.519 27.1271 201.528 27.375 200.265 27.375V29.375ZM204.278 28.4246C205.381 27.7988 206.247 26.969 206.833 25.9275L205.091 24.9461C204.703 25.6347 204.117 26.2168 203.291 26.6848L204.278 28.4246ZM206.829 25.9351C207.409 24.9255 207.708 23.8449 207.708 22.7074H205.708C205.708 23.479 205.509 24.2179 205.095 24.9385L206.829 25.9351ZM207.708 22.7074V19.4858H205.708V22.7074H207.708ZM205.94 18.8456C205.989 18.7858 206.006 18.7967 205.903 18.8486C205.809 18.8954 205.661 18.9541 205.441 19.0186L206.006 20.9373C206.293 20.8527 206.563 20.7548 206.797 20.6375C207.021 20.5254 207.277 20.3648 207.476 20.126L205.94 18.8456ZM205.454 19.015C204.999 19.1422 204.459 19.2594 203.829 19.3645L204.158 21.3372C204.84 21.2235 205.453 21.0921 205.993 20.9409L205.454 19.015ZM203.841 19.3625C203.203 19.4607 202.579 19.5491 201.971 19.6275L202.227 21.6111C202.852 21.5305 203.491 21.4398 204.145 21.3392L203.841 19.3625ZM201.985 19.6258C201.376 19.6957 200.878 19.7561 200.492 19.8068L200.753 21.7897C201.123 21.741 201.609 21.6821 202.213 21.6128L201.985 19.6258ZM200.493 19.8067C199.52 19.9336 198.601 20.1412 197.737 20.4325L198.377 22.3275C199.105 22.0818 199.896 21.9016 200.752 21.7899L200.493 19.8067ZM197.745 20.4301C196.823 20.7335 196.033 21.2099 195.414 21.8794L196.882 23.2371C197.238 22.8526 197.721 22.5435 198.37 22.3298L197.745 20.4301ZM195.413 21.88C194.723 22.6279 194.432 23.6007 194.432 24.6761H196.432C196.432 23.9618 196.619 23.5226 196.883 23.2365L195.413 21.88ZM194.432 24.6761C194.432 26.1846 195.012 27.4362 196.22 28.2725L197.359 26.6281C196.757 26.2115 196.432 25.6137 196.432 24.6761H194.432ZM196.231 28.2795C197.35 29.034 198.717 29.375 200.265 29.375V27.375C199.008 27.375 198.058 27.0995 197.348 26.621L196.231 28.2795ZM216.503 39.4418L216.711 38.4637L216.701 38.4615L216.691 38.4596L216.503 39.4418ZM215.534 39.1733L214.573 38.8961L214.342 39.6956L215.086 40.0677L215.534 39.1733ZM216.429 36.071L216.676 35.1022L215.737 34.8618L215.468 35.7939L216.429 36.071ZM218.696 36.3097L218.605 35.3138L218.696 36.3097ZM220.441 35.4297L219.734 34.7226L219.727 34.7294L219.72 34.7363L220.441 35.4297ZM221.858 32.9091L222.796 33.2541L222.796 33.2533L221.858 32.9091ZM222.514 31.1193L223.453 31.4636L223.579 31.1188L223.452 30.7741L222.514 31.1193ZM214.042 8.09091V7.09091H212.609L213.104 8.43616L214.042 8.09091ZM217.86 8.09091L218.805 7.76359L218.572 7.09091H217.86V8.09091ZM224.184 26.3466L223.239 26.6739L223.472 27.3466H224.184V26.3466ZM224.423 26.3466V27.3466H225.135L225.368 26.6739L224.423 26.3466ZM230.747 8.09091V7.09091H230.035L229.802 7.76359L230.747 8.09091ZM234.565 8.09091L235.503 8.43829L236.002 7.09091H234.565V8.09091ZM224.84 34.3409L223.903 33.9935L223.903 33.9941L224.84 34.3409ZM223.215 37.2791L222.447 36.6389L222.443 36.6438L223.215 37.2791ZM220.963 39.0241L220.558 38.1095L220.554 38.1112L220.963 39.0241ZM218.099 38.5909C217.556 38.5909 217.096 38.5455 216.711 38.4637L216.295 40.4199C216.845 40.5369 217.449 40.5909 218.099 40.5909V38.5909ZM216.691 38.4596C216.474 38.418 216.304 38.3791 216.177 38.3438C216.114 38.3263 216.066 38.311 216.031 38.2985C215.994 38.2855 215.98 38.2784 215.981 38.2789L215.086 40.0677C215.401 40.2251 215.847 40.3343 216.315 40.4239L216.691 38.4596ZM216.494 39.4505L217.389 36.3482L215.468 35.7939L214.573 38.8961L216.494 39.4505ZM216.181 37.0398C217.111 37.2778 217.985 37.3784 218.786 37.3056L218.605 35.3138C218.094 35.3603 217.456 35.3017 216.676 35.1022L216.181 37.0398ZM218.786 37.3056C219.709 37.2217 220.507 36.803 221.161 36.1231L219.72 34.7363C219.36 35.1104 218.995 35.2783 218.605 35.3138L218.786 37.3056ZM221.148 36.1368C221.815 35.4696 222.349 34.4715 222.796 33.2541L220.919 32.5641C220.511 33.6734 220.1 34.3557 219.734 34.7226L221.148 36.1368ZM222.796 33.2533L223.453 31.4636L221.575 30.7751L220.919 32.5648L222.796 33.2533ZM223.452 30.7741L214.981 7.74565L213.104 8.43616L221.575 31.4646L223.452 30.7741ZM214.042 9.09091H217.86V7.09091H214.042V9.09091ZM216.915 8.41823L223.239 26.6739L225.129 26.0193L218.805 7.76359L216.915 8.41823ZM224.184 27.3466H224.423V25.3466H224.184V27.3466ZM225.368 26.6739L231.692 8.41823L229.802 7.76359L223.478 26.0193L225.368 26.6739ZM230.747 9.09091H234.565V7.09091H230.747V9.09091ZM233.627 7.74352L223.903 33.9935L225.778 34.6883L235.503 8.43829L233.627 7.74352ZM223.903 33.9941C223.495 35.0962 223.004 35.9695 222.447 36.6389L223.983 37.9193C224.718 37.0376 225.311 35.9521 225.778 34.6877L223.903 33.9941ZM222.443 36.6438C221.887 37.3195 221.258 37.8002 220.558 38.1095L221.367 39.9388C222.377 39.4925 223.25 38.8097 223.987 37.9145L222.443 36.6438ZM220.554 38.1112C219.856 38.4237 219.043 38.5909 218.099 38.5909V40.5909C219.283 40.5909 220.379 40.3803 221.371 39.9371L220.554 38.1112Z" fill="black" mask="url(#path-1-outside-1_413_297)"/>
</g>
<defs>
<filter id="filter0_d_413_297" x="0.709595" y="0.454529" width="237.855" height="47.1364" filterUnits="userSpaceOnUse" color-interpolation-filters="sRGB">
<feFlood flood-opacity="0" result="BackgroundImageFix"/>
<feColorMatrix in="SourceAlpha" type="matrix" values="0 0 0 0 0 0 0 0 0 0 0 0 0 0 0 0 0 0 127 0" result="hardAlpha"/>
<feOffset dy="4"/>
<feGaussianBlur stdDeviation="2"/>
<feComposite in2="hardAlpha" operator="out"/>
<feColorMatrix type="matrix" values="0 0 0 0 0 0 0 0 0 0 0 0 0 0 0 0 0 0 0.3 0"/>
<feBlend mode="normal" in2="BackgroundImageFix" result="effect1_dropShadow_413_297"/>
<feBlend mode="normal" in="SourceGraphic" in2="effect1_dropShadow_413_297" result="shape"/>
</filter>
</defs>
</svg>
