<svg width="258" height="50" viewBox="0 0 258 50" fill="none" xmlns="http://www.w3.org/2000/svg">
<rect width="258" height="50" rx="25" fill="black"/>
<path d="M107.784 30.16L106.536 26.96H101.352L100.104 30.128L98.8084 29.6L103.192 18.8H104.856L109.176 29.6L107.784 30.16ZM101.832 25.68H106.04L103.944 20.304L101.832 25.68ZM110.776 30V18.8H112.296V30H110.776ZM119.819 30V21.68H121.211V23.072C121.51 22.624 121.888 22.2507 122.347 21.952C122.806 21.6427 123.328 21.488 123.915 21.488C124.576 21.488 125.115 21.648 125.531 21.968C125.958 22.288 126.256 22.7147 126.427 23.248C126.758 22.7573 127.147 22.3413 127.595 22C128.054 21.6587 128.619 21.488 129.291 21.488C130.198 21.488 130.87 21.776 131.307 22.352C131.755 22.9173 131.979 23.6587 131.979 24.576V30H130.539V24.688C130.539 24.112 130.406 23.648 130.139 23.296C129.872 22.9333 129.504 22.752 129.035 22.752C128.555 22.752 128.107 22.9333 127.691 23.296C127.286 23.648 126.928 24.064 126.619 24.544V30H125.179V24.688C125.179 24.112 125.046 23.648 124.779 23.296C124.512 22.9333 124.144 22.752 123.675 22.752C123.206 22.752 122.763 22.928 122.347 23.28C121.931 23.6213 121.568 24.0267 121.259 24.496V30H119.819ZM137.964 30.192C137.174 30.192 136.465 30.0107 135.836 29.648C135.206 29.2747 134.71 28.7627 134.348 28.112C133.996 27.4507 133.82 26.6933 133.82 25.84C133.82 24.944 134.001 24.1707 134.364 23.52C134.726 22.8693 135.222 22.368 135.852 22.016C136.481 21.664 137.185 21.488 137.964 21.488C138.742 21.488 139.441 21.664 140.06 22.016C140.689 22.368 141.185 22.8693 141.548 23.52C141.921 24.16 142.108 24.9227 142.108 25.808C142.108 26.6933 141.926 27.4667 141.564 28.128C141.201 28.7787 140.705 29.2853 140.076 29.648C139.457 30.0107 138.753 30.192 137.964 30.192ZM137.964 28.912C138.806 28.912 139.462 28.6293 139.932 28.064C140.401 27.488 140.636 26.7467 140.636 25.84C140.636 25.2853 140.518 24.7787 140.284 24.32C140.049 23.8507 139.729 23.4773 139.324 23.2C138.929 22.912 138.476 22.768 137.964 22.768C137.121 22.768 136.465 23.0453 135.996 23.6C135.526 24.1547 135.292 24.8907 135.292 25.808C135.292 26.3627 135.409 26.88 135.644 27.36C135.878 27.8293 136.193 28.208 136.588 28.496C136.993 28.7733 137.452 28.912 137.964 28.912ZM145.934 30L142.59 22.064L143.902 21.52L146.734 28.368L149.566 21.52L150.798 22.064L147.438 30H145.934ZM155.256 30.192C154.062 30.192 153.112 29.8133 152.408 29.056C151.715 28.288 151.368 27.216 151.368 25.84C151.368 25.008 151.523 24.2667 151.832 23.616C152.152 22.9547 152.595 22.4373 153.16 22.064C153.726 21.68 154.382 21.488 155.128 21.488C155.928 21.488 156.59 21.664 157.112 22.016C157.646 22.3573 158.046 22.8213 158.312 23.408C158.579 23.9947 158.712 24.64 158.712 25.344C158.712 25.7173 158.696 26.08 158.664 26.432H152.84C152.936 27.2107 153.208 27.8187 153.656 28.256C154.104 28.6933 154.696 28.912 155.432 28.912C155.912 28.912 156.344 28.864 156.728 28.768C157.112 28.6613 157.48 28.528 157.832 28.368L158.168 29.6C157.784 29.7707 157.352 29.9093 156.872 30.016C156.392 30.1333 155.854 30.192 155.256 30.192ZM152.824 25.264H157.384C157.384 24.4533 157.182 23.8293 156.776 23.392C156.371 22.9547 155.811 22.736 155.096 22.736C154.478 22.736 153.966 22.9547 153.56 23.392C153.155 23.8187 152.91 24.4427 152.824 25.264Z" fill="white"/>
</svg>
