<svg width="258" height="50" viewBox="0 0 258 50" fill="none" xmlns="http://www.w3.org/2000/svg">
<rect width="258" height="50" rx="25" fill="black"/>
<path d="M110.238 30.16L108.99 26.96H103.806L102.558 30.128L101.262 29.6L105.646 18.8H107.31L111.63 29.6L110.238 30.16ZM104.286 25.68H108.494L106.398 20.304L104.286 25.68ZM113.229 30V18.8H114.749V30H113.229ZM124.496 30L121.152 22.064L122.464 21.52L125.296 28.368L128.128 21.52L129.36 22.064L126 30H124.496ZM133.043 30.192C132.414 30.192 131.843 30.112 131.331 29.952C130.83 29.792 130.414 29.584 130.083 29.328L130.691 28.128C130.969 28.3627 131.315 28.56 131.731 28.72C132.158 28.8693 132.611 28.944 133.091 28.944C133.689 28.944 134.137 28.848 134.435 28.656C134.745 28.4533 134.899 28.1973 134.899 27.888C134.899 27.664 134.841 27.4667 134.723 27.296C134.617 27.1253 134.414 26.96 134.115 26.8C133.817 26.6293 133.385 26.448 132.819 26.256C132.041 25.9893 131.454 25.6747 131.059 25.312C130.675 24.9387 130.483 24.4267 130.483 23.776C130.483 23.136 130.761 22.5973 131.315 22.16C131.881 21.712 132.659 21.488 133.651 21.488C134.185 21.488 134.659 21.5467 135.075 21.664C135.491 21.7707 135.865 21.9093 136.195 22.08L135.795 23.264C135.507 23.0933 135.177 22.9547 134.803 22.848C134.441 22.7413 134.035 22.688 133.587 22.688C133.033 22.688 132.611 22.8 132.323 23.024C132.035 23.248 131.891 23.4933 131.891 23.76C131.891 24.016 132.003 24.2347 132.227 24.416C132.451 24.5973 132.889 24.7947 133.539 25.008C134.595 25.36 135.331 25.7493 135.747 26.176C136.163 26.6027 136.371 27.136 136.371 27.776C136.371 28.5227 136.067 29.1147 135.459 29.552C134.862 29.9787 134.057 30.192 133.043 30.192ZM150.941 30.16L149.693 26.96H144.509L143.261 30.128L141.965 29.6L146.349 18.8H148.013L152.333 29.6L150.941 30.16ZM144.989 25.68H149.197L147.101 20.304L144.989 25.68ZM153.932 30V18.8H155.452V30H153.932Z" fill="white"/>
</svg>
