<svg width="258" height="50" viewBox="0 0 258 50" fill="none" xmlns="http://www.w3.org/2000/svg">
<rect x="1" y="1" width="256" height="48" rx="24" fill="black" stroke="white" stroke-width="2"/>
<path d="M113.266 30.128C112.615 30.128 111.996 30.112 111.41 30.08C110.834 30.048 110.375 30.0107 110.034 29.968V18.832C110.407 18.7893 110.871 18.752 111.426 18.72C111.98 18.688 112.615 18.672 113.33 18.672C114.695 18.672 115.746 18.9333 116.482 19.456C117.218 19.968 117.586 20.6667 117.586 21.552C117.586 22.1387 117.426 22.64 117.106 23.056C116.796 23.4613 116.343 23.7973 115.746 24.064C116.471 24.32 117.02 24.6773 117.394 25.136C117.767 25.584 117.954 26.1387 117.954 26.8C117.954 27.8133 117.554 28.624 116.754 29.232C115.954 29.8293 114.791 30.128 113.266 30.128ZM111.554 23.632H113.314C114.156 23.632 114.823 23.456 115.314 23.104C115.815 22.752 116.066 22.2987 116.066 21.744C116.066 21.1467 115.82 20.6933 115.33 20.384C114.839 20.064 114.167 19.904 113.314 19.904C112.962 19.904 112.642 19.9147 112.354 19.936C112.066 19.9467 111.799 19.9627 111.554 19.984V23.632ZM113.378 28.864C114.327 28.864 115.068 28.6933 115.602 28.352C116.135 28.0107 116.402 27.5147 116.402 26.864C116.402 26.224 116.14 25.7227 115.618 25.36C115.095 24.9973 114.348 24.816 113.378 24.816H111.554V28.768C112.119 28.832 112.727 28.864 113.378 28.864ZM122.48 30.192C121.989 30.192 121.547 30.1013 121.152 29.92C120.757 29.728 120.443 29.424 120.208 29.008C119.984 28.592 119.872 28.0533 119.872 27.392V18.16H121.312V27.248C121.312 27.824 121.429 28.2507 121.664 28.528C121.909 28.8053 122.245 28.944 122.672 28.944C122.875 28.944 123.072 28.9227 123.264 28.88C123.467 28.8267 123.637 28.768 123.776 28.704L124.128 29.872C123.936 29.9573 123.696 30.032 123.408 30.096C123.131 30.16 122.821 30.192 122.48 30.192ZM128.433 30.192C127.739 30.192 127.11 30.016 126.545 29.664C125.979 29.312 125.526 28.816 125.185 28.176C124.854 27.5253 124.689 26.7627 124.689 25.888C124.689 25.056 124.854 24.3093 125.185 23.648C125.526 22.9867 125.99 22.464 126.577 22.08C127.174 21.6853 127.857 21.488 128.625 21.488C129.105 21.488 129.537 21.5733 129.921 21.744C130.315 21.904 130.657 22.1067 130.945 22.352V21.68H132.257V27.984C132.257 28.3893 132.353 28.656 132.545 28.784C132.747 28.9013 132.966 28.96 133.201 28.96L132.897 30.08C131.873 30.08 131.254 29.664 131.041 28.832C130.795 29.1733 130.459 29.488 130.033 29.776C129.617 30.0533 129.083 30.192 128.433 30.192ZM128.753 28.912C129.158 28.912 129.542 28.816 129.905 28.624C130.267 28.4213 130.571 28.1707 130.817 27.872V23.408C130.529 23.2053 130.209 23.0453 129.857 22.928C129.515 22.8 129.153 22.736 128.769 22.736C128.257 22.736 127.803 22.8693 127.409 23.136C127.025 23.392 126.721 23.7547 126.497 24.224C126.273 24.6827 126.161 25.2213 126.161 25.84C126.161 26.4373 126.273 26.9707 126.497 27.44C126.721 27.8987 127.03 28.2613 127.425 28.528C127.819 28.784 128.262 28.912 128.753 28.912ZM138.328 30.192C137.538 30.192 136.845 30.0107 136.248 29.648C135.661 29.2747 135.208 28.7627 134.888 28.112C134.568 27.4507 134.408 26.6933 134.408 25.84C134.408 25.04 134.568 24.3093 134.888 23.648C135.218 22.9867 135.688 22.464 136.296 22.08C136.904 21.6853 137.618 21.488 138.44 21.488C138.909 21.488 139.32 21.5307 139.672 21.616C140.034 21.7013 140.381 21.824 140.712 21.984L140.28 23.2C139.981 23.0507 139.693 22.944 139.416 22.88C139.149 22.8053 138.85 22.768 138.52 22.768C137.773 22.768 137.144 23.04 136.632 23.584C136.13 24.1173 135.88 24.8587 135.88 25.808C135.88 26.384 135.986 26.9067 136.2 27.376C136.413 27.8453 136.706 28.2187 137.08 28.496C137.464 28.7733 137.912 28.912 138.424 28.912C138.829 28.912 139.176 28.8693 139.464 28.784C139.752 28.688 140.061 28.5547 140.392 28.384L140.84 29.6C140.509 29.7813 140.136 29.9253 139.72 30.032C139.314 30.1387 138.85 30.192 138.328 30.192ZM148.258 30.16L143.954 25.728V30H142.514V18.16H143.954V24.928L147.714 21.52L148.546 22.432L145.33 25.28L149.25 29.2L148.258 30.16Z" fill="white"/>
</svg>
