<svg width="258" height="50" viewBox="0 0 258 50" fill="none" xmlns="http://www.w3.org/2000/svg">
<rect width="258" height="50" rx="25" fill="black"/>
<path d="M113.292 30V18.8H120.012V20.112H114.812V23.52H119.292V24.8H114.812V28.688H120.012V30H113.292ZM124.878 30.192C124.185 30.192 123.555 30.016 122.99 29.664C122.425 29.312 121.971 28.816 121.63 28.176C121.299 27.5253 121.134 26.7627 121.134 25.888C121.134 25.056 121.299 24.3093 121.63 23.648C121.971 22.9867 122.435 22.464 123.022 22.08C123.619 21.6853 124.302 21.488 125.07 21.488C125.55 21.488 125.982 21.5733 126.366 21.744C126.761 21.904 127.102 22.1067 127.39 22.352V21.68H128.702V27.984C128.702 28.3893 128.798 28.656 128.99 28.784C129.193 28.9013 129.411 28.96 129.646 28.96L129.342 30.08C128.318 30.08 127.699 29.664 127.486 28.832C127.241 29.1733 126.905 29.488 126.478 29.776C126.062 30.0533 125.529 30.192 124.878 30.192ZM125.198 28.912C125.603 28.912 125.987 28.816 126.35 28.624C126.713 28.4213 127.017 28.1707 127.262 27.872V23.408C126.974 23.2053 126.654 23.0453 126.302 22.928C125.961 22.8 125.598 22.736 125.214 22.736C124.702 22.736 124.249 22.8693 123.854 23.136C123.47 23.392 123.166 23.7547 122.942 24.224C122.718 24.6827 122.606 25.2213 122.606 25.84C122.606 26.4373 122.718 26.9707 122.942 27.44C123.166 27.8987 123.475 28.2613 123.87 28.528C124.265 28.784 124.707 28.912 125.198 28.912ZM133.809 30.192C133.18 30.192 132.609 30.112 132.097 29.952C131.596 29.792 131.18 29.584 130.849 29.328L131.457 28.128C131.734 28.3627 132.081 28.56 132.497 28.72C132.924 28.8693 133.377 28.944 133.857 28.944C134.454 28.944 134.902 28.848 135.201 28.656C135.51 28.4533 135.665 28.1973 135.665 27.888C135.665 27.664 135.606 27.4667 135.489 27.296C135.382 27.1253 135.18 26.96 134.881 26.8C134.582 26.6293 134.15 26.448 133.585 26.256C132.806 25.9893 132.22 25.6747 131.825 25.312C131.441 24.9387 131.249 24.4267 131.249 23.776C131.249 23.136 131.526 22.5973 132.081 22.16C132.646 21.712 133.425 21.488 134.417 21.488C134.95 21.488 135.425 21.5467 135.841 21.664C136.257 21.7707 136.63 21.9093 136.961 22.08L136.561 23.264C136.273 23.0933 135.942 22.9547 135.569 22.848C135.206 22.7413 134.801 22.688 134.353 22.688C133.798 22.688 133.377 22.8 133.089 23.024C132.801 23.248 132.657 23.4933 132.657 23.76C132.657 24.016 132.769 24.2347 132.993 24.416C133.217 24.5973 133.654 24.7947 134.305 25.008C135.361 25.36 136.097 25.7493 136.513 26.176C136.929 26.6027 137.137 27.136 137.137 27.776C137.137 28.5227 136.833 29.1147 136.225 29.552C135.628 29.9787 134.822 30.192 133.809 30.192ZM139.261 33.712C138.941 33.712 138.659 33.68 138.413 33.616C138.179 33.552 137.992 33.4773 137.853 33.392L138.173 32.192C138.301 32.2667 138.461 32.3307 138.653 32.384C138.845 32.4373 139.059 32.464 139.293 32.464C139.741 32.464 140.141 32.32 140.493 32.032C140.845 31.744 141.181 31.1787 141.501 30.336L141.869 29.376H141.101L137.853 22.064L139.133 21.488L142.237 28.416L144.653 21.552L145.981 22.064L142.925 30.416C142.616 31.2693 142.28 31.936 141.917 32.416C141.555 32.896 141.155 33.232 140.717 33.424C140.28 33.616 139.795 33.712 139.261 33.712Z" fill="white"/>
</svg>
