<svg width="258" height="50" viewBox="0 0 258 50" fill="none" xmlns="http://www.w3.org/2000/svg">
<rect width="258" height="50" rx="25" fill="black"/>
<path d="M111.924 30V18.8H113.444V23.584H118.964V18.8H120.484V30H118.964V24.896H113.444V30H111.924ZM126.386 30.192C125.693 30.192 125.063 30.016 124.498 29.664C123.933 29.312 123.479 28.816 123.138 28.176C122.807 27.5253 122.642 26.7627 122.642 25.888C122.642 25.056 122.807 24.3093 123.138 23.648C123.479 22.9867 123.943 22.464 124.53 22.08C125.127 21.6853 125.81 21.488 126.578 21.488C127.058 21.488 127.49 21.5733 127.874 21.744C128.269 21.904 128.61 22.1067 128.898 22.352V21.68H130.21V27.984C130.21 28.3893 130.306 28.656 130.498 28.784C130.701 28.9013 130.919 28.96 131.154 28.96L130.85 30.08C129.826 30.08 129.207 29.664 128.994 28.832C128.749 29.1733 128.413 29.488 127.986 29.776C127.57 30.0533 127.037 30.192 126.386 30.192ZM126.706 28.912C127.111 28.912 127.495 28.816 127.858 28.624C128.221 28.4213 128.525 28.1707 128.77 27.872V23.408C128.482 23.2053 128.162 23.0453 127.81 22.928C127.469 22.8 127.106 22.736 126.722 22.736C126.21 22.736 125.757 22.8693 125.362 23.136C124.978 23.392 124.674 23.7547 124.45 24.224C124.226 24.6827 124.114 25.2213 124.114 25.84C124.114 26.4373 124.226 26.9707 124.45 27.44C124.674 27.8987 124.983 28.2613 125.378 28.528C125.773 28.784 126.215 28.912 126.706 28.912ZM133.077 30V21.68H134.469V23.488C134.608 23.136 134.794 22.8107 135.029 22.512C135.264 22.2027 135.557 21.9573 135.909 21.776C136.261 21.584 136.672 21.488 137.141 21.488C137.301 21.488 137.461 21.4987 137.621 21.52C137.781 21.5307 137.914 21.552 138.021 21.584L137.589 23.072C137.386 22.9867 137.146 22.944 136.869 22.944C136.474 22.944 136.096 23.056 135.733 23.28C135.381 23.504 135.088 23.8507 134.853 24.32C134.629 24.7893 134.517 25.3867 134.517 26.112V30H133.077ZM142.135 30.192C141.452 30.192 140.828 30.016 140.263 29.664C139.698 29.312 139.25 28.816 138.919 28.176C138.588 27.5253 138.423 26.7627 138.423 25.888C138.423 25.0453 138.588 24.2933 138.919 23.632C139.26 22.9707 139.708 22.448 140.263 22.064C140.828 21.68 141.447 21.488 142.119 21.488C142.674 21.488 143.148 21.6 143.543 21.824C143.948 22.048 144.263 22.2773 144.487 22.512V18.16H145.927V27.984C145.927 28.3893 146.023 28.656 146.215 28.784C146.418 28.9013 146.636 28.96 146.871 28.96L146.567 30.08C145.554 30.08 144.935 29.6747 144.711 28.864C144.476 29.1947 144.146 29.4987 143.719 29.776C143.303 30.0533 142.775 30.192 142.135 30.192ZM142.455 28.912C142.85 28.912 143.223 28.8213 143.575 28.64C143.938 28.448 144.242 28.2027 144.487 27.904V23.776C144.284 23.52 144.002 23.2853 143.639 23.072C143.276 22.848 142.876 22.736 142.439 22.736C141.927 22.736 141.479 22.8747 141.095 23.152C140.711 23.4293 140.412 23.8027 140.199 24.272C139.996 24.7307 139.895 25.2533 139.895 25.84C139.895 26.4267 140.007 26.9547 140.231 27.424C140.455 27.8827 140.759 28.2453 141.143 28.512C141.538 28.7787 141.975 28.912 142.455 28.912Z" fill="white"/>
</svg>
