<svg width="258" height="50" viewBox="0 0 258 50" fill="none" xmlns="http://www.w3.org/2000/svg">
<rect width="258" height="50" rx="25" fill="black"/>
<path d="M108.268 30V18.8H109.788V23.584H115.308V18.8H116.828V30H115.308V24.896H109.788V30H108.268ZM123.05 30.192C122.26 30.192 121.551 30.0107 120.922 29.648C120.292 29.2747 119.796 28.7627 119.434 28.112C119.082 27.4507 118.906 26.6933 118.906 25.84C118.906 24.944 119.087 24.1707 119.45 23.52C119.812 22.8693 120.308 22.368 120.938 22.016C121.567 21.664 122.271 21.488 123.05 21.488C123.828 21.488 124.527 21.664 125.146 22.016C125.775 22.368 126.271 22.8693 126.634 23.52C127.007 24.16 127.194 24.9227 127.194 25.808C127.194 26.6933 127.012 27.4667 126.65 28.128C126.287 28.7787 125.791 29.2853 125.162 29.648C124.543 30.0107 123.839 30.192 123.05 30.192ZM123.05 28.912C123.892 28.912 124.548 28.6293 125.018 28.064C125.487 27.488 125.722 26.7467 125.722 25.84C125.722 25.2853 125.604 24.7787 125.37 24.32C125.135 23.8507 124.815 23.4773 124.41 23.2C124.015 22.912 123.562 22.768 123.05 22.768C122.207 22.768 121.551 23.0453 121.082 23.6C120.612 24.1547 120.378 24.8907 120.378 25.808C120.378 26.3627 120.495 26.88 120.73 27.36C120.964 27.8293 121.279 28.208 121.674 28.496C122.079 28.7733 122.538 28.912 123.05 28.912ZM129.108 30V21.68H130.5V23.072C130.799 22.624 131.177 22.2507 131.636 21.952C132.095 21.6427 132.617 21.488 133.204 21.488C133.865 21.488 134.404 21.648 134.82 21.968C135.247 22.288 135.545 22.7147 135.716 23.248C136.047 22.7573 136.436 22.3413 136.884 22C137.343 21.6587 137.908 21.488 138.58 21.488C139.487 21.488 140.159 21.776 140.596 22.352C141.044 22.9173 141.268 23.6587 141.268 24.576V30H139.828V24.688C139.828 24.112 139.695 23.648 139.428 23.296C139.161 22.9333 138.793 22.752 138.324 22.752C137.844 22.752 137.396 22.9333 136.98 23.296C136.575 23.648 136.217 24.064 135.908 24.544V30H134.468V24.688C134.468 24.112 134.335 23.648 134.068 23.296C133.801 22.9333 133.433 22.752 132.964 22.752C132.495 22.752 132.052 22.928 131.636 23.28C131.22 23.6213 130.857 24.0267 130.548 24.496V30H129.108ZM147.077 30.192C145.882 30.192 144.933 29.8133 144.229 29.056C143.535 28.288 143.189 27.216 143.189 25.84C143.189 25.008 143.343 24.2667 143.653 23.616C143.973 22.9547 144.415 22.4373 144.981 22.064C145.546 21.68 146.202 21.488 146.949 21.488C147.749 21.488 148.41 21.664 148.933 22.016C149.466 22.3573 149.866 22.8213 150.133 23.408C150.399 23.9947 150.533 24.64 150.533 25.344C150.533 25.7173 150.517 26.08 150.485 26.432H144.661C144.757 27.2107 145.029 27.8187 145.477 28.256C145.925 28.6933 146.517 28.912 147.253 28.912C147.733 28.912 148.165 28.864 148.549 28.768C148.933 28.6613 149.301 28.528 149.653 28.368L149.989 29.6C149.605 29.7707 149.173 29.9093 148.693 30.016C148.213 30.1333 147.674 30.192 147.077 30.192ZM144.645 25.264H149.205C149.205 24.4533 149.002 23.8293 148.597 23.392C148.191 22.9547 147.631 22.736 146.917 22.736C146.298 22.736 145.786 22.9547 145.381 23.392C144.975 23.8187 144.73 24.4427 144.645 25.264Z" fill="white"/>
</svg>
