<svg width="266" height="58" viewBox="0 0 266 58" fill="none" xmlns="http://www.w3.org/2000/svg">
<g filter="url(#filter0_d_413_391)">
<rect x="4" width="258" height="50" rx="25" fill="black"/>
<path d="M88.3463 30V18.8H89.8663V23.584H95.3863V18.8H96.9062V30H95.3863V24.896H89.8663V30H88.3463ZM103.128 30.192C102.338 30.192 101.629 30.0107 101 29.648C100.37 29.2747 99.8744 28.7627 99.5118 28.112C99.1598 27.4507 98.9838 26.6933 98.9838 25.84C98.9838 24.944 99.1651 24.1707 99.5278 23.52C99.8904 22.8693 100.386 22.368 101.016 22.016C101.645 21.664 102.349 21.488 103.128 21.488C103.906 21.488 104.605 21.664 105.224 22.016C105.853 22.368 106.349 22.8693 106.712 23.52C107.085 24.16 107.272 24.9227 107.272 25.808C107.272 26.6933 107.09 27.4667 106.728 28.128C106.365 28.7787 105.869 29.2853 105.24 29.648C104.621 30.0107 103.917 30.192 103.128 30.192ZM103.128 28.912C103.97 28.912 104.626 28.6293 105.096 28.064C105.565 27.488 105.8 26.7467 105.8 25.84C105.8 25.2853 105.682 24.7787 105.448 24.32C105.213 23.8507 104.893 23.4773 104.488 23.2C104.093 22.912 103.64 22.768 103.128 22.768C102.285 22.768 101.629 23.0453 101.16 23.6C100.69 24.1547 100.456 24.8907 100.456 25.808C100.456 26.3627 100.573 26.88 100.808 27.36C101.042 27.8293 101.357 28.208 101.752 28.496C102.157 28.7733 102.616 28.912 103.128 28.912ZM110.774 30L108.15 22.064L109.478 21.6L111.622 28.368L113.574 22.272H115.126L117.03 28.368L119.158 21.6L120.438 22.064L117.798 30H116.214L114.294 23.808L112.358 30H110.774ZM129.833 30.192C129.033 30.192 128.398 29.9307 127.929 29.408C127.47 28.8747 127.241 28.1173 127.241 27.136V23.232H125.801V21.984H127.273L127.577 19.36H128.681V21.984H130.985V23.232H128.681V27.248C128.681 27.8667 128.809 28.2987 129.065 28.544C129.331 28.7893 129.646 28.912 130.009 28.912C130.275 28.912 130.526 28.8693 130.761 28.784C131.006 28.6987 131.23 28.5973 131.433 28.48L131.833 29.632C131.619 29.76 131.331 29.8827 130.969 30C130.606 30.128 130.227 30.192 129.833 30.192ZM136.472 30.192C135.682 30.192 134.973 30.0107 134.344 29.648C133.714 29.2747 133.218 28.7627 132.856 28.112C132.504 27.4507 132.328 26.6933 132.328 25.84C132.328 24.944 132.509 24.1707 132.872 23.52C133.234 22.8693 133.73 22.368 134.36 22.016C134.989 21.664 135.693 21.488 136.472 21.488C137.25 21.488 137.949 21.664 138.568 22.016C139.197 22.368 139.693 22.8693 140.056 23.52C140.429 24.16 140.616 24.9227 140.616 25.808C140.616 26.6933 140.434 27.4667 140.072 28.128C139.709 28.7787 139.213 29.2853 138.584 29.648C137.965 30.0107 137.261 30.192 136.472 30.192ZM136.472 28.912C137.314 28.912 137.97 28.6293 138.44 28.064C138.909 27.488 139.144 26.7467 139.144 25.84C139.144 25.2853 139.026 24.7787 138.792 24.32C138.557 23.8507 138.237 23.4773 137.832 23.2C137.437 22.912 136.984 22.768 136.472 22.768C135.629 22.768 134.973 23.0453 134.504 23.6C134.034 24.1547 133.799 24.8907 133.799 25.808C133.799 26.3627 133.917 26.88 134.152 27.36C134.386 27.8293 134.701 28.208 135.096 28.496C135.501 28.7733 135.96 28.912 136.472 28.912ZM147.631 33.52V23.808C147.631 23.4453 147.54 23.1893 147.359 23.04C147.188 22.88 146.964 22.8 146.687 22.8L146.991 21.68C147.972 21.68 148.586 22.0693 148.831 22.848C148.938 22.688 149.108 22.5013 149.343 22.288C149.588 22.0747 149.887 21.888 150.239 21.728C150.602 21.568 151.012 21.488 151.471 21.488C152.111 21.488 152.708 21.6587 153.263 22C153.828 22.3307 154.282 22.816 154.623 23.456C154.964 24.0853 155.135 24.8533 155.135 25.76C155.135 26.6453 154.964 27.424 154.623 28.096C154.282 28.7573 153.834 29.2747 153.279 29.648C152.735 30.0107 152.143 30.192 151.503 30.192C151.012 30.192 150.554 30.096 150.127 29.904C149.7 29.7013 149.348 29.472 149.071 29.216V33.52H147.631ZM151.215 28.912C151.94 28.912 152.527 28.6293 152.975 28.064C153.434 27.488 153.663 26.736 153.663 25.808C153.663 25.168 153.546 24.6187 153.311 24.16C153.087 23.7013 152.783 23.3493 152.399 23.104C152.026 22.8587 151.61 22.736 151.151 22.736C150.692 22.736 150.276 22.8533 149.903 23.088C149.54 23.312 149.263 23.5573 149.071 23.824V27.92C149.348 28.208 149.668 28.448 150.031 28.64C150.394 28.8213 150.788 28.912 151.215 28.912ZM159.667 30.192C159.177 30.192 158.734 30.1013 158.339 29.92C157.945 29.728 157.63 29.424 157.395 29.008C157.171 28.592 157.059 28.0533 157.059 27.392V18.16H158.499V27.248C158.499 27.824 158.617 28.2507 158.851 28.528C159.097 28.8053 159.433 28.944 159.859 28.944C160.062 28.944 160.259 28.9227 160.451 28.88C160.654 28.8267 160.825 28.768 160.963 28.704L161.315 29.872C161.123 29.9573 160.883 30.032 160.595 30.096C160.318 30.16 160.009 30.192 159.667 30.192ZM165.62 30.192C164.927 30.192 164.298 30.016 163.732 29.664C163.167 29.312 162.714 28.816 162.372 28.176C162.042 27.5253 161.876 26.7627 161.876 25.888C161.876 25.056 162.042 24.3093 162.372 23.648C162.714 22.9867 163.178 22.464 163.764 22.08C164.362 21.6853 165.044 21.488 165.812 21.488C166.292 21.488 166.724 21.5733 167.108 21.744C167.503 21.904 167.844 22.1067 168.132 22.352V21.68H169.444V27.984C169.444 28.3893 169.54 28.656 169.732 28.784C169.935 28.9013 170.154 28.96 170.388 28.96L170.084 30.08C169.06 30.08 168.442 29.664 168.228 28.832C167.983 29.1733 167.647 29.488 167.22 29.776C166.804 30.0533 166.271 30.192 165.62 30.192ZM165.94 28.912C166.346 28.912 166.73 28.816 167.092 28.624C167.455 28.4213 167.759 28.1707 168.004 27.872V23.408C167.716 23.2053 167.396 23.0453 167.044 22.928C166.703 22.8 166.34 22.736 165.956 22.736C165.444 22.736 164.991 22.8693 164.596 23.136C164.212 23.392 163.908 23.7547 163.684 24.224C163.46 24.6827 163.348 25.2213 163.348 25.84C163.348 26.4373 163.46 26.9707 163.684 27.44C163.908 27.8987 164.218 28.2613 164.612 28.528C165.007 28.784 165.45 28.912 165.94 28.912ZM172.207 33.712C171.887 33.712 171.604 33.68 171.359 33.616C171.124 33.552 170.937 33.4773 170.799 33.392L171.119 32.192C171.247 32.2667 171.407 32.3307 171.599 32.384C171.791 32.4373 172.004 32.464 172.239 32.464C172.687 32.464 173.087 32.32 173.439 32.032C173.791 31.744 174.127 31.1787 174.447 30.336L174.815 29.376H174.047L170.799 22.064L172.079 21.488L175.183 28.416L177.599 21.552L178.927 22.064L175.871 30.416C175.561 31.2693 175.225 31.936 174.863 32.416C174.5 32.896 174.1 33.232 173.663 33.424C173.225 33.616 172.74 33.712 172.207 33.712Z" fill="white"/>
</g>
<defs>
<filter id="filter0_d_413_391" x="0" y="0" width="266" height="58" filterUnits="userSpaceOnUse" color-interpolation-filters="sRGB">
<feFlood flood-opacity="0" result="BackgroundImageFix"/>
<feColorMatrix in="SourceAlpha" type="matrix" values="0 0 0 0 0 0 0 0 0 0 0 0 0 0 0 0 0 0 127 0" result="hardAlpha"/>
<feOffset dy="4"/>
<feGaussianBlur stdDeviation="2"/>
<feComposite in2="hardAlpha" operator="out"/>
<feColorMatrix type="matrix" values="0 0 0 0 0 0 0 0 0 0 0 0 0 0 0 0 0 0 0.25 0"/>
<feBlend mode="normal" in2="BackgroundImageFix" result="effect1_dropShadow_413_391"/>
<feBlend mode="normal" in="SourceGraphic" in2="effect1_dropShadow_413_391" result="shape"/>
</filter>
</defs>
</svg>
