<svg width="258" height="50" viewBox="0 0 258 50" fill="none" xmlns="http://www.w3.org/2000/svg">
<rect width="258" height="50" rx="25" fill="black"/>
<path d="M107.557 30V18.8H109.077V28.64H114.213V30H107.557ZM119.073 30.192C118.284 30.192 117.574 30.0107 116.945 29.648C116.316 29.2747 115.82 28.7627 115.457 28.112C115.105 27.4507 114.929 26.6933 114.929 25.84C114.929 24.944 115.11 24.1707 115.473 23.52C115.836 22.8693 116.332 22.368 116.961 22.016C117.59 21.664 118.294 21.488 119.073 21.488C119.852 21.488 120.55 21.664 121.169 22.016C121.798 22.368 122.294 22.8693 122.657 23.52C123.03 24.16 123.217 24.9227 123.217 25.808C123.217 26.6933 123.036 27.4667 122.673 28.128C122.31 28.7787 121.814 29.2853 121.185 29.648C120.566 30.0107 119.862 30.192 119.073 30.192ZM119.073 28.912C119.916 28.912 120.572 28.6293 121.041 28.064C121.51 27.488 121.745 26.7467 121.745 25.84C121.745 25.2853 121.628 24.7787 121.393 24.32C121.158 23.8507 120.838 23.4773 120.433 23.2C120.038 22.912 119.585 22.768 119.073 22.768C118.23 22.768 117.574 23.0453 117.105 23.6C116.636 24.1547 116.401 24.8907 116.401 25.808C116.401 26.3627 116.518 26.88 116.753 27.36C116.988 27.8293 117.302 28.208 117.697 28.496C118.102 28.7733 118.561 28.912 119.073 28.912ZM128.188 33.712C127.697 33.712 127.217 33.6533 126.748 33.536C126.289 33.4187 125.878 33.2427 125.516 33.008L126.044 31.76C126.3 31.9627 126.598 32.128 126.94 32.256C127.281 32.3947 127.697 32.464 128.188 32.464C128.945 32.464 129.537 32.2613 129.964 31.856C130.401 31.4613 130.62 30.8267 130.62 29.952V28.928C130.406 29.184 130.097 29.4293 129.692 29.664C129.297 29.888 128.822 30 128.268 30C127.638 30 127.041 29.84 126.476 29.52C125.91 29.1893 125.452 28.7093 125.1 28.08C124.748 27.4507 124.572 26.6933 124.572 25.808C124.572 24.976 124.742 24.2347 125.084 23.584C125.436 22.9333 125.905 22.4213 126.492 22.048C127.078 21.6747 127.724 21.488 128.428 21.488C128.897 21.488 129.324 21.568 129.708 21.728C130.092 21.888 130.422 22.0853 130.7 22.32V21.68H132.012V29.808C132.012 30.7253 131.852 31.472 131.532 32.048C131.212 32.624 130.764 33.0453 130.188 33.312C129.622 33.5787 128.956 33.712 128.188 33.712ZM128.588 28.72C129.014 28.72 129.398 28.624 129.74 28.432C130.081 28.24 130.358 28.016 130.572 27.76V23.408C130.337 23.2373 130.054 23.0827 129.724 22.944C129.393 22.8053 129.009 22.736 128.572 22.736C128.134 22.736 127.724 22.8533 127.34 23.088C126.956 23.3227 126.641 23.664 126.396 24.112C126.161 24.5493 126.044 25.088 126.044 25.728C126.044 26.336 126.161 26.864 126.396 27.312C126.641 27.76 126.956 28.1067 127.34 28.352C127.724 28.5973 128.14 28.72 128.588 28.72ZM139.448 30V18.8H140.968V30H139.448ZM143.694 30V21.68H145.086V23.072C145.385 22.624 145.763 22.2507 146.222 21.952C146.691 21.6427 147.246 21.488 147.886 21.488C148.825 21.488 149.523 21.7707 149.982 22.336C150.451 22.9013 150.686 23.648 150.686 24.576V30H149.246V24.736C149.246 24.1387 149.102 23.6587 148.814 23.296C148.537 22.9333 148.147 22.752 147.646 22.752C147.155 22.752 146.691 22.928 146.254 23.28C145.817 23.6213 145.443 24.0267 145.134 24.496V30H143.694Z" fill="white"/>
</svg>
