<svg width="258" height="50" viewBox="0 0 258 50" fill="none" xmlns="http://www.w3.org/2000/svg">
<rect width="258" height="50" rx="25" fill="black"/>
<path d="M100.362 30V18.8H102.49L105.594 25.888L108.65 18.8H110.826V30H109.306V20.736L106.314 27.472H104.81L101.802 20.736V30H100.362ZM116.874 30.192C115.679 30.192 114.73 29.8133 114.026 29.056C113.332 28.288 112.986 27.216 112.986 25.84C112.986 25.008 113.14 24.2667 113.45 23.616C113.77 22.9547 114.212 22.4373 114.778 22.064C115.343 21.68 115.999 21.488 116.746 21.488C117.546 21.488 118.207 21.664 118.73 22.016C119.263 22.3573 119.663 22.8213 119.93 23.408C120.196 23.9947 120.33 24.64 120.33 25.344C120.33 25.7173 120.314 26.08 120.282 26.432H114.458C114.554 27.2107 114.826 27.8187 115.274 28.256C115.722 28.6933 116.314 28.912 117.05 28.912C117.53 28.912 117.962 28.864 118.346 28.768C118.73 28.6613 119.098 28.528 119.45 28.368L119.786 29.6C119.402 29.7707 118.97 29.9093 118.49 30.016C118.01 30.1333 117.471 30.192 116.874 30.192ZM114.442 25.264H119.002C119.002 24.4533 118.799 23.8293 118.394 23.392C117.988 22.9547 117.428 22.736 116.714 22.736C116.095 22.736 115.583 22.9547 115.178 23.392C114.772 23.8187 114.527 24.4427 114.442 25.264ZM125.401 30.192C124.718 30.192 124.094 30.016 123.529 29.664C122.963 29.312 122.515 28.816 122.185 28.176C121.854 27.5253 121.689 26.7627 121.689 25.888C121.689 25.0453 121.854 24.2933 122.185 23.632C122.526 22.9707 122.974 22.448 123.529 22.064C124.094 21.68 124.713 21.488 125.385 21.488C125.939 21.488 126.414 21.6 126.809 21.824C127.214 22.048 127.529 22.2773 127.753 22.512V18.16H129.193V27.984C129.193 28.3893 129.289 28.656 129.481 28.784C129.683 28.9013 129.902 28.96 130.137 28.96L129.833 30.08C128.819 30.08 128.201 29.6747 127.977 28.864C127.742 29.1947 127.411 29.4987 126.985 29.776C126.569 30.0533 126.041 30.192 125.401 30.192ZM125.721 28.912C126.115 28.912 126.489 28.8213 126.841 28.64C127.203 28.448 127.507 28.2027 127.753 27.904V23.776C127.55 23.52 127.267 23.2853 126.905 23.072C126.542 22.848 126.142 22.736 125.705 22.736C125.193 22.736 124.745 22.8747 124.361 23.152C123.977 23.4293 123.678 23.8027 123.465 24.272C123.262 24.7307 123.161 25.2533 123.161 25.84C123.161 26.4267 123.273 26.9547 123.497 27.424C123.721 27.8827 124.025 28.2453 124.409 28.512C124.803 28.7787 125.241 28.912 125.721 28.912ZM132.061 30V21.68H133.501V30H132.061ZM132.781 20.256C132.504 20.256 132.264 20.1547 132.061 19.952C131.869 19.7493 131.773 19.5147 131.773 19.248C131.773 18.9387 131.864 18.6933 132.045 18.512C132.227 18.3307 132.472 18.24 132.781 18.24C133.059 18.24 133.293 18.3413 133.485 18.544C133.688 18.736 133.789 18.9707 133.789 19.248C133.789 19.5467 133.699 19.792 133.517 19.984C133.336 20.1653 133.091 20.256 132.781 20.256ZM138.781 30.192C138.301 30.192 137.848 30.0907 137.421 29.888C136.995 29.6853 136.648 29.36 136.381 28.912C136.115 28.4533 135.981 27.8453 135.981 27.088V21.68H137.421V26.896C137.421 27.5467 137.56 28.048 137.837 28.4C138.115 28.7413 138.52 28.912 139.053 28.912C139.491 28.912 139.912 28.8267 140.317 28.656C140.733 28.4747 141.101 28.2347 141.421 27.936V21.68H142.861V27.84C142.861 28.2987 142.957 28.6027 143.149 28.752C143.352 28.8907 143.571 28.96 143.805 28.96L143.501 30.08C142.509 30.08 141.896 29.6853 141.661 28.896C141.288 29.28 140.856 29.5947 140.365 29.84C139.875 30.0747 139.347 30.192 138.781 30.192ZM145.718 30V21.68H147.11V23.072C147.408 22.624 147.787 22.2507 148.246 21.952C148.704 21.6427 149.227 21.488 149.814 21.488C150.475 21.488 151.014 21.648 151.43 21.968C151.856 22.288 152.155 22.7147 152.326 23.248C152.656 22.7573 153.046 22.3413 153.494 22C153.952 21.6587 154.518 21.488 155.19 21.488C156.096 21.488 156.768 21.776 157.206 22.352C157.654 22.9173 157.878 23.6587 157.878 24.576V30H156.438V24.688C156.438 24.112 156.304 23.648 156.038 23.296C155.771 22.9333 155.403 22.752 154.934 22.752C154.454 22.752 154.006 22.9333 153.59 23.296C153.184 23.648 152.827 24.064 152.517 24.544V30H151.078V24.688C151.078 24.112 150.944 23.648 150.678 23.296C150.411 22.9333 150.043 22.752 149.574 22.752C149.104 22.752 148.662 22.928 148.246 23.28C147.83 23.6213 147.467 24.0267 147.158 24.496V30H145.718Z" fill="white"/>
</svg>
