<svg width="258" height="50" viewBox="0 0 258 50" fill="none" xmlns="http://www.w3.org/2000/svg">
<rect width="258" height="50" rx="25" fill="black"/>
<path d="M86.2759 30V18.832C86.7133 18.7787 87.1933 18.7413 87.7159 18.72C88.2493 18.688 88.7986 18.672 89.3639 18.672C90.2919 18.672 91.0813 18.8213 91.7319 19.12C92.3826 19.408 92.8786 19.808 93.2199 20.32C93.5613 20.832 93.7319 21.4187 93.7319 22.08C93.7319 22.88 93.5346 23.5573 93.1399 24.112C92.7453 24.6667 92.1959 25.0933 91.4919 25.392C90.7879 25.68 89.9719 25.824 89.0439 25.824C88.5959 25.824 88.1799 25.808 87.7959 25.776V30H86.2759ZM89.2359 24.56C90.1853 24.56 90.9213 24.3467 91.4439 23.92C91.9666 23.4933 92.2279 22.9227 92.2279 22.208C92.2279 21.5147 91.9773 20.9653 91.4759 20.56C90.9746 20.1547 90.2599 19.952 89.3319 19.952C89.0439 19.952 88.7719 19.9573 88.5159 19.968C88.2599 19.9787 88.0199 19.9947 87.7959 20.016V24.48C87.9666 24.5013 88.1746 24.5227 88.4199 24.544C88.6653 24.5547 88.9373 24.56 89.2359 24.56ZM97.9408 30.192C97.4501 30.192 97.0075 30.1013 96.6128 29.92C96.2181 29.728 95.9035 29.424 95.6688 29.008C95.4448 28.592 95.3328 28.0533 95.3328 27.392V18.16H96.7728V27.248C96.7728 27.824 96.8901 28.2507 97.1248 28.528C97.3701 28.8053 97.7061 28.944 98.1328 28.944C98.3355 28.944 98.5328 28.9227 98.7248 28.88C98.9275 28.8267 99.0981 28.768 99.2368 28.704L99.5888 29.872C99.3968 29.9573 99.1568 30.032 98.8688 30.096C98.5915 30.16 98.2821 30.192 97.9408 30.192ZM103.894 30.192C103.2 30.192 102.571 30.016 102.006 29.664C101.44 29.312 100.987 28.816 100.646 28.176C100.315 27.5253 100.15 26.7627 100.15 25.888C100.15 25.056 100.315 24.3093 100.646 23.648C100.987 22.9867 101.451 22.464 102.038 22.08C102.635 21.6853 103.318 21.488 104.086 21.488C104.566 21.488 104.998 21.5733 105.382 21.744C105.776 21.904 106.118 22.1067 106.406 22.352V21.68H107.718V27.984C107.718 28.3893 107.814 28.656 108.006 28.784C108.208 28.9013 108.427 28.96 108.662 28.96L108.358 30.08C107.334 30.08 106.715 29.664 106.502 28.832C106.256 29.1733 105.92 29.488 105.494 29.776C105.078 30.0533 104.544 30.192 103.894 30.192ZM104.214 28.912C104.619 28.912 105.003 28.816 105.366 28.624C105.728 28.4213 106.032 28.1707 106.278 27.872V23.408C105.99 23.2053 105.67 23.0453 105.318 22.928C104.976 22.8 104.614 22.736 104.23 22.736C103.718 22.736 103.264 22.8693 102.87 23.136C102.486 23.392 102.182 23.7547 101.958 24.224C101.734 24.6827 101.622 25.2213 101.622 25.84C101.622 26.4373 101.734 26.9707 101.958 27.44C102.182 27.8987 102.491 28.2613 102.886 28.528C103.28 28.784 103.723 28.912 104.214 28.912ZM110.48 33.712C110.16 33.712 109.878 33.68 109.632 33.616C109.398 33.552 109.211 33.4773 109.072 33.392L109.392 32.192C109.52 32.2667 109.68 32.3307 109.872 32.384C110.064 32.4373 110.278 32.464 110.512 32.464C110.96 32.464 111.36 32.32 111.712 32.032C112.064 31.744 112.4 31.1787 112.72 30.336L113.088 29.376H112.32L109.072 22.064L110.352 21.488L113.456 28.416L115.872 21.552L117.2 22.064L114.144 30.416C113.835 31.2693 113.499 31.936 113.136 32.416C112.774 32.896 112.374 33.232 111.936 33.424C111.499 33.616 111.014 33.712 110.48 33.712ZM128.244 30.192C127.412 30.192 126.671 30.0427 126.02 29.744C125.369 29.4347 124.815 29.0187 124.356 28.496C123.908 27.9627 123.561 27.344 123.316 26.64C123.081 25.936 122.964 25.184 122.964 24.384C122.964 23.2853 123.172 22.304 123.588 21.44C124.015 20.5653 124.623 19.8773 125.412 19.376C126.201 18.864 127.145 18.608 128.244 18.608C129.065 18.608 129.801 18.7573 130.452 19.056C131.113 19.3547 131.673 19.7707 132.132 20.304C132.591 20.8373 132.937 21.4507 133.172 22.144C133.417 22.8373 133.54 23.584 133.54 24.384C133.54 25.184 133.417 25.936 133.172 26.64C132.937 27.344 132.591 27.9627 132.132 28.496C131.673 29.0187 131.119 29.4347 130.468 29.744C129.817 30.0427 129.076 30.192 128.244 30.192ZM128.244 28.88C129.065 28.88 129.753 28.6827 130.308 28.288C130.863 27.8933 131.279 27.36 131.556 26.688C131.844 26.0053 131.988 25.2373 131.988 24.384C131.988 23.808 131.903 23.2533 131.732 22.72C131.561 22.1867 131.316 21.712 130.996 21.296C130.676 20.8693 130.281 20.5333 129.812 20.288C129.353 20.0427 128.831 19.92 128.244 19.92C127.465 19.92 126.793 20.1173 126.228 20.512C125.673 20.9067 125.247 21.44 124.948 22.112C124.66 22.784 124.516 23.5413 124.516 24.384C124.516 24.96 124.596 25.52 124.756 26.064C124.927 26.5973 125.172 27.0773 125.492 27.504C125.812 27.9307 126.201 28.2667 126.66 28.512C127.129 28.7573 127.657 28.88 128.244 28.88ZM135.776 30V23.232H134.496V21.984H135.776V21.008C135.776 20.0693 136.037 19.328 136.56 18.784C137.083 18.24 137.765 17.968 138.608 17.968C139.045 17.968 139.429 18.0213 139.76 18.128C140.091 18.224 140.405 18.3467 140.704 18.496L140.272 19.712C140.048 19.5947 139.808 19.488 139.552 19.392C139.296 19.296 139.013 19.248 138.704 19.248C138.256 19.248 137.893 19.392 137.616 19.68C137.349 19.9573 137.216 20.368 137.216 20.912V21.984H139.68V23.232H137.216V30H135.776ZM141.338 30V23.232H140.058V21.984H141.338V21.008C141.338 20.0693 141.6 19.328 142.122 18.784C142.645 18.24 143.328 17.968 144.17 17.968C144.608 17.968 144.992 18.0213 145.322 18.128C145.653 18.224 145.968 18.3467 146.266 18.496L145.834 19.712C145.61 19.5947 145.37 19.488 145.114 19.392C144.858 19.296 144.576 19.248 144.266 19.248C143.818 19.248 143.456 19.392 143.178 19.68C142.912 19.9573 142.778 20.368 142.778 20.912V21.984H145.242V23.232H142.778V30H141.338ZM149.269 30.192C148.778 30.192 148.336 30.1013 147.941 29.92C147.546 29.728 147.232 29.424 146.997 29.008C146.773 28.592 146.661 28.0533 146.661 27.392V18.16H148.101V27.248C148.101 27.824 148.218 28.2507 148.453 28.528C148.698 28.8053 149.034 28.944 149.461 28.944C149.664 28.944 149.861 28.9227 150.053 28.88C150.256 28.8267 150.426 28.768 150.565 28.704L150.917 29.872C150.725 29.9573 150.485 30.032 150.197 30.096C149.92 30.16 149.61 30.192 149.269 30.192ZM152.272 30V21.68H153.712V30H152.272ZM152.992 20.256C152.715 20.256 152.475 20.1547 152.272 19.952C152.08 19.7493 151.984 19.5147 151.984 19.248C151.984 18.9387 152.075 18.6933 152.256 18.512C152.438 18.3307 152.683 18.24 152.992 18.24C153.27 18.24 153.504 18.3413 153.696 18.544C153.899 18.736 154 18.9707 154 19.248C154 19.5467 153.91 19.792 153.728 19.984C153.547 20.1653 153.302 20.256 152.992 20.256ZM156.272 30V21.68H157.664V23.072C157.963 22.624 158.342 22.2507 158.8 21.952C159.27 21.6427 159.824 21.488 160.464 21.488C161.403 21.488 162.102 21.7707 162.56 22.336C163.03 22.9013 163.264 23.648 163.264 24.576V30H161.824V24.736C161.824 24.1387 161.68 23.6587 161.392 23.296C161.115 22.9333 160.726 22.752 160.224 22.752C159.734 22.752 159.27 22.928 158.832 23.28C158.395 23.6213 158.022 24.0267 157.712 24.496V30H156.272ZM169.069 30.192C167.874 30.192 166.925 29.8133 166.221 29.056C165.528 28.288 165.181 27.216 165.181 25.84C165.181 25.008 165.336 24.2667 165.645 23.616C165.965 22.9547 166.408 22.4373 166.973 22.064C167.538 21.68 168.194 21.488 168.941 21.488C169.741 21.488 170.402 21.664 170.925 22.016C171.458 22.3573 171.858 22.8213 172.125 23.408C172.392 23.9947 172.525 24.64 172.525 25.344C172.525 25.7173 172.509 26.08 172.477 26.432H166.653C166.749 27.2107 167.021 27.8187 167.469 28.256C167.917 28.6933 168.509 28.912 169.245 28.912C169.725 28.912 170.157 28.864 170.541 28.768C170.925 28.6613 171.293 28.528 171.645 28.368L171.981 29.6C171.597 29.7707 171.165 29.9093 170.685 30.016C170.205 30.1333 169.666 30.192 169.069 30.192ZM166.637 25.264H171.197C171.197 24.4533 170.994 23.8293 170.589 23.392C170.184 22.9547 169.624 22.736 168.909 22.736C168.29 22.736 167.778 22.9547 167.373 23.392C166.968 23.8187 166.722 24.4427 166.637 25.264Z" fill="white"/>
</svg>
