<svg width="258" height="50" viewBox="0 0 258 50" fill="none" xmlns="http://www.w3.org/2000/svg">
<rect width="258" height="50" rx="25" fill="black"/>
<path d="M87.1041 30V18.832C87.5414 18.7787 88.0214 18.7413 88.5441 18.72C89.0774 18.688 89.6267 18.672 90.1921 18.672C91.1201 18.672 91.9094 18.8213 92.5601 19.12C93.2107 19.408 93.7067 19.808 94.0481 20.32C94.3894 20.832 94.5601 21.4187 94.5601 22.08C94.5601 22.88 94.3627 23.5573 93.9681 24.112C93.5734 24.6667 93.0241 25.0933 92.3201 25.392C91.6161 25.68 90.8001 25.824 89.8721 25.824C89.4241 25.824 89.0081 25.808 88.6241 25.776V30H87.1041ZM90.0641 24.56C91.0134 24.56 91.7494 24.3467 92.2721 23.92C92.7947 23.4933 93.0561 22.9227 93.0561 22.208C93.0561 21.5147 92.8054 20.9653 92.3041 20.56C91.8027 20.1547 91.0881 19.952 90.1601 19.952C89.8721 19.952 89.6001 19.9573 89.3441 19.968C89.0881 19.9787 88.8481 19.9947 88.6241 20.016V24.48C88.7947 24.5013 89.0027 24.5227 89.2481 24.544C89.4934 24.5547 89.7654 24.56 90.0641 24.56ZM98.7689 30.192C98.2783 30.192 97.8356 30.1013 97.4409 29.92C97.0463 29.728 96.7316 29.424 96.4969 29.008C96.2729 28.592 96.1609 28.0533 96.1609 27.392V18.16H97.6009V27.248C97.6009 27.824 97.7183 28.2507 97.9529 28.528C98.1983 28.8053 98.5343 28.944 98.9609 28.944C99.1636 28.944 99.3609 28.9227 99.5529 28.88C99.7556 28.8267 99.9263 28.768 100.065 28.704L100.417 29.872C100.225 29.9573 99.9849 30.032 99.6969 30.096C99.4196 30.16 99.1103 30.192 98.7689 30.192ZM104.722 30.192C104.028 30.192 103.399 30.016 102.834 29.664C102.268 29.312 101.815 28.816 101.474 28.176C101.143 27.5253 100.978 26.7627 100.978 25.888C100.978 25.056 101.143 24.3093 101.474 23.648C101.815 22.9867 102.279 22.464 102.866 22.08C103.463 21.6853 104.146 21.488 104.914 21.488C105.394 21.488 105.826 21.5733 106.21 21.744C106.604 21.904 106.946 22.1067 107.234 22.352V21.68H108.546V27.984C108.546 28.3893 108.642 28.656 108.834 28.784C109.036 28.9013 109.255 28.96 109.49 28.96L109.186 30.08C108.162 30.08 107.543 29.664 107.33 28.832C107.084 29.1733 106.748 29.488 106.322 29.776C105.906 30.0533 105.372 30.192 104.722 30.192ZM105.042 28.912C105.447 28.912 105.831 28.816 106.194 28.624C106.556 28.4213 106.86 28.1707 107.106 27.872V23.408C106.818 23.2053 106.498 23.0453 106.146 22.928C105.804 22.8 105.442 22.736 105.058 22.736C104.546 22.736 104.092 22.8693 103.698 23.136C103.314 23.392 103.01 23.7547 102.786 24.224C102.562 24.6827 102.45 25.2213 102.45 25.84C102.45 26.4373 102.562 26.9707 102.786 27.44C103.01 27.8987 103.319 28.2613 103.714 28.528C104.108 28.784 104.551 28.912 105.042 28.912ZM111.308 33.712C110.988 33.712 110.706 33.68 110.46 33.616C110.226 33.552 110.039 33.4773 109.9 33.392L110.22 32.192C110.348 32.2667 110.508 32.3307 110.7 32.384C110.892 32.4373 111.106 32.464 111.34 32.464C111.788 32.464 112.188 32.32 112.54 32.032C112.892 31.744 113.228 31.1787 113.548 30.336L113.916 29.376H113.148L109.9 22.064L111.18 21.488L114.284 28.416L116.7 21.552L118.028 22.064L114.972 30.416C114.663 31.2693 114.327 31.936 113.964 32.416C113.602 32.896 113.202 33.232 112.764 33.424C112.327 33.616 111.842 33.712 111.308 33.712ZM129.072 30.192C128.24 30.192 127.499 30.0427 126.848 29.744C126.198 29.4347 125.643 29.0187 125.184 28.496C124.736 27.9627 124.39 27.344 124.144 26.64C123.91 25.936 123.792 25.184 123.792 24.384C123.792 23.2853 124 22.304 124.416 21.44C124.843 20.5653 125.451 19.8773 126.24 19.376C127.03 18.864 127.974 18.608 129.072 18.608C129.894 18.608 130.63 18.7573 131.28 19.056C131.942 19.3547 132.502 19.7707 132.96 20.304C133.419 20.8373 133.766 21.4507 134 22.144C134.246 22.8373 134.368 23.584 134.368 24.384C134.368 25.184 134.246 25.936 134 26.64C133.766 27.344 133.419 27.9627 132.96 28.496C132.502 29.0187 131.947 29.4347 131.296 29.744C130.646 30.0427 129.904 30.192 129.072 30.192ZM129.072 28.88C129.894 28.88 130.582 28.6827 131.136 28.288C131.691 27.8933 132.107 27.36 132.384 26.688C132.672 26.0053 132.816 25.2373 132.816 24.384C132.816 23.808 132.731 23.2533 132.56 22.72C132.39 22.1867 132.144 21.712 131.824 21.296C131.504 20.8693 131.11 20.5333 130.64 20.288C130.182 20.0427 129.659 19.92 129.072 19.92C128.294 19.92 127.622 20.1173 127.056 20.512C126.502 20.9067 126.075 21.44 125.776 22.112C125.488 22.784 125.344 23.5413 125.344 24.384C125.344 24.96 125.424 25.52 125.584 26.064C125.755 26.5973 126 27.0773 126.32 27.504C126.64 27.9307 127.03 28.2667 127.488 28.512C127.958 28.7573 128.486 28.88 129.072 28.88ZM136.444 30V21.68H137.836V23.072C138.135 22.624 138.513 22.2507 138.972 21.952C139.441 21.6427 139.996 21.488 140.636 21.488C141.575 21.488 142.273 21.7707 142.732 22.336C143.201 22.9013 143.436 23.648 143.436 24.576V30H141.996V24.736C141.996 24.1387 141.852 23.6587 141.564 23.296C141.287 22.9333 140.897 22.752 140.396 22.752C139.905 22.752 139.441 22.928 139.004 23.28C138.567 23.6213 138.193 24.0267 137.884 24.496V30H136.444ZM148.441 30.192C147.95 30.192 147.507 30.1013 147.113 29.92C146.718 29.728 146.403 29.424 146.169 29.008C145.945 28.592 145.833 28.0533 145.833 27.392V18.16H147.273V27.248C147.273 27.824 147.39 28.2507 147.625 28.528C147.87 28.8053 148.206 28.944 148.633 28.944C148.835 28.944 149.033 28.9227 149.225 28.88C149.427 28.8267 149.598 28.768 149.737 28.704L150.089 29.872C149.897 29.9573 149.657 30.032 149.369 30.096C149.091 30.16 148.782 30.192 148.441 30.192ZM151.444 30V21.68H152.884V30H151.444ZM152.164 20.256C151.887 20.256 151.647 20.1547 151.444 19.952C151.252 19.7493 151.156 19.5147 151.156 19.248C151.156 18.9387 151.247 18.6933 151.428 18.512C151.609 18.3307 151.855 18.24 152.164 18.24C152.441 18.24 152.676 18.3413 152.868 18.544C153.071 18.736 153.172 18.9707 153.172 19.248C153.172 19.5467 153.081 19.792 152.9 19.984C152.719 20.1653 152.473 20.256 152.164 20.256ZM155.444 30V21.68H156.836V23.072C157.135 22.624 157.513 22.2507 157.972 21.952C158.441 21.6427 158.996 21.488 159.636 21.488C160.575 21.488 161.273 21.7707 161.732 22.336C162.201 22.9013 162.436 23.648 162.436 24.576V30H160.996V24.736C160.996 24.1387 160.852 23.6587 160.564 23.296C160.287 22.9333 159.897 22.752 159.396 22.752C158.905 22.752 158.441 22.928 158.004 23.28C157.567 23.6213 157.193 24.0267 156.884 24.496V30H155.444ZM168.241 30.192C167.046 30.192 166.097 29.8133 165.393 29.056C164.699 28.288 164.353 27.216 164.353 25.84C164.353 25.008 164.507 24.2667 164.817 23.616C165.137 22.9547 165.579 22.4373 166.145 22.064C166.71 21.68 167.366 21.488 168.113 21.488C168.913 21.488 169.574 21.664 170.097 22.016C170.63 22.3573 171.03 22.8213 171.297 23.408C171.563 23.9947 171.697 24.64 171.697 25.344C171.697 25.7173 171.681 26.08 171.649 26.432H165.825C165.921 27.2107 166.193 27.8187 166.641 28.256C167.089 28.6933 167.681 28.912 168.417 28.912C168.897 28.912 169.329 28.864 169.713 28.768C170.097 28.6613 170.465 28.528 170.817 28.368L171.153 29.6C170.769 29.7707 170.337 29.9093 169.857 30.016C169.377 30.1333 168.838 30.192 168.241 30.192ZM165.809 25.264H170.369C170.369 24.4533 170.166 23.8293 169.761 23.392C169.355 22.9547 168.795 22.736 168.081 22.736C167.462 22.736 166.95 22.9547 166.545 23.392C166.139 23.8187 165.894 24.4427 165.809 25.264Z" fill="white"/>
</svg>
