<svg width="259" height="50" viewBox="0 0 259 50" fill="none" xmlns="http://www.w3.org/2000/svg">
<rect x="1" width="258" height="50" rx="25" fill="black"/>
<path d="M93.8228 30V18.832C94.2601 18.7787 94.7401 18.7413 95.2628 18.72C95.7961 18.688 96.3455 18.672 96.9108 18.672C97.8388 18.672 98.6281 18.8213 99.2788 19.12C99.9295 19.408 100.425 19.808 100.767 20.32C101.108 20.832 101.279 21.4187 101.279 22.08C101.279 22.88 101.081 23.5573 100.687 24.112C100.292 24.6667 99.7428 25.0933 99.0388 25.392C98.3348 25.68 97.5188 25.824 96.5908 25.824C96.1428 25.824 95.7268 25.808 95.3428 25.776V30H93.8228ZM96.7828 24.56C97.7321 24.56 98.4681 24.3467 98.9908 23.92C99.5135 23.4933 99.7748 22.9227 99.7748 22.208C99.7748 21.5147 99.5241 20.9653 99.0228 20.56C98.5215 20.1547 97.8068 19.952 96.8788 19.952C96.5908 19.952 96.3188 19.9573 96.0628 19.968C95.8068 19.9787 95.5668 19.9947 95.3428 20.016V24.48C95.5135 24.5013 95.7215 24.5227 95.9668 24.544C96.2121 24.5547 96.4841 24.56 96.7828 24.56ZM105.488 30.192C104.997 30.192 104.554 30.1013 104.16 29.92C103.765 29.728 103.45 29.424 103.216 29.008C102.992 28.592 102.88 28.0533 102.88 27.392V18.16H104.32V27.248C104.32 27.824 104.437 28.2507 104.672 28.528C104.917 28.8053 105.253 28.944 105.68 28.944C105.882 28.944 106.08 28.9227 106.272 28.88C106.474 28.8267 106.645 28.768 106.784 28.704L107.136 29.872C106.944 29.9573 106.704 30.032 106.416 30.096C106.138 30.16 105.829 30.192 105.488 30.192ZM111.441 30.192C110.747 30.192 110.118 30.016 109.553 29.664C108.987 29.312 108.534 28.816 108.193 28.176C107.862 27.5253 107.697 26.7627 107.697 25.888C107.697 25.056 107.862 24.3093 108.193 23.648C108.534 22.9867 108.998 22.464 109.585 22.08C110.182 21.6853 110.865 21.488 111.633 21.488C112.113 21.488 112.545 21.5733 112.929 21.744C113.323 21.904 113.665 22.1067 113.953 22.352V21.68H115.265V27.984C115.265 28.3893 115.361 28.656 115.553 28.784C115.755 28.9013 115.974 28.96 116.209 28.96L115.905 30.08C114.881 30.08 114.262 29.664 114.049 28.832C113.803 29.1733 113.467 29.488 113.041 29.776C112.625 30.0533 112.091 30.192 111.441 30.192ZM111.761 28.912C112.166 28.912 112.55 28.816 112.913 28.624C113.275 28.4213 113.579 28.1707 113.825 27.872V23.408C113.537 23.2053 113.217 23.0453 112.865 22.928C112.523 22.8 112.161 22.736 111.777 22.736C111.265 22.736 110.811 22.8693 110.417 23.136C110.033 23.392 109.729 23.7547 109.505 24.224C109.281 24.6827 109.169 25.2213 109.169 25.84C109.169 26.4373 109.281 26.9707 109.505 27.44C109.729 27.8987 110.038 28.2613 110.433 28.528C110.827 28.784 111.27 28.912 111.761 28.912ZM118.027 33.712C117.707 33.712 117.424 33.68 117.179 33.616C116.944 33.552 116.758 33.4773 116.619 33.392L116.939 32.192C117.067 32.2667 117.227 32.3307 117.419 32.384C117.611 32.4373 117.824 32.464 118.059 32.464C118.507 32.464 118.907 32.32 119.259 32.032C119.611 31.744 119.947 31.1787 120.267 30.336L120.635 29.376H119.867L116.619 22.064L117.899 21.488L121.003 28.416L123.419 21.552L124.747 22.064L121.691 30.416C121.382 31.2693 121.046 31.936 120.683 32.416C120.32 32.896 119.92 33.232 119.483 33.424C119.046 33.616 118.56 33.712 118.027 33.712ZM133.215 30L129.871 22.064L131.183 21.52L134.015 28.368L136.847 21.52L138.079 22.064L134.719 30H133.215ZM141.762 30.192C141.133 30.192 140.562 30.112 140.05 29.952C139.549 29.792 139.133 29.584 138.802 29.328L139.41 28.128C139.688 28.3627 140.034 28.56 140.45 28.72C140.877 28.8693 141.33 28.944 141.81 28.944C142.408 28.944 142.856 28.848 143.154 28.656C143.464 28.4533 143.618 28.1973 143.618 27.888C143.618 27.664 143.56 27.4667 143.442 27.296C143.336 27.1253 143.133 26.96 142.834 26.8C142.536 26.6293 142.104 26.448 141.538 26.256C140.76 25.9893 140.173 25.6747 139.778 25.312C139.394 24.9387 139.202 24.4267 139.202 23.776C139.202 23.136 139.48 22.5973 140.034 22.16C140.6 21.712 141.378 21.488 142.37 21.488C142.904 21.488 143.378 21.5467 143.794 21.664C144.21 21.7707 144.584 21.9093 144.914 22.08L144.514 23.264C144.226 23.0933 143.896 22.9547 143.522 22.848C143.16 22.7413 142.754 22.688 142.306 22.688C141.752 22.688 141.33 22.8 141.042 23.024C140.754 23.248 140.61 23.4933 140.61 23.76C140.61 24.016 140.722 24.2347 140.946 24.416C141.17 24.5973 141.608 24.7947 142.258 25.008C143.314 25.36 144.05 25.7493 144.466 26.176C144.882 26.6027 145.09 27.136 145.09 27.776C145.09 28.5227 144.786 29.1147 144.178 29.552C143.581 29.9787 142.776 30.192 141.762 30.192ZM159.659 30.16L158.411 26.96H153.227L151.979 30.128L150.683 29.6L155.067 18.8H156.731L161.051 29.6L159.659 30.16ZM153.707 25.68H157.915L155.819 20.304L153.707 25.68ZM162.651 30V18.8H164.171V30H162.651Z" fill="white"/>
</svg>
