<svg width="50" height="50" viewBox="0 0 50 50" fill="none" xmlns="http://www.w3.org/2000/svg">
<circle cx="25" cy="25" r="25" fill="black"/>
<path d="M43 25C43 15.082 34.918 7 25 7C15.082 7 7 15.082 7 25C7 30.22 9.25 34.918 12.814 38.212C12.814 38.23 12.814 38.23 12.796 38.248C12.976 38.428 13.192 38.572 13.372 38.734C13.48 38.824 13.57 38.914 13.678 38.986C14.002 39.256 14.362 39.508 14.704 39.76C14.83 39.85 14.938 39.922 15.064 40.012C15.406 40.246 15.766 40.462 16.144 40.66C16.27 40.732 16.414 40.822 16.54 40.894C16.9 41.092 17.278 41.272 17.674 41.434C17.818 41.506 17.962 41.578 18.106 41.632C18.502 41.794 18.898 41.938 19.294 42.064C19.438 42.118 19.582 42.172 19.726 42.208C20.158 42.334 20.59 42.442 21.022 42.55C21.148 42.586 21.274 42.622 21.418 42.64C21.922 42.748 22.426 42.82 22.948 42.874C23.02 42.874 23.092 42.892 23.164 42.91C23.776 42.964 24.388 43 25 43C25.612 43 26.224 42.964 26.818 42.91C26.89 42.91 26.962 42.892 27.034 42.874C27.556 42.82 28.06 42.748 28.564 42.64C28.69 42.622 28.816 42.568 28.96 42.55C29.392 42.442 29.842 42.352 30.256 42.208C30.4 42.154 30.544 42.1 30.688 42.064C31.084 41.92 31.498 41.794 31.876 41.632C32.02 41.578 32.164 41.506 32.308 41.434C32.686 41.272 33.064 41.092 33.442 40.894C33.586 40.822 33.712 40.732 33.838 40.66C34.198 40.444 34.558 40.246 34.918 40.012C35.044 39.94 35.152 39.85 35.278 39.76C35.638 39.508 35.98 39.256 36.304 38.986C36.412 38.896 36.502 38.806 36.61 38.734C36.808 38.572 37.006 38.41 37.186 38.248C37.186 38.23 37.186 38.23 37.168 38.212C40.75 34.918 43 30.22 43 25ZM33.892 33.946C29.014 30.67 21.022 30.67 16.108 33.946C15.316 34.468 14.668 35.08 14.128 35.746C11.392 32.974 9.7 29.176 9.7 25C9.7 16.558 16.558 9.7 25 9.7C33.442 9.7 40.3 16.558 40.3 25C40.3 29.176 38.608 32.974 35.872 35.746C35.35 35.08 34.684 34.468 33.892 33.946Z" fill="white"/>
<path d="M25 16C21.136 16 18 19.1402 18 23.0094C18 26.8037 20.968 29.8879 24.9067 30C24.9627 30 25.0373 30 25.0747 30C25.112 30 25.168 30 25.2053 30C25.224 30 25.2427 30 25.2427 30C29.0133 29.8692 31.9813 26.8037 32 23.0094C32 19.1402 28.864 16 25 16Z" fill="white"/>
</svg>
