<svg width="258" height="50" viewBox="0 0 258 50" fill="none" xmlns="http://www.w3.org/2000/svg">
<rect width="258" height="50" rx="25" fill="black"/>
<path d="M110.484 30.192L109.092 27.152C108.74 26.3947 108.297 25.856 107.764 25.536C107.23 25.216 106.548 25.056 105.716 25.056H105.476V30H103.956V18.832C104.521 18.7787 105.06 18.7413 105.572 18.72C106.094 18.688 106.649 18.672 107.236 18.672C108.601 18.672 109.625 18.9493 110.308 19.504C111.001 20.0587 111.348 20.7733 111.348 21.648C111.348 22.4267 111.113 23.056 110.644 23.536C110.185 24.0053 109.518 24.3573 108.644 24.592C108.932 24.72 109.188 24.8747 109.412 25.056C109.636 25.2267 109.849 25.4613 110.052 25.76C110.265 26.048 110.478 26.4267 110.692 26.896L111.908 29.52L110.484 30.192ZM105.476 23.776H107.236C108.004 23.776 108.628 23.6053 109.108 23.264C109.588 22.9227 109.828 22.432 109.828 21.792C109.828 21.2587 109.604 20.8213 109.156 20.48C108.708 20.128 108.068 19.952 107.236 19.952C106.873 19.952 106.548 19.9573 106.26 19.968C105.972 19.9787 105.71 19.9947 105.476 20.016V23.776ZM116.999 30.192C115.804 30.192 114.855 29.8133 114.151 29.056C113.457 28.288 113.111 27.216 113.111 25.84C113.111 25.008 113.265 24.2667 113.575 23.616C113.895 22.9547 114.337 22.4373 114.903 22.064C115.468 21.68 116.124 21.488 116.871 21.488C117.671 21.488 118.332 21.664 118.855 22.016C119.388 22.3573 119.788 22.8213 120.055 23.408C120.321 23.9947 120.455 24.64 120.455 25.344C120.455 25.7173 120.439 26.08 120.407 26.432H114.583C114.679 27.2107 114.951 27.8187 115.399 28.256C115.847 28.6933 116.439 28.912 117.175 28.912C117.655 28.912 118.087 28.864 118.471 28.768C118.855 28.6613 119.223 28.528 119.575 28.368L119.911 29.6C119.527 29.7707 119.095 29.9093 118.615 30.016C118.135 30.1333 117.596 30.192 116.999 30.192ZM114.567 25.264H119.127C119.127 24.4533 118.924 23.8293 118.519 23.392C118.113 22.9547 117.553 22.736 116.839 22.736C116.22 22.736 115.708 22.9547 115.303 23.392C114.897 23.8187 114.652 24.4427 114.567 25.264ZM124.902 30.192C124.411 30.192 123.968 30.1013 123.574 29.92C123.179 29.728 122.864 29.424 122.63 29.008C122.406 28.592 122.294 28.0533 122.294 27.392V18.16H123.734V27.248C123.734 27.824 123.851 28.2507 124.086 28.528C124.331 28.8053 124.667 28.944 125.094 28.944C125.296 28.944 125.494 28.9227 125.686 28.88C125.888 28.8267 126.059 28.768 126.198 28.704L126.55 29.872C126.358 29.9573 126.118 30.032 125.83 30.096C125.552 30.16 125.243 30.192 124.902 30.192ZM131.175 30.192C130.385 30.192 129.676 30.0107 129.047 29.648C128.417 29.2747 127.921 28.7627 127.559 28.112C127.207 27.4507 127.031 26.6933 127.031 25.84C127.031 24.944 127.212 24.1707 127.575 23.52C127.937 22.8693 128.433 22.368 129.063 22.016C129.692 21.664 130.396 21.488 131.175 21.488C131.953 21.488 132.652 21.664 133.271 22.016C133.9 22.368 134.396 22.8693 134.759 23.52C135.132 24.16 135.319 24.9227 135.319 25.808C135.319 26.6933 135.137 27.4667 134.775 28.128C134.412 28.7787 133.916 29.2853 133.287 29.648C132.668 30.0107 131.964 30.192 131.175 30.192ZM131.175 28.912C132.017 28.912 132.673 28.6293 133.143 28.064C133.612 27.488 133.847 26.7467 133.847 25.84C133.847 25.2853 133.729 24.7787 133.495 24.32C133.26 23.8507 132.94 23.4773 132.535 23.2C132.14 22.912 131.687 22.768 131.175 22.768C130.332 22.768 129.676 23.0453 129.207 23.6C128.737 24.1547 128.503 24.8907 128.503 25.808C128.503 26.3627 128.62 26.88 128.855 27.36C129.089 27.8293 129.404 28.208 129.799 28.496C130.204 28.7733 130.663 28.912 131.175 28.912ZM140.417 30.192C139.724 30.192 139.094 30.016 138.529 29.664C137.964 29.312 137.51 28.816 137.169 28.176C136.838 27.5253 136.673 26.7627 136.673 25.888C136.673 25.056 136.838 24.3093 137.169 23.648C137.51 22.9867 137.974 22.464 138.561 22.08C139.158 21.6853 139.841 21.488 140.609 21.488C141.089 21.488 141.521 21.5733 141.905 21.744C142.3 21.904 142.641 22.1067 142.929 22.352V21.68H144.241V27.984C144.241 28.3893 144.337 28.656 144.529 28.784C144.732 28.9013 144.95 28.96 145.185 28.96L144.881 30.08C143.857 30.08 143.238 29.664 143.025 28.832C142.78 29.1733 142.444 29.488 142.017 29.776C141.601 30.0533 141.068 30.192 140.417 30.192ZM140.737 28.912C141.142 28.912 141.526 28.816 141.889 28.624C142.252 28.4213 142.556 28.1707 142.801 27.872V23.408C142.513 23.2053 142.193 23.0453 141.841 22.928C141.5 22.8 141.137 22.736 140.753 22.736C140.241 22.736 139.788 22.8693 139.393 23.136C139.009 23.392 138.705 23.7547 138.481 24.224C138.257 24.6827 138.145 25.2213 138.145 25.84C138.145 26.4373 138.257 26.9707 138.481 27.44C138.705 27.8987 139.014 28.2613 139.409 28.528C139.804 28.784 140.246 28.912 140.737 28.912ZM150.104 30.192C149.421 30.192 148.797 30.016 148.232 29.664C147.667 29.312 147.219 28.816 146.888 28.176C146.557 27.5253 146.392 26.7627 146.392 25.888C146.392 25.0453 146.557 24.2933 146.888 23.632C147.229 22.9707 147.677 22.448 148.232 22.064C148.797 21.68 149.416 21.488 150.088 21.488C150.643 21.488 151.117 21.6 151.512 21.824C151.917 22.048 152.232 22.2773 152.456 22.512V18.16H153.896V27.984C153.896 28.3893 153.992 28.656 154.184 28.784C154.387 28.9013 154.605 28.96 154.84 28.96L154.536 30.08C153.523 30.08 152.904 29.6747 152.68 28.864C152.445 29.1947 152.115 29.4987 151.688 29.776C151.272 30.0533 150.744 30.192 150.104 30.192ZM150.424 28.912C150.819 28.912 151.192 28.8213 151.544 28.64C151.907 28.448 152.211 28.2027 152.456 27.904V23.776C152.253 23.52 151.971 23.2853 151.608 23.072C151.245 22.848 150.845 22.736 150.408 22.736C149.896 22.736 149.448 22.8747 149.064 23.152C148.68 23.4293 148.381 23.8027 148.168 24.272C147.965 24.7307 147.864 25.2533 147.864 25.84C147.864 26.4267 147.976 26.9547 148.2 27.424C148.424 27.8827 148.728 28.2453 149.112 28.512C149.507 28.7787 149.944 28.912 150.424 28.912Z" fill="white"/>
</svg>
