<svg width="50" height="50" viewBox="0 0 50 50" fill="none" xmlns="http://www.w3.org/2000/svg">
<circle cx="25" cy="25" r="25" fill="black"/>
<path fill-rule="evenodd" clip-rule="evenodd" d="M22.3532 12C22.3532 10.8954 23.2486 10 24.3532 10H25.6473C26.7519 10 27.6473 10.8954 27.6473 12V14.7454C28.6793 15.011 29.6503 15.4283 30.5353 15.9721L32.4461 14.0613C33.2272 13.2802 34.4935 13.2802 35.2746 14.0613L36.1896 14.9764C36.9707 15.7574 36.9707 17.0237 36.1896 17.8048L34.2142 19.7802C34.6676 20.5788 35.0201 21.4422 35.2545 22.3529H38C39.1046 22.3529 40 23.2484 40 24.3529V25.647C40 26.7516 39.1046 27.647 38 27.647H35.2545C35.0044 28.6186 34.6199 29.5362 34.122 30.3788L36.1892 32.446C36.9703 33.2271 36.9703 34.4934 36.1892 35.2745L35.2741 36.1895C34.4931 36.9706 33.2268 36.9706 32.4457 36.1895L30.3784 34.1223C29.536 34.62 28.6186 35.0044 27.6473 35.2545V38C27.6473 39.1046 26.7519 40 25.6473 40H24.3532C23.2486 40 22.3532 39.1046 22.3532 38V35.2547C21.4423 35.0203 20.5789 34.6677 19.7801 34.2143L17.8049 36.1896C17.0238 36.9706 15.7575 36.9706 14.9764 36.1896L14.0614 35.2745C13.2803 34.4934 13.2803 33.2271 14.0614 32.4461L15.972 30.5354C15.4282 29.6503 15.0109 28.6791 14.7452 27.647H12C10.8954 27.647 10 26.7516 10 25.647V24.3529C10 23.2484 10.8954 22.3529 12 22.3529H14.7452C14.9952 21.3814 15.3797 20.4639 15.8775 19.6213L14.0609 17.8048C13.2799 17.0237 13.2799 15.7574 14.0609 14.9763L14.976 14.0613C15.7571 13.2802 17.0234 13.2802 17.8044 14.0613L19.621 15.8778C20.4637 15.3798 21.3815 14.9952 22.3532 14.7452V12Z" fill="white"/>
<path d="M27.6473 14.7454H26.6473V15.5206L27.398 15.7138L27.6473 14.7454ZM30.5353 15.9721L30.0118 16.8241L30.6843 17.2374L31.2424 16.6792L30.5353 15.9721ZM32.4461 14.0613L33.1532 14.7684V14.7684L32.4461 14.0613ZM35.2746 14.0613L34.5675 14.7684L35.2746 14.0613ZM36.1896 14.9764L35.4825 15.6835L35.4825 15.6835L36.1896 14.9764ZM36.1896 17.8048L36.8968 18.5119L36.1896 17.8048ZM34.2142 19.7802L33.5071 19.0731L32.9686 19.6116L33.3446 20.2739L34.2142 19.7802ZM35.2545 22.3529L34.2861 22.6022L34.4793 23.3529H35.2545V22.3529ZM35.2545 27.647V26.647H34.4793L34.2861 27.3978L35.2545 27.647ZM34.122 30.3788L33.2611 29.8701L32.8666 30.5376L33.4149 31.0859L34.122 30.3788ZM36.1892 32.446L35.4821 33.1531H35.4821L36.1892 32.446ZM36.1892 35.2745L35.4821 34.5674H35.4821L36.1892 35.2745ZM35.2741 36.1895L34.567 35.4824V35.4824L35.2741 36.1895ZM30.3784 34.1223L31.0856 33.4152L30.5373 32.8669L29.8697 33.2613L30.3784 34.1223ZM27.6473 35.2545L27.398 34.2861L26.6473 34.4793V35.2545H27.6473ZM22.3532 35.2547H23.3532V34.4795L22.6024 34.2863L22.3532 35.2547ZM19.7801 34.2143L20.2738 33.3447L19.6115 32.9687L19.073 33.5072L19.7801 34.2143ZM17.8049 36.1896L17.0978 35.4825L17.0978 35.4825L17.8049 36.1896ZM14.9764 36.1896L15.6835 35.4825L15.6835 35.4825L14.9764 36.1896ZM14.0614 35.2745L14.7685 34.5674H14.7685L14.0614 35.2745ZM14.0614 32.4461L14.7685 33.1532H14.7685L14.0614 32.4461ZM15.972 30.5354L16.6792 31.2425L17.2373 30.6844L16.8241 30.0119L15.972 30.5354ZM14.7452 27.647L15.7136 27.3978L15.5204 26.647H14.7452V27.647ZM14.7452 22.3529V23.3529H15.5204L15.7136 22.6022L14.7452 22.3529ZM15.8775 19.6213L16.7385 20.1301L17.1329 19.4625L16.5846 18.9142L15.8775 19.6213ZM14.0609 14.9763L13.3538 14.2692L14.0609 14.9763ZM14.976 14.0613L14.2689 13.3542L14.976 14.0613ZM17.8044 14.0613L18.5116 13.3542L17.8044 14.0613ZM19.621 15.8778L18.9139 16.5849L19.4622 17.1332L20.1297 16.7387L19.621 15.8778ZM22.3532 14.7452L22.6024 15.7136L23.3532 15.5204V14.7452H22.3532ZM24.3532 9C22.6964 9 21.3532 10.3431 21.3532 12H23.3532C23.3532 11.4477 23.8009 11 24.3532 11V9ZM25.6473 9H24.3532V11H25.6473V9ZM28.6473 12C28.6473 10.3431 27.3042 9 25.6473 9V11C26.1996 11 26.6473 11.4477 26.6473 12H28.6473ZM28.6473 14.7454V12H26.6473V14.7454H28.6473ZM27.398 15.7138C28.3316 15.9541 29.2104 16.3317 30.0118 16.8241L31.0588 15.1201C30.0902 14.5249 29.0269 14.0679 27.8966 13.777L27.398 15.7138ZM31.739 13.3542L29.8282 15.265L31.2424 16.6792L33.1532 14.7684L31.739 13.3542ZM35.9817 13.3542C34.8101 12.1826 32.9106 12.1826 31.739 13.3542L33.1532 14.7684C33.5438 14.3779 34.1769 14.3779 34.5675 14.7684L35.9817 13.3542ZM36.8968 14.2693L35.9817 13.3542L34.5675 14.7684L35.4825 15.6835L36.8968 14.2693ZM36.8968 18.5119C38.0683 17.3403 38.0683 15.4408 36.8967 14.2693L35.4825 15.6835C35.8731 16.074 35.8731 16.7072 35.4825 17.0977L36.8968 18.5119ZM34.9213 20.4873L36.8968 18.5119L35.4825 17.0977L33.5071 19.0731L34.9213 20.4873ZM33.3446 20.2739C33.755 20.9969 34.074 21.7782 34.2861 22.6022L36.223 22.1037C35.9662 21.1061 35.5801 20.1607 35.0839 19.2865L33.3446 20.2739ZM38 21.3529H35.2545V23.3529H38V21.3529ZM41 24.3529C41 22.6961 39.6569 21.3529 38 21.3529V23.3529C38.5523 23.3529 39 23.8006 39 24.3529H41ZM41 25.647V24.3529H39V25.647H41ZM38 28.647C39.6569 28.647 41 27.3039 41 25.647H39C39 26.1993 38.5523 26.647 38 26.647V28.647ZM35.2545 28.647H38V26.647H35.2545V28.647ZM34.2861 27.3978C34.0598 28.2768 33.7119 29.1071 33.2611 29.8701L34.9829 30.8876C35.5279 29.9653 35.949 28.9605 36.2229 27.8963L34.2861 27.3978ZM36.8963 31.7389L34.8291 29.6717L33.4149 31.0859L35.4821 33.1531L36.8963 31.7389ZM36.8963 35.9816C38.0679 34.81 38.0679 32.9105 36.8963 31.7389L35.4821 33.1531C35.8726 33.5437 35.8726 34.1768 35.4821 34.5674L36.8963 35.9816ZM35.9813 36.8966L36.8963 35.9816L35.4821 34.5674L34.567 35.4824L35.9813 36.8966ZM31.7386 36.8967C32.9102 38.0682 34.8097 38.0682 35.9813 36.8966L34.567 35.4824C34.1765 35.873 33.5433 35.873 33.1528 35.4824L31.7386 36.8967ZM29.6713 34.8294L31.7386 36.8967L33.1528 35.4824L31.0856 33.4152L29.6713 34.8294ZM29.8697 33.2613C29.107 33.712 28.2768 34.0598 27.398 34.2861L27.8966 36.2229C28.9605 35.949 29.9651 35.528 30.8872 34.9832L29.8697 33.2613ZM28.6473 38V35.2545H26.6473V38H28.6473ZM25.6473 41C27.3042 41 28.6473 39.6569 28.6473 38H26.6473C26.6473 38.5523 26.1996 39 25.6473 39V41ZM24.3532 41H25.6473V39H24.3532V41ZM21.3532 38C21.3532 39.6569 22.6964 41 24.3532 41V39C23.8009 39 23.3532 38.5523 23.3532 38H21.3532ZM21.3532 35.2547V38H23.3532V35.2547H21.3532ZM22.6024 34.2863C21.7783 34.0742 20.997 33.7552 20.2738 33.3447L19.2865 35.0839C20.1608 35.5803 21.1063 35.9664 22.104 36.2231L22.6024 34.2863ZM18.512 36.8967L20.4873 34.9214L19.073 33.5072L17.0978 35.4825L18.512 36.8967ZM14.2693 36.8967C15.4409 38.0683 17.3404 38.0683 18.512 36.8967L17.0978 35.4825C16.7072 35.873 16.0741 35.873 15.6835 35.4825L14.2693 36.8967ZM13.3543 35.9816L14.2693 36.8967L15.6835 35.4825L14.7685 34.5674L13.3543 35.9816ZM13.3543 31.739C12.1827 32.9105 12.1827 34.81 13.3543 35.9816L14.7685 34.5674C14.3779 34.1769 14.3779 33.5437 14.7685 33.1532L13.3543 31.739ZM15.2649 29.8283L13.3543 31.739L14.7685 33.1532L16.6792 31.2425L15.2649 29.8283ZM16.8241 30.0119C16.3316 29.2104 15.954 28.3315 15.7136 27.3978L13.7768 27.8963C14.0677 29.0268 14.5248 30.0902 15.12 31.0589L16.8241 30.0119ZM12 28.647H14.7452V26.647H12V28.647ZM9 25.647C9 27.3039 10.3431 28.647 12 28.647V26.647C11.4477 26.647 11 26.1993 11 25.647H9ZM9 24.3529V25.647H11V24.3529H9ZM12 21.3529C10.3431 21.3529 9 22.6961 9 24.3529H11C11 23.8006 11.4477 23.3529 12 23.3529V21.3529ZM14.7452 21.3529H12V23.3529H14.7452V21.3529ZM15.7136 22.6022C15.9398 21.7233 16.2877 20.8929 16.7385 20.1301L15.0166 19.1126C14.4717 20.0349 14.0506 21.0396 13.7767 22.1037L15.7136 22.6022ZM13.3538 18.5119L15.1704 20.3285L16.5846 18.9142L14.768 17.0977L13.3538 18.5119ZM13.3538 14.2692C12.1823 15.4408 12.1823 17.3403 13.3538 18.5119L14.768 17.0977C14.3775 16.7071 14.3775 16.074 14.768 15.6834L13.3538 14.2692ZM14.2689 13.3542L13.3538 14.2692L14.768 15.6834L15.6831 14.7684L14.2689 13.3542ZM18.5116 13.3542C17.34 12.1826 15.4405 12.1826 14.2689 13.3542L15.6831 14.7684C16.0737 14.3778 16.7068 14.3778 17.0973 14.7684L18.5116 13.3542ZM20.3281 15.1707L18.5116 13.3542L17.0973 14.7684L18.9139 16.5849L20.3281 15.1707ZM20.1297 16.7387C20.8928 16.2878 21.7233 15.9398 22.6024 15.7136L22.104 13.7767C21.0396 14.0506 20.0347 14.4718 19.1122 15.0169L20.1297 16.7387ZM21.3532 12V14.7452H23.3532V12H21.3532Z" fill="white"/>
<path d="M29.794 25.0001C29.794 27.6478 27.6476 29.7942 24.9999 29.7942C22.3522 29.7942 20.2058 27.6478 20.2058 25.0001C20.2058 22.3523 22.3522 20.2059 24.9999 20.2059C27.6476 20.2059 29.794 22.3523 29.794 25.0001Z" fill="black" stroke="black"/>
</svg>
