<svg width="258" height="50" viewBox="0 0 258 50" fill="none" xmlns="http://www.w3.org/2000/svg">
<rect width="258" height="50" rx="25" fill="black"/>
<path d="M104.599 30.192C103.82 30.192 103.111 30.0907 102.471 29.888C101.831 29.6747 101.292 29.3973 100.855 29.056L101.623 27.776C102.007 28.096 102.439 28.3573 102.919 28.56C103.399 28.7627 103.959 28.864 104.599 28.864C105.367 28.864 105.975 28.704 106.423 28.384C106.871 28.064 107.095 27.632 107.095 27.088C107.095 26.7787 107.031 26.5067 106.903 26.272C106.775 26.0267 106.524 25.792 106.151 25.568C105.788 25.3333 105.25 25.0827 104.535 24.816C103.767 24.5173 103.154 24.2187 102.695 23.92C102.236 23.6107 101.906 23.264 101.703 22.88C101.511 22.4853 101.415 22.0213 101.415 21.488C101.415 20.9547 101.559 20.4747 101.847 20.048C102.146 19.6107 102.578 19.264 103.143 19.008C103.719 18.7413 104.412 18.608 105.223 18.608C105.884 18.608 106.476 18.6773 106.999 18.816C107.532 18.944 108.05 19.1307 108.551 19.376L107.991 20.672C107.628 20.4587 107.202 20.2827 106.711 20.144C106.231 19.9947 105.724 19.92 105.191 19.92C104.487 19.92 103.932 20.0587 103.527 20.336C103.122 20.6133 102.919 20.9707 102.919 21.408C102.919 21.6853 102.978 21.9307 103.095 22.144C103.212 22.3573 103.442 22.5653 103.783 22.768C104.135 22.9707 104.658 23.2 105.351 23.456C106.183 23.7653 106.839 24.0907 107.319 24.432C107.81 24.7733 108.156 25.1467 108.359 25.552C108.562 25.9467 108.663 26.4 108.663 26.912C108.663 27.6053 108.487 28.1973 108.135 28.688C107.794 29.1787 107.314 29.552 106.695 29.808C106.087 30.064 105.388 30.192 104.599 30.192ZM110.749 30V21.68H112.189V30H110.749ZM111.469 20.256C111.191 20.256 110.951 20.1547 110.749 19.952C110.557 19.7493 110.461 19.5147 110.461 19.248C110.461 18.9387 110.551 18.6933 110.733 18.512C110.914 18.3307 111.159 18.24 111.469 18.24C111.746 18.24 111.981 18.3413 112.173 18.544C112.375 18.736 112.477 18.9707 112.477 19.248C112.477 19.5467 112.386 19.792 112.205 19.984C112.023 20.1653 111.778 20.256 111.469 20.256ZM117.805 33.712C117.314 33.712 116.834 33.6533 116.365 33.536C115.906 33.4187 115.495 33.2427 115.133 33.008L115.661 31.76C115.917 31.9627 116.215 32.128 116.557 32.256C116.898 32.3947 117.314 32.464 117.805 32.464C118.562 32.464 119.154 32.2613 119.581 31.856C120.018 31.4613 120.237 30.8267 120.237 29.952V28.928C120.023 29.184 119.714 29.4293 119.309 29.664C118.914 29.888 118.439 30 117.885 30C117.255 30 116.658 29.84 116.093 29.52C115.527 29.1893 115.069 28.7093 114.717 28.08C114.365 27.4507 114.189 26.6933 114.189 25.808C114.189 24.976 114.359 24.2347 114.701 23.584C115.053 22.9333 115.522 22.4213 116.109 22.048C116.695 21.6747 117.341 21.488 118.045 21.488C118.514 21.488 118.941 21.568 119.325 21.728C119.709 21.888 120.039 22.0853 120.317 22.32V21.68H121.629V29.808C121.629 30.7253 121.469 31.472 121.149 32.048C120.829 32.624 120.381 33.0453 119.805 33.312C119.239 33.5787 118.573 33.712 117.805 33.712ZM118.205 28.72C118.631 28.72 119.015 28.624 119.357 28.432C119.698 28.24 119.975 28.016 120.189 27.76V23.408C119.954 23.2373 119.671 23.0827 119.341 22.944C119.01 22.8053 118.626 22.736 118.189 22.736C117.751 22.736 117.341 22.8533 116.957 23.088C116.573 23.3227 116.258 23.664 116.013 24.112C115.778 24.5493 115.661 25.088 115.661 25.728C115.661 26.336 115.778 26.864 116.013 27.312C116.258 27.76 116.573 28.1067 116.957 28.352C117.341 28.5973 117.757 28.72 118.205 28.72ZM124.108 30V21.68H125.5V23.072C125.799 22.624 126.177 22.2507 126.636 21.952C127.105 21.6427 127.66 21.488 128.3 21.488C129.239 21.488 129.937 21.7707 130.396 22.336C130.865 22.9013 131.1 23.648 131.1 24.576V30H129.66V24.736C129.66 24.1387 129.516 23.6587 129.228 23.296C128.951 22.9333 128.561 22.752 128.06 22.752C127.569 22.752 127.105 22.928 126.668 23.28C126.231 23.6213 125.857 24.0267 125.548 24.496V30H124.108ZM142.438 30.192C141.147 30.192 140.134 29.808 139.398 29.04C138.662 28.272 138.294 27.1733 138.294 25.744V18.8H139.814V25.504C139.814 26.5707 140.032 27.3973 140.47 27.984C140.907 28.5707 141.563 28.864 142.438 28.864C143.344 28.864 144.022 28.5813 144.47 28.016C144.918 27.44 145.142 26.6027 145.142 25.504V18.8H146.614V25.68C146.614 26.6187 146.438 27.4293 146.086 28.112C145.744 28.784 145.259 29.3013 144.63 29.664C144.011 30.016 143.28 30.192 142.438 30.192ZM149.397 33.52V23.808C149.397 23.4453 149.306 23.1893 149.125 23.04C148.954 22.88 148.73 22.8 148.453 22.8L148.757 21.68C149.738 21.68 150.351 22.0693 150.597 22.848C150.703 22.688 150.874 22.5013 151.109 22.288C151.354 22.0747 151.653 21.888 152.005 21.728C152.367 21.568 152.778 21.488 153.237 21.488C153.877 21.488 154.474 21.6587 155.029 22C155.594 22.3307 156.047 22.816 156.389 23.456C156.73 24.0853 156.901 24.8533 156.901 25.76C156.901 26.6453 156.73 27.424 156.389 28.096C156.047 28.7573 155.599 29.2747 155.045 29.648C154.501 30.0107 153.909 30.192 153.269 30.192C152.778 30.192 152.319 30.096 151.893 29.904C151.466 29.7013 151.114 29.472 150.837 29.216V33.52H149.397ZM152.981 28.912C153.706 28.912 154.293 28.6293 154.741 28.064C155.199 27.488 155.429 26.736 155.429 25.808C155.429 25.168 155.311 24.6187 155.077 24.16C154.853 23.7013 154.549 23.3493 154.165 23.104C153.791 22.8587 153.375 22.736 152.917 22.736C152.458 22.736 152.042 22.8533 151.669 23.088C151.306 23.312 151.029 23.5573 150.837 23.824V27.92C151.114 28.208 151.434 28.448 151.797 28.64C152.159 28.8213 152.554 28.912 152.981 28.912Z" fill="white"/>
</svg>
