<svg width="258" height="50" viewBox="0 0 258 50" fill="none" xmlns="http://www.w3.org/2000/svg">
<rect x="1" y="1" width="256" height="48" rx="24" fill="white" stroke="black" stroke-width="2"/>
<path d="M110.624 30L107.584 19.168L109.088 18.688L111.616 28.384L114 19.968H115.904L118.272 28.384L120.784 18.736L122.192 19.168L119.168 30H117.28L114.912 21.584L112.512 30H110.624ZM123.718 30V18.16H125.158V23.008C125.456 22.5707 125.835 22.208 126.294 21.92C126.752 21.632 127.291 21.488 127.91 21.488C128.848 21.488 129.547 21.7707 130.006 22.336C130.475 22.9013 130.71 23.648 130.71 24.576V30H129.27V24.736C129.27 24.1387 129.131 23.6587 128.854 23.296C128.576 22.9333 128.187 22.752 127.686 22.752C127.195 22.752 126.726 22.928 126.278 23.28C125.84 23.6213 125.467 24.0267 125.158 24.496V30H123.718ZM133.186 30V21.68H134.626V30H133.186ZM133.906 20.256C133.629 20.256 133.389 20.1547 133.186 19.952C132.994 19.7493 132.898 19.5147 132.898 19.248C132.898 18.9387 132.989 18.6933 133.17 18.512C133.352 18.3307 133.597 18.24 133.906 18.24C134.184 18.24 134.418 18.3413 134.61 18.544C134.813 18.736 134.914 18.9707 134.914 19.248C134.914 19.5467 134.824 19.792 134.642 19.984C134.461 20.1653 134.216 20.256 133.906 20.256ZM140.098 30.192C139.298 30.192 138.664 29.9307 138.194 29.408C137.736 28.8747 137.506 28.1173 137.506 27.136V23.232H136.066V21.984H137.538L137.842 19.36H138.946V21.984H141.25V23.232H138.946V27.248C138.946 27.8667 139.074 28.2987 139.33 28.544C139.597 28.7893 139.912 28.912 140.274 28.912C140.541 28.912 140.792 28.8693 141.026 28.784C141.272 28.6987 141.496 28.5973 141.698 28.48L142.098 29.632C141.885 29.76 141.597 29.8827 141.234 30C140.872 30.128 140.493 30.192 140.098 30.192ZM146.561 30.192C145.366 30.192 144.417 29.8133 143.713 29.056C143.02 28.288 142.673 27.216 142.673 25.84C142.673 25.008 142.828 24.2667 143.137 23.616C143.457 22.9547 143.9 22.4373 144.465 22.064C145.03 21.68 145.686 21.488 146.433 21.488C147.233 21.488 147.894 21.664 148.417 22.016C148.95 22.3573 149.35 22.8213 149.617 23.408C149.884 23.9947 150.017 24.64 150.017 25.344C150.017 25.7173 150.001 26.08 149.969 26.432H144.145C144.241 27.2107 144.513 27.8187 144.961 28.256C145.409 28.6933 146.001 28.912 146.737 28.912C147.217 28.912 147.649 28.864 148.033 28.768C148.417 28.6613 148.785 28.528 149.137 28.368L149.473 29.6C149.089 29.7707 148.657 29.9093 148.177 30.016C147.697 30.1333 147.158 30.192 146.561 30.192ZM144.129 25.264H148.689C148.689 24.4533 148.486 23.8293 148.081 23.392C147.676 22.9547 147.116 22.736 146.401 22.736C145.782 22.736 145.27 22.9547 144.865 23.392C144.46 23.8187 144.214 24.4427 144.129 25.264Z" fill="black"/>
</svg>
